<svg width="51" height="61" viewBox="0 0 51 61" fill="none" xmlns="http://www.w3.org/2000/svg">
<g clip-path="url(#clip0_136_1031)">
<path d="M26.2947 0.000211898C27.4168 0.297327 28.3248 0.942661 29.1633 1.71397C29.8488 2.34504 30.606 2.41041 31.4781 2.05506C34.1015 0.984257 36.6543 2.05506 37.7549 4.64709C38.1999 5.69531 38.81 6.08988 39.9703 6.078C42.7217 6.05185 44.808 8.04014 44.8211 10.7629C44.8271 11.9597 45.326 12.7132 46.4504 13.1684C48.8609 14.1441 49.9615 16.7456 48.9817 19.1463C48.5116 20.2991 48.691 21.2035 49.599 22.083C51.4544 23.8799 51.4699 26.762 49.6241 28.566C48.6838 29.4859 48.5247 30.4177 49.008 31.6133C49.9411 33.9201 48.8501 36.5133 46.5294 37.4735C45.3427 37.9656 44.8415 38.7274 44.8223 40.0085C44.7912 42.187 43.5806 43.5989 41.5255 44.4058C41.6271 44.5984 41.7169 44.7838 41.8197 44.962C43.3378 47.579 44.8618 50.1924 46.3739 52.813C46.6095 53.2218 46.8273 53.6497 46.99 54.0918C47.295 54.919 46.8033 55.6855 45.9229 55.6368C44.497 55.5583 43.0782 55.3658 41.6558 55.2161C41.2228 55.1709 40.7921 55.1091 40.3196 55.0509C39.7861 56.3071 39.2574 57.5573 38.7238 58.8052C38.5611 59.1867 38.3697 59.5551 38.2118 59.939C37.7991 60.9385 36.4689 61.0716 35.909 60.0876C34.9114 58.3358 33.8479 56.6208 32.8311 54.8797C31.6647 52.8831 30.5175 50.8758 29.3009 48.7663C28.2315 49.8834 27.0101 50.6453 25.449 50.6369C23.9034 50.6286 22.6904 49.8894 21.6257 48.7449C21.268 49.3617 20.963 49.8882 20.658 50.4123C19.0071 53.2504 17.3587 56.0884 15.7043 58.9241C15.5057 59.2651 15.27 59.586 15.0655 59.9247C14.3501 61.1132 13.1299 61.0348 12.6036 59.7358C12.0629 58.4011 11.4803 57.082 10.9156 55.7568C10.8235 55.5393 10.7314 55.3218 10.6226 55.0651C9.26481 55.2339 7.91065 55.4086 6.5529 55.5667C6.06004 55.6237 5.5612 55.6796 5.06714 55.6677C4.06827 55.6439 3.53474 54.8381 3.98453 53.948C4.62573 52.6799 5.34348 51.4475 6.05286 50.2138C7.14743 48.3111 8.26235 46.4203 9.36769 44.5235C9.38683 44.4914 9.39161 44.4522 9.35812 44.5568C8.61285 43.9994 7.83887 43.5406 7.2216 42.9262C6.43925 42.1478 6.072 41.1257 6.11746 40.0109C6.1677 38.7654 5.63537 37.9798 4.46543 37.4997C2.05258 36.5097 0.960396 33.8998 1.96166 31.5146C2.43897 30.3784 2.24876 29.4895 1.37669 28.6255C-0.45956 26.8047 -0.464345 23.9394 1.3755 22.1317C2.28824 21.2344 2.47725 20.3336 1.97602 19.1463C0.974751 16.7741 2.10162 14.1512 4.5061 13.166C5.64972 12.6965 6.14497 11.924 6.12583 10.6964C6.08396 8.12096 8.16545 6.04234 10.7613 6.06492C11.9935 6.07562 12.7651 5.5836 13.2376 4.44386C14.2412 2.02178 16.8646 0.952168 19.3086 1.94929C20.3972 2.39377 21.3171 2.26185 22.1198 1.39784C22.8016 0.663373 23.7072 0.323473 24.6223 -0.000976562H26.2935L26.2947 0.000211898ZM11.0496 8.5904C9.46817 8.59278 8.6595 9.39142 8.6595 10.9542C8.6595 12.9913 7.55297 14.6016 5.60307 15.4038C4.2812 15.947 3.83141 17.0213 4.3781 18.3298C5.19754 20.2896 4.83148 22.1769 3.34214 23.6696C2.27867 24.7356 2.27269 25.8801 3.3242 26.9331C4.83148 28.4412 5.19036 30.2798 4.36255 32.2633C3.81825 33.5671 4.27163 34.6533 5.58393 35.1953C7.59005 36.0224 8.62601 37.5532 8.63079 39.6948C8.63438 41.1483 9.50167 42.004 10.9731 42.0028C13.0534 42.0016 14.6456 43.0498 15.4423 44.9442C16.044 46.3751 17.0979 46.7911 18.5669 46.2087C20.5 45.4422 22.2322 45.7916 23.7311 47.213C24.8867 48.3076 26.028 48.3171 27.1776 47.2344C28.68 45.8189 30.4158 45.4743 32.3466 46.2242C33.8228 46.797 34.8551 46.3858 35.4664 44.9442C36.2488 43.0997 37.8852 42.0158 39.8938 42.0123C41.4597 42.0099 42.2731 41.197 42.2731 39.6342C42.2731 37.6696 43.3605 36.0343 45.1788 35.263C46.7076 34.6153 47.1132 33.6526 46.4911 32.1457C45.7375 30.3214 46.1215 28.4115 47.5211 27.0127C48.6707 25.8647 48.6779 24.7725 47.5438 23.622C46.1167 22.1745 45.747 20.2967 46.5222 18.4356C47.1227 16.994 46.7076 15.985 45.2709 15.3931C43.3725 14.6111 42.3006 13.015 42.2946 10.9578C42.2899 9.43658 41.4716 8.62843 39.9356 8.62606C37.914 8.62368 36.2536 7.51603 35.4712 5.64896C34.8791 4.23707 33.8455 3.82349 32.3908 4.38563C30.4421 5.13911 28.686 4.81466 27.1668 3.37425C26.0315 2.29751 24.8999 2.29394 23.7658 3.36831C22.2454 4.80753 20.4917 5.13317 18.5418 4.37256C17.1134 3.81517 16.0691 4.23945 15.4674 5.65134C14.6731 7.51603 13.0617 8.58802 11.0472 8.5904H11.0496ZM32.4435 49.0646C33.8981 51.5639 35.348 54.0561 36.8397 56.6208C37.2895 55.5417 37.6747 54.5707 38.0994 53.6164C38.5874 52.5195 38.9451 52.3115 40.133 52.4291C41.1941 52.5337 42.2504 52.6823 43.4203 52.8249C41.8472 50.1116 40.3256 47.4875 38.6987 44.6816C38.3279 45.2603 37.9714 45.7024 37.7393 46.2016C37.0694 47.6432 35.9928 48.5952 34.4388 48.9362C33.8156 49.0729 33.1505 49.0242 32.4423 49.0634L32.4435 49.0646ZM12.2028 44.7208C10.5855 47.5065 9.06743 50.1211 7.49435 52.8332C8.63438 52.687 9.63326 52.5408 10.6369 52.4351C11.9851 52.2936 12.3308 52.5016 12.8775 53.7531C13.2782 54.6706 13.6491 55.5999 14.0773 56.628C15.5739 54.0549 17.0237 51.5604 18.4951 49.0301C18.348 49.0111 18.2906 48.9933 18.2331 48.9969C15.6038 49.1561 14.1324 48.2683 13.0522 45.9223C12.8715 45.5289 12.5485 45.2009 12.204 44.7208H12.2028Z" fill="#C30001"/>
<path d="M43.2934 25.2836C43.3651 35.0017 35.3789 42.9739 25.499 43.0487C15.7232 43.1224 7.64969 35.149 7.62457 25.3656C7.59945 15.5585 15.4792 7.85129 24.9703 7.59221C34.9602 7.32005 43.285 15.3041 43.2934 25.2836ZM25.4871 40.4721C33.9506 40.4401 40.7597 33.6468 40.7429 25.2515C40.7262 16.924 33.7951 10.082 25.4308 10.1355C16.9554 10.1902 10.1487 16.9846 10.175 25.3668C10.2013 33.7169 17.081 40.5042 25.4871 40.4721Z" fill="#C30001"/>
<path d="M17.8753 34.2753C18.1553 32.6638 18.3562 31.0332 18.7438 29.4466C19.013 28.3461 18.8407 27.5974 17.922 26.8581C16.7832 25.9418 15.7915 24.8449 14.7388 23.824C14.5964 23.6861 14.46 23.5411 14.3356 23.3878C13.6562 22.544 13.9373 21.5647 14.9995 21.3484C16.4363 21.0549 17.8969 20.8778 19.3467 20.6556C19.8169 20.5831 20.2906 20.4666 20.7619 20.4713C21.3481 20.4773 21.5718 20.1576 21.7919 19.6917C22.5108 18.1764 23.2693 16.679 24.0229 15.1791C24.1641 14.8975 24.3256 14.6206 24.517 14.371C25.0182 13.7173 25.9142 13.7043 26.3939 14.3722C26.7253 14.8357 26.9896 15.3503 27.2468 15.8613C27.9215 17.2019 28.5878 18.546 29.2314 19.9009C29.3929 20.2408 29.5819 20.387 29.9755 20.4381C31.8644 20.6841 33.7461 20.98 35.6314 21.2569C36.1972 21.3401 36.6793 21.5612 36.8683 22.1352C37.0597 22.7187 36.8599 23.2024 36.4137 23.6267C35.0919 24.8841 33.8071 26.1795 32.4661 27.4155C32.0438 27.8041 31.9589 28.1738 32.0582 28.7062C32.3979 30.5281 32.6922 32.3583 33.014 34.1838C33.1097 34.7234 32.9625 35.1678 32.5283 35.4935C32.0905 35.8215 31.606 35.8322 31.1251 35.5826C29.3833 34.6794 27.6392 33.7785 25.907 32.8563C25.5924 32.6887 25.3555 32.6792 25.0361 32.8503C23.3602 33.75 21.6818 34.6473 19.976 35.4899C19.6039 35.6741 19.0752 35.7704 18.6924 35.6587C18.0835 35.4816 17.8251 34.9432 17.8765 34.2765L17.8753 34.2753ZM30.0042 32.079C29.9922 31.8592 29.9982 31.7415 29.9779 31.6274C29.7709 30.4425 29.5807 29.2553 29.3427 28.0763C29.1955 27.3478 29.3666 26.7892 29.9348 26.2805C30.8057 25.5021 31.6227 24.6619 32.4589 23.8442C32.5761 23.7301 32.6742 23.5958 32.8202 23.4259C31.8309 23.2797 30.9289 23.1549 30.0305 23.0111C27.6129 22.6236 27.9694 23.1299 26.7647 20.7197C26.346 19.8807 25.9309 19.0404 25.4584 18.0873C24.9177 19.1854 24.3854 20.1493 23.9619 21.1583C23.4978 22.2624 22.8302 22.9897 21.5311 22.9231C21.317 22.9124 21.0993 22.9814 20.8839 23.0135C19.976 23.1501 19.068 23.2856 18.0787 23.4342C18.2558 23.6231 18.3574 23.7408 18.4687 23.8489C19.3491 24.707 20.2164 25.5782 21.1184 26.4113C21.5598 26.8189 21.707 27.2824 21.6136 27.8469C21.5203 28.4114 21.4211 28.9736 21.3242 29.5369C21.183 30.3534 21.043 31.1687 20.8815 32.0992C22.1209 31.4539 23.2525 30.9227 24.3244 30.2904C25.1199 29.821 25.8125 29.8305 26.6032 30.2868C27.6811 30.9096 28.8055 31.4515 30.0054 32.0767L30.0042 32.079Z" fill="#C30001"/>
</g>
<defs>
<clipPath id="clip0_136_1031">
<rect width="51" height="60.766" fill="white"/>
</clipPath>
</defs>
</svg>
