<svg width="56" height="56" viewBox="0 0 56 56" fill="none" xmlns="http://www.w3.org/2000/svg">
<path d="M27.2356 56C25.1427 55.5651 23.8278 53.9682 22.3584 52.6451C21.4358 51.8149 20.58 51.3538 19.2717 51.574C17.6807 51.8412 16.047 51.8795 14.4286 51.9507C11.893 52.0625 9.91959 50.551 9.31693 48.0899C8.93671 46.5368 8.56087 44.9837 8.20695 43.4252C8.1149 43.021 7.91767 42.7691 7.56155 42.561C5.89493 41.5906 4.23817 40.6016 2.5858 39.606C0.195989 38.1668 -0.599519 35.7473 0.460062 33.1636C1.0945 31.6171 1.72893 30.0706 2.38637 28.5328C2.54854 28.1538 2.55402 27.8318 2.39076 27.4485C1.71359 25.8614 1.05395 24.2656 0.409658 22.6643C-0.580891 20.2011 0.254063 17.7575 2.53101 16.4005C4.0782 15.4783 5.63524 14.5714 7.16928 13.6273C7.40377 13.4827 7.61853 13.2034 7.7051 12.9416C8.29132 11.1651 8.84905 9.37983 9.40021 7.59126C10.1486 5.16305 12.27 3.77753 14.7825 4.02506C16.757 4.22002 18.7381 4.35145 20.7192 4.48398C20.9197 4.49712 21.1717 4.37445 21.3328 4.23645C22.4527 3.2759 23.5528 2.29125 24.6628 1.31975C26.6669 -0.433775 29.3131 -0.440347 31.3183 1.30661C32.4447 2.28797 33.5558 3.28685 34.6899 4.25945C34.8488 4.39526 35.1085 4.49712 35.3123 4.48289C37.346 4.33941 39.3808 4.19154 41.4112 3.99987C43.8492 3.76987 46.0659 5.38101 46.6817 7.88917C47.0586 9.42364 47.4323 10.9592 47.7818 12.5013C47.8727 12.9011 48.0448 13.1662 48.4086 13.3776C50.0752 14.348 51.7188 15.3567 53.381 16.3348C54.7233 17.1245 55.612 18.234 55.9133 19.7827C55.9231 19.832 55.9692 19.8736 55.9988 19.9185V21.4497C55.8201 21.9601 55.6624 22.4771 55.4607 22.9776C54.8373 24.523 54.1875 26.0586 53.5739 27.6084C53.4906 27.8176 53.4742 28.1122 53.5542 28.3181C54.354 30.3718 55.1802 32.4155 55.9999 34.4615V36.1011C55.9681 36.1427 55.9166 36.18 55.9067 36.2271C55.5966 37.7736 54.6937 38.8689 53.3536 39.6553C51.6761 40.6399 50.0204 41.6618 48.3395 42.641C48.0218 42.8261 47.8782 43.0593 47.8004 43.3901C47.4355 44.9454 47.063 46.4985 46.6893 48.0505C46.0933 50.5236 44.145 52.0482 41.6128 51.9496C39.9955 51.8861 38.3639 51.8401 36.7729 51.5784C35.4328 51.3582 34.542 51.8193 33.5952 52.6846C32.15 54.0044 30.8406 55.5761 28.7663 56.001H27.2356V56ZM14.9447 7.34373C13.2528 7.27363 12.8737 7.54854 12.4497 8.9023C11.847 10.8267 11.2202 12.7445 10.6384 14.6744C10.4466 15.3096 10.0949 15.7554 9.52841 16.0862C7.81577 17.0861 6.11627 18.1091 4.40911 19.1201C3.26844 19.7947 3.05478 20.43 3.56429 21.6687C4.29077 23.4332 5.003 25.2043 5.75687 26.9578C6.0582 27.6588 6.06697 28.3006 5.76344 29.0038C5.00081 30.7726 4.27872 32.559 3.54457 34.341C3.05697 35.5228 3.28817 36.1898 4.39706 36.8492C6.30474 37.985 8.20804 39.1273 10.1223 40.2533C10.6932 40.5884 11.0252 41.0462 11.1753 41.6979C11.5774 43.4515 12.0234 45.194 12.4464 46.9421C12.8058 48.4262 13.369 48.781 14.9096 48.6354C17.0123 48.436 19.1216 48.3046 21.2265 48.1315C21.8719 48.079 22.3858 48.2969 22.8614 48.7252C24.1357 49.8697 25.4276 50.9946 26.7206 52.1183C27.6377 52.9157 28.373 52.9124 29.2846 52.1183C30.548 51.0165 31.8212 49.9245 33.0572 48.7931C33.6084 48.2882 34.199 48.0691 34.9408 48.1348C37.0446 48.321 39.1528 48.4656 41.2567 48.654C42.6022 48.7745 43.2246 48.3517 43.5369 47.0461C43.9599 45.2795 44.4124 43.5194 44.8091 41.7472C44.9657 41.0495 45.3394 40.5884 45.941 40.2346C47.8399 39.1186 49.7245 37.9795 51.6136 36.8459C52.7203 36.1822 52.9427 35.514 52.4562 34.3322C51.7287 32.5678 51.0219 30.7945 50.2604 29.0454C49.9371 28.3028 49.9514 27.638 50.2713 26.8998C51.0241 25.1659 51.721 23.4091 52.4398 21.6611C52.9471 20.4256 52.7444 19.8024 51.5917 19.1091C49.7037 17.9744 47.8158 16.8397 45.919 15.7214C45.3361 15.3775 44.9723 14.9285 44.8178 14.2494C44.385 12.3546 43.9149 10.4674 43.4383 8.58357C43.2137 7.69531 42.6285 7.25282 41.7234 7.31416C39.4344 7.4664 37.1454 7.63397 34.8586 7.83331C34.1957 7.89136 33.6468 7.75883 33.1504 7.31416C31.9144 6.20793 30.6641 5.11924 29.4238 4.01849C28.3477 3.06451 27.6607 3.06232 26.5716 4.02397C25.3147 5.13348 24.0546 6.2397 22.8011 7.35249C22.3508 7.75226 21.8445 7.89574 21.2419 7.84427C19.046 7.65588 16.849 7.49159 14.9457 7.34154L14.9447 7.34373Z" fill="#C30001"/>
<path d="M9.95801 27.9949C9.96239 18.0433 18.0424 9.9701 27.9983 9.97119C37.9772 9.97119 46.0539 18.063 46.0429 28.0486C46.032 37.9893 37.9355 46.0526 27.9731 46.0472C18.0259 46.0417 9.95363 37.9531 9.95801 27.996V27.9949ZM28.0147 42.7657C36.1177 42.7537 42.7502 36.1218 42.7612 28.0201C42.7721 19.9053 36.1057 13.2428 27.9829 13.2515C19.8821 13.2603 13.2463 19.8954 13.2365 27.996C13.2266 36.1098 19.8986 42.7778 28.0147 42.7657Z" fill="#C30001"/>
<path d="M26.3644 30.5656C26.5277 30.4111 26.6734 30.2786 26.8126 30.1406C29.518 27.4375 32.2179 24.73 34.9276 22.0312C35.9171 21.0455 37.369 21.3511 37.7656 22.6216C37.9859 23.3269 37.7305 23.8987 37.2309 24.397C35.5807 26.0432 33.9338 27.6927 32.2847 29.34C30.7649 30.8591 29.2473 32.3793 27.7253 33.8963C26.7994 34.8196 25.9119 34.8141 24.9783 33.882C22.8909 31.7977 20.8003 29.7167 18.7216 27.6226C17.7464 26.6401 18.0795 25.1571 19.3495 24.7924C20.0278 24.5974 20.5943 24.8274 21.0819 25.3159C22.7145 26.9534 24.3527 28.5864 25.9897 30.2206C26.1026 30.3334 26.2253 30.4374 26.3644 30.5656Z" fill="#C30001"/>
</svg>
