<svg width="56" height="56" viewBox="0 0 56 56" fill="none" xmlns="http://www.w3.org/2000/svg">
<g clip-path="url(#clip0_136_1040)">
<path d="M26.0211 0C27.3334 0 28.6447 0 29.957 0C30.0775 0.0339586 30.1958 0.0887307 30.3185 0.0985896C34.5787 0.432699 38.5398 1.70998 42.2128 3.88443C42.5053 4.05751 42.6718 4.0356 42.9029 3.7957C43.6883 2.98398 44.4891 2.1865 45.2986 1.39997C45.7971 0.915788 46.3985 0.754758 47.0568 1.02314C47.7009 1.28605 48.0592 1.78009 48.1063 2.48774C48.1336 2.88758 48.1753 3.28523 48.2103 3.68506C48.321 4.93058 48.4316 6.175 48.5433 7.43366C50.1953 7.57935 51.7891 7.7349 53.3841 7.8554C54.1312 7.91236 54.6767 8.23223 54.955 8.92455C55.2485 9.65521 54.9999 10.273 54.4642 10.8043C53.7149 11.5492 52.9832 12.3127 52.2153 13.0379C51.9326 13.3041 51.9326 13.4882 52.1221 13.8168C55.8609 20.304 56.9081 27.2118 55.2113 34.4987C52.1046 47.8423 39.1631 57.7626 24.1052 55.7196C18.7068 54.9867 13.911 52.8221 9.78776 49.2543C4.76516 44.9109 1.6103 39.472 0.433794 32.918C0.257428 31.9365 0.143503 30.944 0 29.957C0 28.6447 0 27.3334 0 26.0211C0.0361495 25.8633 0.092017 25.7067 0.104067 25.5468C0.315487 22.7895 0.903738 20.1079 1.99589 17.5731C6.0293 8.20485 13.0292 2.44174 23.0623 0.435985C24.0383 0.240997 25.0341 0.142407 26.0211 0ZM43.7957 17.9017C49.882 27.8373 45.5035 38.7096 38.5792 43.4243C31.4545 48.275 21.5134 47.6254 15.2956 41.7089C8.69232 35.4265 7.35369 25.6552 12.0761 18.1701C14.508 14.3152 17.8688 11.5985 22.2111 10.2106C27.7387 8.44475 33.01 9.1765 38.0676 12.2054C38.0085 11.4287 37.9997 10.7408 37.8935 10.0693C37.7664 9.27181 37.991 8.64522 38.5737 8.10735C39.1193 7.60455 39.6418 7.07873 40.1917 6.54635C30.6088 0.950842 16.9322 2.35848 8.74928 12.5121C0.689032 22.5146 1.6574 36.9711 10.9018 45.8245C20.1824 54.7129 34.8788 55.0503 44.5242 46.3316C54.014 37.7533 54.6274 24.5181 49.4131 15.7897C48.8435 16.3812 48.2881 16.9563 47.7349 17.5325C47.2715 18.0145 46.715 18.1832 46.049 18.1C45.3293 18.009 44.603 17.9696 43.7968 17.9017H43.7957ZM37.5747 15.9858C31.9288 11.2425 22.5529 11.1713 16.6573 17.572C10.7287 24.0099 11.3236 33.8305 17.9652 39.6725C24.344 45.2844 34.2544 44.4814 39.8006 37.8573C45.2001 31.4085 43.9129 22.8104 39.966 18.4308C38.4324 19.9578 36.8977 21.486 35.3597 23.0163C38.267 27.5777 36.5987 32.6682 33.2357 35.1319C29.7204 37.7072 24.8446 37.3534 21.7434 34.2676C18.6532 31.1916 18.2555 26.3694 20.7816 22.8246C23.2124 19.4134 28.3423 17.6749 32.9607 20.614C34.4921 19.0771 36.0225 17.5424 37.5747 15.9847V15.9858ZM30.5398 23.1127C28.488 21.7675 25.2839 22.4521 23.6265 24.5379C21.8496 26.7726 22.0644 29.9932 24.1227 31.9803C26.1865 33.9729 29.4224 34.0704 31.5783 32.2377C33.7417 30.3974 34.0496 27.2765 32.872 25.4668C32.7394 25.5906 32.6058 25.7089 32.4798 25.8338C31.3964 26.9139 30.3152 27.9962 29.2329 29.0785C28.7586 29.5528 28.1966 29.7554 27.5416 29.5659C26.2939 29.2044 25.9356 27.7344 26.8755 26.7747C28.0728 25.5522 29.2943 24.3549 30.5398 23.1138V23.1127ZM45.1201 6.35246C45.05 6.36232 45.0029 6.35465 44.9832 6.37437C43.7826 7.5684 42.5798 8.76023 41.3934 9.96741C41.286 10.0759 41.228 10.2906 41.24 10.4494C41.3288 11.6653 41.4306 12.8791 41.5588 14.0917C41.572 14.2177 41.7812 14.4083 41.9148 14.4215C43.1264 14.5474 44.3412 14.6482 45.5572 14.7348C45.7127 14.7457 45.9198 14.6723 46.0304 14.5639C47.2244 13.3896 48.4042 12.201 49.5851 11.0125C49.6158 10.9818 49.6125 10.9183 49.6278 10.8547C48.7252 10.7715 47.8401 10.6937 46.956 10.6082C45.9953 10.5162 45.4597 9.97179 45.3655 8.99247C45.2811 8.11392 45.2022 7.23429 45.1201 6.35136V6.35246Z" fill="#C30001"/>
</g>
<defs>
<clipPath id="clip0_136_1040">
<rect width="56" height="55.988" fill="white"/>
</clipPath>
</defs>
</svg>
