<svg width="16" height="8" viewBox="0 0 16 8" fill="none" xmlns="http://www.w3.org/2000/svg">
<g clip-path="url(#clip0_133_2423)">
<path d="M11.937 7.38445C11.6858 7.28199 11.5797 7.16168 11.6323 6.98526C11.6617 6.88654 11.7406 6.7907 11.8217 6.71558C12.547 6.04326 13.2775 5.37583 14.0069 4.70725C14.2426 4.49139 14.4797 4.27668 14.7546 4.02629H14.5239C9.936 4.02629 5.34847 4.02629 0.760624 4.02629C0.641004 4.02629 0.52107 4.02974 0.40145 4.02542C0.16127 4.01621 -0.000624474 3.8772 1.81067e-06 3.68667C0.000628095 3.50248 0.155007 3.36663 0.387672 3.34878C0.43934 3.34476 0.491635 3.34735 0.54393 3.34735C5.19941 3.34735 9.8549 3.34735 14.5101 3.34735H14.7387C14.672 3.2823 14.6319 3.24086 14.5893 3.202C13.6546 2.34347 12.7198 1.48522 11.7851 0.626395C11.6004 0.456875 11.5703 0.282175 11.6962 0.131363C11.8183 -0.0148443 12.0328 -0.0436252 12.1934 0.0671814C12.2432 0.101431 12.289 0.141148 12.3331 0.181442C13.4936 1.2449 14.6541 2.30835 15.8124 3.37382C15.8848 3.44031 15.938 3.52406 16 3.59975V3.77186C15.9264 3.85763 15.8616 3.95117 15.7783 4.02802C14.6422 5.07392 13.5046 6.11809 12.3635 7.15938C12.2667 7.24745 12.1424 7.30991 12.0309 7.38416H11.9373L11.937 7.38445Z" fill="white"/>
</g>
<defs>
<clipPath id="clip0_133_2423">
<rect width="16" height="7.38461" fill="white"/>
</clipPath>
</defs>
</svg>
