<svg width="17" height="9" viewBox="0 0 17 9" fill="none" xmlns="http://www.w3.org/2000/svg">
<g clip-path="url(#clip0_133_1861)">
<path d="M12.683 8.74985C12.4162 8.63191 12.3034 8.49343 12.3593 8.29036C12.3906 8.17673 12.4744 8.06641 12.5606 7.97995C13.3312 7.20608 14.1074 6.43784 14.8823 5.66827C15.1328 5.41981 15.3847 5.17268 15.6768 4.88446H15.4316C10.557 4.88446 5.68275 4.88446 0.808163 4.88446C0.681067 4.88446 0.553637 4.88844 0.426541 4.88347C0.171349 4.87287 -0.000663503 4.71286 1.92384e-06 4.49355C0.000667351 4.28153 0.164695 4.12517 0.411901 4.10463C0.466799 4.09999 0.522362 4.10297 0.577926 4.10297C5.52438 4.10297 10.4708 4.10297 15.417 4.10297H15.6598C15.589 4.0281 15.5464 3.9804 15.5011 3.93567C14.508 2.94746 13.5148 1.95959 12.5217 0.971044C12.3254 0.775919 12.2934 0.574832 12.4272 0.401241C12.5569 0.23295 12.7849 0.199822 12.9555 0.327365C13.0084 0.366788 13.057 0.412505 13.1039 0.458884C14.337 1.68297 15.57 2.90705 16.8007 4.13345C16.8776 4.20998 16.9341 4.30638 17 4.3935V4.59161C16.9218 4.69033 16.8529 4.798 16.7644 4.88645C15.5574 6.09032 14.3486 7.29221 13.1362 8.49078C13.0334 8.59216 12.9013 8.66404 12.7829 8.74951H12.6834L12.683 8.74985Z" fill="#C30001"/>
</g>
<defs>
<clipPath id="clip0_133_1861">
<rect width="17" height="8.5" fill="white" transform="translate(0 0.25)"/>
</clipPath>
</defs>
</svg>
