<svg width="11" height="6" viewBox="0 0 11 6" fill="none" xmlns="http://www.w3.org/2000/svg">
<path d="M5.156 4.70617C5.21847 4.63198 5.25362 4.58512 5.29657 4.54217C6.68278 3.15596 8.06898 1.76585 9.45909 0.383552C9.545 0.297647 9.66214 0.227361 9.77929 0.196122C9.95891 0.14536 10.1541 0.254694 10.2479 0.418695C10.3416 0.582697 10.3299 0.789652 10.2088 0.941939C10.1737 0.988797 10.1307 1.02785 10.0878 1.0708C8.58051 2.57805 7.07326 4.08531 5.566 5.59647C5.27314 5.88933 5.03885 5.88933 4.7499 5.60037C3.22702 4.0775 1.70805 2.55462 0.185181 1.03566C0.0407028 0.891177 -0.041298 0.73108 0.0211789 0.524126C0.114894 0.207836 0.489755 0.0867873 0.751377 0.285932C0.798235 0.321076 0.837283 0.364029 0.880236 0.406981C2.26254 1.78928 3.64874 3.17549 5.03104 4.55779C5.07009 4.59293 5.10133 4.63979 5.156 4.70617Z" fill="#616161"/>
</svg>
