<svg width="21" height="20" viewBox="0 0 21 20" fill="none" xmlns="http://www.w3.org/2000/svg">
<g clip-path="url(#clip0_314_2366)">
<path d="M3.08206 20.0002C2.51786 19.7767 2.39448 19.5633 2.47979 18.9516C2.60043 18.0853 2.71648 17.2185 2.84813 16.354C2.88253 16.1297 2.82336 15.9804 2.66281 15.8178C1.3514 14.4886 0.478504 12.9194 0.150078 11.0732C-0.27605 8.67893 0.212002 6.46643 1.60414 4.48058C3.30957 2.04646 5.69479 0.660892 8.60613 0.171412C11.1624 -0.258543 13.6073 0.116924 15.8865 1.36283C18.2392 2.64903 19.9354 4.5282 20.6469 7.14044C21.5702 10.5297 20.6643 13.4863 18.1984 15.9373C16.0618 18.061 13.4105 18.9988 10.4138 19.0033C9.17629 19.0052 7.97359 18.7936 6.79933 18.4058C6.69979 18.3728 6.5576 18.3893 6.46173 18.4365C5.52415 18.8935 4.593 19.3628 3.65864 19.8262C3.53021 19.8898 3.39627 19.942 3.26508 19.9997H3.08206V20.0002ZM4.09532 17.9676C4.19073 17.9241 4.24577 17.9012 4.29898 17.8747C4.91226 17.5692 5.5292 17.2712 6.13697 16.9548C6.41448 16.8105 6.6764 16.7922 6.96859 16.9035C8.44008 17.4653 9.96387 17.6549 11.5285 17.49C13.8165 17.2492 15.8136 16.3664 17.397 14.6818C19.2167 12.7463 19.9185 10.4546 19.324 7.84329C18.8456 5.74205 17.5897 4.15914 15.7957 3.00481C13.6642 1.63344 11.3202 1.20074 8.83364 1.61055C6.52319 1.99151 4.55585 3.03824 3.10637 4.90183C1.4014 7.09373 1.00555 9.52785 1.97293 12.1479C2.40548 13.3191 3.1316 14.3009 4.05679 15.1347C4.31595 15.3686 4.43108 15.6287 4.37375 15.984C4.26962 16.6283 4.19119 17.2762 4.09578 17.9676H4.09532Z" fill="#C30001"/>
<path d="M12.0508 11.8738C11.9494 11.8349 11.7568 11.784 11.588 11.6906C10.9619 11.3449 10.3431 10.985 9.72156 10.6311C9.21791 10.344 8.86793 10.3678 8.41566 10.719C7.65789 11.3074 6.89967 11.8958 6.14144 12.4837C6.08732 12.5258 6.03457 12.594 5.97585 12.6004C5.85797 12.6128 5.69743 12.6339 5.62679 12.5707C5.55707 12.5084 5.56532 12.3468 5.56349 12.2282C5.56257 12.1769 5.62128 12.1242 5.65431 12.0734C6.5772 10.6407 7.49918 9.20797 8.423 7.7757C8.82481 7.15252 9.36103 7.04491 9.97843 7.45747C10.4532 7.77478 10.9321 8.08615 11.4045 8.40667C11.7765 8.6585 12.1504 8.67453 12.5425 8.45566C13.4397 7.95519 14.3402 7.46022 15.2378 6.9602C15.3869 6.87733 15.5291 6.85214 15.652 6.98813C15.7731 7.1223 15.7433 7.26745 15.6447 7.40481C15.6401 7.41076 15.636 7.41717 15.6319 7.42358C14.7489 8.74596 13.8645 10.0674 12.9833 11.3907C12.7829 11.692 12.5063 11.8504 12.0508 11.8747V11.8738Z" fill="#C30001"/>
</g>
<defs>
<clipPath id="clip0_314_2366">
<rect width="21" height="20" fill="white"/>
</clipPath>
</defs>
</svg>
