<svg width="18" height="20" viewBox="0 0 18 20" fill="none" xmlns="http://www.w3.org/2000/svg">
<g clip-path="url(#clip0_133_1842)">
<path d="M16.0829 19.4439H1.91622C1.89932 19.432 1.88411 19.4143 1.86552 19.4101C0.672534 19.1308 0.00295712 18.3003 0.00211223 17.0773C-0.000422446 12.806 0.00211223 8.53462 0 4.26327C0 3.74282 0.115328 3.25954 0.43005 2.83921C0.883757 2.23342 1.48997 1.91447 2.25121 1.90771C2.69901 1.90391 3.1468 1.90687 3.59164 1.90687C3.66937 1.11901 4.19109 0.578697 4.87165 0.55842C5.66416 0.535185 6.18714 1.01551 6.3181 1.89631H11.6806C11.7981 1.09028 12.2873 0.584612 12.9581 0.557153C13.3024 0.542789 13.6108 0.631926 13.8816 0.843993C14.2216 1.11056 14.3779 1.47344 14.4079 1.90645C14.8714 1.90645 15.32 1.9056 15.7686 1.90645C16.2937 1.90771 16.7614 2.07838 17.1648 2.41085C17.7592 2.90046 18.0017 3.54342 18 4.30467C17.9941 7.32558 17.9975 10.3465 17.9975 13.3674C17.9975 14.6039 18 15.8404 17.9966 17.0769C17.9937 18.1191 17.4736 18.9259 16.5764 19.2838C16.4158 19.3476 16.2473 19.3906 16.0825 19.4434L16.0829 19.4439ZM17.0955 6.86934H0.903189V7.1114C0.903189 10.4272 0.903189 13.743 0.903189 17.0583C0.903189 17.9847 1.4549 18.5398 2.38386 18.5403C6.79589 18.5415 11.2079 18.5415 15.6199 18.539C15.7733 18.539 15.9313 18.5305 16.0787 18.4929C16.7145 18.3303 17.0943 17.8027 17.0947 17.0951C17.0955 13.7582 17.0947 10.4217 17.0947 7.08479V6.86976L17.0955 6.86934ZM0.939097 5.94038H17.0901C17.0901 5.30333 17.115 4.67811 17.0829 4.05585C17.0512 3.43992 16.5831 2.90046 16.009 2.84512C15.4818 2.79443 14.9457 2.83456 14.4126 2.83456C14.2732 3.66593 13.7878 4.14245 13.0646 4.1547C12.3405 4.16695 11.864 3.71198 11.6739 2.824H6.31557C6.20658 3.64185 5.68359 4.14963 4.95867 4.1547C4.23037 4.15977 3.71372 3.66171 3.58572 2.82189C3.0978 2.82189 2.60649 2.80034 2.11857 2.82738C1.52883 2.85991 1.00162 3.30474 0.952616 3.88687C0.896008 4.56152 0.93952 5.24461 0.93952 5.94038H0.939097ZM5.38703 2.35339C5.38703 2.18526 5.40013 2.01628 5.38365 1.84984C5.36084 1.61918 5.18341 1.46964 4.95909 1.46626C4.7259 1.46245 4.532 1.6158 4.51975 1.85575C4.50285 2.19075 4.5037 2.52829 4.52102 2.86329C4.53242 3.08676 4.73013 3.24856 4.94389 3.2532C5.16525 3.25785 5.36168 3.09183 5.38407 2.85737C5.40013 2.69093 5.38703 2.52153 5.38661 2.35339H5.38703ZM13.4862 2.35044C13.4862 2.35044 13.4895 2.35044 13.4912 2.35044C13.4912 2.21018 13.4912 2.06993 13.4912 1.9301C13.4912 1.9094 13.4879 1.88828 13.4849 1.86758C13.4528 1.62467 13.2838 1.46879 13.0515 1.46668C12.8183 1.46457 12.6273 1.61834 12.6147 1.85913C12.5973 2.18737 12.5982 2.51772 12.6134 2.84596C12.6244 3.08211 12.8212 3.25067 13.0426 3.25363C13.272 3.25658 13.4634 3.08296 13.4836 2.83371C13.4967 2.67361 13.4862 2.51181 13.4862 2.35044Z" fill="#656565"/>
<path d="M2.71009 10.2105C2.71009 9.95826 2.69362 9.70437 2.71389 9.45386C2.75107 8.9955 3.12747 8.65755 3.58709 8.65332C4.05009 8.64952 4.51309 8.64868 4.97609 8.65332C5.42431 8.65797 5.81338 8.99466 5.83661 9.44161C5.86323 9.95192 5.86407 10.4656 5.84126 10.9764C5.82014 11.4457 5.44289 11.7908 4.96722 11.8039C4.5114 11.8162 4.05516 11.8149 3.59934 11.8048C3.10677 11.7938 2.73839 11.4389 2.70713 10.9468C2.6915 10.7022 2.7046 10.4559 2.7046 10.2105C2.70629 10.2105 2.7084 10.2105 2.71009 10.2105ZM3.61117 10.88H4.94018V9.5713H3.61117V10.88Z" fill="#656565"/>
<path d="M7.43256 10.2088C7.43256 9.95657 7.41566 9.70268 7.43636 9.45217C7.47396 8.99381 7.85036 8.65712 8.31125 8.65332C8.77425 8.64952 9.23725 8.64868 9.70025 8.65332C10.1476 8.65797 10.5354 8.99593 10.5595 9.4433C10.5865 9.94685 10.5865 10.4534 10.5663 10.9569C10.5464 11.4398 10.1717 11.7908 9.688 11.8035C9.23218 11.8158 8.77594 11.8145 8.32012 11.8039C7.82797 11.7925 7.46044 11.4368 7.4296 10.9442C7.4144 10.6997 7.42707 10.4534 7.42707 10.2079C7.42918 10.2079 7.43129 10.2079 7.43298 10.2079L7.43256 10.2088ZM9.66561 9.57172H8.34082V10.8796H9.66561V9.57172Z" fill="#656565"/>
<path d="M15.2925 10.2248C15.2925 10.4702 15.3068 10.7165 15.2895 10.9607C15.2557 11.4427 14.8907 11.792 14.4062 11.8043C13.9504 11.8157 13.4941 11.8157 13.0383 11.8043C12.5466 11.792 12.1727 11.4351 12.1524 10.9412C12.133 10.4651 12.1326 9.98692 12.1524 9.51082C12.174 8.99248 12.5546 8.6541 13.0789 8.65241C13.514 8.65114 13.9487 8.6503 14.3838 8.65241C14.8823 8.65494 15.2544 8.99206 15.2895 9.48843C15.3068 9.7326 15.2925 9.97889 15.2925 10.2243V10.2248ZM14.3884 10.8833V9.56743H13.059V10.8833H14.3884Z" fill="#656565"/>
<path d="M4.26915 16.7448C4.04483 16.7448 3.82009 16.747 3.59577 16.7444C3.1239 16.7389 2.73694 16.4022 2.71412 15.9308C2.68962 15.4272 2.69005 14.9207 2.71328 14.4167C2.73525 13.9495 3.11587 13.604 3.5907 13.5926C4.04652 13.5816 4.50276 13.582 4.95858 13.5926C5.44397 13.6035 5.82079 13.9504 5.84318 14.4324C5.86557 14.922 5.86599 15.4146 5.84403 15.9046C5.82164 16.401 5.43848 16.7406 4.94295 16.7448C4.71863 16.7465 4.49389 16.7448 4.26957 16.7448H4.26915ZM4.94422 14.5215H3.61056V15.8294H4.94422V14.5215Z" fill="#656565"/>
<path d="M8.9816 16.7448C8.75728 16.7448 8.53254 16.7474 8.30822 16.7444C7.84944 16.7376 7.46079 16.4009 7.43756 15.9422C7.41179 15.4386 7.41179 14.9321 7.43375 14.4281C7.45488 13.9495 7.83761 13.6022 8.32174 13.5921C8.77037 13.5828 9.21985 13.5837 9.66849 13.5921C10.164 13.6014 10.5438 13.9495 10.5658 14.4421C10.5873 14.9249 10.5873 15.4103 10.5666 15.8932C10.5446 16.4022 10.1636 16.7414 9.65497 16.7448C9.43066 16.7465 9.20591 16.7448 8.9816 16.7448ZM9.66089 15.829V14.5219H8.33314V15.829H9.66089Z" fill="#656565"/>
<path d="M13.7184 16.7449C13.4941 16.7449 13.2693 16.747 13.045 16.7449C12.5622 16.7398 12.1777 16.3997 12.1558 15.9156C12.133 15.4188 12.1334 14.9195 12.1566 14.4227C12.1786 13.9542 12.5558 13.6061 13.0294 13.5939C13.492 13.582 13.9554 13.5812 14.4184 13.5943C14.8932 13.6078 15.265 13.9559 15.2865 14.4282C15.3089 14.925 15.3093 15.4243 15.2857 15.9211C15.2624 16.4044 14.8772 16.7407 14.3918 16.7453C14.1675 16.7474 13.9427 16.7453 13.7184 16.7453V16.7449ZM13.0564 14.5152V15.8286H14.3821V14.5152H13.0564Z" fill="#656565"/>
</g>
<defs>
<clipPath id="clip0_133_1842">
<rect width="18" height="18.888" fill="white" transform="translate(0 0.555908)"/>
</clipPath>
</defs>
</svg>
