<svg width="15" height="11" viewBox="0 0 15 11" fill="none" xmlns="http://www.w3.org/2000/svg">
<g clip-path="url(#clip0_370_817)">
<path d="M4.93614 10.3846C4.6932 10.2237 4.42052 10.0916 4.21235 9.89677C2.9185 8.68803 1.63675 7.46732 0.355497 6.24614C-0.280088 5.64057 -0.0275678 4.71332 0.827775 4.50556C1.24058 4.40503 1.57878 4.5496 1.87062 4.82725C2.88725 5.79424 3.9064 6.75836 4.92304 7.72535C4.98755 7.78662 5.03644 7.86274 5.0929 7.93167C5.1307 7.94603 5.169 7.96039 5.20681 7.97523C5.2562 7.89242 5.28947 7.79332 5.35751 7.7287C7.94068 5.27245 10.5269 2.81955 13.1136 0.367124C13.6181 -0.111105 14.2532 -0.122115 14.7063 0.334093C15.0773 0.707486 15.0994 1.26135 14.7557 1.65724C14.6922 1.73048 14.6181 1.79607 14.547 1.86309C11.7537 4.51274 8.96286 7.1643 6.16346 9.80868C5.93261 10.027 5.64784 10.194 5.38775 10.385H4.93564L4.93614 10.3846Z" fill="#C30001"/>
</g>
<defs>
<clipPath id="clip0_370_817">
<rect width="15" height="10.3846" fill="white"/>
</clipPath>
</defs>
</svg>
