<svg width="59" height="58" viewBox="0 0 59 58" fill="none" xmlns="http://www.w3.org/2000/svg">
<g clip-path="url(#clip0_136_1260)">
<path d="M22.1353 0C22.9348 0.161234 23.7442 0.285545 24.5312 0.491087C30.0261 1.9225 33.9665 5.20503 36.3575 10.3325C36.4775 10.5898 36.6892 10.8544 36.9292 10.9959C38.5826 11.9756 39.6049 13.3935 39.7187 15.2988C39.819 16.9887 39.8313 18.7019 39.6705 20.3857C39.4638 22.5531 38.1767 24.0534 36.131 24.7722C34.0618 25.4996 32.1584 25.0602 30.5322 23.5673C30.4147 23.4602 30.3478 23.2977 30.2191 23.1045C27.8046 26.5716 24.6525 28.4781 20.5091 28.4855C16.3596 28.4929 13.1914 26.6135 10.8251 23.2337C10.7744 23.2657 10.7026 23.2928 10.6544 23.3433C8.96878 25.0393 6.96021 25.5624 4.72515 24.7279C2.51361 23.902 1.31812 22.206 1.21292 19.854C1.14486 18.3228 1.15228 16.7819 1.24757 15.252C1.36143 13.4071 2.33169 12.0224 3.91702 11.0845C4.26477 10.879 4.46279 10.6488 4.63357 10.2784C6.97134 5.21119 10.8487 1.93235 16.2791 0.505857C17.1058 0.288006 17.9585 0.166157 18.7988 0C19.9114 0 21.0227 0 22.1353 0ZM28.8244 17.2114C29.0286 13.3246 25.7564 8.89496 20.4745 8.85188C15.8893 8.81496 12.205 12.5627 12.0961 17.0921C11.9996 21.1229 15.2346 25.5193 20.4473 25.5353C25.7651 25.5513 29.0174 21.0638 28.8231 17.2114H28.8244ZM10.4724 11.7406C12.7322 8.07032 15.997 5.92505 20.4559 5.9152C24.9384 5.90536 28.218 8.06171 30.4815 11.743C31.3453 11.2753 32.177 10.8248 33.0074 10.3756C30.7971 6.06782 25.2602 2.23389 18.602 3.07206C13.2359 3.74654 9.1767 7.51401 7.99605 10.3965C8.82399 10.8458 9.6445 11.2913 10.4724 11.7406ZM9.07398 17.7296C9.07398 17.0145 9.10616 16.2994 9.06655 15.5868C8.99601 14.2858 7.92304 13.3037 6.62977 13.3098C5.30928 13.3172 4.22641 14.3449 4.2029 15.6631C4.17814 17.0305 4.17938 18.4004 4.2029 19.7678C4.22393 21.0675 5.26968 22.0952 6.55304 22.1223C7.90324 22.1519 8.98859 21.1992 9.06532 19.8724C9.10615 19.1598 9.07274 18.4435 9.07398 17.7296ZM31.8738 17.689C31.8738 18.3832 31.8589 19.0786 31.8775 19.7715C31.9109 21.0688 32.9505 22.0952 34.2338 22.1223C35.5828 22.1494 36.6904 21.1968 36.7374 19.8687C36.7882 18.441 36.7869 17.0096 36.7374 15.5819C36.6916 14.2563 35.5444 13.2594 34.2388 13.3147C32.8985 13.3726 31.896 14.3892 31.8738 15.7296C31.8626 16.3831 31.8713 17.0367 31.8738 17.6902V17.689Z" fill="#C30001"/>
<path d="M26.3296 55.0374C25.3036 53.1555 25.8445 51.3795 26.2133 49.5998C26.8766 46.4009 27.5127 43.1972 28.1921 40.002C28.7107 37.5638 30.6759 35.901 33.1783 35.7176C33.3837 35.7028 33.5892 35.6967 33.7946 35.6967C40.1347 35.6967 46.4748 35.6918 52.8161 35.6979C55.6056 35.7004 57.6798 37.234 58.3901 39.7423C58.7527 41.0248 58.4458 42.2556 58.1921 43.4938C57.5015 46.8748 56.8135 50.2558 56.1031 53.6331C55.5573 56.2251 53.3792 57.9778 50.7221 57.9778C40.2436 57.9815 29.7663 57.9802 19.2878 57.9778C18.4425 57.9778 17.9265 57.6541 17.6889 56.9894C17.4797 56.4048 17.6196 55.7513 18.1406 55.4005C18.4425 55.1974 18.8522 55.0571 19.2148 55.0509C21.3137 55.0189 23.4139 55.0349 25.514 55.0349C25.738 55.0349 25.962 55.0349 26.3296 55.0349V55.0374ZM43.3512 38.6789C40.1409 38.6789 36.9319 38.6777 33.7216 38.6789C32.2637 38.6789 31.3455 39.3965 31.0571 40.802C30.2849 44.5609 29.5201 48.321 28.7688 52.0835C28.4582 53.638 29.5572 55.0202 31.171 55.0263C37.6942 55.0497 44.2162 55.0423 50.7395 55.0313C51.8409 55.0288 52.7518 54.3605 53.0896 53.3598C53.2134 52.9943 53.2777 52.609 53.3557 52.2287C54.0673 48.7702 54.7851 45.3141 55.4806 41.8531C55.8605 39.9639 54.7876 38.6826 52.8582 38.6814C49.69 38.6789 46.5206 38.6814 43.3524 38.6814L43.3512 38.6789Z" fill="#C30001"/>
<path d="M13.3179 35.5157C10.49 37.3951 7.71788 39.2303 4.95438 41.0789C4.36159 41.4752 4.04353 42.0562 3.95319 42.7663C3.64132 45.2402 3.30594 47.7104 3.00768 50.1856C2.70819 52.6681 4.7044 54.9229 7.30948 55.0238C8.66586 55.0755 10.026 55.0534 11.3848 55.0324C12.4763 55.0152 13.0432 54.1463 12.6286 53.1186C11.667 50.7308 10.6633 48.3603 9.72646 45.9639C9.55939 45.5381 9.5136 44.9904 9.62374 44.551C9.77473 43.9491 10.318 43.6451 10.9455 43.6328C11.5742 43.6205 12.0618 43.9257 12.3179 44.5018C12.6583 45.2673 12.9602 46.0489 13.2771 46.8243C13.9738 48.5265 14.6805 50.2237 15.3624 51.9308C16.6086 55.0521 14.6186 57.9876 11.2561 57.9765C9.57053 57.9703 7.8602 58.0897 6.20681 57.8448C2.25772 57.2589 -0.404301 53.6773 0.0511255 49.7548C0.335767 47.2994 0.679812 44.8501 0.995393 42.3971C1.20826 40.7343 2.03248 39.442 3.42227 38.5152C6.53105 36.4425 9.63365 34.3625 12.7672 32.3267C17.7645 29.0799 24.1479 29.294 28.9645 32.8289C29.6229 33.3114 29.8457 33.9809 29.5734 34.6517C29.3073 35.3053 28.7121 35.6216 27.9361 35.5846C27.774 35.5773 27.5376 35.7213 27.4473 35.8653C26.9597 36.6456 26.5129 37.453 26.0414 38.2432C23.4511 42.5854 17.5318 42.5965 14.9379 38.2641C14.402 37.3693 13.8798 36.4671 13.3191 35.5133L13.3179 35.5157ZM15.8722 33.9908C16.5418 35.1071 17.1049 36.1767 17.7917 37.1601C18.9303 38.7884 21.419 39.0666 22.7445 37.5995C23.6838 36.5594 24.3261 35.2536 25.1342 34.0141C21.9735 32.6935 18.9785 32.6898 15.8722 33.9908Z" fill="#C30001"/>
<path d="M56.0088 15.4267C56.2539 15.2446 56.4544 15.0772 56.6722 14.9344C57.3454 14.495 58.1721 14.6169 58.6647 15.2187C59.1288 15.7849 59.1263 16.6649 58.5595 17.1683C57.5013 18.1074 56.4049 19.0046 55.2997 19.8896C54.8158 20.2773 54.3022 20.1837 53.8369 19.7973C52.858 18.9849 51.8692 18.1825 50.9001 17.3578C50.2244 16.7831 50.0871 15.9781 50.5165 15.3381C50.9595 14.6772 51.6909 14.5098 52.5275 14.8778C52.5956 14.9073 52.6649 14.9332 52.9186 15.0341C52.5672 14.0987 52.3419 13.2691 51.9583 12.5183C49.5883 7.87702 45.7531 5.53851 40.5268 5.44127C39.7867 5.42773 39.0442 5.45727 38.3054 5.42773C37.444 5.39327 36.8574 4.79757 36.8426 3.99509C36.8277 3.20615 37.4106 2.52675 38.2423 2.4849C41.8238 2.3089 45.3113 2.63752 48.4745 4.53664C52.4756 6.93915 54.968 10.4014 55.8678 14.9762C55.895 15.1129 55.9507 15.2433 56.0076 15.4243L56.0088 15.4267Z" fill="#C30001"/>
<path d="M43.7618 23.0738C43.7519 22.2491 44.3967 21.5968 45.2271 21.5882C46.0674 21.5808 46.7134 22.2085 46.7196 23.0393C46.7258 23.8541 46.0662 24.5347 45.2605 24.5458C44.4623 24.5569 43.7705 23.8775 43.7618 23.0725V23.0738Z" fill="#C30001"/>
<path d="M43.7617 28.7033C43.758 27.8836 44.4139 27.2239 45.2369 27.2202C46.0661 27.2165 46.7183 27.8615 46.7208 28.6886C46.7232 29.5034 46.0587 30.1803 45.2518 30.1864C44.4523 30.1926 43.7667 29.5095 43.763 28.7033H43.7617Z" fill="#C30001"/>
<path d="M43.4069 51.1074C40.9392 51.1136 38.9516 49.1714 38.9405 46.7455C38.9293 44.2667 40.8996 42.2715 43.3623 42.2654C45.8412 42.2592 47.8337 44.2371 47.8312 46.7012C47.8287 49.1431 45.8622 51.1013 43.4069 51.1074ZM43.4019 48.156C44.1754 48.1461 44.8536 47.4717 44.8623 46.7049C44.8709 45.9196 44.1581 45.2132 43.3673 45.2255C42.5938 45.2378 41.9168 45.911 41.9082 46.6778C41.8995 47.4655 42.6086 48.1658 43.4032 48.1548L43.4019 48.156Z" fill="#C30001"/>
</g>
<defs>
<clipPath id="clip0_136_1260">
<rect width="59" height="58" fill="white"/>
</clipPath>
</defs>
</svg>
