<svg width="63" height="50" viewBox="0 0 63 50" fill="none" xmlns="http://www.w3.org/2000/svg">
<g clip-path="url(#clip0_136_1242)">
<path d="M33.2119 0C34.1634 0.122832 35.1174 0.231876 36.0664 0.369748C41.9281 1.22581 47.1329 3.60975 51.6525 7.47142C57.1629 12.1791 60.7667 18.1127 62.2679 25.2895C63.933 33.2498 62.7473 40.7939 58.8465 47.8968C58.2364 49.0073 57.2159 49.2918 56.1313 48.6664C54.4761 47.7113 52.827 46.7425 51.1853 45.7636C50.203 45.177 49.8974 44.0677 50.4323 43.1377C50.9586 42.2215 52.0653 41.9508 53.06 42.5198C54.1655 43.1515 55.26 43.8045 56.3569 44.4475C57.6042 42.8018 59.3937 36.0147 59.114 33.9065C57.8174 33.9065 56.5109 33.9241 55.2045 33.9015C54.0398 33.8802 53.2633 32.9615 53.3816 31.7971C53.4778 30.8483 54.2666 30.1577 55.3019 30.1464C56.5701 30.1339 57.8371 30.1439 59.0967 30.1439C59.427 28.2951 57.8543 22.1724 56.3938 19.6117C55.3031 20.2484 54.2296 20.9227 53.108 21.5031C52.6791 21.7249 52.127 21.859 51.6574 21.8014C50.8846 21.7074 50.3904 21.1509 50.2166 20.3675C50.0453 19.5904 50.3731 18.8133 51.0707 18.3821C52.016 17.7993 52.9811 17.2516 53.9375 16.6876C54.1298 16.5735 54.3196 16.4557 54.5513 16.3153C52.5152 13.2395 50.0095 10.7039 46.9591 8.5907C46.5315 9.34022 46.1149 10.0672 45.7008 10.7954C45.4654 11.209 45.241 11.6314 44.9945 12.0388C44.4165 12.9963 43.3393 13.316 42.447 12.8058C41.53 12.2819 41.2354 11.1526 41.7839 10.1574C42.4112 9.01559 43.0632 7.8888 43.7362 6.70059C40.4491 5.04362 37.0228 4.13366 33.3339 3.86042C33.3339 5.11631 33.3364 6.33836 33.3327 7.56041C33.3327 7.82989 33.3475 8.1094 33.2883 8.36759C33.0825 9.2788 32.2062 9.90424 31.3213 9.80397C30.3673 9.69618 29.6636 8.93663 29.6513 7.96275C29.6365 6.81716 29.6476 5.67031 29.6476 4.52472C29.6476 4.32167 29.6476 4.11737 29.6476 3.86669C25.9698 4.12113 22.5472 5.05364 19.2453 6.69558C19.8961 7.84618 20.553 8.94666 21.1421 10.0835C21.3418 10.4683 21.4749 10.9521 21.4515 11.3807C21.4096 12.1766 20.8007 12.8171 20.1032 12.9813C19.2688 13.1781 18.4935 12.876 18.0375 12.1077C17.3609 10.9684 16.72 9.80773 16.0285 8.59571C12.9942 10.66 10.4984 13.2194 8.42407 16.3103C9.6048 17.0097 10.7522 17.6777 11.8886 18.3671C12.5443 18.7657 12.8463 19.3786 12.7859 20.1544C12.7279 20.8839 12.3422 21.3978 11.6988 21.6998C11.0702 21.9944 10.47 21.8828 9.88334 21.5331C8.79259 20.8826 7.69198 20.2497 6.55932 19.5866C4.94722 22.9307 4.02162 26.4038 3.78005 30.1439C5.16167 30.1439 6.46811 30.1314 7.77455 30.1489C8.60895 30.1602 9.29052 30.6904 9.53455 31.4637C9.77242 32.2157 9.54318 33.0944 8.87517 33.5117C8.49679 33.7486 8.00503 33.8752 7.5564 33.9003C6.53467 33.9567 5.50677 33.9178 4.48257 33.9191C4.28167 33.9191 4.08078 33.9191 3.78498 33.9191C4.01545 37.6554 4.94845 41.1223 6.55192 44.4876C7.72772 43.8008 8.86777 43.1227 10.0189 42.4659C10.6586 42.1012 11.3217 42.1125 11.9441 42.5123C12.5689 42.9146 12.845 43.5162 12.7846 44.2683C12.7329 44.9213 12.3976 45.4101 11.8566 45.731C10.1607 46.7399 8.46475 47.7477 6.74912 48.7228C5.76313 49.2831 4.74262 48.9697 4.17075 47.9607C2.06319 44.2382 0.745657 40.2462 0.237871 35.9784C0.172549 35.4018 0.0813444 34.8303 0 34.2575C0 32.7572 0 31.2569 0 29.7566C0.0406722 29.5761 0.0936693 29.3981 0.120784 29.2151C0.305658 27.9404 0.407954 26.6482 0.679102 25.3936C2.35406 17.6263 6.32761 11.3193 12.5344 6.49629C16.7915 3.18736 21.5994 1.14434 26.9151 0.369748C27.8642 0.231876 28.8169 0.122832 29.7683 0C30.9158 0 32.0645 0 33.2119 0Z" fill="#C30001"/>
<path d="M37.3876 32.098C37.2126 32.8187 37.0166 33.5356 36.8761 34.2626C36.8342 34.4782 36.8786 34.7953 37.0129 34.9482C37.5306 35.5385 38.1086 36.0725 38.6484 36.644C39.4323 37.4725 39.4607 38.6406 38.731 39.3864C37.9743 40.1623 36.8379 40.1184 35.9949 39.2749C35.4686 38.7484 34.9411 38.2245 34.4333 37.6806C34.1955 37.4261 33.9983 37.3497 33.6396 37.4925C30.2182 38.8612 26.5491 36.8333 25.8071 33.1721C25.584 32.0691 25.6383 30.9662 26.0857 29.9271C26.2693 29.4997 26.1596 29.2653 25.8638 28.967C23.1289 26.2071 20.4027 23.4383 17.685 20.6608C16.6189 19.5717 16.9924 17.8821 18.3851 17.4572C19.2022 17.2078 19.8517 17.5261 20.4298 18.1165C23.0464 20.7899 25.6814 23.4459 28.2906 26.1269C28.6986 26.5467 29.0005 26.7009 29.6315 26.4715C33.3845 25.1053 37.2755 27.9819 37.3876 32.0967V32.098ZM31.4938 34.1485C32.645 34.1473 33.5694 33.2235 33.5841 32.0616C33.5989 30.8935 32.6302 29.8945 31.484 29.8983C30.3612 29.902 29.406 30.8659 29.3937 32.009C29.3814 33.1984 30.3156 34.151 31.4926 34.1485H31.4938Z" fill="#C30001"/>
<path d="M31.4791 46.2323C33.4659 46.2323 35.4539 46.2261 37.4407 46.2361C38.2098 46.2399 38.7755 46.6247 39.0922 47.3278C39.3868 47.9808 39.319 48.6301 38.9012 49.2179C38.5425 49.723 38.0347 49.99 37.4296 49.9912C33.4758 50.0013 29.5219 50.005 25.5681 49.9912C24.5131 49.9875 23.7342 49.1665 23.7218 48.135C23.7095 47.0872 24.4453 46.3088 25.5163 46.2348C25.578 46.2311 25.6396 46.2261 25.7 46.2261C27.6251 46.2261 29.5515 46.2261 31.4767 46.2261C31.4767 46.2286 31.4767 46.2311 31.4767 46.2336L31.4791 46.2323Z" fill="#C30001"/>
</g>
<defs>
<clipPath id="clip0_136_1242">
<rect width="63" height="50" fill="white"/>
</clipPath>
</defs>
</svg>
