<svg width="54" height="54" viewBox="0 0 54 54" fill="none" xmlns="http://www.w3.org/2000/svg">
<g clip-path="url(#clip0_167_3652)">
<path d="M0 17.5135C0.203003 16.4118 0.349023 15.297 0.617319 14.2119C2.4669 6.75152 9.05441 0.965081 16.6332 0.132851C21.859 -0.440569 26.5566 0.898598 30.7769 4.12779C33.7448 1.20015 37.3181 -0.251804 41.5123 0.0355C44.5847 0.245635 47.2736 1.43165 49.5672 3.49383C53.9964 7.47571 55.2655 14.0089 52.6502 19.3584C50.0397 24.6985 44.1336 27.7199 38.4566 26.8366C32.3831 25.8928 26.2456 19.9995 27.0279 12.0785C26.4842 12.3884 25.9891 12.6495 25.5167 12.9452C24.815 13.3832 24.1692 13.3571 23.489 12.8656C22.9975 12.5106 22.4574 12.2067 21.9041 11.9562C21.1883 11.6321 20.831 11.1359 20.8583 10.3452C20.8784 9.75633 20.8618 9.16748 20.8618 8.53707H17.0416C17.0416 9.16035 17.0309 9.78364 17.0439 10.4069C17.0594 11.1454 16.721 11.6179 16.0598 11.9384C15.4591 12.2281 14.8798 12.5712 14.3254 12.9416C13.7365 13.3358 13.1667 13.3916 12.5541 13.039C12.0104 12.7267 11.4655 12.418 10.8624 12.0738C10.219 13.1862 9.60288 14.2511 8.963 15.3576C9.52452 15.684 10.0516 15.9856 10.574 16.2966C11.348 16.7585 11.5261 17.1918 11.4441 18.0632C11.3895 18.6461 11.3872 19.2445 11.4501 19.8262C11.5332 20.6038 11.2993 21.1725 10.6072 21.5548C10.0742 21.8492 9.55301 22.1662 8.96537 22.5093C9.59456 23.5991 10.2095 24.6641 10.8648 25.8002C11.424 25.4785 11.9534 25.1864 12.4698 24.873C13.1394 24.4682 13.752 24.5168 14.3918 24.9739C14.9023 25.3372 15.4555 25.6554 16.0242 25.9201C16.7388 26.2525 17.0772 26.7619 17.0475 27.5478C17.025 28.1343 17.0428 28.7219 17.0428 29.3393H20.863C20.863 28.6887 20.8701 28.063 20.8606 27.4362C20.85 26.7215 21.1847 26.2609 21.8199 25.9486C22.4182 25.6542 23.0082 25.3289 23.5602 24.9549C24.1669 24.543 24.7462 24.4777 25.3813 24.8493C25.906 25.1567 26.4391 25.4512 27.0089 25.7753C27.1597 25.5604 27.2819 25.3657 27.4232 25.1864C27.8743 24.6166 28.6151 24.4705 29.2265 24.8243C29.8367 25.1769 30.1264 25.9154 29.8177 26.5577C29.4853 27.2486 29.0983 27.9194 28.6709 28.5557C28.2602 29.1683 27.5194 29.2953 26.8261 28.9226C26.2005 28.5866 25.5962 28.2138 24.9777 27.866C24.4731 27.5822 23.6861 28.031 23.6789 28.6091C23.6706 29.2799 23.6825 29.9519 23.6754 30.6226C23.6635 31.6104 23.115 32.1779 22.1416 32.1814C20.0095 32.1898 17.8773 32.1909 15.7464 32.1814C14.8074 32.1767 14.2458 31.6045 14.2328 30.663C14.2233 29.9922 14.2351 29.3203 14.2292 28.6495C14.2245 28.012 13.4754 27.5668 12.9269 27.8755C12.325 28.2138 11.7338 28.5712 11.1272 28.8988C10.314 29.3393 9.56489 29.1529 9.09596 28.3575C8.00616 26.5054 6.93059 24.6439 5.86928 22.774C5.39442 21.9371 5.60811 21.2057 6.43555 20.7071C7.01013 20.3616 7.59896 20.0399 8.17592 19.6992C8.71726 19.3798 8.7232 18.487 8.1866 18.1712C7.62627 17.8412 7.05643 17.5266 6.4961 17.1965C5.59861 16.6671 5.38374 15.9429 5.89184 15.0489C6.93534 13.2147 7.98954 11.3876 9.05322 9.56519C9.55183 8.71159 10.3057 8.51333 11.1675 8.98821C11.7718 9.32063 12.363 9.67798 12.9661 10.014C13.4469 10.2823 14.2197 9.83706 14.228 9.28739C14.2375 8.59643 14.2233 7.90548 14.2328 7.21453C14.2446 6.26358 14.7967 5.68778 15.7321 5.68303C17.8833 5.67235 20.0356 5.67235 22.1867 5.68303C23.096 5.68778 23.6552 6.25764 23.6742 7.16585C23.6861 7.75827 23.7525 8.36255 23.6576 8.93954C23.5389 9.66136 24.0007 9.87505 24.4838 10.0911C24.6061 10.1457 24.821 10.0769 24.9587 10.0021C25.5131 9.70172 26.0544 9.37643 26.6029 9.06419C26.7572 8.97634 26.9246 8.82081 27.0742 8.83506C27.9432 8.91223 28.0928 8.25333 28.3504 7.67041C28.5403 7.24064 28.7861 6.83581 29.0271 6.37992C27.9669 5.4729 26.7845 4.7772 25.5202 4.21921C15.9435 -0.000115975 5.03946 5.6676 3.11865 15.9595C2.13331 21.2378 3.52703 25.9581 7.19652 29.8961C9.05441 31.8906 10.6238 34.0121 11.4572 36.6311C11.5023 36.7724 11.7504 36.9421 11.9048 36.9421C16.6023 36.9588 21.3011 36.9588 25.9986 36.9409C26.1648 36.9409 26.4284 36.751 26.4794 36.5943C27.295 34.1273 28.6721 32.0188 30.492 30.181C30.8802 29.7892 31.2233 29.3523 31.5961 28.9439C32.1742 28.3123 32.9957 28.2328 33.6023 28.7409C34.209 29.249 34.2933 30.086 33.7377 30.7485C32.953 31.6852 32.097 32.5637 31.3183 33.5075C30.397 34.6235 29.7085 35.8808 29.2455 37.2924C29.4105 37.3956 29.5577 37.4859 29.7026 37.5797C31.0001 38.4309 31.71 39.6228 31.7266 41.184C31.7361 42.0898 31.7718 43.0099 31.6317 43.898C31.3919 45.4152 30.4647 46.4611 29.0484 47.0369C28.6935 47.1818 28.5237 47.3788 28.4299 47.7326C28.1842 48.6658 27.8921 49.587 27.6476 50.5214C27.1822 52.2986 26.115 53.4633 24.2998 53.8954C24.25 53.9073 24.2096 53.9643 24.1657 53.9999H13.7413C13.6974 53.9631 13.6582 53.9061 13.6083 53.8942C11.8015 53.4526 10.7295 52.2962 10.2701 50.5154C10.0291 49.5823 9.73228 48.6634 9.48535 47.7314C9.39156 47.3788 9.2218 47.1818 8.86922 47.0369C7.41377 46.4362 6.45099 45.3559 6.27054 43.7852C6.14233 42.6621 6.17557 41.4998 6.29784 40.3732C6.42724 39.1764 7.15853 38.2825 8.1593 37.6212C8.32075 37.5156 8.48695 37.417 8.68046 37.2959C8.60329 37.0751 8.53562 36.8733 8.46083 36.6738C7.76754 34.8265 6.57089 33.3318 5.21872 31.9262C2.78625 29.3951 1.19902 26.3974 0.466551 22.9592C0.282542 22.0973 0.15433 21.2247 0 20.3569C0 19.4095 0 18.4621 0 17.5135ZM40.4938 2.81C34.634 2.81712 29.8414 7.62174 29.8426 13.4877C29.845 19.3454 34.6518 24.1536 40.5092 24.1559C46.3987 24.1583 51.2031 19.3371 51.1865 13.4438C51.1698 7.57781 46.3678 2.80406 40.4938 2.81118V2.81ZM18.9659 39.7701C16.1844 39.7701 13.403 39.7665 10.6215 39.7724C9.57795 39.7748 9.0093 40.3423 8.99387 41.3752C8.98674 41.8488 8.9903 42.3225 8.99387 42.795C8.9998 43.9906 9.5364 44.5355 10.7235 44.5367C13.4457 44.5402 16.169 44.5367 18.8912 44.5367C21.6928 44.5367 24.4933 44.5402 27.295 44.5343C28.3409 44.5319 28.906 43.9644 28.919 42.9304C28.925 42.4769 28.9214 42.0234 28.919 41.5687C28.9167 40.2853 28.4074 39.7689 27.1336 39.7689C24.4114 39.7665 21.6881 39.7689 18.9659 39.7689V39.7701ZM12.3048 47.38C12.5909 48.3654 12.8343 49.3176 13.1489 50.2459C13.3602 50.868 13.8731 51.1672 14.5284 51.1672C17.4868 51.172 20.4451 51.172 23.4035 51.1672C24.0102 51.1672 24.5218 50.8989 24.7248 50.3374C25.0691 49.3817 25.316 48.3903 25.6152 47.3788H12.3048V47.38Z" fill="#C30001"/>
<path d="M53.9965 37.2759C54.0096 38.1022 53.4017 38.653 52.4532 38.71C50.3698 38.8347 48.8063 39.8105 47.9029 41.6923C47.5966 42.3298 47.4719 43.0801 47.3864 43.7936C47.2737 44.7363 46.7632 45.3477 45.9381 45.3346C45.1344 45.3227 44.5943 44.7268 44.5503 43.8067C44.4138 40.9431 42.309 38.8489 39.4242 38.7076C38.5196 38.6625 37.9201 38.0986 37.9248 37.2925C37.9284 36.4887 38.5255 35.9355 39.4373 35.8904C42.3137 35.7479 44.4114 33.6501 44.5515 30.7771C44.5954 29.8653 45.1498 29.267 45.9524 29.2622C46.7572 29.2575 47.3247 29.8582 47.3698 30.7605C47.5146 33.6727 49.5803 35.7278 52.528 35.8916C53.3958 35.9391 53.9858 36.4959 53.9977 37.2771L53.9965 37.2759ZM44.2405 37.2794C44.7937 37.8386 45.4502 38.4999 45.9405 38.9949C46.4901 38.4666 47.1609 37.8208 47.6797 37.3234C47.1324 36.7666 46.4711 36.0922 45.9749 35.5865C45.4217 36.1255 44.7652 36.7666 44.2405 37.2794Z" fill="#C30001"/>
<path d="M24.6252 18.9395C24.624 22.0714 22.074 24.6132 18.9399 24.6061C15.8165 24.5989 13.2736 22.0334 13.2867 18.9027C13.2997 15.8065 15.8462 13.2694 18.9482 13.2659C22.0823 13.2623 24.6275 15.8053 24.6264 18.9395H24.6252ZM21.8104 18.949C21.8164 17.3724 20.5295 16.0784 18.9565 16.0795C17.3871 16.0795 16.0919 17.3831 16.1002 18.9514C16.1085 20.4959 17.3859 21.7781 18.9292 21.7924C20.5034 21.8066 21.8045 20.5221 21.8104 18.949Z" fill="#C30001"/>
<path d="M38.3628 48.2981C38.3628 48.8133 38.3758 49.2633 38.3604 49.712C38.3307 50.549 37.7217 51.1509 36.9358 51.139C36.176 51.1272 35.586 50.5324 35.5563 49.7263C35.5397 49.2763 35.5528 48.8264 35.5528 48.2981C35.0613 48.2981 34.6137 48.3087 34.1674 48.2957C33.3221 48.2719 32.7155 47.6831 32.7119 46.8983C32.7084 46.1136 33.3138 45.5153 34.1543 45.4891C34.5864 45.4761 35.0209 45.4868 35.5516 45.4868C35.5516 45.038 35.5469 44.6142 35.5516 44.1903C35.5647 43.2655 36.1535 42.6327 36.9797 42.647C37.7846 42.66 38.3473 43.2797 38.3616 44.1773C38.3687 44.588 38.3616 44.9988 38.3616 45.4868C38.8519 45.4868 39.2994 45.4761 39.7458 45.4891C40.5899 45.5129 41.1977 46.1005 41.2013 46.8853C41.2048 47.6712 40.6017 48.2696 39.7601 48.2969C39.3267 48.3111 38.8934 48.2992 38.3604 48.2992L38.3628 48.2981Z" fill="#C30001"/>
<path d="M38.6004 14.8579C40.6731 12.8741 42.7008 10.914 44.7581 8.98482C45.0537 8.70702 45.4704 8.4862 45.8657 8.40428C46.4083 8.29149 46.8606 8.57524 47.1455 9.06436C47.4447 9.57486 47.4102 10.0818 47.0873 10.5686C47.0007 10.6991 46.8891 10.8131 46.7787 10.9259C44.4815 13.2588 42.1844 15.594 39.8825 17.9221C38.9197 18.8968 38.1101 18.8422 37.2743 17.7583C36.1905 16.3526 35.109 14.9458 34.0298 13.5354C33.6321 13.0166 33.555 12.4621 33.8981 11.8828C34.1972 11.377 34.7825 11.0791 35.3678 11.2678C35.7334 11.3853 36.0979 11.6572 36.346 11.9576C37.1592 12.9441 37.9201 13.9746 38.6004 14.8591V14.8579Z" fill="#C30001"/>
</g>
<defs>
<clipPath id="clip0_167_3652">
<rect width="54" height="54" fill="white"/>
</clipPath>
</defs>
</svg>
