<svg width="1302" height="880" viewBox="0 0 1302 880" fill="none" xmlns="http://www.w3.org/2000/svg">
<g opacity="0.1" clip-path="url(#clip0_136_1045)">
<path d="M388.096 507.685C371.684 504.922 356.249 496.569 343.47 483.555C318.272 457.947 307.073 418.438 316.245 387.465C320.251 369.867 338.705 364.772 376.079 371.063C396.13 374.438 419.31 380.606 443.861 387.184C469.618 394.074 496.28 401.151 520.665 405.292L521.12 405.368C561.328 412.136 586.756 409.222 601.116 396.172C618.274 380.608 636.384 367.722 654.992 357.869C696.557 335.837 742.458 328.24 787.775 335.868C804.817 338.737 821.856 343.763 838.454 350.765C888.377 371.866 930.989 408.39 955.35 450.942C976.505 487.954 979.962 523.643 963.935 539.757C949.38 554.393 915.874 559.76 878.571 553.481C844.241 547.703 808.2 532.644 774.352 509.897C750.015 489.866 699.402 454.693 633.613 443.619C567.824 432.545 504.332 449.303 448.783 494.123C428.206 506.487 407.786 511.071 388.085 507.754L388.096 507.685ZM375.855 372.392C339.356 366.249 321.352 371.023 317.551 387.829C308.485 418.388 319.527 457.331 344.416 482.635C357.015 495.439 372.217 503.681 388.314 506.39C407.701 509.654 427.782 505.156 448.038 492.991C503.798 447.99 566.339 430.893 633.843 442.255C701.346 453.617 750.781 488.735 775.182 508.813C808.808 531.379 844.681 546.374 878.8 552.117C915.684 558.325 948.735 553.097 962.986 538.77C978.58 523.086 975.052 488.034 954.165 451.57C929.979 409.263 887.617 372.961 837.927 351.972C821.434 344.987 804.459 340.007 787.557 337.162C742.555 329.588 696.946 337.162 655.62 359.054C637.094 368.848 619.065 381.676 601.989 397.183C587.291 410.535 561.518 413.571 520.855 406.726L520.4 406.65C495.939 402.533 469.29 395.385 443.491 388.525C418.97 381.987 395.831 375.79 375.849 372.427L375.855 372.392Z" fill="#8E7171"/>
<path d="M384.014 513.976C365.992 510.942 349.205 501.642 335.466 487.064C307.217 457.13 296.087 411.445 310.149 383.058C316.953 366.794 338.002 362.532 378.28 369.311C397.352 372.522 418.568 377.747 441.031 383.255C464.463 388.998 488.687 394.945 511.329 398.756C515.038 399.381 518.654 399.918 522.06 400.419C562.288 406.003 589.194 402.007 604.342 388.119C623.913 370.191 642.111 357.212 659.889 348.442C663.456 346.704 667.227 345.037 671.465 343.376C674.623 342.145 677.233 341.182 679.596 340.393C681.085 339.888 682.573 339.383 684.021 338.907C686.186 338.229 688.422 337.562 690.879 336.86C692.991 336.281 695.098 335.736 697.205 335.191C700.024 334.479 702.901 333.848 705.766 333.287C706.922 333.05 708.112 332.819 709.262 332.617C712.121 332.091 715.121 331.588 718.324 331.157C720.501 330.839 722.7 330.598 724.935 330.363C736.663 329.1 748.284 328.898 759.49 329.669C766.921 330.2 774.434 331.105 781.853 332.354C803.199 335.947 824.343 342.455 844.63 351.697C896.941 375.502 940.846 413.322 965.091 455.495C986.403 492.642 989.807 528.645 973.747 547.308C960.019 563.234 929.785 569.044 892.796 562.818C874.319 559.708 854.948 553.785 835.167 545.168C816.832 537.154 798.332 526.918 780.149 514.793C752.478 492.546 708.173 464.154 653.862 455.013L653.022 454.871C574.408 441.963 503.694 458.008 442.93 502.598C422.909 513.365 403.086 517.186 383.944 513.964L384.014 513.976ZM378.057 370.641C338.478 363.979 317.908 367.962 311.385 383.626C297.533 411.617 308.525 456.631 336.441 486.185C350 500.553 366.525 509.701 384.232 512.682C403.094 515.856 422.62 512.093 442.284 501.519C503.294 456.754 574.31 440.615 653.31 453.589L654.15 453.73C708.74 462.919 753.238 491.451 781.008 513.751C799.057 525.817 817.499 535.972 835.764 543.974C855.446 552.538 874.747 558.449 893.084 561.535C929.583 567.679 959.391 562.049 972.809 546.467C988.472 528.241 985.044 492.809 964.005 456.176C939.929 414.283 896.245 376.643 844.167 352.95C823.944 343.755 802.94 337.27 781.699 333.695C774.35 332.458 766.873 331.559 759.476 331.033C748.346 330.239 736.795 330.453 725.143 331.693C722.943 331.934 720.779 332.181 718.567 332.492C715.364 332.924 712.405 333.397 709.546 333.923C708.396 334.126 707.241 334.363 706.05 334.594C703.22 335.161 700.343 335.791 697.559 336.51C695.458 337.019 693.386 337.57 691.273 338.15C688.822 338.816 686.587 339.483 684.456 340.167C682.974 340.637 681.526 341.113 680.032 341.653C677.668 342.442 675.135 343.382 671.977 344.613C667.78 346.245 664.014 347.877 660.517 349.627C642.821 358.338 624.74 371.265 605.257 389.1C589.81 403.262 562.525 407.374 521.877 401.719C518.43 401.247 514.82 400.675 511.111 400.051C488.4 396.228 464.14 390.274 440.708 384.532C418.245 379.024 397.058 373.839 378.022 370.635L378.057 370.641Z" fill="#8E7171"/>
<path d="M380.201 520.384C360.499 517.068 342.261 506.768 327.497 490.578C295.739 455.845 285.043 404.587 304.095 378.622C316.533 359.458 352.045 362.701 381.545 367.667C399.111 370.624 418.012 374.848 438.016 379.366C458.544 383.972 479.795 388.772 500.021 392.177C508.56 393.614 516.224 394.688 523.503 395.482C563.464 399.87 591.796 394.676 607.645 380.042C629.548 359.809 647.723 346.754 664.863 338.992C668.406 337.394 672.218 335.913 676.858 334.428C679.94 333.436 682.526 332.612 685.164 331.905C686.64 331.471 688.181 331.082 689.681 330.723C691.788 330.179 694.07 329.664 696.643 329.126C698.767 328.692 700.892 328.258 703.039 327.9C705.933 327.38 708.851 326.936 711.646 326.579C712.825 326.418 713.997 326.292 715.176 326.13C718.187 325.774 721.256 325.499 724.278 325.288C726.46 325.152 728.677 325.022 730.888 324.926C743 324.375 754.323 324.878 765.393 326.454C767.75 326.778 770.094 327.173 772.439 327.568C799.559 332.133 825.985 340.609 850.93 352.757C906.543 379.815 950.576 417.945 974.92 460.171C996.413 497.528 999.764 533.846 983.607 555.01C970.501 572.156 942.442 578.512 906.608 572.48C886.556 569.105 864.988 562.13 842.479 551.758C824.279 543.371 805.254 532.615 785.998 519.806C759.696 499.049 718.043 472.65 668.876 464.374C664.012 463.555 659.083 462.906 654.259 462.489C569.231 454.76 498.244 470.723 437.188 511.272C417.858 520.5 398.701 523.57 380.189 520.454L380.201 520.384ZM381.321 368.996C338.068 361.716 314.57 364.918 305.191 379.382C286.466 404.898 297.11 455.393 328.438 489.694C343.027 505.638 360.997 515.821 380.384 519.084C398.616 522.153 417.516 519.111 436.531 510.046C497.75 469.381 569.035 453.36 654.39 461.073C659.249 461.495 664.212 462.15 669.111 462.975C718.593 471.304 760.439 497.843 786.805 518.647C805.967 531.369 824.893 542.072 843.059 550.453C865.462 560.807 886.932 567.73 906.843 571.081C942.187 577.03 969.785 570.849 982.57 554.117C998.364 533.395 994.989 497.648 973.776 460.77C949.537 418.778 905.689 380.823 850.344 353.882C825.534 341.792 799.242 333.374 772.227 328.827C769.882 328.432 767.573 328.044 765.216 327.719C754.21 326.19 742.998 325.67 730.962 326.198C728.751 326.293 726.575 326.394 724.387 326.566C721.4 326.782 718.331 327.057 715.355 327.419C714.182 327.546 713.038 327.713 711.86 327.874C709.065 328.231 706.217 328.687 703.323 329.207C701.21 329.571 699.086 330.004 696.997 330.444C694.458 330.988 692.177 331.503 690.111 332.019C688.611 332.378 687.105 332.772 685.628 333.207C682.996 333.879 680.411 334.702 677.364 335.7C672.794 337.197 669.023 338.649 665.52 340.217C648.497 347.927 630.438 360.93 608.665 381.041C592.482 395.942 563.847 401.23 523.46 396.806C516.146 396.006 508.447 394.926 499.909 393.489C479.612 390.073 458.355 385.308 437.798 380.66C417.824 376.183 398.929 371.924 381.397 368.973L381.321 368.996Z" fill="#8E7171"/>
<path d="M376.644 526.979C355.157 523.362 335.404 512.016 319.523 494.128C284.394 454.619 274.185 397.471 298.064 374.262C314.273 356.847 351.884 360.444 386.564 366.281C401.891 368.861 417.824 372.119 434.725 375.611C451.772 379.092 469.402 382.743 486.479 385.617C501.107 388.079 513.711 389.733 525.004 390.627C565.264 393.879 594.204 387.635 611.006 372.047C628.159 356.086 648.558 338.585 669.894 329.623C673.496 328.107 677.424 326.79 682.315 325.527C685.18 324.75 687.999 324.038 690.824 323.506C692.318 323.182 693.882 322.87 695.405 322.587C697.447 322.211 699.629 321.859 702.465 321.473C704.601 321.185 706.737 320.897 708.901 320.65C711.836 320.317 714.759 320.053 717.56 319.877C718.762 319.792 719.923 319.735 721.084 319.679C724.059 319.532 727.134 319.438 730.226 319.455C732.349 319.453 734.467 319.486 736.62 319.524L736.865 319.566C749.244 319.779 760.519 320.993 771.331 323.245C801.663 329.681 830.56 339.941 857.24 353.748C915.468 383.872 960.76 423.292 984.83 464.789C1006.56 502.438 1009.83 539.03 993.553 562.62C980.883 581.026 954.707 587.95 919.923 582.095C898.717 578.526 875.131 570.491 849.878 558.255C831.783 549.454 812.269 538.185 791.929 524.761C755.028 496.213 717.718 478.638 680.974 472.453C672.471 471.022 663.902 470.191 655.513 470.002C597.364 468.703 510.871 472.453 431.464 519.84C412.912 527.652 394.479 530.053 376.667 527.055L376.644 526.979ZM386.34 367.611C352.011 361.832 314.831 358.236 299.025 375.179C275.578 397.958 285.829 454.213 320.539 493.22C336.211 510.857 355.696 522.086 376.867 525.65C394.434 528.607 412.576 526.229 430.847 518.585C510.494 471.059 597.237 467.315 655.527 468.638C663.986 468.839 672.63 469.646 681.169 471.083C718.123 477.304 755.63 494.983 792.66 523.625C812.936 537.002 832.38 548.26 850.411 557.014C875.53 569.192 898.976 577.203 920.077 580.754C954.336 586.521 980.01 579.8 992.387 561.848C1008.38 538.677 1005.09 502.657 983.604 465.445C959.673 424.189 914.568 384.943 856.573 354.93C830.027 341.182 801.229 330.975 771.002 324.556C760.26 322.317 749.096 321.085 736.793 320.848L736.548 320.807C734.424 320.809 732.306 320.777 730.183 320.779C727.126 320.768 724.051 320.862 721.111 321.014C719.915 321.065 718.748 321.156 717.587 321.213C714.821 321.395 711.904 321.623 709.004 321.962C706.84 322.209 704.71 322.462 702.603 322.791C699.767 323.177 697.62 323.535 695.613 323.916C694.09 324.2 692.566 324.483 691.067 324.842C688.277 325.379 685.569 326.075 682.634 326.84C677.848 328.12 673.926 329.402 670.4 330.895C649.256 339.782 628.945 357.189 611.915 373.063C594.815 388.925 565.565 395.296 524.879 392.009C513.551 391.109 500.912 389.449 486.285 386.987C469.173 384.107 451.537 380.491 434.46 376.969C417.588 373.518 401.661 370.226 386.369 367.651L386.34 367.611Z" fill="#8E7171"/>
<path d="M373.314 533.72C349.973 529.792 328.646 517.317 311.554 497.643C286.751 469.044 272.384 430.189 275.842 400.88C277.497 386.986 283.085 376.237 292.038 369.866C312.288 354.103 353.492 358.377 395.03 365.368C406.718 367.336 418.51 369.537 430.997 371.89C443.385 374.191 456.186 376.598 468.749 378.712C492.195 382.659 510.533 384.882 526.441 385.725C566.994 387.875 596.542 380.583 614.303 364.005C636.521 343.178 655.312 327.744 674.861 320.208C678.556 318.78 682.636 317.632 687.707 316.579C690.356 316.018 693.374 315.411 696.425 315.025C697.942 314.777 699.524 314.575 701.064 314.403C703.118 314.173 705.353 313.938 708.229 313.739C710.376 313.596 712.529 313.419 714.699 313.353C717.78 313.224 720.633 313.165 723.439 313.169C724.623 313.189 725.813 313.173 726.997 313.193C729.943 313.221 733.012 313.378 736.179 313.587C737.958 313.707 739.767 313.867 741.581 313.993L742.823 314.094C748.925 314.618 754.6 315.321 760.094 316.246C766.008 317.241 771.77 318.499 777.234 320.03C808.431 328.806 837.483 340.495 863.55 354.738C925.366 388.559 970.728 428.208 994.706 469.4C1016.73 507.423 1019.9 544.178 1003.46 570.258C990.996 589.994 966.494 597.452 932.655 591.756C910.539 588.034 885.187 578.946 857.277 564.752C839.177 555.555 819.733 544.081 797.825 529.711C761.937 502.412 726.079 485.621 691.26 479.76C679.677 477.81 668.074 477.045 656.768 477.515C580.608 480.595 499.895 488.915 425.71 528.368C408 534.811 390.42 536.636 373.378 533.767L373.314 533.72ZM394.812 366.663C353.589 359.724 312.712 355.433 292.836 370.9C284.163 377.102 278.78 387.49 277.189 400.999C273.761 429.917 287.978 468.387 312.576 496.7C329.453 516.158 350.552 528.486 373.543 532.356C390.34 535.184 407.699 533.393 425.099 527.078C499.442 487.543 580.301 479.212 656.647 476.092C668.059 475.639 679.772 476.388 691.425 478.349C726.454 484.245 762.51 501.141 798.527 528.534C820.336 542.852 839.745 554.32 857.815 563.476C885.627 577.618 910.844 586.646 932.821 590.345C966.1 595.947 990.094 588.727 1002.26 569.481C1018.21 544.216 1014.93 507.047 993.485 470.022C969.647 429.069 924.472 389.596 862.86 355.845C836.898 341.619 807.945 329.983 776.853 321.225C771.418 319.735 765.697 318.448 759.853 317.464C754.359 316.539 748.754 315.848 742.687 315.33L741.445 315.229C739.636 315.068 737.863 314.914 736.084 314.794C732.952 314.591 729.912 314.475 727.007 314.417C725.823 314.398 724.639 314.378 723.484 314.4C720.712 314.401 717.866 314.425 714.814 314.595C712.638 314.696 710.491 314.839 708.379 314.987C705.502 315.186 703.344 315.398 701.29 315.628C699.749 315.8 698.203 316.008 696.651 316.25C693.675 316.612 690.658 317.22 688.044 317.787C683.048 318.816 679.044 319.941 675.425 321.346C656.104 328.813 637.4 344.153 615.305 364.893C597.287 381.716 567.389 389.165 526.48 386.991C510.537 386.142 492.164 383.912 468.648 379.954C456.05 377.834 443.243 375.462 430.861 373.126C418.368 370.808 406.576 368.607 394.888 366.639L394.812 366.663Z" fill="#8E7171"/>
<path d="M370.241 540.649C344.975 536.396 321.906 522.729 303.551 501.151C276.065 468.828 260.929 424.915 266.746 394.421C269.357 380.832 275.97 370.831 285.972 365.5C312.183 350.452 359.258 356.829 418.048 366.725L435.475 369.658C467.845 375.107 499.252 380.07 527.808 380.812C568.042 381.865 599.074 373.24 617.495 355.945C638.159 336.439 658.483 318.314 679.73 310.74C683.553 309.405 687.755 308.386 692.96 307.607C695.656 307.198 698.754 306.748 701.847 306.549C703.387 306.377 704.986 306.286 706.584 306.196C709.093 306.042 711.654 306.006 713.819 305.975C715.983 305.943 718.177 305.953 720.364 305.997C723.485 306.055 726.338 306.211 729.149 306.397C730.322 306.486 731.529 306.582 732.702 306.671C735.647 306.915 738.756 307.259 741.888 307.678C742.804 307.796 743.679 307.943 744.589 308.096C745.849 308.308 747.178 308.532 748.491 308.645C759.037 309.701 770.21 312.373 782.927 316.78C815.358 328.066 843.731 340.791 869.611 355.722C935.218 393.527 980.55 433.35 1004.33 474.006C1026.34 511.918 1029.54 549.758 1013.11 577.89C1000.74 599.043 977.704 606.964 944.6 601.392C921.924 597.575 894.911 587.453 864.39 571.237C846.816 561.912 826.882 549.924 803.477 534.618C768.351 508.347 733.577 492.17 700.158 486.545C685.915 484.148 671.641 483.652 657.771 485.022C581.978 492.551 496.044 501.107 419.735 536.93C402.949 542.162 386.291 543.422 370.159 540.707L370.241 540.649ZM417.83 368.019C359.286 358.165 312.461 351.794 286.606 366.65C277.001 371.759 270.587 381.435 268.075 394.645C262.318 424.789 277.314 468.247 304.596 500.284C322.742 521.611 345.514 535.12 370.464 539.32C386.422 542.006 402.857 540.779 419.34 535.641C495.766 499.766 581.811 491.192 657.715 483.646C671.695 482.258 686.075 482.772 700.457 485.193C734.122 490.859 769.065 507.1 804.319 533.465C827.654 548.759 847.558 560.706 865.104 569.99C895.497 586.113 922.369 596.212 944.906 600.005C977.415 605.477 999.981 597.765 1012.05 577.136C1028.23 549.464 1025.02 512.091 1003.26 474.616C979.621 434.165 934.441 394.511 869.032 356.811C843.216 341.927 814.913 329.214 782.581 317.98C770.004 313.597 758.895 310.972 748.454 309.934C747.112 309.78 745.777 309.591 744.482 309.373C743.607 309.226 742.697 309.073 741.816 308.961C738.684 308.541 735.61 308.204 732.7 307.966C731.527 307.876 730.32 307.781 729.147 307.691C726.377 307.477 723.518 307.355 720.432 307.304C718.245 307.259 716.086 307.255 713.922 307.287C711.757 307.318 709.231 307.361 706.728 307.479C705.165 307.575 703.601 307.672 702.026 307.838C698.939 308.002 695.905 308.499 693.209 308.908C688.074 309.698 683.954 310.659 680.201 312.006C659.187 319.476 638.986 337.513 618.45 356.898C599.731 374.465 568.396 383.183 527.8 382.141C499.14 381.382 467.656 376.442 435.252 370.987L417.79 368.048L417.83 368.019Z" fill="#8E7171"/>
<path d="M367.423 547.764C340.513 543.235 314.984 527.931 295.582 504.666C265.191 468.221 249.618 420.494 257.77 388.522C261.198 374.999 268.873 365.535 279.94 361.14C311.604 347.693 365.146 355.842 421.838 364.521C458.396 370.099 496.213 375.889 529.32 375.887C569.807 375.867 601.488 366.164 620.867 347.881C644.255 325.667 663.831 308.136 684.767 301.336C688.69 300.054 693.043 299.204 698.422 298.671C701.06 298.396 704.316 298.08 707.518 298.08C709.006 298.007 710.517 298.009 712.314 298.024C714.834 298.016 717.331 298.149 719.647 298.287C721.822 298.401 724.027 298.557 726.261 298.753C729.417 299.032 732.281 299.334 735.092 299.736C736.282 299.936 737.484 300.066 738.679 300.232C741.736 300.674 744.809 301.227 747.912 301.822C749.341 302.098 750.764 302.41 752.222 302.727L754.584 303.232C767.717 306.019 778.645 309.297 788.941 313.548C823.28 327.817 850.947 341.538 876.032 356.695C945.664 398.81 990.879 438.686 1014.32 478.6C1036.65 516.962 1039.76 554.93 1023.14 585.476C1010.96 607.813 988.529 616.412 956.439 611.011C933.378 607.129 904.926 595.937 871.865 577.711C849.966 565.644 826.997 550.951 809.449 539.544C774.934 514.131 740.976 498.452 708.572 492.997C691.845 490.182 675.207 490.043 659.067 492.506C646.171 494.508 632.966 496.422 620.204 498.266C550.737 508.407 478.906 518.905 414.057 545.434C398.323 549.548 382.652 550.292 367.464 547.735L367.423 547.764ZM742.142 302.109C740.917 301.903 739.692 301.697 738.497 301.532C737.307 301.331 736.105 301.201 734.945 301.042C732.168 300.646 729.304 300.344 726.184 300.071C723.985 299.88 721.78 299.725 719.604 299.611C717.288 299.473 714.785 299.375 712.306 299.353C710.544 299.345 709.033 299.342 707.546 299.415C704.594 299.422 701.857 299.645 698.56 299.989C693.292 300.505 689.014 301.332 685.203 302.597C664.529 309.332 645.075 326.776 621.782 348.862C602.14 367.425 570.155 377.221 529.307 377.251C496.089 377.271 458.236 371.475 421.614 365.85C365.132 357.207 311.771 349.052 280.417 362.371C269.775 366.587 262.37 375.735 259.048 388.845C251.118 419.919 266.947 468.265 296.592 503.793C315.785 526.807 341.017 541.953 367.612 546.429C382.625 548.956 398.08 548.212 413.586 544.168C478.511 517.616 550.418 507.094 619.955 496.965C632.717 495.121 645.893 493.166 658.818 491.205C675.075 488.69 691.888 488.858 708.755 491.697C741.369 497.187 775.496 512.931 810.174 538.443C827.652 549.838 850.592 564.49 872.456 576.552C905.348 594.713 933.666 605.847 956.587 609.705C988.012 614.994 1010 606.646 1021.88 584.833C1038.29 554.683 1035.2 517.222 1013.09 479.257C989.805 439.512 944.706 399.8 875.266 357.825C850.251 342.68 822.648 329.005 788.379 314.748C778.188 310.515 767.33 307.248 754.261 304.509L751.899 304.003C750.476 303.692 749.053 303.381 747.624 303.104C745.781 302.722 743.962 302.416 742.107 302.103L742.142 302.109Z" fill="#8E7171"/>
<path d="M364.863 555.067C335.853 550.184 308.424 533.553 287.607 508.215C254.935 468.437 238.605 415.798 248.748 383.118C252.987 369.48 261.676 360.403 273.862 356.843C308.339 346.136 360.64 353.321 415.992 360.983C455.169 366.391 495.654 371.946 530.746 371.055C571.479 369.998 603.809 359.217 624.158 339.874C646.412 318.62 667.422 298.561 689.729 291.956C693.785 290.733 698.255 290.046 703.809 289.758C707.076 289.589 710.011 289.471 713.109 289.669C714.759 289.695 716.44 289.762 717.968 289.875C720.569 290.025 723.183 290.321 725.405 290.587C727.592 290.848 729.814 291.114 732.06 291.456C735.005 291.916 737.945 292.41 740.972 293.028C742.156 293.263 743.374 293.504 744.552 293.774C747.503 294.415 750.583 295.149 753.79 295.977C755.137 296.311 756.472 296.716 757.814 297.086C758.706 297.344 759.563 297.596 760.461 297.819C773.669 301.445 784.59 305.405 794.768 310.356C821.158 323.107 852.176 338.723 882.226 357.738C957.06 405.08 1000.82 443.776 1024.08 483.264C1046.41 521.591 1049.56 560.609 1032.86 593.155C1020.63 617.032 999.324 626.035 967.649 620.739C944.063 616.769 915.122 604.847 879.147 584.26C858.694 572.581 837.264 558.794 815.269 544.517C781.215 519.792 747.897 504.581 716.263 499.256C697.261 496.057 678.394 496.335 660.204 500.071C633.366 505.589 606.015 510.302 579.552 514.876C519.138 525.318 462.068 535.135 408.216 554.055C393.591 557.133 379.03 557.487 364.857 555.102L364.863 555.067ZM735.242 293.286C734.088 293.092 732.968 292.904 731.848 292.715C729.603 292.373 727.415 292.113 725.228 291.853C723.041 291.592 720.428 291.296 717.861 291.152C716.333 291.039 714.687 290.978 713.037 290.951C709.974 290.76 707.074 290.883 703.848 291.023C698.44 291.3 694.046 291.963 690.106 293.135C668.132 299.687 647.216 319.619 625.091 340.75C604.49 360.303 571.886 371.217 530.79 372.285C495.623 373.2 455.039 367.592 415.821 362.214C360.603 354.61 308.448 347.414 274.234 358.057C262.468 361.472 254.083 370.24 249.99 383.435C239.976 415.777 256.219 467.862 288.624 507.307C309.231 532.394 336.397 548.873 365.092 553.703C379.09 556.059 393.471 555.71 407.874 552.667C461.755 533.787 518.872 523.906 579.356 513.476C605.784 508.896 633.135 504.184 659.938 498.66C678.28 494.877 697.328 494.594 716.469 497.816C748.314 503.176 781.794 518.487 816.012 543.311C837.943 557.541 859.373 571.328 879.791 583.002C915.638 603.495 944.444 615.358 967.855 619.299C998.86 624.518 1019.74 615.73 1031.68 592.453C1048.13 560.332 1045.02 521.752 1022.9 483.822C999.79 444.538 956.16 405.936 881.519 358.734C851.498 339.76 820.544 324.191 794.189 311.445C784.075 306.542 773.259 302.599 760.115 299.02C759.223 298.762 758.325 298.538 757.468 298.286C756.126 297.917 754.82 297.553 753.479 297.183C750.307 296.362 747.192 295.622 744.276 294.987C743.093 294.752 741.88 294.475 740.696 294.24C738.888 293.864 737.068 293.558 735.283 293.257L735.242 293.286Z" fill="#8E7171"/>
<path d="M362.559 562.556C331.344 557.302 301.888 539.251 279.61 511.689C244.877 468.758 227.709 411.266 239.661 377.884C244.624 364.008 254.345 355.213 267.767 352.436C304.509 344.305 355.301 350.624 409.02 357.292C451.214 362.524 494.849 367.962 532.165 366.042C573.145 363.948 606.09 352.084 627.438 331.721L627.648 331.541C652.753 307.458 672.624 288.394 694.679 282.43C698.904 281.271 703.526 280.754 709.179 280.734C712.346 280.728 715.438 280.745 718.646 281.141C720.32 281.243 721.977 281.45 723.563 281.645C724.549 281.775 725.535 281.905 726.55 282.075L728.544 282.411C729.384 282.553 730.224 282.694 731.099 282.841C732.93 283.078 734.773 283.46 736.61 283.877L737.858 284.159C741.089 284.847 743.993 285.551 746.822 286.279L747.137 286.332C748.233 286.66 749.335 286.954 750.431 287.282C753.423 288.11 756.438 289.013 759.709 290.103C760.968 290.531 762.263 290.964 763.522 291.392C764.472 291.732 765.429 292.037 766.379 292.377C779.662 296.842 790.529 301.549 800.607 307.094C828.038 322.215 859.094 339.312 888.473 358.681C947.259 397.46 1005.6 439.941 1033.88 487.864C1056.63 526.728 1059.66 565.798 1042.69 600.782C1030.51 625.889 1009.59 635.569 978.625 630.356C954.969 626.374 924.834 613.424 886.476 590.746C868.443 580.085 849.851 568.035 830.188 555.301L821.137 549.425C787 524.975 755.099 510.541 723.604 505.24C702.433 501.676 681.5 502.469 661.389 507.573C620.261 518.023 578.946 525.529 538.962 532.827C490.883 541.604 445.518 549.867 402.427 562.577C388.994 564.776 375.611 564.753 362.594 562.562L362.559 562.556ZM726.32 283.44C725.34 283.275 724.36 283.11 723.41 282.986C721.823 282.791 720.161 282.619 718.528 282.488C715.349 282.132 712.298 282.087 709.165 282.099C703.623 282.101 699.141 282.642 695.033 283.749C673.31 289.66 653.574 308.568 628.598 332.528L628.382 332.743C606.817 353.321 573.598 365.319 532.256 367.424C494.835 369.327 451.16 363.917 408.896 358.674C355.246 352.018 304.595 345.722 268.08 353.784C255.148 356.427 245.76 364.954 240.95 378.353C229.144 411.292 246.219 468.265 280.684 510.863C302.758 538.139 331.918 556.032 362.817 561.233C375.695 563.401 388.938 563.4 402.149 561.235C445.234 548.56 490.64 540.268 538.754 531.497C578.697 524.228 620.019 516.688 661.07 506.26C681.368 501.116 702.482 500.317 723.828 503.91C755.533 509.247 787.596 523.78 821.862 548.324L830.884 554.159C850.547 566.893 869.145 578.908 887.143 589.563C925.338 612.142 955.333 625.069 978.849 629.027C1009.15 634.128 1029.63 624.698 1041.5 600.185C1058.26 565.598 1055.22 526.994 1032.72 488.533C1004.59 440.849 946.4 398.502 887.742 359.817C858.398 340.454 827.342 323.357 799.975 308.283C789.932 302.744 779.123 298.119 765.945 293.67C764.995 293.331 764.039 293.026 763.088 292.686C761.829 292.258 760.54 291.789 759.275 291.397C756.039 290.312 753.024 289.409 750.068 288.588C748.965 288.295 747.863 288.001 746.796 287.714L746.481 287.661C743.7 286.869 740.79 286.199 737.629 285.523L736.381 285.241C734.573 284.865 732.771 284.454 730.974 284.223C730.1 284.076 729.254 283.969 728.379 283.822L726.384 283.486L726.32 283.44Z" fill="#8E7171"/>
<path d="M360.54 570.274C327.05 564.637 295.473 545.078 271.635 515.239C234.393 468.612 216.764 407.446 230.556 372.97C236.26 358.751 247.025 350.168 261.683 348.175C299.991 342.501 348.835 347.989 400.578 353.785C446.348 358.935 493.711 364.246 533.625 361.216C574.811 358.113 608.41 345.136 630.723 323.749L633.083 321.485C658.001 297.443 677.714 278.46 699.64 273.05C704.029 271.99 708.737 271.596 714.53 271.815C717.528 271.96 720.743 272.106 724.032 272.659L724.207 272.689C725.793 272.884 727.502 273.207 729.188 273.455L729.853 273.567C731.847 273.903 733.819 274.379 735.895 274.872L736.863 275.107C739.598 275.747 741.668 276.275 743.662 276.827C746.829 277.683 749.774 278.575 752.671 279.53C753.867 279.911 755.091 280.333 756.281 280.749C759.243 281.751 762.362 282.888 765.598 284.188C766.846 284.686 768.093 285.183 769.335 285.716C770.315 286.097 771.288 286.513 772.262 286.928C785.607 292.304 796.473 297.658 806.48 303.839C812.606 307.639 818.807 311.417 825.003 315.229C848.066 329.363 871.939 344.028 894.748 359.666C957.145 402.433 1015.47 444.803 1043.72 492.47C1066.54 531.346 1069.61 571.466 1052.56 608.414C1040.42 634.787 1019.72 645.114 989.344 640.002C965.373 635.967 935.023 622.369 893.805 597.231C879.088 588.243 864.04 578.444 848.112 568.102C841.136 563.582 834.102 558.981 826.957 554.397C793.128 530.467 761.612 516.313 730.607 511.094C707.371 507.183 684.512 508.515 662.573 515.074C606.828 531.769 551.823 541.502 498.662 550.971C462.903 557.325 429.11 563.327 396.632 571.133C384.478 572.577 372.368 572.265 360.575 570.28L360.54 570.274ZM729.623 274.931L728.993 274.825C727.314 274.543 725.669 274.266 724.012 274.059L723.802 274.023C720.583 273.482 717.445 273.313 714.475 273.209C708.829 272.978 704.196 273.349 699.953 274.397C678.371 279.685 658.781 298.581 633.997 322.466L631.637 324.73C609.068 346.362 575.235 359.443 533.687 362.558C493.668 365.569 446.235 360.247 400.389 355.12C348.751 349.342 300.018 343.837 261.856 349.499C247.676 351.429 237.285 359.715 231.769 373.462C218.118 407.53 235.701 468.113 272.675 514.407C296.303 543.994 327.589 563.361 360.763 568.945C372.451 570.912 384.422 571.2 396.354 569.792C428.797 561.98 462.59 555.977 498.384 549.629C551.504 540.19 606.439 530.444 662.143 513.778C684.275 507.144 707.35 505.813 730.761 509.753C761.976 515.008 793.661 529.225 827.653 553.255C834.763 557.833 841.832 562.441 848.808 566.96C864.731 577.338 879.749 587.095 894.466 596.083C935.521 621.122 965.737 634.661 989.533 638.667C1019.24 643.667 1039.44 633.578 1051.33 607.811C1068.17 571.259 1065.14 531.577 1042.57 493.104C1014.5 445.682 956.257 403.435 893.994 360.726C871.219 345.094 847.376 330.47 824.313 316.336C818.117 312.524 811.951 308.752 805.79 304.945C795.847 298.812 785.051 293.469 771.805 288.146C770.825 287.766 769.852 287.35 768.878 286.934C767.63 286.436 766.389 285.904 765.141 285.406C761.934 284.147 758.85 283.016 755.888 282.014C754.663 281.592 753.468 281.211 752.279 280.795C749.416 279.845 746.506 278.96 743.34 278.103C741.071 277.47 738.826 276.912 736.61 276.395L735.642 276.16C733.601 275.673 731.63 275.197 729.705 274.873L729.623 274.931Z" fill="#8E7171"/>
<path d="M358.807 578.219C322.938 572.182 289.14 551.062 263.667 518.754C224.016 468.484 205.838 403.736 221.399 368.156C227.786 353.512 239.601 345.105 255.611 343.844C294.621 340.41 340.999 345.159 390.106 350.152C440.235 355.28 492.101 360.557 535.068 356.279C576.495 352.174 610.708 338.113 634.026 315.672L638.198 311.627C663.058 287.503 682.706 268.473 704.608 263.635C709.131 262.633 713.991 262.408 719.917 262.902C723.003 263.17 726.363 263.52 729.763 264.272C731.512 264.566 733.314 264.977 734.836 265.342C737.536 265.976 740.248 266.756 742.58 267.436C744.429 267.999 746.86 268.732 749.414 269.594C752.651 270.678 755.601 271.75 758.469 272.881C759.682 273.372 760.901 273.829 762.113 274.321C765.081 275.504 768.235 276.862 771.435 278.372C772.636 278.934 773.872 279.502 775.102 280.104C776.099 280.596 777.102 281.053 778.104 281.509C786.482 285.401 799.178 291.639 812.273 300.641C823.952 308.65 835.957 316.642 847.607 324.394C865.242 336.139 883.466 348.234 900.948 360.673C967.376 407.932 1024.78 448.744 1053.45 497.094C1076.71 536.582 1079.72 576.62 1062.32 616.099C1050.14 643.76 1029.65 654.736 999.731 649.699C975.551 645.629 945.079 631.472 901.053 603.774C888.912 596.155 876.639 588.047 863.613 579.488C853.572 572.869 843.204 566.053 832.748 559.329C799.164 535.871 767.969 521.951 737.314 516.791C712.118 512.55 687.356 514.497 663.682 522.598C592.851 546.825 524.701 557.691 458.768 568.211C435.065 571.991 412.692 575.563 390.803 579.684C380.056 580.465 369.305 579.986 358.807 578.219ZM726.891 265.083C724.441 264.671 722.032 264.445 719.798 264.249C714.018 263.744 709.298 263.992 704.892 264.941C683.363 269.699 663.838 288.641 639.147 312.614L634.975 316.659C611.442 339.316 576.918 353.504 535.235 357.638C492.122 361.928 440.192 356.604 389.988 351.499C340.956 346.483 294.648 341.746 255.749 345.162C240.282 346.407 228.841 354.517 222.682 368.659C207.296 403.838 225.393 467.997 264.747 517.892C290.011 549.949 323.518 570.876 359.071 576.861C369.465 578.61 380.07 579.1 390.671 578.331C412.484 574.233 434.892 570.667 458.601 566.852C524.463 556.321 592.579 545.449 663.293 521.274C687.16 513.097 712.138 511.151 737.578 515.433C768.443 520.628 799.808 534.612 833.555 558.17C844.011 564.893 854.414 571.716 864.42 578.328C877.446 586.888 889.725 594.961 901.83 602.574C945.728 630.178 975.996 644.265 1000.04 648.312C1029.26 653.23 1049.31 642.505 1061.16 615.473C1078.35 576.425 1075.37 536.825 1052.34 497.698C1023.8 449.622 966.534 408.869 900.235 361.704C882.753 349.265 864.529 337.17 846.929 325.43C835.314 317.684 823.273 309.687 811.595 301.678C798.558 292.757 785.961 286.572 777.618 282.686C776.616 282.23 775.584 281.732 774.587 281.241C773.351 280.673 772.156 280.076 770.92 279.508C767.714 278.034 764.595 276.681 761.627 275.498C760.415 275.006 759.202 274.515 757.983 274.058C755.15 272.933 752.199 271.861 748.998 270.783C746.479 269.927 744.048 269.194 742.194 268.666C739.896 267.992 737.185 267.212 734.519 266.583C732.997 266.219 731.224 265.849 729.475 265.554C728.571 265.366 727.702 265.184 726.862 265.042L726.891 265.083Z" fill="#8E7171"/>
<path d="M357.365 586.357C318.976 579.896 282.865 557.128 255.663 522.262C213.666 468.397 194.969 400.108 212.194 363.405C219.27 348.302 232.176 340.043 249.503 339.506C288.032 338.078 333.197 342.335 376.875 346.45C432.381 351.692 489.801 357.113 536.504 351.378C578.137 346.263 613 331.125 637.322 307.631L643.13 301.99C668.013 277.726 687.651 258.55 709.575 254.219C714.267 253.283 719.243 253.221 725.303 253.989C726.785 254.167 728.26 254.379 729.8 254.638C731.83 254.98 733.667 255.397 735.387 255.866C737.125 256.231 738.874 256.741 740.525 257.199C743.236 257.979 745.994 258.911 748.367 259.778C750.979 260.721 753.183 261.524 755.276 262.344C758.483 263.603 761.439 264.856 764.377 266.213C765.578 266.775 766.814 267.343 768.05 267.911C771.052 269.315 774.206 270.889 777.418 272.545C778.642 273.183 779.86 273.855 781.084 274.493C782.075 275.019 783.095 275.587 784.121 276.119C792.48 280.548 805.117 287.567 818.21 297.432C834.596 309.758 851.572 321.788 867.964 333.432C880.919 342.626 894.357 352.154 907.259 361.663C911.967 365.118 916.606 368.56 921.221 371.927C985.624 419.241 1036.48 456.577 1063.33 501.705C1086.71 541.288 1089.7 582.328 1072.23 623.702C1060.01 652.652 1039.7 664.304 1010.09 659.321C980.49 654.338 941.525 631.629 908.451 610.271C898.421 603.799 888.362 597.07 877.686 589.949C865.033 581.525 851.967 572.779 838.644 564.278C805.281 541.217 774.295 527.548 743.92 522.436C716.8 517.871 690.205 520.444 664.895 530.14C578.591 563.129 494.164 574.061 419.674 583.681C407.683 585.223 396.352 586.697 385.043 588.247C375.744 588.552 366.498 587.895 357.435 586.369L357.365 586.357ZM729.507 255.956C728.002 255.702 726.526 255.49 725.08 255.318C719.194 254.58 714.323 254.659 709.783 255.549C688.267 259.805 668.723 278.853 644.009 302.965L638.237 308.612C613.698 332.322 578.561 347.594 536.671 352.737C489.823 358.483 432.333 353.051 376.756 347.797C333.113 343.688 288.024 339.408 249.565 340.848C232.781 341.368 220.313 349.377 213.43 363.973C196.386 400.239 215.003 467.938 256.737 521.436C283.73 556.05 319.515 578.62 357.588 585.028C366.582 586.542 375.763 587.152 384.876 586.888C396.149 585.332 407.475 583.893 419.472 582.316C493.892 572.685 578.208 561.77 664.395 528.833C689.933 519.068 716.75 516.459 744.115 521.066C774.665 526.208 805.814 539.976 839.346 563.101C852.669 571.603 865.735 580.348 878.387 588.773C889.064 595.893 899.123 602.622 909.153 609.094C942.093 630.394 979.914 652.838 1010.29 657.951C1039.16 662.811 1059.03 651.444 1070.95 623.164C1088.25 582.192 1085.26 541.548 1062.1 502.362C1035.4 457.474 984.636 420.189 920.327 372.963C915.746 369.603 911.067 366.189 906.364 362.7C893.463 353.19 880.06 343.669 867.07 334.468C850.678 322.824 833.702 310.795 817.287 298.428C804.252 288.644 791.685 281.637 783.361 277.214C782.335 276.682 781.315 276.115 780.289 275.582C779.071 274.909 777.847 274.272 776.658 273.64C773.452 271.949 770.327 270.416 767.36 269.018C766.124 268.45 764.923 267.888 763.722 267.326C760.813 266.009 757.857 264.756 754.685 263.503C752.592 262.683 750.423 261.886 747.846 260.949C745.502 260.123 742.75 259.156 740.103 258.423C738.488 257.971 736.732 257.496 735 257.096C733.315 256.633 731.507 256.256 729.512 255.921L729.507 255.956Z" fill="#8E7171"/>
<path d="M356.209 594.724C315.231 587.826 276.672 563.351 247.694 525.777C204.092 469.267 184.486 395.898 203.013 358.73C210.785 343.133 224.752 334.98 243.431 335.175C279.887 335.376 320.508 339.048 359.788 342.567C422.178 348.176 486.662 353.959 537.977 346.482C579.809 340.394 615.286 324.172 640.625 299.554C643.079 297.161 645.492 294.798 647.859 292.498C672.818 267.996 692.52 248.651 714.549 244.769C719.591 243.891 724.654 244.384 730.031 244.929L730.626 245.029C733.782 245.309 736.861 246.043 740.925 247.338C742.751 247.826 744.593 248.423 746.162 248.939C749.025 249.889 751.922 251.06 754.109 251.967C756.668 253.01 758.948 254.005 761.052 254.971C764.293 256.451 767.29 257.891 770.234 259.43C771.423 260.061 772.647 260.699 773.906 261.343C776.914 262.928 780.067 264.718 783.279 266.589C784.491 267.297 785.662 268.034 786.91 268.747C787.924 269.349 788.967 269.993 790.016 270.601C798.357 275.566 810.969 283.372 824.062 294.101C844.617 310.941 865.974 326.874 886.59 342.286C895.477 348.925 904.649 355.793 913.517 362.537C923.091 369.796 932.415 376.832 941.522 383.653C1000.84 428.241 1047.67 463.425 1073.15 506.2C1096.66 545.876 1099.66 587.926 1082.08 631.224C1069.83 661.463 1049.59 673.774 1020.23 668.832C990.865 663.89 952.118 640.75 915.763 616.646C907.575 611.203 899.37 605.649 890.68 599.762C875.755 589.66 860.318 579.185 844.459 569.069C811.218 546.353 780.419 532.859 750.289 527.788C720.159 522.716 692.95 526.158 666.033 537.49C563.717 580.517 466.786 588.985 381.286 596.463L379.168 596.646C371.444 596.569 363.75 595.885 356.191 594.613L356.209 594.724ZM732.689 246.671C731.954 246.548 731.184 246.418 730.438 246.364L729.843 246.264C724.564 245.771 719.577 245.256 714.716 246.128C693.131 249.941 673.523 269.157 648.738 293.473C646.372 295.773 643.959 298.136 641.499 300.564C615.949 325.363 580.198 341.718 538.109 347.835C486.649 355.323 422.094 349.529 359.634 343.908C320.389 340.395 279.803 336.729 243.383 336.534C225.281 336.328 211.716 344.225 204.173 359.321C185.857 396.093 205.422 468.843 248.728 524.98C277.502 562.268 315.763 586.585 356.392 593.423C363.88 594.684 371.504 595.356 379.082 595.444L381.124 595.284C466.514 587.824 563.299 579.368 665.457 536.422C692.602 525.02 721.193 521.703 750.448 526.628C779.703 531.552 811.756 545.292 845.126 568.103C860.949 578.212 876.428 588.659 891.347 598.795C900.036 604.682 908.207 610.23 916.401 615.638C952.627 639.648 990.296 662.571 1020.32 667.625C1049.37 672.514 1068.54 660.813 1080.71 630.848C1098.11 587.952 1095.12 546.264 1071.86 506.991C1046.49 464.484 999.756 429.353 940.564 384.859C931.491 378.044 922.133 371.001 912.559 363.742C903.655 356.992 894.483 350.125 885.632 343.491C864.986 328.038 843.63 312.106 823.074 295.265C810.011 284.577 797.468 276.783 789.192 271.865C788.143 271.257 787.099 270.613 786.085 270.011C784.879 269.269 783.666 268.561 782.489 267.859C779.278 265.988 776.159 264.204 773.151 262.618C771.927 261.981 770.709 261.308 769.479 260.705C766.564 259.208 763.609 257.739 760.362 256.293C758.257 255.327 755.972 254.367 753.447 253.331C751.296 252.429 748.427 251.299 745.605 250.32C744.072 249.81 742.264 249.218 740.439 248.731C737.401 247.752 734.952 247.124 732.642 246.736L732.689 246.671Z" fill="#8E7171"/>
<path d="M355.367 603.358C311.659 596.002 270.6 569.703 239.726 529.292C193.9 469.314 173.711 392.358 193.756 354.079C202.193 337.946 217.257 329.906 237.324 330.838C269.408 332.21 303.765 335.259 336.984 338.225C408.386 344.596 482.273 351.17 539.378 341.574C581.375 334.507 617.537 317.213 643.887 291.506C646.814 288.653 649.66 285.859 652.429 283.088C677.506 258.317 697.313 238.775 719.446 235.342C724.435 234.563 729.895 234.835 735.984 236.075C739.011 236.693 742.615 237.515 746.41 238.91C748.259 239.473 750.119 240.181 751.704 240.808C754.614 241.909 757.517 243.261 759.721 244.279C762.327 245.473 764.618 246.614 766.739 247.691C769.986 249.352 772.988 250.973 775.973 252.698C777.185 253.406 778.397 254.113 779.674 254.868C782.687 256.634 785.846 258.604 789.086 260.733C790.287 261.51 791.517 262.329 792.746 263.147C793.749 263.819 794.786 264.498 795.817 265.211C808.837 273.805 819.664 281.958 829.818 290.897C853.862 312.246 878.9 331.747 903.11 350.606C908.681 354.925 914.216 359.238 919.676 363.574C933.218 374.198 946.317 384.244 959.008 393.934C1014.54 436.41 1058.35 469.933 1082.87 510.858C1106.82 551.182 1109.73 593.074 1091.83 638.944C1079.5 670.5 1059.33 683.435 1030.15 678.523C1000.96 673.61 966.8 652.933 923.01 623.189C916.425 618.699 909.711 614.116 902.946 609.416C885.952 597.707 868.411 585.619 850.239 574.071C817.125 551.663 786.477 538.339 756.487 533.292C726.497 528.244 695.625 532.075 667.13 545.084C559.776 594.098 459.188 601.842 373.326 605.266C367.294 604.971 361.252 604.313 355.338 603.318L355.367 603.358ZM733.52 237.028C728.411 236.168 723.861 236.049 719.648 236.707C697.923 240.064 678.28 259.491 653.343 284.069C650.58 286.805 647.729 289.635 644.801 292.487C618.241 318.375 581.84 335.808 539.586 342.904C482.295 352.54 408.337 345.955 336.824 339.601C303.64 336.641 269.318 333.597 237.24 332.191C217.745 331.283 203.119 339.073 194.945 354.711C175.116 392.558 195.265 468.896 240.8 528.465C271.471 568.59 312.239 594.696 355.596 601.994C361.475 602.984 367.448 603.63 373.369 603.943C459.015 600.518 559.457 592.785 666.577 543.876C695.306 530.763 725.63 526.767 756.705 531.997C787.78 537.228 817.722 550.469 850.964 572.97C869.107 584.477 886.677 596.607 903.671 608.315C910.477 612.986 917.15 617.598 923.735 622.088C967.397 651.738 1002.23 672.458 1030.37 677.194C1058.5 681.929 1078.33 669.728 1090.58 638.446C1108.34 593.02 1105.47 551.495 1081.75 511.568C1057.36 470.847 1013.63 437.371 958.213 395.023C945.522 385.333 932.423 375.287 918.881 364.663C913.381 360.356 907.88 356.049 902.315 351.695C878.076 332.795 853.038 313.294 828.965 291.904C818.84 283.006 808.083 274.865 795.127 266.318C794.09 265.639 793.059 264.926 792.056 264.254C790.826 263.435 789.632 262.623 788.431 261.845C785.22 259.758 782.061 257.788 779.083 256.027C777.841 255.279 776.594 254.565 775.416 253.863C772.467 252.144 769.465 250.524 766.253 248.868C764.132 247.791 761.87 246.691 759.27 245.462C757.066 244.444 754.157 243.127 751.323 242.003C749.767 241.417 747.907 240.708 746.064 240.11C742.339 238.728 738.764 237.946 735.807 237.341C735.072 237.217 734.343 237.058 733.608 236.935L733.52 237.028Z" fill="#8E7171"/>
<path d="M354.845 612.227C308.303 604.393 264.575 576.206 231.751 532.841C183.737 469.402 162.958 388.893 184.516 349.538C193.625 332.834 209.786 324.908 231.24 326.576C255.582 328.408 280.879 330.759 305.32 333.075C389.21 340.937 475.97 349.066 540.838 336.748C583.029 328.742 619.776 310.324 647.207 283.54C650.566 280.257 653.809 277.026 656.97 273.853C682.205 248.785 702.129 228.974 724.401 225.997C729.554 225.317 734.996 225.694 741.329 227.191C744.164 227.884 747.96 228.847 751.965 230.492C753.493 231.037 755.178 231.717 757.352 232.694C759.702 233.701 762.191 234.947 765.467 236.65C768.049 237.984 770.352 239.27 772.555 240.505C775.708 242.294 778.809 244.183 781.834 246.095C783.069 246.878 784.299 247.697 785.535 248.48C788.519 250.422 791.613 252.561 794.987 254.963C796.205 255.852 797.423 256.74 798.676 257.635C799.666 258.377 800.692 259.125 801.718 259.873C814.713 269.254 825.492 278.119 835.674 287.746C863.053 313.865 891.662 336.953 919.321 359.269L925.975 364.634C942.89 378.308 959.094 390.855 974.757 402.988C1027.45 443.762 1068.98 476.004 1092.74 515.54C1116.84 555.963 1119.77 598.864 1101.69 646.646C1089.28 679.52 1069.11 693.103 1040.1 688.22C1008.85 682.96 968.76 656.464 930.362 629.75C925.211 626.149 919.96 622.496 914.686 618.766C895.822 605.556 876.352 591.883 856.088 579.084C823.038 556.939 792.478 543.738 762.628 538.713C730.048 533.229 698.311 537.923 668.302 552.655C556.429 607.563 453.475 614.405 367.561 613.864C363.302 613.507 359.045 612.934 354.845 612.227ZM736.936 227.639C732.457 226.885 728.408 226.779 724.58 227.286C702.745 230.229 682.956 249.883 657.896 274.764C654.735 277.937 651.458 281.162 648.098 284.445C620.492 311.416 583.511 329.938 541.058 338.008C476.003 350.366 389.138 342.219 305.172 334.381C280.726 332.1 255.434 329.714 231.092 327.882C210.209 326.238 194.516 333.956 185.671 350.164C164.364 389.094 185.068 468.978 232.826 532.015C265.475 575.135 308.877 603.123 355.069 610.898C359.233 611.599 363.456 612.166 367.644 612.511C453.378 613.058 556.116 606.215 667.75 551.447C698.033 536.581 730.027 531.859 762.886 537.39C792.911 542.444 823.676 555.715 856.854 577.954C877.118 590.753 896.617 604.466 915.481 617.677C920.761 621.371 926.006 625.06 931.157 628.661C969.427 655.281 1009.39 681.683 1040.36 686.896C1069.05 691.726 1088.14 678.789 1100.48 646.154C1118.38 598.774 1115.46 556.27 1091.62 516.215C1067.97 476.877 1026.53 444.723 973.974 404.007C958.276 391.868 942.071 379.321 925.157 365.647L918.503 360.283C890.85 337.931 862.206 314.837 834.798 288.678C824.644 279.091 813.929 270.274 800.969 260.898C799.944 260.15 798.918 259.402 797.928 258.66C796.681 257.73 795.463 256.842 794.239 255.988C790.9 253.592 787.799 251.487 784.85 249.552C783.621 248.734 782.35 247.944 781.15 247.167C778.16 245.261 775.059 243.372 771.935 241.623C769.767 240.395 767.493 239.149 764.911 237.815C761.67 236.119 759.175 234.907 756.86 233.906C754.715 232.97 753.065 232.296 751.537 231.751C747.602 230.118 743.876 229.167 741.077 228.48C739.659 228.133 738.301 227.869 737.006 227.651L736.936 227.639Z" fill="#8E7171"/>
<path d="M354.639 621.365C305.157 613.036 258.673 582.838 223.782 536.356C173.574 469.49 152.247 385.4 175.213 344.95C185.029 327.683 202.256 319.827 225.092 322.268C236.268 323.43 247.514 324.604 258.719 325.806C360.929 336.644 466.638 347.855 542.275 331.846C585.226 322.745 621.629 303.802 650.469 275.492C654.22 271.807 657.854 268.174 661.401 264.635C686.835 239.241 706.911 219.168 729.369 216.582C734.69 215.967 740.249 216.507 746.716 218.278C750.915 219.417 754.343 220.641 757.521 222.075C759.071 222.696 760.774 223.486 762.971 224.54C765.332 225.692 767.938 227.102 771.19 228.944C773.749 230.418 776.104 231.822 778.319 233.202C781.442 235.166 784.584 237.242 787.643 239.375C788.867 240.229 790.12 241.123 791.373 242.017C794.391 244.18 797.491 246.5 800.865 249.119C802.141 250.089 803.406 251.129 804.676 252.134C805.626 252.905 806.61 253.683 807.595 254.46C820.431 264.57 831.204 274.117 841.502 284.555C872.035 315.664 903.981 342.228 932.204 365.682C952.031 382.149 970.887 396.905 989.171 411.205C1037.6 449.068 1079.42 481.789 1102.56 520.251C1126.78 560.838 1129.73 604.713 1111.54 654.383C1099.02 688.569 1078.88 702.805 1049.98 697.94C1018.94 692.715 980.815 666.946 937.709 636.346C933.851 633.61 929.964 630.834 926.013 628.011C905.454 613.328 884.184 598.165 861.973 584.103C828.952 562.215 798.478 549.136 768.698 544.124C734.369 538.345 700.997 543.771 669.504 560.267C547.805 623.952 435.611 626.253 361.79 622.496C359.392 622.201 357.007 621.835 354.662 621.441L354.639 621.365ZM740.672 218.268C736.683 217.597 733.037 217.451 729.513 217.865C707.498 220.382 687.556 240.298 662.327 265.546C658.78 269.086 655.146 272.718 651.395 276.403C622.345 304.894 585.738 323.983 542.53 333.112C466.671 349.155 360.886 337.967 258.571 327.112C247.366 325.91 236.155 324.742 224.944 323.574C202.668 321.228 185.878 328.833 176.361 345.611C153.647 385.635 174.94 469.072 224.816 535.559C259.497 581.79 305.69 611.795 354.822 620.065C357.131 620.453 359.517 620.819 361.844 621.103C435.45 624.859 547.434 622.523 668.812 559.036C700.579 542.405 734.249 536.922 768.858 542.748C798.813 547.79 829.455 560.933 862.634 582.955C884.886 596.988 906.185 612.192 926.744 626.875C930.666 629.657 934.588 632.44 938.44 635.21C981.382 665.711 1019.38 691.386 1050.14 696.564C1078.73 701.376 1097.82 687.827 1110.26 653.845C1128.31 604.582 1125.38 561.069 1101.38 520.844C1078.35 482.58 1036.66 449.953 988.324 412.177C970.069 397.918 951.184 383.121 931.322 366.649C903.099 343.194 871.123 316.59 840.526 285.434C830.286 275.077 819.549 265.536 806.742 255.467C805.757 254.69 804.772 253.913 803.823 253.141C802.558 252.101 801.288 251.096 800.012 250.126C796.667 247.549 793.602 245.234 790.584 243.072C789.331 242.177 788.113 241.289 786.889 240.435C783.865 238.308 780.723 236.232 777.628 234.309C775.414 232.929 773.094 231.531 770.535 230.057C767.318 228.221 764.712 226.811 762.38 225.699C760.218 224.652 758.544 223.902 756.994 223.282C753.851 221.853 750.487 220.676 746.358 219.549C744.399 219.004 742.492 218.575 740.672 218.268Z" fill="#8E7171"/>
<path d="M354.782 630.777C302.221 621.93 252.846 589.663 215.773 539.899C163.406 469.613 141.523 381.976 165.862 340.427C176.35 322.589 194.68 314.811 218.944 317.96C342.369 333.808 460.042 346.421 543.642 326.933C586.752 316.887 623.769 296.86 653.701 267.404C657.844 263.317 661.829 259.312 665.685 255.428C691.324 229.673 711.552 209.338 734.231 207.149C739.716 206.633 745.397 207.301 751.963 209.342C756.173 210.626 759.648 212.002 762.97 213.641C764.545 214.337 766.305 215.209 768.485 216.367C770.927 217.678 773.585 219.204 776.802 221.256C779.373 222.876 781.745 224.39 784 225.957C787.129 228.102 790.311 230.365 793.37 232.714C794.582 233.637 795.824 234.602 797.1 235.572C800.124 237.915 803.288 240.498 806.603 243.25C807.896 244.331 809.184 245.447 810.506 246.569C811.45 247.375 812.388 248.217 813.367 249.029C826.115 259.879 836.839 270.137 847.23 281.31C877.544 314.146 910.147 342.582 938.34 366.643C960.741 385.773 981.968 402.475 1002.53 418.668C1049.27 455.456 1089.58 487.241 1112.26 524.833C1136.68 565.56 1139.59 610.438 1121.27 661.992C1108.48 698.003 1088.88 712.473 1059.63 707.549C1028.83 702.365 991.108 676.34 944.933 642.814L936.949 637.01C914.765 620.866 891.84 604.202 867.694 589.023C834.713 567.321 804.228 554.312 774.553 549.318C738.509 543.251 703.532 549.449 670.554 567.71C617.251 597.262 561.082 617.122 503.58 626.723C456.74 634.558 408.469 635.929 355.902 630.965L354.712 630.765L354.782 630.777ZM744.59 208.892C741.02 208.291 737.695 208.163 734.439 208.479C712.238 210.605 692.145 230.783 666.716 256.357C662.86 260.24 658.875 264.246 654.727 268.368C624.625 297.976 587.403 318.148 544.037 328.222C460.215 347.745 342.397 335.143 218.831 319.272C195.133 316.183 177.24 323.71 167.045 341.094C142.917 382.247 164.806 469.201 216.842 539.108C253.705 588.621 302.754 620.689 355 629.483L356.12 629.671C471.065 640.53 573.714 619.896 669.955 566.566C703.213 548.136 738.488 541.88 774.812 547.994C804.697 553.024 835.322 566.057 868.46 587.893C892.606 603.072 915.56 619.777 937.744 635.92L945.728 641.724C991.781 675.123 1029.37 701.089 1059.88 706.225C1088.4 711.026 1107.53 696.835 1120.05 661.535C1138.24 610.354 1135.33 565.873 1111.17 525.514C1088.61 488.12 1048.39 456.422 1001.74 419.723C981.208 403.57 959.952 386.827 937.515 367.691C909.328 343.595 876.691 315.153 846.312 282.271C835.986 271.145 825.256 260.922 812.572 250.118C811.593 249.306 810.655 248.464 809.711 247.658C808.389 246.536 807.101 245.42 805.843 244.345C802.563 241.599 799.399 239.016 796.375 236.673C795.099 235.702 793.857 234.738 792.645 233.815C789.58 231.5 786.439 229.209 783.304 227.099C781.043 225.567 778.712 224.024 776.136 222.439C772.913 220.422 770.29 218.901 767.882 217.597C765.737 216.444 764.006 215.613 762.438 214.882C759.185 213.255 755.739 211.92 751.634 210.653C749.138 209.874 746.817 209.339 744.543 208.956L744.59 208.892Z" fill="#8E7171"/>
<path d="M350.148 639.493C296.33 628.923 245.791 594.806 207.81 543.379C153.319 469.677 130.841 378.523 156.593 335.845C167.724 317.396 187.191 309.702 212.878 313.594C319.6 329.687 453.808 345.191 545.155 322.007C588.424 311.018 626.084 289.948 657.039 259.333C661.573 254.844 665.874 250.46 670.075 246.24C695.959 220.094 716.38 199.468 739.281 197.675C744.934 197.224 750.726 198.091 757.437 200.336C761.659 201.766 765.186 203.259 768.619 205.095C770.216 205.868 771.994 206.85 774.192 208.12C776.686 209.547 779.35 211.254 782.613 213.458C785.102 215.136 787.549 216.843 789.851 218.561C793.021 220.893 796.203 223.371 799.308 225.872C800.543 226.871 801.808 227.911 803.066 228.986C806.096 231.511 809.294 234.315 812.609 237.283C813.984 238.522 815.353 239.795 816.751 241.11L819.367 243.528C831.834 254.979 842.895 266.229 853.185 277.996C883.526 312.814 915.095 341.616 944.703 367.534C969.417 389.176 992.759 407.636 1015.34 425.501C1060.68 461.406 1099.9 492.431 1122.22 529.352C1147.13 570.809 1149.99 615.354 1131.23 669.531C1118.32 706.889 1098.69 721.965 1069.44 717.041C1036.54 711.504 993.758 679.844 952.349 649.206L947.839 645.857C924.128 628.305 899.584 610.145 873.643 593.873C840.633 572.346 810.165 559.448 780.525 554.459C742.836 548.115 706.253 555.087 671.814 575.188C570.693 634.207 465.494 655.239 350.224 639.47L350.148 639.493ZM748.653 199.504C745.398 198.957 742.365 198.806 739.337 199.051C716.95 200.787 696.692 221.297 670.989 247.221C666.788 251.442 662.453 255.82 657.954 260.314C626.794 291.075 588.929 312.29 545.438 323.314C453.864 346.568 319.482 331.034 212.654 314.923C187.533 311.091 168.533 318.575 157.701 336.535C132.2 378.788 154.679 469.295 208.879 542.588C246.656 593.729 296.903 627.653 350.337 638.158C465.327 653.88 570.228 632.906 671.069 574.055C705.754 553.78 742.634 546.75 780.673 553.153C810.523 558.178 841.16 571.14 874.292 592.795C900.268 609.074 924.807 627.268 948.552 644.826L953.063 648.175C994.343 678.719 1037 710.286 1069.58 715.77C1098.06 720.565 1117.22 705.733 1129.9 669.127C1148.49 615.316 1145.67 571.139 1120.99 530.044C1098.81 493.362 1059.69 462.389 1014.44 426.572C991.859 408.708 968.517 390.247 943.774 368.565C914.137 342.606 882.539 313.763 852.134 278.898C841.873 267.172 830.841 255.963 818.403 244.553L815.787 242.134C814.389 240.82 813.014 239.581 811.639 238.343C808.359 235.381 805.155 232.611 802.16 230.093C800.902 229.018 799.632 228.013 798.402 226.978C795.338 224.448 792.185 222.011 789.015 219.679C786.713 217.961 784.266 216.254 781.812 214.582C778.584 212.384 775.914 210.712 773.455 209.29C771.292 208.027 769.544 207.085 767.911 206.307C764.542 204.517 761.05 203.03 756.899 201.612C753.971 200.616 751.248 199.905 748.589 199.458L748.653 199.504Z" fill="#8E7171"/>
<path d="M348.932 648.856C347.393 648.597 345.888 648.344 344.348 648.085C289.751 635.513 238.433 599.611 199.83 546.964C143.308 469.935 120.2 375.257 147.191 331.421C158.923 312.39 179.394 304.721 206.409 309.268L212.253 310.252C362.167 335.485 471.543 337.745 546.586 317.141C589.973 305.236 628.248 283.082 660.33 251.326C665.209 246.5 669.86 241.743 674.33 237.208C700.425 210.666 721.074 189.755 744.167 188.318C749.948 187.96 755.967 188.974 762.713 191.44C766.882 192.969 770.584 194.707 774.099 196.702C775.748 197.591 777.584 198.655 779.77 199.994C782.311 201.573 785.021 203.432 788.296 205.782C790.796 207.605 793.255 209.458 795.603 211.328C798.814 213.847 802.001 216.505 805.106 219.222C806.364 220.297 807.611 221.442 808.864 222.552C811.899 225.257 815.039 228.196 818.412 231.461C819.868 232.858 821.347 234.33 822.862 235.807L825.21 238.109C837.495 250.212 848.543 262.18 858.984 274.764C890.515 312.984 923.143 343.618 950.903 368.542C977.731 392.589 1004.1 413.574 1027.4 432.064C1071.68 467.25 1109.96 497.649 1131.99 533.981C1157.04 575.607 1159.93 621.126 1141.02 677.222C1127.99 715.927 1108.29 731.639 1079.03 726.749C1046.48 721.271 1006.25 690.904 959.632 655.755L958.385 654.826C933.189 635.837 907.13 616.2 879.428 598.839C846.36 577.447 815.915 564.625 786.24 559.63C746.872 553.003 708.754 560.759 672.888 582.707C616.965 616.925 558.889 639.342 500.285 649.297C451.239 657.624 400.309 657.468 348.903 648.815L348.932 648.856ZM206.191 310.562C179.771 306.115 159.772 313.54 148.339 332.082C121.565 375.487 144.674 469.517 200.911 546.102C239.345 598.469 290.4 634.22 344.613 646.726C346.082 646.974 347.622 647.233 349.162 647.492C462.787 666.618 568.472 645.056 672.213 581.586C708.359 559.47 746.775 551.656 786.458 558.335C816.308 563.36 846.922 576.246 880.118 597.733C907.855 615.099 933.949 634.742 959.174 653.771L960.421 654.701C1006.88 689.75 1046.99 719.989 1079.22 725.414C1107.7 730.209 1126.93 714.741 1139.69 676.783C1158.46 621.095 1155.62 575.943 1130.79 534.679C1108.88 498.545 1070.69 468.199 1026.54 433.107C1003.24 414.617 976.837 393.626 949.98 369.538C922.191 344.573 889.499 313.892 857.938 275.631C847.561 263.093 836.513 251.126 824.257 239.064L821.91 236.762C820.395 235.284 818.951 233.818 817.494 232.422C814.121 229.157 811.011 226.259 807.975 223.554C806.729 222.409 805.441 221.293 804.218 220.224C801.112 217.507 797.955 214.889 794.779 212.376C792.431 210.506 790.007 208.659 787.536 206.877C784.296 204.533 781.615 202.715 779.109 201.142C776.923 199.803 775.157 198.75 773.508 197.861C770.063 195.878 766.425 194.187 762.321 192.705C755.744 190.303 749.906 189.284 744.304 189.636C721.69 191.009 701.24 211.811 675.326 238.131C670.851 242.701 666.17 247.417 661.286 252.278C629.063 284.227 590.595 306.456 546.946 318.424C471.716 339.069 362.154 336.85 212.064 311.587L206.22 310.603L206.191 310.562Z" fill="#8E7171"/>
<path d="M359.473 660.63C352.544 659.464 345.499 658.134 338.559 656.606C283.254 642.045 231.157 604.357 191.867 550.443C133.541 470.449 109.703 372.411 137.629 327.294C150.034 307.26 171.812 299.524 200.687 304.995C212.094 307.131 223.479 309.192 234.537 311.053C368.634 333.624 474.115 334.006 548.058 312.245C592.205 299.245 630.008 276.688 663.662 243.29C668.892 238.091 673.846 233.026 678.626 228.147C705.001 201.221 725.814 179.977 749.198 178.95C755.143 178.691 761.313 179.874 768.158 182.609C772.338 184.283 776.128 186.144 779.718 188.331C781.455 189.343 783.343 190.524 785.447 191.921C788.07 193.658 790.89 195.715 794.071 198.193C796.525 200.081 798.995 202.079 801.454 204.148C804.606 206.8 807.798 209.64 811.002 212.625C812.249 213.77 813.519 214.991 814.789 216.212C817.859 219.139 821.097 222.345 824.377 225.739C825.909 227.328 827.434 228.951 829.03 230.587L831.174 232.818C843.318 245.545 854.348 258.265 864.904 271.66C897.515 313.298 931.394 345.907 957.231 369.643C985.969 396.026 1014.21 418.513 1039.15 438.358C1082.56 472.93 1120.07 502.803 1141.88 538.703C1167.12 580.505 1169.99 626.957 1150.94 684.971C1137.8 725.023 1118.02 741.37 1088.73 736.475C1056.46 731.044 1016.37 700.268 970.008 664.659L967.042 662.398C942.54 643.562 914.71 622.259 885.342 603.899C852.215 582.64 821.729 569.848 792.054 564.853C751.076 557.955 711.381 566.525 674.125 590.324C572.755 655.093 466.899 678.748 359.537 660.677L359.473 660.63ZM198.194 305.907C171.074 301.342 150.498 308.993 138.772 327.99C111.132 372.688 134.942 470.037 192.971 549.658C232.092 603.291 283.926 640.828 338.923 655.3C345.834 656.787 352.838 658.146 359.732 659.307C466.779 677.325 572.303 653.722 673.392 589.122C710.934 565.119 750.927 556.491 792.255 563.448C822.105 568.472 852.765 581.294 886.02 602.647C915.424 621.013 943.248 642.35 967.82 661.198L970.786 663.459C1017.02 698.975 1057.02 729.663 1088.93 735.035C1117.45 739.835 1136.75 723.767 1149.63 684.462C1168.57 626.861 1165.72 580.736 1140.7 539.296C1119 503.595 1081.59 473.809 1038.28 439.29C1013.33 419.444 985.057 396.952 956.29 370.528C930.39 346.745 896.481 314.096 863.812 272.375C853.285 259.021 842.284 246.342 830.175 233.621L828.032 231.39C826.442 229.72 824.916 228.096 823.378 226.542C820.093 223.183 816.889 219.982 813.819 217.056C812.549 215.835 811.273 214.649 810.027 213.504C806.852 210.559 803.659 207.72 800.542 205.073C798.119 203.011 795.642 201.047 793.224 199.165C790.072 196.728 787.286 194.677 784.693 192.981C782.589 191.584 780.736 190.409 778.993 189.432C775.437 187.251 771.712 185.437 767.637 183.78C760.956 181.144 754.995 179.997 749.231 180.25C726.39 181.261 705.746 202.354 679.587 229.064C674.767 233.972 669.847 239.043 664.617 244.242C630.829 277.797 592.827 300.465 548.452 313.534C474.317 335.371 368.62 334.989 234.348 312.388C223.29 310.527 211.865 308.496 200.463 306.325C199.728 306.201 198.993 306.077 198.258 305.954L198.194 305.907Z" fill="#8E7171"/>
<path d="M366.403 672.264C355.24 670.385 343.914 667.975 332.77 665.128C276.715 648.606 223.839 609.132 183.898 553.958C123.774 470.963 99.2064 369.566 128.033 323.161C140.466 303.168 162.041 295.145 190.456 299.928C191.82 300.158 193.185 300.388 194.573 300.693C212.139 304.298 229.583 307.557 246.415 310.391C373.234 331.737 475.211 330.701 549.529 307.349C593.794 293.434 632.206 269.828 666.965 235.213C672.504 229.671 677.768 224.262 682.852 219.075C709.479 191.724 730.525 170.159 754.136 169.493C760.244 169.335 766.572 170.652 773.521 173.62C777.719 175.405 781.549 177.453 785.249 179.838C787.01 180.926 788.921 182.183 791.077 183.697C793.711 185.579 796.584 187.753 799.771 190.412C802.3 192.492 804.817 194.642 807.188 196.804C810.409 199.684 813.637 202.745 816.782 205.864C818.046 207.12 819.31 208.376 820.603 209.673C823.708 212.821 826.946 216.244 830.237 219.783C831.908 221.611 833.574 223.474 835.304 225.384L837.028 227.329C848.943 240.557 859.96 253.994 870.713 268.357C896.405 302.788 925.88 335.267 963.448 370.546C993.962 399.206 1023.95 423.101 1050.38 444.168C1093.11 478.231 1130.01 507.678 1151.66 543.228C1177.06 585.198 1179.94 632.625 1160.72 692.516C1147.42 733.909 1127.57 750.926 1098.24 745.99C1066.23 740.601 1026.53 709.604 980.612 673.71L974.313 668.801C946.734 647.289 919.645 626.507 891.144 608.761C857.965 587.601 827.398 574.866 797.688 569.866C755.1 562.697 713.899 572.092 675.245 597.779C574.479 664.735 470.58 689.799 366.403 672.264ZM190.203 301.217C162.383 296.534 141.24 304.342 129.14 323.851C100.6 369.836 125.105 470.54 184.967 553.167C224.734 608.096 277.353 647.383 333.134 663.822C344.208 666.657 355.499 669.062 366.627 670.935C470.454 688.411 574.014 663.434 674.494 596.681C713.434 570.791 754.968 561.344 797.906 568.571C827.791 573.602 858.498 586.36 891.84 607.619C920.405 625.412 947.529 646.2 975.102 667.747L981.401 672.656C1027.16 708.45 1066.72 739.354 1098.39 744.684C1126.95 749.491 1146.31 732.787 1159.38 692.111C1178.47 632.628 1175.63 585.534 1150.47 543.925C1128.96 508.58 1092.09 479.209 1049.48 445.204C1023.02 424.097 993.004 400.196 962.461 371.495C924.835 336.134 895.295 303.609 869.58 269.102C858.821 254.773 847.834 241.378 835.988 228.161L834.264 226.216C832.534 224.307 830.869 222.444 829.197 220.616C825.942 217.082 822.738 213.665 819.634 210.517C818.34 209.22 817.076 207.964 815.847 206.714C812.702 203.595 809.469 200.569 806.282 197.694C803.905 195.568 801.423 193.424 798.895 191.343C795.702 188.72 792.87 186.516 790.265 184.675C788.144 183.167 786.267 181.916 784.507 180.828C780.841 178.449 777.076 176.448 772.942 174.709C766.197 171.811 760.079 170.53 754.152 170.683C731.084 171.332 710.206 192.745 683.761 219.875C678.671 225.098 673.413 230.471 667.868 236.048C632.939 270.815 594.37 294.502 549.877 308.486C475.367 331.914 373.173 332.95 246.18 311.574C229.313 308.735 211.869 305.475 194.268 301.865C192.874 301.594 191.55 301.336 190.186 301.106L190.203 301.217Z" fill="#8E7171"/>
<path d="M371.076 683.841C356.379 681.367 341.554 677.937 326.982 673.65C270.183 655.133 216.564 613.878 175.895 557.467C113.944 471.431 88.7161 366.685 118.408 318.987C132.017 297.142 156.339 289.258 188.431 296.35C210.674 301.245 232.655 305.557 253.757 309.108C376.096 329.701 476.045 327.46 550.931 302.441C595.315 287.611 634.329 262.992 670.227 227.165C676.111 221.286 681.644 215.563 686.996 210.061C713.91 182.29 735.196 160.371 759.069 160.072C765.381 159.984 771.819 161.499 778.838 164.695C783.018 166.586 786.895 168.785 790.77 171.415C792.582 172.62 794.517 173.953 796.656 175.571C799.406 177.617 802.285 179.972 805.454 182.736C807.965 184.921 810.458 187.211 812.946 189.536C816.138 192.591 819.412 195.804 822.586 199.18C823.838 200.506 825.125 201.837 826.401 203.239C829.511 206.568 832.749 210.207 836.039 213.962C837.909 216.111 839.83 218.377 841.781 220.683L842.864 221.945C854.575 235.75 865.579 249.904 876.506 265.16C902.672 301.901 932.285 335.697 969.643 371.588C1001.8 402.433 1033.44 427.648 1061.25 449.884C1103.45 483.532 1139.91 512.581 1161.42 547.892C1187 590.038 1189.9 638.438 1170.51 700.207C1157.1 742.911 1137.18 760.529 1107.82 755.587C1076.19 750.263 1037.11 719.261 991.862 683.409C988.465 680.715 985.068 678.021 981.607 675.281C956.727 655.482 927.593 632.737 896.936 613.692C863.675 592.591 833.026 579.914 803.281 574.908C758.489 567.368 716.948 577.282 676.36 605.268C575.812 674.564 473.09 700.976 371.047 683.8L371.076 683.841ZM182.253 296.497C153.698 291.691 132.019 299.696 119.585 319.689C90.145 366.961 115.374 471.06 177.034 556.687C217.487 612.883 270.92 653.962 327.416 672.356C341.918 676.631 356.678 680.015 371.306 682.477C472.998 699.594 575.388 673.233 675.644 604.177C715.981 576.399 758.992 566.086 803.54 573.584C833.46 578.62 864.278 591.361 897.708 612.527C928.429 631.619 957.563 654.364 982.507 674.209C985.968 676.95 989.365 679.644 992.762 682.338C1037.84 718.09 1076.84 748.969 1108.12 754.235C1136.71 759.047 1156.14 741.743 1169.33 699.756C1188.58 638.395 1185.73 590.327 1160.34 548.537C1138.97 513.431 1102.58 484.429 1060.51 450.874C1032.62 428.627 1001 403.376 968.807 372.491C931.351 336.547 901.714 302.675 875.484 265.887C864.592 250.637 853.617 236.524 841.935 222.76L840.852 221.498C838.902 219.192 837.009 216.967 835.146 214.783C831.861 210.992 828.646 207.43 825.536 204.101C824.255 202.734 822.973 201.367 821.715 200.076C818.535 196.735 815.296 193.529 812.104 190.473C809.652 188.154 807.158 185.864 804.676 183.72C801.542 180.962 798.658 178.642 795.942 176.602C793.833 175.024 791.904 173.657 790.121 172.493C786.309 169.909 782.497 167.757 778.387 165.878C771.532 162.782 765.303 161.302 759.207 161.391C735.877 161.672 714.795 183.446 688.068 210.961C682.71 216.497 677.183 222.185 671.293 228.1C635.26 264.084 596.083 288.819 551.478 303.684C476.399 328.779 376.199 331.013 253.685 310.391C232.548 306.834 210.526 302.551 188.289 297.621C186.278 297.175 184.289 296.804 182.364 296.48L182.253 296.497Z" fill="#8E7171"/>
<path d="M374.168 695.404C356.461 692.424 338.639 687.985 321.182 682.241C263.662 661.804 209.229 618.758 167.915 561.051C104.165 472.015 78.1786 363.868 108.806 314.889C123.035 292.141 148.552 284.206 182.306 292.118C208.409 298.238 234.094 303.425 258.659 307.56C378.059 327.657 476.825 324.318 552.356 297.609C597.465 281.678 635.954 256.755 673.477 219.187C679.67 212.964 685.508 206.932 691.129 201.116C718.329 172.926 739.855 150.651 763.989 150.721C770.43 150.726 777.02 152.411 784.149 155.805C788.276 157.795 792.368 160.21 796.255 162.986C798.126 164.272 800.078 165.716 802.205 167.405C805.001 169.602 807.891 172.103 811.101 175.053C813.594 177.343 816.105 179.744 818.627 182.291C821.86 185.533 825.133 188.961 828.354 192.489C829.595 193.885 830.899 195.327 832.204 196.77C835.348 200.321 838.592 204.14 841.882 208.111C844.124 210.826 846.354 213.612 848.706 216.525C860.037 230.662 871.355 245.948 882.298 261.962C908.91 300.972 938.655 336.122 975.877 372.602C1009.58 405.612 1042.77 432.061 1071.99 455.395C1113.74 488.681 1149.81 517.45 1171.26 552.533C1197.05 594.895 1199.93 644.263 1180.37 707.909C1166.83 751.995 1146.77 770.237 1117.31 765.278C1085.75 759.965 1046.81 728.555 1001.76 692.161C997.548 688.754 993.265 685.336 988.959 681.841C962 660.074 932.9 637.335 902.826 618.676C869.442 597.662 838.718 585.009 808.903 579.99C762.501 572.18 719.524 582.931 677.567 612.845C576.934 684.572 474.881 712.356 374.238 695.416L374.168 695.404ZM174.262 291.807C144.972 286.877 122.721 295.073 109.954 315.549C79.6134 364.109 105.566 471.603 169.024 560.231C210.193 617.734 264.37 660.593 321.615 680.947C338.968 686.674 356.72 691.1 374.392 694.075C474.684 710.956 576.405 683.224 676.746 611.736C719.03 581.589 762.304 570.78 809.091 578.655C839.081 583.703 869.975 596.421 903.522 617.535C933.666 636.205 962.795 658.985 989.783 680.793C994.095 684.253 998.372 687.706 1002.58 691.113C1047.47 727.373 1086.32 758.694 1117.53 763.948C1146.19 768.772 1165.76 750.845 1179.07 707.475C1198.79 643.386 1196 595.797 1170.1 553.201C1148.77 518.317 1112.79 489.601 1071.17 456.408C1041.92 433.068 1008.7 406.578 974.966 373.527C937.68 337.001 907.911 301.776 881.241 262.683C870.327 246.71 859.044 231.43 847.702 217.363C845.384 214.455 843.119 211.664 840.877 208.949C837.622 204.984 834.373 201.2 831.228 197.649C829.929 196.171 828.654 194.77 827.413 193.374C824.228 189.852 820.989 186.429 817.751 183.223C815.258 180.717 812.712 178.31 810.254 176.026C807.073 173.116 804.183 170.615 801.415 168.459C799.289 166.77 797.372 165.332 795.495 164.081C791.637 161.346 787.65 158.948 783.552 156.999C776.592 153.67 770.206 152.055 763.952 152.01C740.39 151.964 719.039 174.053 692.061 201.993C686.44 207.809 680.602 213.84 674.403 220.099C636.711 257.817 598.064 282.822 552.763 298.829C477.045 325.578 377.981 328.975 258.407 308.848C233.806 304.707 208.087 299.515 181.949 293.389C179.319 292.766 176.706 292.254 174.186 291.83L174.262 291.807Z" fill="#8E7171"/>
<path d="M376.221 706.937C355.819 703.503 335.363 698.045 315.393 690.763C240.764 662.087 189.698 606.299 159.952 564.531C94.3752 472.453 67.6994 360.917 99.2271 310.651C114.041 286.994 140.83 278.986 176.205 287.746C205.678 295.009 234.564 301.058 262.069 305.688C379.439 325.444 477.588 321.066 553.834 292.678C613.227 270.555 652.444 235.539 676.814 211.117C683.312 204.585 689.377 198.268 695.261 192.172C722.788 163.534 744.554 140.903 768.997 141.277C775.665 141.428 782.377 143.241 789.576 146.863C793.721 148.963 797.859 151.53 801.886 154.546C803.838 155.99 805.877 157.556 807.928 159.268C810.707 161.57 813.644 164.223 816.929 167.366C819.434 169.802 821.991 172.354 824.53 175.012C827.71 178.353 830.983 181.997 834.303 185.793C835.567 187.265 836.859 188.777 838.146 190.325C841.238 193.975 844.488 197.975 847.83 202.278C850.048 205.133 852.324 208.07 854.653 211.124C865.738 225.651 877.002 241.683 888.2 258.747C914.816 299.449 945.555 337.032 982.182 373.627C1017.36 408.757 1052.01 436.386 1082.56 460.772C1123.97 493.748 1159.72 522.283 1181.12 557.214C1207.43 600.347 1210.25 649.237 1190.23 715.611C1176.53 761.074 1156.37 779.945 1126.8 774.968C1095.27 769.661 1056.41 737.762 1011.45 700.843C1006.5 696.735 1001.43 692.61 996.305 688.438C969.113 666.128 939.635 642.857 908.67 623.725C875.134 602.757 844.298 590.121 814.413 585.09C766.437 577.015 722.064 588.574 678.699 620.446C577.752 694.674 475.977 723.8 376.244 707.012L376.221 706.937ZM166.353 287.059C136.328 282.005 113.534 290.434 100.398 311.387C69.1573 361.234 95.7992 472.117 161.085 563.786C190.68 605.385 241.6 660.968 315.885 689.551C335.749 696.815 356.107 702.22 376.439 705.642C475.821 722.371 577.223 693.326 677.884 619.301C721.541 587.191 766.252 575.545 814.614 583.685C844.674 588.745 875.679 601.446 909.342 622.507C940.372 641.686 969.879 664.997 997.106 687.314C1002.23 691.486 1007.29 695.646 1012.25 699.754C1057.08 736.544 1095.78 768.344 1126.96 773.592C1155.76 778.44 1175.43 759.882 1188.9 715.172C1208.79 649.17 1206.02 600.648 1179.89 557.871C1158.65 523.109 1122.95 494.691 1081.64 461.767C1051.05 437.376 1016.37 409.74 981.165 374.535C944.48 337.858 913.677 300.228 887.003 259.445C875.834 242.422 864.565 226.425 853.514 211.904C851.186 208.85 848.915 205.878 846.691 203.057C843.343 198.789 840.094 194.789 837.037 191.145C835.75 189.598 834.457 188.085 833.187 186.648C829.903 182.858 826.624 179.249 823.479 175.914C820.974 173.262 818.417 170.71 815.907 168.309C812.685 165.213 809.749 162.56 807.005 160.264C804.983 158.593 802.985 156.997 801.026 155.589C797.064 152.62 792.99 150.099 788.91 148.046C781.879 144.488 775.377 142.711 768.92 142.595C745.048 142.246 724.55 163.542 696.187 193.083C690.303 199.179 684.238 205.496 677.735 212.063C653.311 236.584 613.925 271.751 554.269 293.939C477.831 322.402 379.425 326.808 261.81 307.011C234.27 302.375 205.349 296.32 175.876 289.057C172.628 288.259 169.397 287.571 166.318 287.053L166.353 287.059Z" fill="#8E7171"/>
<path d="M377.381 718.426C354.53 714.58 331.753 708.156 309.604 699.284C234.401 668.246 182.393 610.789 151.983 568.045C84.7256 472.699 57.3726 357.704 89.7362 306.319C105.117 281.859 133.126 273.876 170.063 283.403C202.585 291.791 234.293 298.602 264.353 303.662C380.393 323.194 478.276 317.836 555.242 287.736C614.065 264.725 652.848 230.355 680.053 202.993C686.86 196.118 693.229 189.492 699.347 183.076C728.253 152.871 749.16 131.068 773.872 131.774C780.709 131.99 787.537 133.966 794.835 137.856C798.962 140.062 803.181 142.786 807.318 146.001C809.294 147.52 811.351 149.197 813.419 151.02C816.309 153.521 819.291 156.325 822.489 159.561C825.011 162.108 827.609 164.847 830.125 167.644C833.31 171.166 836.624 174.997 839.943 179.009C841.23 180.556 842.511 182.139 843.821 183.762C847.006 187.715 850.255 191.931 853.544 196.334C855.78 199.3 858.062 202.418 860.396 205.652C871.207 220.529 882.458 237.278 893.899 255.462C920.867 298.345 951.733 337.316 988.288 374.547C1024.84 411.778 1060.89 440.506 1092.75 465.868C1133.91 498.622 1169.45 526.906 1190.79 561.756C1217.37 605.221 1220.22 655.015 1199.93 723.179C1186.14 770.029 1165.87 789.531 1136.16 784.53C1104.56 779.211 1065.73 746.775 1020.73 709.204C1015.09 704.476 1009.35 699.662 1003.51 694.829C976.005 672 946.155 648.163 914.409 628.539C880.721 607.618 849.815 594.97 819.826 589.922C770.309 581.587 724.5 593.984 679.755 627.853C578.303 704.658 476.554 735.119 377.346 718.421L377.381 718.426ZM158.344 282.258C127.654 277.092 104.335 285.648 90.8786 307.015C58.7956 358.016 86.1203 472.323 153.087 567.26C183.381 609.84 235.237 667.127 310.102 698.037C332.117 706.851 354.824 713.263 377.57 717.091C476.428 733.731 577.844 703.322 679.004 626.756C724.035 592.683 770.183 580.199 820.084 588.599C850.249 593.676 881.33 606.353 915.145 627.369C946.997 647.01 976.876 670.887 1004.41 693.758C1010.25 698.59 1015.99 703.405 1021.63 708.132C1066.47 745.569 1105.18 777.912 1136.43 783.172C1165.37 788.043 1185.16 768.821 1198.7 722.758C1218.86 654.966 1216.09 605.546 1189.71 562.401C1168.48 527.75 1133.04 499.519 1091.97 466.852C1060.11 441.49 1024 412.716 987.383 375.438C950.769 338.125 919.804 299.102 892.813 256.143C881.401 237.999 870.144 221.285 859.368 206.414C857.028 203.215 854.781 200.103 852.545 197.137C849.285 192.775 846.001 188.553 842.851 184.606C841.541 182.983 840.26 181.4 839.008 179.859C835.689 175.847 832.405 172.057 829.219 168.535C826.703 165.738 824.135 163.039 821.612 160.492C818.415 157.256 815.461 154.493 812.606 151.998C810.532 150.21 808.51 148.539 806.564 147.061C802.456 143.887 798.342 141.18 794.279 139.022C787.144 135.231 780.52 133.325 773.899 133.109C749.765 132.392 729.063 154.051 700.378 184.005C694.225 190.415 687.891 197.046 681.049 203.916C653.757 231.371 614.85 265.828 555.794 288.944C478.595 319.149 380.49 324.542 264.205 304.968C234.075 299.897 202.332 293.079 169.781 284.65C165.885 283.635 162.065 282.812 158.391 282.194L158.344 282.258Z" fill="#8E7171"/>
<path d="M378.099 729.985C352.938 725.75 327.958 718.308 303.81 707.841C227.561 674.252 174.809 615.231 144.009 571.595C74.9007 473.348 46.8178 354.992 80.1053 302.18C96.1116 276.782 125.322 268.714 163.985 279.106C199.306 288.613 233.621 296.187 266.025 301.641C381.19 321.026 479.016 314.724 556.743 282.881C615.684 258.738 655.38 223.227 683.414 194.998C690.566 187.785 697.163 180.874 703.55 174.144C732.784 143.49 753.895 121.325 778.903 122.405C785.869 122.715 792.883 124.866 800.257 128.949C804.401 131.265 808.667 134.142 812.944 137.595C814.971 139.231 817.051 140.984 819.108 142.877C822.108 145.576 825.195 148.614 828.276 151.902C830.787 154.519 833.396 157.404 835.987 160.394C839.155 164.021 842.469 168.067 845.852 172.342C847.127 173.959 848.431 175.618 849.758 177.352C852.92 181.445 856.203 185.882 859.492 190.5C861.769 193.653 864.091 196.958 866.344 200.25C876.6 214.998 887.868 232.505 899.802 252.247C927.193 297.539 958.219 337.904 994.599 375.537C1032.55 414.981 1070.06 444.819 1103.23 471.157C1144.12 503.614 1179.37 531.67 1200.7 566.373C1227.43 610.008 1230.27 660.735 1209.87 730.824C1195.92 779.05 1175.47 799.204 1145.62 794.179C1114.02 788.86 1075.2 755.923 1030.27 717.751C1023.94 712.37 1017.45 706.889 1010.9 701.361C984.454 679.105 953.008 653.633 920.299 633.524C886.53 612.66 855.508 600.065 825.448 595.005C774.391 586.411 727.146 599.645 680.963 635.43C579.133 714.905 477.231 746.708 378.128 730.026L378.099 729.985ZM150.441 277.474C118.982 272.179 95.0494 280.956 81.2477 302.876C48.2116 355.263 76.2664 472.93 145.113 570.81C175.831 614.288 228.391 673.169 304.343 706.6C328.385 717.049 353.302 724.445 378.323 728.656C477.041 745.273 578.61 713.522 680.142 634.321C726.617 598.297 774.236 584.982 825.677 593.641C855.912 598.73 887.104 611.39 921.001 632.347C953.774 652.503 985.284 678.022 1011.76 700.319C1018.32 705.811 1024.77 711.321 1031.13 716.709C1075.9 754.747 1114.6 787.59 1145.85 792.85C1174.89 797.739 1194.85 777.934 1208.6 730.466C1228.9 660.756 1226.12 610.362 1199.57 567.083C1178.39 532.584 1143.19 504.609 1102.41 472.206C1069.24 445.832 1031.66 415.982 993.653 376.457C957.179 338.736 926.124 298.331 898.681 252.922C886.741 233.215 875.502 215.748 865.281 201.007C863.028 197.714 860.7 194.445 858.424 191.292C855.134 186.674 851.845 182.271 848.69 178.143C847.391 176.45 846.087 174.791 844.812 173.174C841.464 168.905 838.139 164.929 834.971 161.302C832.379 158.312 829.799 155.468 827.289 152.851C824.202 149.598 821.144 146.601 818.179 143.908C816.116 142.05 814.077 140.268 812.044 138.667C807.86 135.301 803.664 132.436 799.549 130.161C792.339 126.178 785.534 124.061 778.779 123.787C754.377 122.737 733.447 144.681 704.47 175.09C698.083 181.82 691.445 188.76 684.299 195.938C656.178 224.261 616.353 259.894 557.184 284.106C479.224 316.054 381.141 322.385 265.731 302.959C233.292 297.499 198.942 289.918 163.586 280.406C159.078 279.18 154.635 278.216 150.4 277.503L150.441 277.474Z" fill="#8E7171"/>
<path d="M377.936 741.432C286.391 726.023 200.503 666.964 136.04 575.11C65.0522 473.92 36.2396 352.204 70.4743 298.041C87.1062 271.705 117.589 263.563 157.872 274.804C195.816 285.399 232.563 293.707 267.102 299.52C537.046 344.958 639.713 236.777 707.682 165.199C737.185 134.016 758.531 111.53 783.836 112.984C790.964 113.393 798.095 115.708 805.609 120.03C809.776 122.422 814.083 125.485 818.464 129.172C820.48 130.878 822.577 132.742 824.721 134.757C827.733 137.602 830.866 140.792 833.994 144.232C836.545 147.035 839.171 150.031 841.774 153.167C844.977 157.015 848.301 161.208 851.69 165.663C852.988 167.356 854.281 169.084 855.596 170.888C858.792 175.203 862.076 179.856 865.37 184.655C867.629 187.913 869.899 191.317 872.221 194.837C882.407 210.22 893.626 228.439 905.635 249.021C973.124 364.8 1050.74 426.388 1113.05 475.868C1202.2 546.59 1261.12 593.305 1219.7 738.485C1205.52 788.075 1184.94 808.818 1154.95 803.77C1123.31 798.445 1084.51 764.972 1039.58 726.187C1032.6 720.157 1025.46 714.028 1018.2 707.805C964.097 661.722 900.498 611.558 830.755 599.819C778.159 590.966 729.547 605.049 682.118 642.891C579.281 724.929 476.94 758.061 377.971 741.438L377.936 741.432ZM142.503 272.685C110.274 267.26 85.7633 276.263 71.5816 298.731C37.6276 352.51 66.4063 473.572 137.109 574.318C201.368 665.887 286.965 724.753 378.124 740.097C476.737 756.696 578.706 723.646 681.25 641.845C728.972 603.765 777.963 589.566 830.944 598.484C901.002 610.276 964.793 660.58 1019.02 706.792C1026.29 712.98 1033.42 719.144 1040.39 725.174C1085.17 763.789 1123.82 797.163 1155.1 802.429C1184.32 807.347 1204.43 786.884 1218.33 738.075C1259.53 593.792 1200.89 547.27 1112.14 476.829C1049.73 427.296 972.014 365.621 904.386 249.602C892.406 229.061 881.186 210.842 871.03 195.5C868.708 191.98 866.397 188.605 864.173 185.353C860.879 180.554 857.59 175.936 854.428 171.627C853.113 169.823 851.82 168.095 850.522 166.401C847.169 161.952 843.838 157.795 840.635 153.946C838.061 150.851 835.47 147.861 832.913 145.093C829.78 141.688 826.681 138.505 823.704 135.665C821.59 133.691 819.527 131.833 817.506 130.162C813.183 126.557 808.94 123.54 804.843 121.16C797.528 116.943 790.6 114.698 783.688 114.29C759.025 112.872 737.854 135.171 708.544 166.064C674.729 201.701 632.604 246.083 564.26 276.7C483.377 312.976 386.039 320.871 266.779 300.797C232.205 294.977 195.424 286.664 157.409 276.057C152.289 274.62 147.227 273.48 142.433 272.673L142.503 272.685Z" fill="#8E7171"/>
</g>
<defs>
<clipPath id="clip0_136_1045">
<rect width="687.353" height="1215.44" fill="white" transform="translate(1312.67 201.747) rotate(99.5546)"/>
</clipPath>
</defs>
</svg>
