<svg width="22" height="22" viewBox="0 0 22 22" fill="none" xmlns="http://www.w3.org/2000/svg">
<path d="M4.11051 22V20.7552C4.11051 20.0544 4.08846 19.3529 4.11947 18.6535C4.13601 18.2814 4.00852 18.0549 3.72252 17.8229C1.99688 16.4221 0.790174 14.6553 0.288471 12.4825C-0.527487 8.94957 0.399424 5.86544 2.91828 3.29015C4.88168 1.2824 7.31645 0.227426 10.1068 0.0341066C13.7469 -0.217899 16.886 0.921994 19.3904 3.60706C21.2429 5.59272 22.1684 7.98988 21.9747 10.7095C21.6901 14.7084 19.5551 17.5088 16.0322 19.2528C13.5423 20.4859 10.9028 20.6985 8.20133 20.0495C7.95323 19.9902 7.752 20.0074 7.52458 20.1359C6.50808 20.711 5.48055 21.2661 4.45647 21.8281C4.35999 21.8806 4.26006 21.9254 4.11051 21.9986V22ZM9.84151 7.32431C7.85399 9.4377 5.90093 11.5152 3.94719 13.592C4.07812 13.5892 4.17805 13.5437 4.27384 13.4905C5.84994 12.6275 7.42879 11.7679 8.99937 10.8945C9.21921 10.7723 9.35084 10.7792 9.51761 10.9753C9.81464 11.3246 10.1406 11.6491 10.4549 11.984C10.9952 12.5584 11.5355 13.1329 12.0985 13.7315C14.0764 11.6291 16.0322 9.55024 17.988 7.47206C17.9742 7.4548 17.9597 7.43754 17.946 7.42028C16.2079 8.38204 14.4692 9.3445 12.718 10.3139C11.758 9.3155 10.8132 8.33302 9.84289 7.32362L9.84151 7.32431Z" fill="#2196F3"/>
</svg>
