<svg width="22" height="22" viewBox="0 0 22 22" fill="none" xmlns="http://www.w3.org/2000/svg">
<path d="M0.459955 22.0095C-0.0311263 21.7321 -0.0866961 21.4827 0.0950901 20.9485C0.261368 20.46 0.562048 20.1744 1.02168 19.9487C2.67671 19.1362 4.31149 18.2824 5.95446 17.4446C5.99237 17.4252 6.03071 17.4071 6.06216 17.3916C7.53238 18.8709 8.99917 20.3458 10.4651 21.8208C10.3863 21.8725 10.2816 21.941 10.1769 22.0095H0.459955Z" fill="#252760"/>
<path d="M12.9714 22.0095C13.1817 21.8923 13.3884 21.7691 13.6021 21.6584C15.8998 20.466 18.198 19.2754 20.4966 18.0843C20.5285 18.0679 20.5604 18.0524 20.6159 18.0244C20.6487 18.0925 20.6836 18.1584 20.7129 18.226C21.1298 19.1978 21.5455 20.1701 21.9625 21.1423C21.9707 21.1609 21.9875 21.1759 22.0004 21.1927V21.5365C21.9022 21.7536 21.7467 21.9134 21.5274 22.0095H12.9719H12.9714Z" fill="#252760"/>
<path d="M16.8232 6.03656C16.8603 7.21041 16.5574 8.29295 16.1284 9.34662C15.3595 11.2351 14.2709 12.9388 13.0652 14.571C12.5762 15.2327 12.0554 15.8711 11.5381 16.5117C11.215 16.9114 10.776 16.9041 10.4448 16.5091C8.90002 14.6671 7.50647 12.7217 6.41532 10.573C5.85015 9.46034 5.36596 8.31104 5.21864 7.06094C4.95156 4.7955 5.68603 2.08292 8.10912 0.73202C11.2141 -0.998825 15.5275 0.343032 16.5747 4.34147C16.6488 4.62405 16.7043 4.9131 16.7466 5.20215C16.7875 5.48474 16.8 5.77163 16.8232 6.03699V6.03656ZM10.9923 7.74328C12.0671 7.74371 12.9312 6.88216 12.9303 5.81083C12.9295 4.74639 12.0455 3.86977 10.9841 3.88054C9.9188 3.89131 9.05812 4.75242 9.05639 5.80825C9.0551 6.88001 9.91837 7.74285 10.9919 7.74328H10.9923Z" fill="#252760"/>
<path d="M8.45972 16.1633C8.79831 16.5755 9.12612 16.9813 9.46127 17.3811C10.3039 18.3865 11.6892 18.3792 12.5348 17.3738C13.9939 15.6386 15.3038 13.8001 16.3976 11.8116C16.457 11.7035 16.5216 11.6552 16.6474 11.66C16.905 11.6695 17.1631 11.6591 17.4207 11.6647C17.7269 11.6712 17.9552 11.8043 18.0797 12.0938C18.7444 13.6433 19.4091 15.1928 20.0734 16.7427C20.0841 16.7681 20.0919 16.7944 20.1065 16.8357C19.5323 17.1338 18.9624 17.4298 18.3925 17.7257C16.2291 18.8479 14.0658 19.9692 11.9033 21.093C11.7956 21.149 11.7185 21.1844 11.6069 21.0724C10.197 19.6564 8.78108 18.2469 7.36642 16.8353C7.35134 16.8202 7.33971 16.8021 7.30396 16.7569C7.69294 16.557 8.07504 16.361 8.45929 16.1633H8.45972Z" fill="#252760"/>
<path d="M7.68226 15.1176C5.5284 16.2178 3.38703 17.3111 1.1875 18.4345C1.3667 18.0137 1.51833 17.6544 1.67212 17.2964C2.40185 15.5957 3.13761 13.8976 3.85872 12.1931C4.01725 11.8183 4.2714 11.6464 4.6703 11.6615C4.94169 11.6718 5.26433 11.5822 5.47067 11.7007C5.67529 11.8179 5.75671 12.1435 5.90274 12.3705C6.44767 13.2196 6.99647 14.0656 7.54442 14.9125C7.5862 14.9771 7.63057 15.0405 7.68269 15.1176H7.68226Z" fill="#252760"/>
<path d="M10.3484 5.81447C10.3484 5.4621 10.6331 5.16961 10.9829 5.16271C11.3392 5.15582 11.6386 5.45349 11.6386 5.81447C11.6386 6.17848 11.3452 6.46796 10.9825 6.4615C10.6284 6.45546 10.3484 6.16943 10.3484 5.81404V5.81447Z" fill="#252760"/>
</svg>
