<svg width="496" height="320" viewBox="0 0 496 320" fill="none" xmlns="http://www.w3.org/2000/svg">
<g clip-path="url(#clip0_133_2259)">
<path d="M105.973 285.761C112.231 297.114 128.177 302.847 141.769 298.928C144.348 298.189 145.671 297.808 148.273 297.069C161.909 293.263 183.979 294.27 196.718 299.264C210.018 304.459 228.723 312.767 241.44 318.522C253.641 324.053 249.065 313.081 246.531 300.496C246.486 300.316 246.486 300.227 246.441 300.048C243.884 287.463 253.259 275.438 267.479 273.803C307.065 269.302 346.987 267.869 386.819 269.526C401.331 270.13 416.043 260.904 419.565 248.498C434.21 196.882 459.734 115.885 476.869 65.0526C481.018 52.7811 468.952 33.299 450.426 30.2535C305.54 10.4578 168.884 17.2654 26.6223 51.0121C8.23117 55.9162 0.291565 75.5775 8.0293 86.2815C47.2787 140.608 73.6543 227.068 105.996 285.761H105.973Z" fill="white"/>
<path d="M429.411 12.8314C430.375 12.7642 431.182 12.0252 431.295 11.0399C431.429 9.92023 430.622 8.89014 429.5 8.75578C333.171 -2.91112 241.462 -2.91112 149.08 8.711C147.959 8.84536 147.151 9.87545 147.286 10.9951C147.421 12.1148 148.273 12.9657 149.596 12.7866C241.619 1.20925 333.037 1.20924 429.007 12.8314C429.141 12.8314 429.276 12.8314 429.411 12.8314Z" fill="#EBB941"/>
<path d="M429.859 268.428C430.667 268.361 431.407 267.824 431.676 266.995L495.91 64.7613C496.247 63.6865 495.664 62.522 494.565 62.1861C493.488 61.8502 492.322 62.4324 491.985 63.5297L427.751 265.741C427.415 266.816 428.02 267.98 429.097 268.316C429.343 268.406 429.612 268.428 429.859 268.406V268.428Z" fill="#C30001"/>
<path d="M82.9395 280.722L55.6891 225.522L21.3964 276.691L82.9395 280.722Z" fill="#C30001"/>
<path d="M26.0391 220.618L25.3886 190.992L-9.91821e-05 206.354L26.0391 220.618Z" fill="#EBB941"/>
<path d="M117.95 13.5926C118.376 16.9739 121.471 19.37 124.858 18.9222C128.245 18.4967 130.644 15.4288 130.196 12.0474C129.77 8.66603 126.675 6.26995 123.288 6.69542C119.901 7.12089 117.501 10.2112 117.95 13.5926Z" fill="#90BF4F"/>
<path d="M93.4359 16.6829C93.8621 20.0643 96.9572 22.4604 100.344 22.0349C103.73 21.6094 106.13 18.5191 105.704 15.1377C105.278 11.7564 102.16 9.36028 98.7963 9.78575C95.4096 10.2112 93.0098 13.3015 93.4359 16.6829Z" fill="#D36476"/>
</g>
<defs>
<clipPath id="clip0_133_2259">
<rect width="496" height="320" fill="white" transform="matrix(-1 0 0 1 496 0)"/>
</clipPath>
</defs>
</svg>
