<svg width="22" height="22" viewBox="0 0 22 22" fill="none" xmlns="http://www.w3.org/2000/svg">
<g clip-path="url(#clip0_133_2275)">
<path d="M16.1286 22.0057C15.668 21.9073 15.2015 21.8306 14.7473 21.7069C12.7271 21.1567 10.9054 20.1928 9.21101 18.982C5.97168 16.6671 3.34235 13.8042 1.47653 10.2702C0.796672 8.98269 0.301144 7.6262 0.044186 6.18604C-0.0454505 5.68407 -0.0109749 5.23037 0.269886 4.78495C1.28209 3.17839 2.44644 1.70376 3.90637 0.476885C3.97624 0.418047 4.05484 0.369321 4.12701 0.312782C4.86203 -0.265948 5.52994 0.0268643 6.01627 0.538482C6.20933 0.741657 6.35965 0.986664 6.51869 1.22018C7.31807 2.39465 8.09859 3.58106 8.71088 4.86815C8.83499 5.12925 8.93382 5.40229 9.03633 5.67304C9.24686 6.22833 9.11172 6.71466 8.69893 7.1178C8.36015 7.4483 7.99333 7.74939 7.6426 8.06794C7.10616 8.55428 7.14247 8.32306 7.41 8.97442C8.54126 11.7274 10.5119 13.6277 13.2888 14.6969C13.4832 14.7718 13.5968 14.747 13.7324 14.582C14.0817 14.1577 14.4462 13.7449 14.8213 13.3422C15.2543 12.8775 15.7729 12.7502 16.3842 12.9662C17.2686 13.2788 18.0781 13.7371 18.8678 14.2294C19.6387 14.7098 20.3838 15.231 21.146 15.7257C21.5744 16.0038 21.8424 16.3931 22.0005 16.8684V17.2812C21.7123 17.9063 21.2719 18.417 20.7847 18.8905C19.5339 20.1054 18.2036 21.216 16.6334 22.0062H16.1286V22.0057Z" fill="#17C849"/>
</g>
<defs>
<clipPath id="clip0_133_2275">
<rect width="22" height="22.011" fill="white" transform="translate(0 -0.00537109)"/>
</clipPath>
</defs>
</svg>
