<svg width="1603" height="373" viewBox="0 0 1603 373" fill="none" xmlns="http://www.w3.org/2000/svg">
<path fill-rule="evenodd" clip-rule="evenodd" d="M1600 0H1.17421e-05L0 181V251.882C1.21746 251.375 2.10523 251.996 2.99378 252.617C3.75618 253.15 4.51916 253.683 5.49146 253.506C5.50319 253.506 5.51736 253.542 5.53596 253.59C5.56242 253.658 5.59784 253.749 5.64795 253.791C5.75876 253.869 5.86883 253.949 5.97883 254.029C6.34904 254.297 6.71853 254.565 7.1134 254.774C7.2891 254.865 7.5621 254.905 7.79507 254.938C8.03359 254.973 8.23014 255.001 8.2373 255.073C8.37681 256.148 9.05875 256.177 9.73959 256.206C9.9613 256.215 10.1829 256.224 10.3856 256.27C10.6569 256.332 10.9069 256.479 11.1447 256.619C11.1812 256.641 11.2174 256.662 11.2534 256.683C11.4423 256.79 11.6256 256.905 11.8081 257.019C12.1342 257.223 12.4574 257.425 12.8041 257.581C12.9795 257.658 13.2551 257.676 13.493 257.692C13.7376 257.708 13.9421 257.722 13.9565 257.794C14.2289 259.053 15.0721 259.03 15.7988 259.01C16.059 259.002 16.3043 258.996 16.5031 259.048C16.6815 259.236 16.8351 259.424 16.9783 259.6C17.2689 259.955 17.5164 260.258 17.8405 260.402C18.7983 260.829 19.7815 261.193 20.7646 261.557C21.2563 261.739 21.7479 261.921 22.2365 262.111C22.3361 262.154 22.4784 262.254 22.4926 262.339C22.5982 263.291 23.1977 263.293 23.7964 263.295C24.0042 263.296 24.212 263.296 24.3989 263.337C24.5014 263.358 24.6282 263.377 24.7559 263.396C25.0537 263.44 25.3563 263.485 25.3662 263.565C25.5189 264.788 26.227 264.796 26.9254 264.804C27.3334 264.809 27.738 264.814 28.0266 265.061C28.5957 265.559 29.2218 265.987 29.9189 266.186C30.4268 266.333 30.869 266.646 31.311 266.958C32.0702 267.495 32.8285 268.031 33.9165 267.725C33.9349 267.725 33.9612 267.783 33.9942 267.856C34.038 267.952 34.0936 268.075 34.1584 268.124C34.2556 268.197 34.3544 268.28 34.4545 268.364C34.7649 268.625 35.0877 268.897 35.4104 268.907C36.1184 268.945 36.6692 269.37 37.2178 269.794C37.9258 270.341 38.6301 270.886 39.6642 270.589C39.6688 270.589 39.6778 270.612 39.6907 270.646C39.718 270.718 39.7628 270.835 39.8207 270.874C39.8955 270.926 39.9704 270.98 40.0455 271.034C40.4555 271.327 40.8719 271.626 41.3287 271.842C41.512 271.93 41.8046 271.954 42.0492 271.974C42.2795 271.993 42.4673 272.008 42.4811 272.07C42.6354 273.016 43.2996 273.074 43.8895 273.125C44.224 273.154 44.5346 273.181 44.7147 273.367C45.8844 274.55 47.2482 274.669 48.6416 274.791C48.8922 274.813 49.1437 274.835 49.3953 274.863C49.454 274.863 49.4939 274.943 49.5383 275.032C49.5798 275.115 49.6254 275.206 49.6941 275.248C50.0133 275.474 50.3473 275.679 50.6801 275.883C50.8071 275.96 50.934 276.038 51.0598 276.117C51.2063 276.208 51.3518 276.299 51.4967 276.39C51.8724 276.626 52.2449 276.859 52.6248 277.086C52.895 277.242 53.1938 277.399 53.4926 277.499C54.0021 277.68 54.5116 277.859 55.0211 278.039C56.0339 278.396 57.0467 278.753 58.0594 279.123C58.103 279.137 58.1354 279.185 58.1699 279.236C58.203 279.285 58.2382 279.337 58.287 279.365C58.4545 279.466 58.6195 279.575 58.785 279.685C59.1817 279.947 59.5808 280.212 60.0226 280.362C61.0923 280.732 62.179 281.061 63.2649 281.39C63.8976 281.581 64.53 281.773 65.1586 281.972C65.244 282.001 65.3577 282.143 65.3577 282.229C65.3262 283.173 65.8733 283.19 66.4253 283.208C66.6229 283.214 66.8212 283.22 66.9938 283.269C67.4064 283.383 67.8331 283.525 68.2173 283.711C68.4584 283.831 68.6909 283.978 68.9239 284.124C69.2133 284.306 69.5032 284.488 69.8107 284.622C69.9915 284.707 70.2543 284.735 70.4942 284.761C70.7828 284.792 71.038 284.819 71.0768 284.936C71.4189 286.026 72.1689 286.019 72.9194 286.012C73.199 286.01 73.4785 286.007 73.7372 286.061C73.8545 286.086 73.9919 286.112 74.1353 286.138C74.6528 286.234 75.2484 286.344 75.2595 286.489C75.3473 287.444 75.9085 287.46 76.4739 287.476C76.6419 287.481 76.8102 287.485 76.9667 287.515C77.0687 287.533 77.1913 287.55 77.3174 287.568C77.6837 287.62 78.0801 287.676 78.0907 287.771C78.2191 288.897 78.9119 288.893 79.6047 288.889C79.8323 288.888 80.0599 288.886 80.2675 288.925C80.2969 288.931 80.3288 288.938 80.3624 288.945C80.6375 289.001 81.0229 289.08 81.0355 289.182C81.1703 290.272 81.8414 290.265 82.5095 290.258C82.7582 290.256 83.0065 290.253 83.2266 290.307C83.3776 290.344 83.53 290.38 83.6828 290.416C84.2354 290.545 84.7941 290.676 85.3179 290.877C85.5391 290.964 85.7414 291.109 85.9441 291.253C86.1716 291.415 86.3995 291.578 86.6553 291.661C87.2284 291.849 87.8413 291.987 88.4533 292.125C89.7401 292.414 91.0223 292.703 91.9191 293.456C92.9008 294.282 93.7258 294.525 94.7928 294.681C94.9493 294.71 95.1913 294.838 95.2056 294.938C95.2573 295.985 95.8817 295.983 96.5085 295.982C96.743 295.981 96.9778 295.98 97.1831 296.035C97.7332 296.181 98.2987 296.305 98.865 296.429C100.334 296.749 101.808 297.071 103.03 297.801C104.04 298.4 104.922 298.884 106.061 298.984C106.174 298.993 106.271 299.087 106.372 299.185C106.436 299.247 106.501 299.31 106.573 299.354C106.688 299.427 106.804 299.502 106.92 299.578C107.304 299.827 107.694 300.08 108.109 300.266C108.284 300.34 108.54 300.348 108.769 300.354C109.025 300.361 109.246 300.368 109.276 300.466C109.75 301.749 110.675 301.721 111.6 301.693C111.978 301.681 112.357 301.669 112.704 301.748C112.808 301.77 112.936 301.787 113.064 301.805C113.357 301.846 113.652 301.887 113.672 301.976C113.886 303.159 114.624 303.13 115.36 303.102C115.653 303.091 115.945 303.079 116.204 303.144C116.378 303.186 116.592 303.222 116.808 303.259C117.335 303.35 117.877 303.443 117.897 303.614C118.037 304.544 118.587 304.547 119.136 304.55C119.311 304.551 119.485 304.552 119.647 304.583C119.791 304.609 119.98 304.624 120.163 304.638C120.488 304.663 120.796 304.687 120.814 304.768C121.041 306.03 121.838 306.001 122.628 305.971C122.926 305.96 123.223 305.949 123.488 306.008C123.667 306.048 123.896 306.074 124.121 306.099C124.539 306.146 124.94 306.192 124.968 306.321C125.174 307.367 125.839 307.375 126.498 307.383C126.746 307.386 126.994 307.389 127.216 307.447C127.766 307.599 128.331 307.727 128.896 307.855C130.346 308.185 131.798 308.514 133.006 309.242C133.973 309.826 134.77 310.297 135.865 310.311C136.079 310.311 136.477 310.439 136.477 310.525C136.571 311.736 137.292 311.707 138.007 311.679C138.267 311.668 138.526 311.658 138.754 311.707C138.962 311.754 139.224 311.77 139.479 311.786C139.919 311.814 140.337 311.84 140.418 312.021C140.918 313.116 141.746 313.104 142.568 313.091C142.868 313.087 143.167 313.082 143.448 313.132C143.605 313.158 143.794 313.171 143.984 313.184C144.418 313.213 144.859 313.243 144.928 313.431C145.366 314.484 146.159 314.49 146.955 314.495C147.193 314.497 147.431 314.499 147.659 314.528C147.829 314.554 148.04 314.555 148.246 314.557C148.611 314.56 148.956 314.562 149.011 314.699C149.569 316.04 150.569 316.012 151.566 315.983C151.967 315.972 152.367 315.961 152.738 316.038C153.009 316.095 153.478 316.209 153.493 316.323C153.556 317.422 154.194 317.403 154.833 317.383C155.048 317.377 155.263 317.37 155.456 317.406C155.826 317.477 156.196 317.606 156.523 317.776C156.742 317.889 156.953 318.034 157.164 318.178C157.514 318.418 157.862 318.656 158.244 318.745C159.862 319.125 161.491 319.454 163.117 319.782C164.051 319.97 164.983 320.158 165.912 320.355C166.069 320.384 166.297 320.526 166.311 320.626C166.465 321.714 167.136 321.678 167.797 321.642C168.053 321.628 168.308 321.614 168.53 321.666C168.777 321.724 169.098 321.762 169.407 321.799C169.933 321.863 170.424 321.921 170.451 322.065C170.638 323.127 171.251 323.093 171.867 323.059C172.094 323.047 172.321 323.034 172.528 323.077C172.736 323.119 172.947 323.157 173.158 323.196C173.724 323.299 174.294 323.403 174.833 323.59C175.074 323.67 175.294 323.833 175.513 323.996C175.759 324.179 176.006 324.362 176.284 324.43C177.676 324.755 179.073 325.056 180.469 325.356C181.641 325.607 182.812 325.859 183.98 326.126C184.138 326.161 184.274 326.276 184.411 326.393C184.497 326.467 184.584 326.541 184.677 326.596C184.778 326.657 184.878 326.723 184.979 326.788C185.322 327.011 185.67 327.238 186.043 327.337C187.39 327.684 188.742 328.002 190.093 328.319C191.011 328.535 191.928 328.75 192.844 328.975C192.932 328.999 193.003 329.065 193.076 329.133C193.131 329.184 193.189 329.237 193.256 329.274C193.42 329.365 193.582 329.468 193.744 329.572C194.12 329.812 194.5 330.054 194.907 330.143C196.764 330.541 198.636 330.891 200.507 331.24C201.315 331.391 202.124 331.542 202.931 331.696C203.087 331.725 203.329 331.853 203.343 331.953C203.416 333.108 204.109 333.071 204.787 333.035C205.028 333.022 205.268 333.009 205.477 333.05C205.719 333.1 206.032 333.104 206.332 333.109C206.806 333.116 207.248 333.123 207.327 333.306C207.837 334.464 208.698 334.454 209.558 334.443C209.873 334.439 210.188 334.435 210.485 334.489C210.638 334.515 210.828 334.516 211.012 334.517C211.324 334.519 211.617 334.52 211.68 334.646C212.364 335.995 213.448 335.935 214.523 335.875C214.992 335.849 215.459 335.823 215.891 335.914C216.244 335.986 216.692 335.987 217.121 335.988C217.799 335.989 218.432 335.991 218.58 336.27C219.164 337.365 219.977 337.341 220.79 337.318C221.066 337.31 221.343 337.302 221.61 337.338C221.79 337.363 222.013 337.365 222.232 337.368C222.656 337.373 223.067 337.378 223.132 337.538C223.684 338.821 224.648 338.79 225.61 338.76C225.962 338.749 226.315 338.738 226.646 338.792C226.892 338.832 227.201 338.844 227.502 338.855C228.058 338.877 228.588 338.897 228.652 339.091C229.038 340.282 229.83 340.232 230.612 340.182C230.896 340.164 231.179 340.146 231.441 340.188C231.775 340.241 232.176 340.248 232.571 340.255C233.336 340.269 234.08 340.282 234.286 340.63C234.87 341.623 235.617 341.616 236.373 341.609C236.593 341.607 236.814 341.604 237.032 341.627C237.388 341.668 237.818 341.648 238.239 341.629C238.996 341.595 239.724 341.563 239.934 341.883C240.757 343.134 241.814 343.085 242.861 343.036C243.317 343.015 243.771 342.994 244.202 343.08C244.394 343.117 244.641 343.127 244.88 343.136C245.28 343.151 245.657 343.165 245.71 343.308C246.199 344.618 247.123 344.545 248.033 344.474C248.42 344.444 248.805 344.414 249.153 344.491C249.409 344.55 249.719 344.573 250.023 344.596C250.597 344.639 251.153 344.681 251.302 344.961C251.808 345.9 252.511 345.89 253.225 345.88C253.452 345.877 253.681 345.874 253.905 345.901C254.24 345.942 254.618 345.942 254.995 345.943C255.803 345.944 256.605 345.945 256.964 346.343C257.795 347.258 258.675 347.281 259.597 347.305C259.78 347.309 259.964 347.314 260.151 347.326C260.72 347.364 261.289 347.369 261.858 347.375C262.356 347.38 262.854 347.385 263.351 347.411C263.736 347.426 264.404 347.54 264.447 347.711C264.648 348.782 265.346 348.752 266.015 348.723C266.2 348.715 266.383 348.707 266.552 348.722C266.954 348.763 267.426 348.731 267.889 348.7C268.721 348.643 269.523 348.589 269.825 348.964C270.847 350.215 272.047 350.186 273.244 350.157C273.779 350.144 274.314 350.131 274.833 350.232C275.245 350.318 275.658 350.489 276.042 350.674C276.251 350.771 276.453 350.897 276.653 351.023C277.011 351.247 277.366 351.469 277.749 351.515C278.594 351.613 279.445 351.627 280.297 351.642C280.809 351.65 281.32 351.659 281.832 351.686C282.216 351.7 282.871 351.814 282.927 352.013C283.19 353.054 283.921 353.021 284.61 352.989C284.78 352.981 284.947 352.974 285.104 352.982C285.949 353.037 286.799 353.044 287.648 353.052C288.342 353.058 289.036 353.064 289.728 353.096C289.778 353.098 289.831 353.099 289.885 353.1C290.403 353.111 291.082 353.125 291.236 353.395C291.853 354.48 292.768 354.458 293.678 354.436C293.963 354.429 294.247 354.423 294.522 354.45C294.821 354.483 295.178 354.476 295.531 354.469C296.22 354.456 296.89 354.443 297.069 354.735C297.775 355.888 298.713 355.861 299.655 355.835C299.947 355.827 300.24 355.819 300.526 355.846C300.947 355.882 301.444 355.841 301.932 355.801C302.811 355.73 303.658 355.66 303.969 356.045C305.124 357.469 306.483 357.368 307.833 357.267C308.495 357.217 309.155 357.168 309.788 357.299C309.976 357.341 310.213 357.352 310.444 357.363C310.839 357.381 311.215 357.399 311.296 357.57C311.859 358.721 312.779 358.683 313.689 358.646C313.928 358.636 314.166 358.627 314.397 358.638C315.626 358.699 316.858 358.728 318.091 358.756C319.17 358.781 320.249 358.806 321.326 358.852C321.781 358.866 322.535 358.966 322.606 359.194C322.929 360.199 323.636 360.164 324.324 360.131C324.484 360.123 324.644 360.115 324.797 360.12C325.525 360.158 326.253 360.164 326.979 360.169C327.615 360.174 328.249 360.179 328.88 360.206C329.264 360.22 329.918 360.348 329.961 360.533C330.159 361.549 330.854 361.532 331.505 361.516C331.649 361.512 331.791 361.509 331.924 361.516C332.665 361.565 333.41 361.577 334.157 361.589C334.716 361.597 335.277 361.606 335.837 361.63C335.884 361.632 335.935 361.634 335.989 361.635C336.403 361.647 336.966 361.663 337.003 361.801C337.365 363.075 338.234 362.995 339.076 362.917C339.326 362.894 339.574 362.871 339.806 362.884C340.987 362.951 342.172 362.969 343.36 362.987C344.19 362.999 345.021 363.012 345.852 363.041C346.293 363.055 346.735 363.198 347.147 363.369C347.394 363.472 347.636 363.614 347.875 363.755C348.297 364.004 348.712 364.248 349.139 364.266C351.356 364.368 353.579 364.403 355.801 364.439C357.015 364.459 358.228 364.478 359.439 364.508C359.965 364.508 360.791 364.508 360.947 364.779C361.533 365.896 362.449 365.861 363.349 365.826C363.585 365.816 363.821 365.807 364.049 365.819C365.116 365.871 366.183 365.876 367.25 365.881C367.961 365.884 368.672 365.888 369.384 365.905C369.44 365.905 369.5 365.904 369.561 365.904C370.072 365.9 370.715 365.894 370.906 366.161C371.69 367.288 372.766 367.26 373.819 367.232C374.084 367.225 374.348 367.218 374.605 367.23C375.939 367.292 377.272 367.299 378.606 367.305C379.406 367.309 380.207 367.313 381.007 367.329C381.476 367.329 382.216 367.329 382.344 367.572C382.928 368.706 383.871 368.67 384.787 368.635C385.01 368.626 385.231 368.618 385.446 368.626C387.255 368.673 389.064 368.699 390.873 368.724C392.322 368.745 393.771 368.765 395.219 368.797C395.731 368.797 396.258 368.925 396.742 369.096C397.045 369.196 397.343 369.34 397.639 369.483C398.147 369.728 398.648 369.971 399.16 369.98C402.992 370.065 406.824 370.1 410.655 370.135C412.571 370.152 414.487 370.169 416.403 370.193C416.452 370.193 416.503 370.193 416.557 370.193C417.142 370.191 417.963 370.187 418.068 370.435C418.556 371.578 419.426 371.528 420.264 371.48C420.45 371.469 420.635 371.459 420.813 371.461C424.881 371.518 428.949 371.55 433.018 371.582C435.053 371.597 437.088 371.613 439.123 371.632C439.19 371.632 439.262 371.632 439.337 371.631C439.92 371.627 440.701 371.621 440.802 371.86C441.274 373.013 442.137 372.953 442.962 372.896C443.157 372.882 443.349 372.869 443.533 372.872C450.818 372.943 458.116 372.986 465.4 372.986C477.299 372.986 489.19 372.949 501.086 372.913C504.066 372.904 507.048 372.895 510.029 372.886C510.129 372.886 510.237 372.888 510.35 372.89C510.957 372.902 511.687 372.916 511.879 372.615C512.574 371.606 513.492 371.63 514.411 371.654C514.582 371.659 514.754 371.663 514.923 371.661C517.947 371.618 520.971 371.59 523.995 371.561C527.018 371.533 530.04 371.504 533.062 371.461C533.674 371.461 534.3 371.29 534.898 371.091C535.16 371.001 535.413 370.859 535.664 370.719C536.053 370.501 536.435 370.287 536.833 370.279C540.427 370.184 544.022 370.139 547.617 370.095C549.414 370.073 551.211 370.051 553.008 370.022C553.093 370.022 553.184 370.024 553.279 370.026C553.779 370.036 554.375 370.048 554.531 369.809C555.225 368.714 556.212 368.751 557.176 368.787C557.417 368.796 557.655 368.806 557.888 368.797C559.605 368.727 561.317 368.7 563.03 368.673C564.099 368.656 565.168 368.639 566.239 368.612C566.694 368.612 567.164 368.526 567.591 368.37C567.931 368.256 568.266 368.103 568.599 367.951C569.185 367.683 569.766 367.418 570.365 367.372C571.816 367.258 573.28 367.258 574.744 367.258C575.476 367.258 576.208 367.258 576.938 367.244C576.981 367.244 577.027 367.244 577.073 367.244C577.655 367.246 578.458 367.249 578.616 366.959C579.255 365.826 580.202 365.868 581.138 365.909C581.391 365.92 581.644 365.931 581.889 365.919C582.914 365.866 583.944 365.853 584.973 365.84C585.9 365.829 586.827 365.817 587.75 365.776C588.057 365.766 588.357 365.621 588.654 365.477C588.756 365.428 588.858 365.379 588.959 365.335C589.145 365.247 589.33 365.13 589.513 365.013C589.864 364.791 590.212 364.57 590.567 364.551C592.446 364.474 594.331 364.443 596.217 364.413C597.473 364.392 598.729 364.372 599.985 364.337C600.497 364.337 601.365 364.309 601.479 364.053C601.91 362.984 602.695 363.022 603.464 363.059C603.659 363.069 603.853 363.078 604.04 363.069C604.909 363.031 605.782 363.017 606.655 363.004C607.382 362.993 608.11 362.981 608.834 362.956C609.289 362.941 610.072 362.913 610.143 362.685C610.542 361.59 611.332 361.627 612.113 361.664C612.308 361.673 612.502 361.682 612.69 361.673C613.486 361.63 614.287 361.613 615.087 361.595C615.887 361.577 616.687 361.559 617.484 361.516C617.911 361.488 618.665 361.317 618.693 361.118C618.857 360.143 619.476 360.165 620.079 360.187C620.207 360.192 620.335 360.196 620.457 360.191C621.222 360.172 621.986 360.165 622.749 360.157C623.704 360.147 624.658 360.138 625.607 360.106C625.657 360.105 625.709 360.104 625.763 360.102C626.279 360.092 626.948 360.078 627.115 359.807C627.737 358.773 628.649 358.785 629.548 358.798C629.739 358.8 629.93 358.803 630.117 358.795C631.151 358.748 632.186 358.727 633.222 358.706C634.082 358.688 634.944 358.671 635.808 358.638C636.263 358.624 637.017 358.567 637.103 358.325C637.501 357.271 638.28 357.306 639.034 357.339C639.249 357.348 639.462 357.358 639.664 357.342C640.167 357.303 640.735 357.343 641.298 357.383C642.39 357.461 643.458 357.536 643.974 357.029C645.107 355.924 646.293 355.939 647.473 355.954C647.998 355.96 648.522 355.967 649.039 355.874C649.238 355.839 649.438 355.806 649.638 355.773C650.238 355.674 650.839 355.575 651.415 355.404C651.723 355.308 652.015 355.155 652.305 355.003C652.699 354.797 653.088 354.593 653.506 354.535C654.151 354.449 654.809 354.453 655.465 354.458C655.996 354.462 656.527 354.466 657.049 354.421C657.464 354.388 657.863 354.195 658.258 354.004C658.377 353.947 658.495 353.89 658.614 353.837C658.783 353.762 658.95 353.664 659.115 353.567C659.421 353.387 659.722 353.209 660.036 353.182C661.238 353.103 662.441 353.067 663.646 353.031C664.395 353.009 665.145 352.986 665.898 352.954C665.938 352.952 665.981 352.951 666.026 352.95C666.427 352.938 666.986 352.921 667.05 352.754C667.486 351.607 668.341 351.641 669.183 351.674C669.44 351.685 669.696 351.695 669.938 351.671C670.405 351.622 670.941 351.649 671.469 351.676C672.473 351.727 673.45 351.777 673.879 351.301C674.83 350.267 675.832 350.264 676.833 350.262C677.239 350.261 677.645 350.26 678.047 350.19C678.237 350.159 678.47 350.141 678.704 350.122C679.243 350.08 679.79 350.036 679.84 349.848C680.155 348.767 680.887 348.789 681.602 348.811C681.791 348.817 681.98 348.823 682.159 348.808C682.692 348.763 683.228 348.758 683.763 348.754C684.413 348.749 685.061 348.743 685.701 348.665C686.054 348.618 686.387 348.398 686.722 348.176C686.888 348.067 687.054 347.957 687.224 347.867C687.28 347.839 687.337 347.81 687.394 347.78C687.679 347.634 687.968 347.485 688.276 347.426C689.074 347.276 689.891 347.29 690.711 347.303C692.318 347.329 693.934 347.356 695.432 346.158C695.972 345.729 696.89 345.788 697.823 345.848C698.315 345.88 698.812 345.912 699.259 345.873L699.391 345.861C700.023 345.805 700.945 345.723 701.038 345.431C701.347 344.425 701.998 344.457 702.647 344.488C702.834 344.498 703.022 344.507 703.2 344.491C703.588 344.456 704.047 344.483 704.499 344.509C705.357 344.559 706.188 344.607 706.458 344.234C707.389 342.934 708.538 343.004 709.67 343.074C710.251 343.109 710.826 343.144 711.366 342.995C711.546 342.948 711.731 342.918 711.914 342.889C712.181 342.845 712.445 342.803 712.689 342.71C712.988 342.598 713.281 342.449 713.574 342.301C714.062 342.054 714.55 341.807 715.065 341.727C715.844 341.6 716.634 341.594 717.429 341.588C717.883 341.585 718.338 341.582 718.793 341.556C719.163 341.527 719.533 341.356 719.888 341.199C720.163 341.082 720.429 340.942 720.693 340.802C721.101 340.588 721.506 340.374 721.937 340.245C722.383 340.108 722.884 340.152 723.386 340.196C724.403 340.285 725.424 340.375 726.006 338.963C726.061 338.841 726.434 338.839 726.764 338.838C726.859 338.838 726.951 338.838 727.03 338.834C727.317 338.822 727.605 338.812 727.892 338.803C728.614 338.778 729.334 338.753 730.046 338.692C730.416 338.663 731.07 338.492 731.085 338.321C731.219 337.268 731.855 337.316 732.481 337.364C732.65 337.377 732.819 337.39 732.977 337.381C733.376 337.352 733.842 337.385 734.303 337.418C735.206 337.482 736.09 337.544 736.42 337.139C737.492 335.833 738.747 335.9 739.991 335.966C740.579 335.997 741.164 336.028 741.726 335.914C741.99 335.859 742.32 335.861 742.638 335.863C743.144 335.867 743.621 335.87 743.761 335.643C744.462 334.531 745.426 334.539 746.391 334.547C746.737 334.549 747.083 334.552 747.417 334.503C747.635 334.472 747.904 334.455 748.174 334.437C748.767 334.399 749.36 334.361 749.409 334.175C749.732 332.976 750.481 333.044 751.217 333.111C751.486 333.135 751.754 333.159 751.998 333.121C752.351 333.063 752.772 333.053 753.187 333.042C753.992 333.023 754.775 333.003 755 332.637C755.535 331.744 756.166 331.734 756.824 331.724C757.006 331.721 757.191 331.718 757.376 331.696C757.732 331.657 758.134 331.657 758.537 331.656C759.454 331.654 760.372 331.653 760.747 331.198C761.455 330.371 762.153 330.337 762.898 330.301C763.051 330.294 763.207 330.286 763.365 330.272C763.717 330.236 764.14 330.26 764.556 330.283C765.316 330.325 766.052 330.366 766.282 330.044C767.179 328.793 768.298 328.829 769.408 328.865C769.916 328.881 770.423 328.897 770.905 328.79C771.017 328.763 771.149 328.738 771.286 328.711C771.741 328.623 772.253 328.523 772.285 328.348C772.465 327.426 773.035 327.436 773.61 327.446C773.763 327.449 773.917 327.451 774.064 327.436C774.324 327.406 774.643 327.391 774.965 327.375C775.715 327.337 776.479 327.3 776.539 327.08C776.844 325.968 777.524 325.999 778.203 326.03C778.411 326.04 778.619 326.049 778.815 326.026C779.266 325.971 779.721 325.941 780.176 325.912C780.897 325.865 781.617 325.818 782.315 325.67C782.697 325.585 783.077 325.368 783.446 325.156C783.943 324.872 784.421 324.599 784.862 324.672C786.457 324.944 787.861 324.394 789.257 323.847C790.501 323.361 791.738 322.876 793.099 322.977C793.958 321.664 795.213 321.673 796.47 321.682C796.795 321.684 797.12 321.687 797.438 321.666C797.652 321.652 798.022 321.552 798.05 321.438C798.292 320.291 799.073 320.314 799.828 320.336C800.048 320.343 800.266 320.349 800.469 320.327C800.823 320.286 801.242 320.309 801.654 320.331C802.399 320.371 803.119 320.41 803.385 320.07C804.354 318.855 805.525 318.887 806.685 318.919C807.211 318.933 807.735 318.947 808.236 318.845C808.324 318.828 808.424 318.811 808.529 318.793C808.937 318.724 809.412 318.645 809.446 318.475C809.684 317.466 810.35 317.481 811.006 317.496C811.212 317.5 811.418 317.505 811.608 317.477C811.969 317.423 812.401 317.423 812.827 317.424C813.625 317.425 814.402 317.426 814.653 317.064C815.3 316.117 816.06 316.1 816.834 316.082C817.131 316.076 817.43 316.069 817.726 316.01C818.295 315.896 818.85 315.654 819.39 315.411C819.585 315.322 819.771 315.196 819.955 315.071C820.242 314.877 820.524 314.685 820.827 314.642C821.292 314.575 821.82 314.594 822.339 314.613C823.248 314.646 824.131 314.678 824.611 314.243C825.681 313.279 826.799 313.241 827.929 313.203C828.302 313.19 828.676 313.178 829.05 313.132C829.211 313.11 829.409 313.098 829.608 313.085C830.059 313.057 830.514 313.028 830.544 312.89C830.857 311.655 831.662 311.711 832.45 311.766C832.735 311.786 833.018 311.806 833.276 311.764C833.476 311.731 833.731 311.732 833.974 311.733C834.37 311.733 834.736 311.734 834.798 311.593C835.348 310.286 836.322 310.311 837.296 310.336C837.681 310.345 838.067 310.355 838.426 310.282C838.753 310.211 839.08 310.111 839.379 309.983C839.648 309.868 839.912 309.734 840.176 309.601C840.693 309.34 841.208 309.08 841.755 308.957C842.147 308.865 842.624 308.88 843.082 308.895C843.754 308.917 844.386 308.937 844.657 308.615C845.584 307.518 846.668 307.515 847.751 307.511C848.13 307.51 848.51 307.509 848.882 307.461C849.066 307.436 849.297 307.436 849.524 307.435C849.945 307.434 850.349 307.434 850.404 307.276C851.04 305.756 852.219 305.884 853.316 306.003C853.617 306.036 853.913 306.068 854.189 306.065C854.991 306.052 855.644 305.636 856.29 305.224C857.111 304.701 857.921 304.185 859.012 304.512C859.054 304.512 859.211 304.355 859.225 304.27C859.269 303.117 859.968 303.163 860.637 303.207C860.829 303.219 861.018 303.231 861.188 303.216C861.837 303.163 862.489 303.154 863.141 303.145C863.734 303.136 864.326 303.128 864.916 303.087C865.343 303.059 865.755 302.788 866.154 302.589C866.351 302.497 866.543 302.385 866.734 302.272C867.082 302.068 867.428 301.864 867.804 301.791C868.159 301.714 868.63 301.716 869.071 301.717C869.688 301.72 870.245 301.722 870.336 301.506C870.842 300.31 871.672 300.34 872.503 300.369C872.841 300.381 873.178 300.393 873.495 300.323C873.657 300.288 873.874 300.282 874.078 300.276C874.374 300.267 874.642 300.259 874.675 300.167C875.116 298.822 876.059 298.867 876.993 298.913C877.356 298.93 877.717 298.948 878.047 298.884C878.177 298.857 878.349 298.842 878.514 298.828C878.784 298.805 879.034 298.784 879.043 298.713C879.292 297.344 880.151 297.425 880.99 297.504C881.304 297.534 881.614 297.563 881.888 297.516C882.248 297.456 882.696 297.474 883.126 297.492C883.803 297.521 884.437 297.547 884.62 297.26C885.4 296.047 886.418 296.065 887.437 296.084C887.83 296.091 888.223 296.098 888.603 296.035C888.791 296.002 889.029 295.983 889.265 295.964C889.744 295.926 890.216 295.888 890.254 295.736C890.552 294.571 891.297 294.614 892.037 294.657C892.319 294.673 892.601 294.69 892.857 294.638C893.084 294.591 893.382 294.559 893.67 294.528C894.16 294.476 894.618 294.427 894.635 294.311C894.794 293.136 895.471 293.188 896.147 293.239C896.38 293.257 896.614 293.275 896.826 293.242C897.061 293.211 897.357 293.216 897.645 293.221C898.142 293.229 898.614 293.237 898.704 293.057C899.387 291.594 900.482 291.689 901.57 291.784C902.113 291.832 902.655 291.879 903.143 291.732C903.669 291.575 904.224 291.447 904.722 291.248C904.956 291.156 905.181 291.028 905.404 290.901C905.737 290.711 906.066 290.524 906.415 290.464C906.865 290.391 907.406 290.402 907.933 290.413C908.837 290.432 909.698 290.451 909.986 290.036C910.695 289.002 911.527 288.985 912.358 288.969C912.694 288.963 913.03 288.956 913.358 288.882C913.487 288.855 913.652 288.833 913.815 288.811C914.153 288.766 914.486 288.722 914.496 288.626C914.665 287.442 915.382 287.474 916.095 287.505C916.343 287.516 916.591 287.527 916.815 287.486C917.036 287.446 917.283 287.455 917.531 287.464C918.257 287.491 918.996 287.518 919.134 286.318C919.134 286.229 919.518 286.174 919.849 286.128C919.94 286.115 920.027 286.102 920.101 286.09L928.509 284.594C928.666 284.565 928.908 284.494 928.95 284.38C929.392 283.214 930.276 283.226 931.161 283.239C931.443 283.242 931.726 283.246 931.995 283.212C932.256 283.175 932.582 283.156 932.905 283.137C933.584 283.098 934.256 283.058 934.314 282.856C934.611 281.765 935.274 281.782 935.954 281.799C936.154 281.805 936.354 281.81 936.547 281.787C936.628 281.779 936.722 281.776 936.818 281.772C937.077 281.763 937.345 281.753 937.387 281.659C937.976 280.261 939.031 280.323 940.083 280.385C940.478 280.408 940.873 280.431 941.242 280.377C941.581 280.328 941.987 280.329 942.388 280.331C943.15 280.334 943.892 280.337 944.116 279.992C944.797 278.975 945.624 278.969 946.461 278.963C946.761 278.96 947.063 278.958 947.36 278.909C947.514 278.883 947.696 278.869 947.879 278.855C948.304 278.822 948.731 278.789 948.811 278.61C949.27 277.569 950.058 277.565 950.85 277.56C951.088 277.558 951.326 277.557 951.557 277.527C951.712 277.508 951.907 277.502 952.099 277.496C952.487 277.483 952.866 277.471 952.894 277.356C953.293 275.988 954.202 276.048 955.112 276.108C955.5 276.134 955.889 276.159 956.237 276.074C956.358 276.047 956.509 276.027 956.659 276.007C956.988 275.964 957.318 275.92 957.347 275.803C957.623 274.664 958.396 274.684 959.154 274.703C959.373 274.709 959.59 274.714 959.794 274.692C960.133 274.651 960.536 274.673 960.931 274.694C961.63 274.732 962.303 274.769 962.54 274.45C963.507 273.178 964.709 273.216 965.902 273.254C966.446 273.271 966.988 273.289 967.505 273.182C967.608 273.159 967.736 273.137 967.867 273.114C968.222 273.053 968.604 272.987 968.615 272.882C968.739 271.739 969.416 271.779 970.083 271.817C970.33 271.832 970.576 271.846 970.791 271.8C971.044 271.745 971.363 271.715 971.675 271.685C972.256 271.629 972.813 271.576 972.868 271.372C973.119 270.47 973.681 270.456 974.254 270.442C974.395 270.438 974.537 270.435 974.675 270.418C974.803 270.399 974.961 270.393 975.12 270.386C975.456 270.372 975.793 270.358 975.842 270.232C976.331 268.982 977.261 268.997 978.193 269.011C978.535 269.016 978.878 269.022 979.199 268.964C981.638 268.522 984.063 268.041 986.5 267.558L986.953 267.468C987.045 267.452 987.123 267.385 987.2 267.319C987.254 267.273 987.307 267.227 987.365 267.198C987.565 267.091 987.762 266.974 987.959 266.856C988.422 266.579 988.886 266.302 989.386 266.172C991.025 265.749 992.684 265.374 994.34 265C995.085 264.831 995.829 264.663 996.57 264.491C996.727 264.448 996.954 264.32 996.983 264.206C997.15 263.285 997.724 263.302 998.316 263.319C998.53 263.325 998.746 263.332 998.946 263.294C1001.58 262.809 1004.21 262.282 1006.83 261.755C1006.93 261.741 1007.1 261.655 1007.11 261.584C1007.35 260.391 1008.13 260.425 1008.9 260.458C1009.16 260.469 1009.42 260.48 1009.66 260.444C1010.44 260.323 1011.16 259.982 1011.88 259.641C1013.01 259.105 1014.15 258.569 1015.51 258.891C1015.56 258.891 1015.72 258.749 1015.72 258.663C1015.81 257.544 1016.52 257.577 1017.2 257.608C1017.39 257.616 1017.57 257.624 1017.74 257.609C1018.25 257.567 1018.81 257.596 1019.36 257.624C1020.49 257.683 1021.61 257.74 1022.22 257.196C1023.18 256.352 1024.12 256.269 1025.07 256.184C1025.39 256.156 1025.71 256.127 1026.03 256.07C1026.14 256.05 1026.27 256.044 1026.39 256.038C1026.62 256.029 1026.84 256.019 1026.87 255.928C1027.35 254.706 1028.27 254.726 1029.19 254.746C1029.53 254.753 1029.88 254.761 1030.2 254.703C1030.32 254.684 1030.46 254.673 1030.6 254.662C1030.89 254.639 1031.18 254.617 1031.2 254.532C1031.53 253.092 1032.44 253.187 1033.34 253.281C1033.75 253.324 1034.16 253.366 1034.51 253.264C1034.88 253.155 1035.26 253.085 1035.63 253.015C1036.04 252.939 1036.45 252.863 1036.85 252.736C1037.13 252.647 1037.4 252.495 1037.67 252.345C1038 252.158 1038.33 251.973 1038.68 251.91C1039.13 251.836 1039.65 251.85 1040.17 251.864C1041.05 251.887 1041.89 251.91 1042.27 251.497C1043.13 250.559 1044.01 250.527 1044.93 250.494C1045.2 250.484 1045.47 250.475 1045.74 250.443C1045.88 250.423 1046.06 250.42 1046.23 250.418C1046.56 250.412 1046.87 250.407 1046.92 250.286C1047.43 248.951 1048.41 248.989 1049.39 249.026C1049.73 249.039 1050.08 249.052 1050.4 249.004C1050.57 248.978 1050.76 248.955 1050.95 248.932C1051.63 248.85 1052.39 248.759 1052.45 248.505C1052.7 247.584 1053.24 247.598 1053.81 247.612C1053.96 247.615 1054.1 247.619 1054.25 247.607C1054.5 247.583 1054.8 247.572 1055.11 247.562C1055.87 247.536 1056.66 247.509 1056.74 247.265C1057.09 246.128 1057.8 246.17 1058.51 246.212C1058.75 246.226 1058.98 246.239 1059.2 246.211C1059.57 246.163 1060.01 246.172 1060.45 246.181C1061.29 246.199 1062.11 246.216 1062.43 245.812C1063.19 244.844 1064.05 244.826 1064.92 244.808C1065.2 244.802 1065.49 244.796 1065.77 244.758C1066.06 244.717 1066.42 244.713 1066.78 244.708C1067.43 244.701 1068.05 244.693 1068.13 244.473C1068.56 243.316 1069.34 243.341 1070.12 243.365C1070.4 243.374 1070.68 243.383 1070.95 243.333C1071.14 243.296 1071.39 243.286 1071.63 243.277C1072.04 243.262 1072.41 243.248 1072.46 243.105C1072.85 241.881 1073.7 241.909 1074.54 241.937C1074.85 241.947 1075.15 241.957 1075.43 241.908C1075.6 241.875 1075.83 241.874 1076.05 241.873C1076.39 241.871 1076.72 241.869 1076.78 241.737C1077.39 240.434 1078.4 240.482 1079.41 240.53C1079.79 240.549 1080.17 240.567 1080.52 240.512C1080.91 240.457 1081.36 240.467 1081.81 240.476C1082.64 240.494 1083.44 240.511 1083.75 240.113C1084.5 239.182 1085.32 239.144 1086.15 239.104C1086.4 239.093 1086.66 239.081 1086.91 239.045C1087.06 239.024 1087.24 239.024 1087.42 239.023C1087.74 239.022 1088.05 239.022 1088.09 238.902C1088.71 237.486 1089.78 237.569 1090.84 237.652C1091.32 237.69 1091.81 237.727 1092.25 237.62C1092.46 237.57 1092.74 237.55 1093.01 237.532C1093.43 237.502 1093.82 237.474 1093.87 237.335C1094.21 236.181 1094.98 236.205 1095.75 236.229C1096.01 236.237 1096.26 236.245 1096.5 236.209C1096.71 236.175 1096.98 236.18 1097.23 236.184C1097.62 236.19 1097.97 236.195 1098.02 236.067C1098.58 234.622 1099.62 234.717 1100.65 234.811C1101.05 234.847 1101.44 234.883 1101.81 234.827C1102.21 234.761 1102.69 234.791 1103.16 234.82C1103.89 234.867 1104.59 234.911 1104.91 234.571C1106.02 233.348 1107.31 233.365 1108.58 233.382C1109.11 233.389 1109.63 233.396 1110.14 233.317C1110.19 233.31 1110.24 233.303 1110.3 233.295C1110.58 233.258 1110.92 233.212 1110.94 233.118C1111.18 231.857 1111.98 231.916 1112.77 231.974C1113.07 231.997 1113.37 232.019 1113.64 231.964C1113.96 231.898 1114.36 231.875 1114.75 231.853C1115.47 231.812 1116.15 231.774 1116.29 231.479C1116.74 230.464 1117.4 230.494 1118.08 230.525C1118.32 230.537 1118.57 230.548 1118.81 230.51C1118.95 230.486 1119.09 230.464 1119.24 230.441C1119.86 230.341 1120.49 230.24 1121.1 230.054C1121.4 229.958 1121.7 229.804 1121.99 229.651C1122.39 229.441 1122.78 229.235 1123.19 229.185C1124.22 229.074 1125.26 229.053 1126.31 229.032C1126.87 229.021 1127.42 229.01 1127.98 228.986C1128.38 228.972 1129.06 228.929 1129.14 228.729C1129.54 227.599 1130.34 227.636 1131.15 227.672C1131.43 227.685 1131.71 227.698 1131.97 227.661C1132.17 227.633 1132.42 227.646 1132.66 227.658C1133.05 227.678 1133.42 227.696 1133.5 227.547C1134.33 226.152 1135.53 226.206 1136.71 226.26C1137.24 226.284 1137.76 226.308 1138.25 226.207C1138.38 226.179 1138.54 226.159 1138.7 226.139C1139.02 226.097 1139.34 226.056 1139.36 225.951C1139.59 224.789 1140.36 224.819 1141.1 224.849C1141.33 224.858 1141.56 224.867 1141.77 224.84C1142.14 224.792 1142.58 224.817 1143.02 224.841C1143.76 224.882 1144.47 224.921 1144.69 224.598C1145.58 223.27 1146.72 223.358 1147.85 223.446C1148.39 223.489 1148.93 223.531 1149.44 223.415C1149.76 223.339 1150.17 223.354 1150.56 223.369C1151.12 223.39 1151.64 223.41 1151.84 223.159C1152.79 221.92 1153.97 221.956 1155.16 221.993C1155.68 222.008 1156.19 222.024 1156.69 221.933C1156.82 221.909 1156.97 221.892 1157.12 221.874C1157.5 221.829 1157.9 221.783 1157.96 221.62C1158.31 220.592 1159.06 220.599 1159.8 220.605C1159.98 220.607 1160.16 220.608 1160.33 220.594C1160.76 220.556 1161.24 220.579 1161.71 220.602C1162.67 220.649 1163.62 220.695 1164.13 220.238C1165.34 219.145 1166.6 219.135 1167.89 219.125C1168.13 219.123 1168.37 219.121 1168.61 219.112C1168.84 219.112 1169.23 219.084 1169.27 218.97C1169.77 217.711 1170.72 217.74 1171.66 217.769C1171.99 217.779 1172.32 217.789 1172.63 217.744C1176.47 217.203 1180.32 216.662 1184.16 216.12L1184.22 216.111C1184.39 216.085 1184.6 216.051 1184.65 215.949C1185.17 214.81 1186.1 214.838 1187.01 214.866C1187.31 214.875 1187.61 214.884 1187.89 214.852C1188.29 214.811 1188.74 214.821 1189.19 214.832C1190.12 214.855 1191.05 214.877 1191.48 214.425C1192.35 213.488 1193.24 213.48 1194.15 213.472C1194.42 213.47 1194.69 213.468 1194.96 213.442C1195.27 213.409 1195.63 213.416 1195.99 213.423C1196.72 213.438 1197.44 213.453 1197.65 213.128C1198.36 212.04 1199.25 212.052 1200.15 212.065C1200.36 212.068 1200.57 212.07 1200.78 212.06C1201.7 212.017 1202.62 211.992 1203.53 211.967C1204.45 211.942 1205.37 211.917 1206.29 211.874C1206.72 211.846 1207.16 211.666 1207.56 211.498L1207.58 211.49C1207.81 211.392 1208.04 211.261 1208.26 211.132C1208.65 210.905 1209.04 210.68 1209.46 210.635C1210.31 210.536 1211.17 210.534 1212.03 210.531C1212.53 210.529 1213.04 210.528 1213.54 210.507C1213.94 210.492 1214.61 210.421 1214.67 210.222C1214.97 209.213 1215.66 209.226 1216.34 209.238C1216.63 209.243 1216.91 209.248 1217.17 209.182C1217.77 209.027 1218.42 209.095 1219.08 209.164C1220.35 209.298 1221.63 209.433 1222.55 207.928C1222.68 207.724 1223.19 207.738 1223.65 207.752C1223.81 207.756 1223.95 207.76 1224.08 207.757C1224.74 207.743 1225.39 207.736 1226.04 207.728C1226.69 207.721 1227.34 207.714 1228 207.7C1228.34 207.7 1228.92 207.7 1228.99 207.543C1229.54 206.29 1230.53 206.339 1231.5 206.388C1231.75 206.4 1231.99 206.412 1232.22 206.403C1233.63 206.35 1235.04 206.324 1236.45 206.299C1237.29 206.283 1238.13 206.268 1238.98 206.247C1239.04 206.247 1239.1 206.248 1239.17 206.248C1239.57 206.254 1240.08 206.261 1240.16 206.09C1240.84 204.785 1241.92 204.866 1242.97 204.946C1243.3 204.971 1243.62 204.995 1243.93 204.979C1245.17 204.902 1246.41 204.886 1247.66 204.871C1248.49 204.861 1249.32 204.85 1250.15 204.822C1250.6 204.822 1251.39 204.808 1251.47 204.58C1251.96 203.377 1252.86 203.441 1253.73 203.504C1253.99 203.523 1254.25 203.542 1254.5 203.525C1255.44 203.464 1256.38 203.462 1257.33 203.46C1257.93 203.458 1258.53 203.457 1259.12 203.44C1259.52 203.44 1260.23 203.397 1260.26 203.24C1260.59 202.001 1261.44 202.063 1262.25 202.121C1262.47 202.137 1262.68 202.152 1262.88 202.143C1264.37 202.084 1265.87 202.07 1267.36 202.056C1268.36 202.047 1269.35 202.038 1270.35 202.015C1270.81 202.015 1271.57 201.987 1271.66 201.759C1272.07 200.647 1272.91 200.684 1273.72 200.72C1273.89 200.728 1274.06 200.735 1274.22 200.733C1276.77 200.697 1279.33 200.669 1281.88 200.64C1284.42 200.612 1286.97 200.583 1289.51 200.548C1290.2 200.548 1290.89 200.377 1291.56 200.191C1291.89 200.099 1292.21 199.956 1292.53 199.814C1293.04 199.586 1293.55 199.36 1294.07 199.351C1296.55 199.292 1299.04 199.269 1301.53 199.246C1304.43 199.22 1307.34 199.193 1310.24 199.109C1310.64 199.095 1311.06 199.133 1311.48 199.172C1312.78 199.291 1314.12 199.413 1315.11 198.026C1315.2 197.905 1315.49 197.92 1315.74 197.933C1315.82 197.937 1315.9 197.94 1315.96 197.94C1320.36 197.936 1324.77 197.929 1329.17 197.923C1337.99 197.91 1346.8 197.898 1355.61 197.898C1356.11 197.898 1356.62 198.083 1357.09 198.254C1357.33 198.336 1357.57 198.455 1357.81 198.573C1358.23 198.784 1358.65 198.995 1359.08 198.995C1365.69 199.09 1372.29 199.159 1378.9 199.229C1382.19 199.264 1385.48 199.299 1388.77 199.337C1389.53 199.337 1390.3 199.451 1391.02 199.636C1391.38 199.727 1391.73 199.877 1392.08 200.026C1392.61 200.251 1393.14 200.474 1393.67 200.491C1397.59 200.582 1401.51 200.621 1405.44 200.659C1407.62 200.681 1409.8 200.702 1411.98 200.733C1412.6 200.733 1413.24 200.89 1413.86 201.075C1414.18 201.173 1414.49 201.321 1414.8 201.469C1415.31 201.706 1415.81 201.941 1416.32 201.958C1418.37 202.035 1420.44 202.05 1422.5 202.066C1423.88 202.076 1425.25 202.086 1426.63 202.115C1427.15 202.115 1427.69 202.349 1428.18 202.56L1428.21 202.571C1428.43 202.663 1428.64 202.799 1428.85 202.933C1429.18 203.151 1429.52 203.365 1429.86 203.383C1431.55 203.466 1433.23 203.483 1434.92 203.501C1435.84 203.51 1436.76 203.52 1437.69 203.54C1437.74 203.54 1437.8 203.539 1437.86 203.539C1438.38 203.534 1439.04 203.529 1439.21 203.796C1439.94 204.978 1440.99 204.924 1442.02 204.87C1442.3 204.856 1442.57 204.841 1442.84 204.85C1444.1 204.906 1445.37 204.922 1446.64 204.938C1447.62 204.95 1448.61 204.962 1449.59 204.993C1450 205.005 1450.42 205.18 1450.82 205.347C1450.88 205.372 1450.94 205.396 1451 205.42C1451.2 205.507 1451.41 205.625 1451.61 205.744C1451.97 205.958 1452.33 206.171 1452.69 206.19C1454.58 206.27 1456.47 206.294 1458.36 206.319C1459.49 206.333 1460.63 206.348 1461.76 206.375C1462.34 206.375 1463.26 206.375 1463.42 206.674C1463.98 207.761 1464.85 207.727 1465.71 207.694C1465.92 207.685 1466.13 207.677 1466.34 207.686C1467.2 207.724 1468.06 207.733 1468.92 207.743C1469.66 207.751 1470.4 207.759 1471.13 207.785C1471.53 207.785 1472.23 207.842 1472.27 208.013C1472.59 209.217 1473.43 209.174 1474.24 209.132C1474.46 209.121 1474.68 209.109 1474.89 209.125C1475.69 209.189 1476.5 209.194 1477.3 209.2C1477.92 209.204 1478.54 209.208 1479.16 209.239C1479.67 209.267 1480.18 209.452 1480.66 209.638C1480.94 209.739 1481.2 209.87 1481.47 210.001C1481.95 210.239 1482.42 210.475 1482.93 210.521C1483.97 210.629 1485.01 210.64 1486.05 210.652C1486.67 210.659 1487.28 210.666 1487.89 210.692C1488.29 210.706 1488.94 210.706 1489.06 210.92C1489.58 212.014 1490.46 211.978 1491.33 211.941C1491.55 211.932 1491.76 211.923 1491.97 211.931C1492.82 211.964 1493.67 211.979 1494.52 211.994C1495.5 212.011 1496.49 212.028 1497.48 212.074C1498.05 212.102 1498.99 212.188 1499.09 212.487C1499.39 213.314 1499.95 213.333 1500.52 213.353C1500.73 213.361 1500.94 213.368 1501.14 213.413C1501.62 213.522 1502.14 213.472 1502.67 213.422C1503.79 213.314 1504.91 213.206 1505.63 214.653C1505.71 214.801 1506.1 214.792 1506.47 214.783C1506.6 214.78 1506.72 214.777 1506.83 214.781C1507.39 214.799 1507.95 214.81 1508.5 214.82C1509.25 214.834 1509.99 214.848 1510.74 214.881L1510.87 214.885C1511.28 214.897 1511.84 214.913 1511.91 215.08C1512.4 216.425 1513.36 216.342 1514.3 216.26C1514.67 216.228 1515.03 216.197 1515.36 216.248C1515.78 216.313 1516.26 216.288 1516.73 216.265C1517.51 216.226 1518.26 216.188 1518.64 216.562C1519.81 217.727 1521.11 217.695 1522.41 217.662C1522.96 217.648 1523.52 217.635 1524.07 217.716C1524.32 217.754 1524.62 217.738 1524.91 217.722C1525.37 217.696 1525.8 217.672 1525.96 217.873C1526.97 219.195 1528.26 219.151 1529.54 219.107C1530.08 219.089 1530.62 219.07 1531.14 219.155C1531.51 219.212 1531.88 219.354 1532.22 219.525C1532.45 219.636 1532.66 219.777 1532.88 219.917C1533.25 220.159 1533.62 220.399 1534.03 220.48C1536.21 220.907 1538.41 221.273 1540.6 221.64C1541.41 221.775 1542.21 221.909 1543.02 222.047C1543.18 222.076 1543.45 222.147 1543.48 222.247C1543.83 223.679 1545.04 223.46 1545.91 223.303L1545.92 223.301C1547.82 222.952 1549.57 223.513 1551.31 224.073C1552.77 224.542 1554.22 225.011 1555.77 224.939C1555.87 224.939 1555.98 225.03 1556.09 225.127C1556.16 225.188 1556.23 225.252 1556.31 225.296C1556.48 225.392 1556.65 225.5 1556.82 225.608C1557.22 225.87 1557.63 226.131 1558.07 226.222C1558.5 226.31 1559.01 226.302 1559.51 226.294C1560.28 226.281 1561.01 226.269 1561.3 226.635C1562.09 227.632 1562.99 227.652 1563.9 227.673C1564.24 227.681 1564.58 227.688 1564.91 227.746C1565.04 227.769 1565.2 227.78 1565.36 227.791C1565.7 227.815 1566.03 227.839 1566.08 227.974C1566.53 229.102 1567.37 229.074 1568.21 229.047C1568.47 229.038 1568.74 229.03 1568.98 229.057C1569.42 229.107 1569.91 229.085 1570.4 229.064C1571.32 229.025 1572.2 228.987 1572.58 229.413C1573.52 230.453 1574.54 230.494 1575.58 230.535C1575.95 230.55 1576.31 230.564 1576.68 230.624C1576.91 230.667 1577.32 230.667 1577.33 230.767C1577.6 231.963 1578.38 231.934 1579.14 231.905C1579.55 231.89 1579.95 231.875 1580.27 232.049C1581.15 232.548 1582.19 232.747 1583.16 232.936C1584.14 233.125 1585.06 233.303 1585.73 233.759C1586.85 234.52 1587.87 234.598 1588.89 234.676C1589.32 234.71 1589.76 234.743 1590.2 234.827C1590.39 234.865 1590.65 234.881 1590.89 234.895C1591.29 234.919 1591.66 234.941 1591.69 235.055C1591.98 236.34 1592.8 236.289 1593.61 236.238C1593.93 236.217 1594.26 236.196 1594.55 236.266C1594.73 236.311 1594.96 236.334 1595.19 236.355C1595.53 236.389 1595.85 236.419 1595.87 236.523C1596.15 237.746 1596.93 237.701 1597.71 237.656C1598.01 237.639 1598.31 237.621 1598.58 237.677C1598.76 237.714 1599.01 237.727 1599.25 237.74C1599.65 237.763 1600.04 237.784 1600.08 237.919C1600.5 239.205 1601.37 239.148 1602.25 239.092C1602.49 239.076 1602.73 239.061 1602.96 239.073L1603 239.059V181H1600V0Z" fill="#F7F1EB"/>
</svg>
