<svg width="23" height="23" viewBox="0 0 23 23" fill="none" xmlns="http://www.w3.org/2000/svg">
<g clip-path="url(#clip0_302_7591)">
<path d="M10.7341 0C11.243 0 11.752 0 12.261 0C12.5265 0.0333046 12.7924 0.0616586 13.0566 0.101264C16.0892 0.554927 18.5904 1.95867 20.4966 4.36066C22.5216 6.91251 23.32 9.83882 22.8843 13.0613C22.4681 16.1424 20.9966 18.6618 18.5445 20.5715C16.0082 22.5463 13.1133 23.3047 9.93126 22.8906C7.65647 22.5945 5.64672 21.6647 3.92723 20.1444C1.84009 18.2986 0.568362 15.9943 0.133203 13.2363C0.0823518 12.9127 0.044101 12.5874 0 12.2629C0 11.7538 0 11.2448 0 10.7358C0.0346508 10.4631 0.0643514 10.1894 0.103952 9.91713C0.433809 7.65647 1.33338 5.65189 2.84496 3.93805C4.69225 1.84436 6.999 0.567979 9.76296 0.133219C10.0856 0.0823615 10.4105 0.0441061 10.7341 0ZM9.74946 13.4272C9.66486 13.357 9.62391 13.3264 9.58656 13.2917C9.0344 12.7863 8.48358 12.2795 7.93052 11.7754C7.46611 11.3519 7.0152 10.9113 6.52874 10.5148C5.90728 10.0085 4.96721 10.333 4.7782 11.1053C4.6612 11.5833 4.8133 11.9843 5.17871 12.3155C6.42029 13.442 7.65782 14.573 8.89624 15.7031C9.49206 16.2468 10.0973 16.2356 10.6747 15.6622C13.0548 13.3003 15.4344 10.9379 17.8136 8.57504C17.8879 8.50123 17.9603 8.42472 18.0238 8.34191C18.5026 7.71452 18.2123 6.79054 17.4581 6.55471C16.9532 6.39674 16.5437 6.56731 16.1814 6.93096C14.0943 9.02466 12.0018 11.1134 9.91281 13.2057C9.85026 13.2683 9.80616 13.3498 9.74946 13.4276V13.4272Z" fill="#C30001"/>
</g>
<defs>
<clipPath id="clip0_302_7591">
<rect width="23" height="23" fill="white"/>
</clipPath>
</defs>
</svg>
