<svg width="27" height="27" viewBox="0 0 27 27" fill="none" xmlns="http://www.w3.org/2000/svg">
<g clip-path="url(#clip0_133_1399)">
<path d="M13.1312 26.9991C12.1221 26.7895 11.4881 26.0195 10.7797 25.3816C10.3349 24.9813 9.92225 24.759 9.29146 24.8651C8.52436 24.994 7.73666 25.0125 6.95636 25.0468C5.73386 25.1007 4.78239 24.3719 4.49182 23.1853C4.3085 22.4365 4.12729 21.6877 3.95665 20.9363C3.91227 20.7414 3.81718 20.6199 3.64548 20.5196C2.84193 20.0517 2.04314 19.5749 1.24645 19.0949C0.0942243 18.401 -0.289324 17.2344 0.221545 15.9887C0.527433 15.2431 0.833321 14.4974 1.1503 13.756C1.22849 13.5733 1.23113 13.418 1.15242 13.2332C0.825924 12.468 0.507886 11.6986 0.197243 10.9266C-0.280343 9.73893 0.122224 8.5608 1.22004 7.90651C1.966 7.46187 2.71672 7.02462 3.45635 6.56942C3.5694 6.49972 3.67295 6.36506 3.71469 6.23885C3.99733 5.38231 4.26624 4.52154 4.53197 3.65919C4.8928 2.48845 5.9156 1.82043 7.127 1.93978C8.079 2.03378 9.03417 2.09715 9.98934 2.16104C10.086 2.16738 10.2075 2.10824 10.2852 2.0417C10.8251 1.57858 11.3555 1.10384 11.8907 0.635432C12.857 -0.210018 14.1328 -0.213186 15.0996 0.629095C15.6427 1.10225 16.1784 1.58386 16.7252 2.05279C16.8018 2.11827 16.927 2.16738 17.0253 2.16052C18.0058 2.09134 18.9869 2.02005 19.9658 1.92763C21.1413 1.81674 22.2101 2.59354 22.507 3.80283C22.6887 4.54267 22.8689 5.28303 23.0374 6.02656C23.0812 6.21931 23.1642 6.3471 23.3396 6.44902C24.1431 6.9169 24.9356 7.40325 25.737 7.87483C26.3842 8.25557 26.8126 8.79051 26.9579 9.53721C26.9627 9.56097 26.9849 9.58104 26.9991 9.60269V10.3409C26.913 10.587 26.8369 10.8363 26.7397 11.0776C26.4391 11.8227 26.1258 12.5631 25.83 13.3103C25.7898 13.4112 25.7819 13.5532 25.8205 13.6525C26.2061 14.6426 26.6045 15.628 26.9997 16.6145V17.405C26.9843 17.4251 26.9595 17.443 26.9548 17.4657C26.8052 18.2114 26.3699 18.7395 25.7238 19.1186C24.915 19.5934 24.1167 20.0861 23.3063 20.5582C23.1531 20.6474 23.0839 20.7599 23.0464 20.9194C22.8704 21.6692 22.6908 22.418 22.5107 23.1663C22.2233 24.3587 21.2839 25.0938 20.063 25.0463C19.2833 25.0156 18.4966 24.9935 17.7295 24.8673C17.0834 24.7611 16.6539 24.9834 16.1974 25.4006C15.5006 26.0369 14.8693 26.7947 13.8692 26.9996H13.1312V26.9991ZM7.20519 3.53985C6.38949 3.50605 6.20669 3.6386 6.00224 4.2913C5.71167 5.21913 5.40948 6.14379 5.12895 7.07426C5.0365 7.38055 4.86692 7.59547 4.59378 7.75495C3.76805 8.23709 2.94865 8.73031 2.12555 9.21772C1.57559 9.54302 1.47257 9.8493 1.71823 10.4466C2.06849 11.2973 2.41189 12.1512 2.77536 12.9966C2.92065 13.3346 2.92487 13.6441 2.77853 13.9831C2.41083 14.8359 2.06268 15.6972 1.70872 16.5564C1.47362 17.1262 1.5851 17.4478 2.11974 17.7657C3.03952 18.3133 3.95718 18.8641 4.88012 19.4069C5.15537 19.5685 5.31545 19.7893 5.38782 20.1035C5.58171 20.9489 5.79673 21.7891 6.00066 22.6319C6.17394 23.3475 6.44549 23.5185 7.18828 23.4483C8.2021 23.3522 9.21908 23.2888 10.2339 23.2054C10.5451 23.1801 10.7929 23.2851 11.0222 23.4916C11.6366 24.0435 12.2595 24.5858 12.8829 25.1276C13.3251 25.512 13.6795 25.5105 14.1191 25.1276C14.7282 24.5964 15.3421 24.0699 15.938 23.5244C16.2038 23.2809 16.4885 23.1753 16.8462 23.207C17.8605 23.2968 18.877 23.3665 19.8913 23.4573C20.5401 23.5154 20.8402 23.3115 20.9907 22.6821C21.1947 21.8303 21.4128 20.9817 21.6041 20.1272C21.6796 19.7909 21.8598 19.5685 22.1498 19.398C23.0654 18.8599 23.9741 18.3107 24.8849 17.7641C25.4184 17.4441 25.5257 17.122 25.2911 16.5522C24.9403 15.7014 24.5996 14.8465 24.2324 14.0031C24.0766 13.6451 24.0834 13.3246 24.2377 12.9686C24.6006 12.1327 24.9366 11.2857 25.2832 10.4429C25.5278 9.84719 25.4301 9.54671 24.8743 9.21244C23.964 8.66536 23.0538 8.11827 22.1393 7.5791C21.8582 7.41329 21.6828 7.19678 21.6083 6.86937C21.3996 5.9558 21.173 5.04592 20.9432 4.13763C20.8349 3.70936 20.5528 3.49602 20.1164 3.52559C19.0128 3.59899 17.9091 3.67979 16.8066 3.7759C16.4869 3.80389 16.2223 3.73999 15.9829 3.52559C15.387 2.99223 14.7842 2.46733 14.1862 1.93661C13.6674 1.47666 13.3361 1.4756 12.811 1.93925C12.205 2.47419 11.5975 3.00755 10.9931 3.54407C10.776 3.73682 10.5319 3.806 10.2413 3.78118C9.18263 3.69035 8.12338 3.61114 7.20571 3.53879L7.20519 3.53985Z" fill="#D6CBC0"/>
<path d="M4.80127 13.4966C4.80338 8.69847 8.69909 4.80602 13.4993 4.80655C18.3105 4.80655 22.2046 8.70798 22.1994 13.5224C22.1941 18.3153 18.2904 22.203 13.4871 22.2003C8.69117 22.1977 4.79916 18.2978 4.80127 13.4971V13.4966ZM13.5072 20.6182C17.414 20.6124 20.6118 17.4149 20.6171 13.5087C20.6224 9.5962 17.4082 6.38391 13.4919 6.38814C9.58611 6.39236 6.38671 9.59145 6.38195 13.4971C6.3772 17.4091 9.59404 20.624 13.5072 20.6182Z" fill="#D6CBC0"/>
<path d="M12.7115 14.736C12.7902 14.6615 12.8605 14.5976 12.9276 14.5311C14.232 13.2278 15.5337 11.9224 16.8402 10.6212C17.3173 10.1459 18.0173 10.2933 18.2085 10.9058C18.3147 11.2459 18.1916 11.5216 17.9507 11.7619C17.1551 12.5556 16.3611 13.3508 15.566 14.1451C14.8332 14.8775 14.1015 15.6105 13.3677 16.3419C12.9213 16.787 12.4933 16.7844 12.0432 16.335C11.0368 15.3301 10.0288 14.3267 9.02662 13.317C8.55643 12.8434 8.71703 12.1283 9.32933 11.9525C9.65635 11.8585 9.92949 11.9694 10.1646 12.2049C10.9518 12.9944 11.7416 13.7817 12.5309 14.5696C12.5853 14.624 12.6444 14.6742 12.7115 14.736Z" fill="#D6CBC0"/>
</g>
<defs>
<clipPath id="clip0_133_1399">
<rect width="27" height="27" fill="white" transform="translate(0 -0.0010376)"/>
</clipPath>
</defs>
</svg>
