<svg width="29" height="17" viewBox="0 0 29 17" fill="none" xmlns="http://www.w3.org/2000/svg">
<g clip-path="url(#clip0_133_2411)">
<path d="M29.0002 8.2075V8.76393C28.8078 9.04522 28.6331 9.3399 28.4203 9.605C26.3221 12.2181 23.8172 14.3366 20.6914 15.6873C19.21 16.3274 17.665 16.7471 16.048 16.8906C15.665 16.9246 15.2826 16.9631 14.8996 16.9999H14.107C13.7336 16.9642 13.3597 16.9268 12.9864 16.8928C10.6289 16.6768 8.45813 15.9122 6.42861 14.7357C3.97979 13.3159 1.98034 11.411 0.265145 9.20205C-0.0957095 8.7377 -0.0854967 8.21698 0.282167 7.74315C1.78629 5.8054 3.51738 4.0987 5.59286 2.75031C8.76282 0.690884 12.2182 -0.294736 16.0366 0.0769641C18.0111 0.269512 19.867 0.837109 21.6276 1.72004C23.8393 2.82844 25.7366 4.33924 27.3769 6.15756C27.9602 6.80385 28.4612 7.52158 29.0002 8.20694V8.2075ZM20.5802 8.47929C20.608 5.26905 17.9011 2.57171 14.6749 2.50195C11.1923 2.4266 8.48083 5.21603 8.41785 8.33642C8.35033 11.6812 11.067 14.3685 14.3146 14.465C17.8211 14.5699 20.6432 11.6974 20.5802 8.47929Z" fill="white"/>
<path d="M17.7862 8.47826C17.7828 10.2726 16.2991 11.7159 14.4631 11.7103C12.6684 11.7052 11.2171 10.2491 11.2222 8.45929C11.2273 6.69287 12.7201 5.25686 14.5499 5.25965C16.3371 5.26188 17.7896 6.70682 17.7868 8.47826H17.7862Z" fill="white"/>
</g>
<defs>
<clipPath id="clip0_133_2411">
<rect width="29" height="17" fill="white"/>
</clipPath>
</defs>
</svg>
