<svg width="17" height="17" viewBox="0 0 17 17" fill="none" xmlns="http://www.w3.org/2000/svg">
<g clip-path="url(#clip0_133_1591)">
<path d="M7.3119 0C7.57752 0.0426692 7.84447 0.0773379 8.1081 0.130008C9.33846 0.375689 10.4196 0.922388 11.3481 1.7691C12.4677 2.79016 13.1682 4.04924 13.4657 5.53499C13.5851 6.13069 13.6013 6.73373 13.5724 7.33877C13.5708 7.3711 13.5634 7.4031 13.5558 7.45577C13.5103 7.42277 13.475 7.4021 13.4454 7.37543C13.0648 7.02875 12.6811 6.68506 12.3088 6.32971C12.2456 6.26937 12.2121 6.15903 12.2001 6.06736C11.9132 3.82789 10.2161 1.94311 7.99341 1.47375C5.96452 1.04539 4.21323 1.60776 2.78041 3.11585C2.09026 3.84223 1.6561 4.71528 1.45597 5.69567C1.23124 6.79707 1.321 7.8728 1.75949 8.91786C2.32796 10.2726 3.17502 11.4427 4.11815 12.5507C4.90936 13.4801 5.77437 14.3368 6.68426 15.1486C6.77667 15.2309 6.80925 15.3146 6.80759 15.4352C6.80161 15.9386 6.80493 16.442 6.80493 16.9833C6.73013 16.9273 6.67894 16.892 6.63073 16.8527C5.16367 15.6549 3.8276 14.3255 2.64178 12.8468C1.79073 11.7854 1.03443 10.6646 0.520813 9.39422C-0.150384 7.73412 -0.174985 6.06136 0.461306 4.39093C1.09128 2.73616 2.2126 1.51309 3.78737 0.712709C4.54268 0.328686 5.34386 0.0946722 6.19125 0.0286684C6.2225 0.0263349 6.25275 0.0100006 6.28333 0C6.62608 0 6.96916 0 7.3119 0Z" fill="white"/>
<path d="M17.0001 12.4431C16.7444 12.7181 16.4891 12.9931 16.2335 13.2681C16.1959 13.3085 16.1583 13.3488 16.1101 13.4008C15.9935 13.2988 15.8794 13.1991 15.7465 13.0828C15.7428 13.1594 15.7381 13.2121 15.7381 13.2645C15.7375 13.8962 15.7395 14.5282 15.7375 15.1599C15.7342 16.199 14.9506 16.9927 13.9144 16.9967C12.5381 17.0017 11.1618 17.001 9.78546 16.9967C8.74792 16.9937 7.9617 16.2106 7.9494 15.1689C7.94208 14.5482 7.94807 13.9275 7.94773 13.3068C7.94773 13.2461 7.94773 13.1854 7.94773 13.0831C7.81443 13.1988 7.70572 13.2935 7.58006 13.4025C7.28485 13.0788 6.98931 12.7544 6.68579 12.4214C8.4085 10.8456 10.1226 9.27822 11.8446 7.70312C12.2658 8.08781 12.6777 8.46417 13.0896 8.84086C14.3798 10.0209 15.67 11.2013 16.9602 12.3817C16.9722 12.3927 16.9868 12.4007 17.0001 12.4101V12.4434V12.4431ZM11.8522 9.51457C11.8333 9.52557 11.8227 9.5299 11.8147 9.5369C10.9926 10.2866 10.1701 11.0357 9.35196 11.79C9.30742 11.831 9.28148 11.914 9.28115 11.9777C9.27683 13.0201 9.27683 14.0625 9.27883 15.1046C9.27949 15.4846 9.46167 15.6649 9.84032 15.6653C11.1784 15.6666 12.5165 15.6666 13.8545 15.6653C14.2302 15.6649 14.412 15.4789 14.4124 15.0999C14.4134 14.0632 14.4147 13.0264 14.4084 11.9897C14.408 11.914 14.3648 11.8187 14.3096 11.7664C13.9356 11.4127 13.5533 11.068 13.1734 10.7206C12.7325 10.3176 12.2911 9.91526 11.8522 9.51457Z" fill="white"/>
<path d="M6.79119 3.98393C8.34003 3.97526 9.60098 5.234 9.60962 6.7971C9.61826 8.35019 8.36297 9.6146 6.80383 9.62326C5.25499 9.63193 3.99404 8.37319 3.9854 6.8101C3.97675 5.25701 5.23205 3.9926 6.79119 3.98393ZM6.80017 5.31868C5.9807 5.31734 5.31516 5.98405 5.31615 6.8051C5.31682 7.61948 5.97472 8.28285 6.78654 8.28885C7.606 8.29485 8.27487 7.63215 8.2782 6.81043C8.28152 5.98772 7.6203 5.32001 6.80017 5.31868Z" fill="white"/>
<path d="M12.8493 12.3252V14.292H10.8752V12.3252H12.8493Z" fill="white"/>
</g>
<defs>
<clipPath id="clip0_133_1591">
<rect width="17" height="17" fill="white"/>
</clipPath>
</defs>
</svg>
