<svg width="17" height="12" viewBox="0 0 17 12" fill="none" xmlns="http://www.w3.org/2000/svg">
<g clip-path="url(#clip0_133_1669)">
<path d="M17 1.26655V10.7338C16.9877 10.7695 16.9727 10.8046 16.9637 10.8414C16.7997 11.524 16.2076 11.999 15.507 11.9993C10.8317 12.0003 6.15635 12.001 1.48104 11.999C0.666001 11.999 0.00266134 11.3325 0.00199601 10.5152C1.23928e-10 7.50405 -0.00199601 4.49327 0.00399202 1.48249C0.00532269 0.879467 0.301397 0.437895 0.830672 0.160116C0.965403 0.0892504 1.11776 0.0524806 1.26214 0C6.08749 0 10.9128 0 15.7382 0C15.7685 0.0113652 15.7977 0.0260732 15.829 0.0334271C16.3293 0.153765 16.6793 0.455612 16.8869 0.92426C16.9355 1.03357 16.9631 1.15223 17 1.26655ZM1.77645 1.00749C1.76713 1.02153 1.75782 1.03557 1.7485 1.04961C1.79242 1.08371 1.84065 1.11346 1.87957 1.15257C3.9348 3.22137 5.98902 5.29118 8.04358 7.36032C8.34032 7.65915 8.65968 7.66016 8.95576 7.36165C11.0146 5.2885 13.0729 3.21502 15.1311 1.14154C15.1677 1.10443 15.2009 1.06365 15.2508 1.00749H1.77645ZM10.9767 6.76297C10.5615 7.17814 10.1138 7.62305 9.66866 8.07131C8.9847 8.76024 8.01896 8.76325 7.33866 8.07666C6.95243 7.6869 6.56454 7.29881 6.17997 6.90738C6.11876 6.8452 6.07219 6.76866 6.01863 6.69846C6.02196 6.72554 6.02562 6.75261 6.02894 6.77969C4.61344 8.1843 3.19761 9.58924 1.7841 10.9918H15.2389C13.8147 9.57854 12.4012 8.17594 10.9767 6.76264V6.76297ZM1.00632 1.75659V10.2123C2.40685 8.82242 3.83167 7.40845 5.2648 5.98579C3.84098 4.57183 2.41949 3.1602 1.00632 1.75659ZM15.99 10.223V1.77999C14.5872 3.1719 13.1643 4.58319 11.7369 5.99983C13.1647 7.41748 14.5865 8.82944 15.99 10.223Z" fill="white"/>
</g>
<defs>
<clipPath id="clip0_133_1669">
<rect width="17" height="12" fill="white"/>
</clipPath>
</defs>
</svg>
