<svg width="1603" height="202" viewBox="0 0 1603 202" fill="none" xmlns="http://www.w3.org/2000/svg">
<path fill-rule="evenodd" clip-rule="evenodd" d="M0 202V42.0586L0.0424805 42.0732C0.272461 42.0605 0.511719 42.0762 0.751465 42.0918C1.62598 42.1479 2.50342 42.2046 2.9165 40.9189C2.96143 40.7842 3.34668 40.7627 3.75342 40.7402C3.90186 40.7319 4.05127 40.7236 4.18848 40.71C4.27295 40.7017 4.35303 40.6909 4.42432 40.6768C4.69385 40.6211 4.99268 40.6387 5.29199 40.6558C6.06934 40.7012 6.85059 40.7461 7.12744 39.5225C7.15332 39.4189 7.46729 39.3887 7.81201 39.3555C8.03564 39.334 8.27197 39.311 8.45068 39.2661C8.73926 39.1963 9.06592 39.2168 9.39453 39.2378C10.2002 39.2886 11.0171 39.3403 11.3101 38.0552C11.3364 37.9409 11.7056 37.9189 12.1045 37.895C12.3516 37.8809 12.6089 37.8652 12.8042 37.8271C13.2437 37.7427 13.6753 37.7095 14.1074 37.6768C15.1299 37.5981 16.1514 37.52 17.2715 36.7588C17.9399 36.3027 18.8608 36.1245 19.8374 35.936C20.814 35.7471 21.8452 35.5474 22.7344 35.0488C23.0469 34.875 23.4478 34.8901 23.8545 34.9053C24.6152 34.9341 25.3965 34.9634 25.665 33.7666C25.6748 33.6973 25.8774 33.6763 26.0786 33.6553L26.0947 33.6538C26.1758 33.645 26.2554 33.6362 26.3193 33.624C26.6855 33.5645 27.0542 33.5498 27.4224 33.5352C28.457 33.4941 29.4834 33.4531 30.417 32.4131C30.7964 31.9868 31.6821 32.0249 32.5952 32.064C33.0864 32.0854 33.584 32.1064 34.0161 32.0571C34.2642 32.0298 34.5259 32.0381 34.7886 32.0469C35.627 32.0742 36.4746 32.1021 36.9185 30.9741C36.9668 30.8389 37.3037 30.8149 37.6396 30.7915C37.7988 30.7803 37.9575 30.769 38.085 30.7461C38.4204 30.6885 38.7598 30.6807 39.0981 30.6729C40.0088 30.6523 40.9106 30.6318 41.6987 29.6348C41.9854 29.2695 42.7183 29.2812 43.4946 29.2939C43.9893 29.3022 44.502 29.3105 44.9282 29.2217C45.3706 29.1309 45.7773 28.8696 46.1841 28.6084C46.2661 28.5557 46.3481 28.5029 46.4307 28.4517C46.5176 28.3975 46.6045 28.3447 46.6924 28.2959C46.769 28.2515 46.8418 28.1885 46.9121 28.1274C47.0234 28.0303 47.1284 27.9395 47.2329 27.9395C48.7778 28.0107 50.2344 27.5425 51.6934 27.0728C53.4331 26.5132 55.1758 25.9526 57.0776 26.3008L57.0898 26.3032C57.9565 26.46 59.1709 26.6792 59.5249 25.2466C59.5532 25.147 59.8237 25.0757 59.98 25.0474C60.7744 24.9116 61.5684 24.7788 62.3638 24.646L62.3999 24.6396C63.6152 24.437 64.8281 24.2344 66.0391 24.0215C67.0176 23.8496 67.9951 23.6709 68.9712 23.48C69.3755 23.3989 69.7456 23.1587 70.1177 22.9175C70.3364 22.7759 70.5537 22.6353 70.7783 22.5254C71.1196 22.3545 71.4893 22.2119 71.8594 22.1548C72.0967 22.1162 72.3384 22.0991 72.5825 22.0938C72.873 22.0869 73.167 22.0972 73.4614 22.1069C74.7437 22.1509 76.0278 22.1948 77.0381 20.8726C77.1953 20.6714 77.6309 20.6958 78.0923 20.7217C78.25 20.7305 78.4106 20.7393 78.5645 20.7393C78.6934 20.7393 78.8174 20.7334 78.9302 20.7158C79.0767 20.6943 79.2241 20.6792 79.3721 20.6694C79.7769 20.6421 80.1855 20.6523 80.5942 20.6626C81.8921 20.6948 83.1909 20.7275 84.3647 19.562C84.7378 19.188 85.4888 19.2256 86.27 19.2646C86.5073 19.2769 86.7461 19.2891 86.978 19.29C87.207 19.2905 87.4297 19.2803 87.6367 19.2485C87.9707 19.1968 88.334 19.2285 88.6997 19.2603C89.644 19.3423 90.6016 19.4253 91.0938 18.0801C91.1582 17.9131 91.7192 17.897 92.1323 17.8848L92.2607 17.8809C93.0093 17.8481 93.7534 17.834 94.498 17.8203C95.0562 17.8096 95.6133 17.7993 96.1729 17.7812C96.2769 17.7773 96.3989 17.7803 96.5244 17.7832H96.5288C96.8975 17.792 97.2939 17.8008 97.3682 17.6528C98.0854 16.2061 99.2119 16.3145 100.334 16.4219C100.859 16.4722 101.383 16.5225 101.864 16.4131C101.946 16.3945 102.029 16.3823 102.113 16.374C102.234 16.3618 102.356 16.3579 102.478 16.3535C103.053 16.3335 103.609 16.314 103.912 15.4873C104.012 15.188 104.951 15.1025 105.52 15.0737C106.508 15.0278 107.495 15.0107 108.483 14.9937C109.331 14.979 110.178 14.9644 111.025 14.9316C111.236 14.9229 111.452 14.9316 111.669 14.9409C112.539 14.9775 113.418 15.0146 113.942 13.9199C114.046 13.7251 114.598 13.708 114.998 13.6953L115.109 13.6919C115.72 13.6655 116.333 13.6587 116.948 13.6519H116.952C117.994 13.6401 119.037 13.6284 120.074 13.521C120.397 13.4917 120.708 13.3838 121.017 13.248C121.189 13.1719 121.361 13.0869 121.533 13.0015C121.798 12.8701 122.063 12.7388 122.336 12.6377C122.82 12.4521 123.332 12.2671 123.844 12.2388C124.297 12.2158 124.75 12.2075 125.203 12.2031L125.7 12.1997C126.504 12.1943 127.308 12.189 128.112 12.1245C128.319 12.1094 128.541 12.1206 128.765 12.1323C129.57 12.1738 130.407 12.2173 130.729 11.0132C130.772 10.8423 131.47 10.7852 131.868 10.7852C132.604 10.7588 133.342 10.751 134.081 10.7432H134.123C134.971 10.7334 135.818 10.7236 136.662 10.6855C136.75 10.6821 136.837 10.6816 136.926 10.6826C137.045 10.6841 137.166 10.689 137.287 10.6934C138.147 10.7271 139.019 10.7607 139.579 9.67383C139.735 9.375 140.66 9.375 141.243 9.375C141.947 9.3584 142.65 9.34619 143.354 9.33594C143.783 9.32959 144.212 9.32422 144.641 9.31885C146.531 9.29443 148.421 9.26953 150.306 9.18945C150.672 9.17139 151.032 8.95801 151.395 8.74414C151.596 8.625 151.796 8.50635 151.999 8.42041L152.177 8.34668C152.58 8.1792 152.999 8.00537 153.407 7.99316C154.391 7.96191 155.377 7.94971 156.363 7.9375C157.632 7.92188 158.901 7.90625 160.165 7.85059C160.43 7.84131 160.703 7.85547 160.978 7.87012C162.011 7.92383 163.062 7.97852 163.792 6.7959C163.958 6.52881 164.622 6.53418 165.137 6.53857H165.144L165.315 6.53955C166.238 6.51953 167.159 6.50977 168.079 6.50049C169.769 6.4834 171.454 6.46582 173.14 6.38281C173.483 6.36523 173.816 6.15088 174.154 5.93262C174.363 5.79883 174.573 5.66309 174.79 5.5708L174.815 5.55957C175.307 5.34863 175.852 5.11475 176.369 5.11475C177.746 5.08643 179.122 5.07617 180.499 5.06592H180.51C182.571 5.05029 184.63 5.03516 186.684 4.95801C187.192 4.94043 187.69 4.70605 188.196 4.46826L188.202 4.46533C188.512 4.31934 188.825 4.17236 189.145 4.07471C189.575 3.94434 190.019 3.82812 190.463 3.771C190.65 3.74658 190.837 3.73291 191.022 3.73291C193.175 3.70264 195.328 3.68164 197.481 3.66016L197.566 3.65918C201.488 3.62109 205.41 3.58203 209.333 3.49072C209.863 3.47363 210.388 3.25049 210.917 3.02588C211.269 2.87598 211.622 2.72656 211.979 2.63574C212.335 2.54492 212.702 2.47119 213.072 2.41943C213.456 2.36621 213.843 2.33643 214.227 2.33643C217.5 2.29883 220.772 2.26416 224.043 2.22949H224.061H224.079L224.156 2.22852C230.743 2.15918 237.327 2.08936 243.918 1.99463C244.346 1.99463 244.768 1.78467 245.192 1.57324C245.301 1.51904 245.41 1.46484 245.519 1.41406C245.648 1.354 245.779 1.29834 245.91 1.25391C246.379 1.08301 246.891 0.897461 247.389 0.897461C256.09 0.897461 264.791 0.910156 273.492 0.922363H273.496L273.748 0.922852C278.178 0.929199 282.608 0.935547 287.039 0.94043C287.101 0.94043 287.172 0.936523 287.246 0.932617H287.255C287.514 0.919922 287.805 0.905273 287.893 1.02588C288.88 2.41309 290.217 2.29053 291.516 2.17188C291.938 2.13281 292.357 2.09473 292.758 2.1084C295.662 2.19336 298.566 2.21973 301.47 2.24609L301.566 2.24756C304.022 2.27002 306.478 2.29248 308.934 2.35059C309.452 2.35938 309.959 2.58545 310.473 2.81396C310.791 2.95605 311.111 3.09863 311.438 3.19141C312.106 3.37695 312.804 3.54785 313.487 3.54785C316.022 3.58301 318.554 3.61133 321.084 3.63965H321.096L321.118 3.64014C323.673 3.66846 326.227 3.69727 328.78 3.73291C328.942 3.73535 329.108 3.72803 329.275 3.7207C330.092 3.68359 330.928 3.64648 331.341 4.75879C331.427 4.98682 332.195 5.01514 332.65 5.01514C333.637 5.0376 334.625 5.04688 335.612 5.05615H335.639C337.132 5.06982 338.625 5.0835 340.119 5.14355C340.312 5.15234 340.518 5.1377 340.727 5.12305L340.744 5.12158C341.56 5.0625 342.411 5.00098 342.737 6.24023C342.765 6.39697 343.477 6.43994 343.875 6.43994C344.468 6.45654 345.062 6.45801 345.658 6.45947H345.672C346.615 6.46191 347.56 6.46436 348.499 6.52539C348.747 6.54199 349.008 6.52295 349.272 6.50391C350.144 6.44141 351.038 6.37695 351.529 7.57959C351.57 7.69043 351.777 7.75098 352.031 7.78369C352.299 7.81787 352.619 7.82178 352.852 7.82178C353.682 7.85059 354.512 7.86084 355.343 7.87109H355.349C356.592 7.88623 357.833 7.90186 359.069 7.97852C359.378 7.99561 359.702 7.9707 360.028 7.94629C361.081 7.86621 362.155 7.78467 362.839 9.08984C362.885 9.18115 363.05 9.22217 363.255 9.23926C363.434 9.25391 363.642 9.25098 363.829 9.24854L363.839 9.24805L364.02 9.24658C364.802 9.2666 365.583 9.28125 366.362 9.2959L366.55 9.29883C367.961 9.32422 369.37 9.34961 370.778 9.40332C371.011 9.41211 371.253 9.3999 371.496 9.3877C372.47 9.33936 373.461 9.29053 374.007 10.543C374.079 10.7002 374.662 10.7002 375.003 10.7002C375.426 10.709 375.848 10.7153 376.27 10.7207L376.955 10.7285C377.378 10.7329 377.801 10.7378 378.224 10.7446C378.454 10.748 378.685 10.752 378.916 10.7568C379.043 10.7607 379.189 10.7563 379.34 10.752H379.346C379.673 10.7422 380.021 10.7324 380.244 10.7969C380.34 10.8247 380.413 10.8662 380.452 10.9277C381.373 12.4336 382.653 12.2983 383.925 12.1646C384.579 12.0957 385.23 12.0269 385.83 12.1816C386.01 12.228 386.204 12.2397 386.401 12.2407C386.486 12.2412 386.571 12.2397 386.656 12.2383C387.344 12.2256 388.031 12.2129 388.333 13.2217C388.391 13.4209 389.059 13.4922 389.458 13.5068C389.951 13.5273 390.445 13.5293 390.938 13.5312H390.975C391.833 13.5337 392.689 13.5361 393.541 13.6348C393.958 13.6802 394.345 13.9048 394.737 14.1318C394.962 14.2617 395.187 14.3916 395.418 14.4897L395.437 14.4976C395.844 14.6665 396.279 14.8462 396.713 14.8745C397.631 14.917 398.548 14.9419 399.466 14.9668L399.484 14.9673C400.396 14.9922 401.308 15.0171 402.219 15.0596C402.356 15.0669 402.494 15.0679 402.632 15.0674L402.846 15.0649C403.751 15.0522 404.644 15.04 405.349 16.1279C405.559 16.4531 406.28 16.4385 407.012 16.4233C407.371 16.416 407.733 16.4087 408.038 16.4414C408.309 16.4673 408.578 16.4697 408.846 16.4727C409.76 16.4805 410.654 16.4883 411.523 17.4248C411.946 17.877 412.876 17.855 413.812 17.8325C414.261 17.8213 414.711 17.8105 415.108 17.8521C415.392 17.8838 415.689 17.875 415.988 17.8657C416.905 17.8384 417.827 17.8105 418.352 18.9492C418.403 19.0513 418.614 19.085 418.78 19.1113L418.836 19.1201L424.607 19.9326L427.404 20.3262L430.374 20.7441C430.682 20.7886 431.01 20.7788 431.338 20.7686C432.284 20.7402 433.235 20.7114 433.731 21.9697C433.774 22.084 434.158 22.1123 434.386 22.1123C434.629 22.1211 434.872 22.123 435.113 22.125C436.405 22.1353 437.656 22.145 438.867 23.2378C439.381 23.6953 440.327 23.6494 441.285 23.6025H441.292C441.764 23.5796 442.239 23.5562 442.666 23.5938C442.758 23.6016 442.852 23.6045 442.947 23.6055C443.033 23.6064 443.119 23.6055 443.205 23.605C443.941 23.5986 444.688 23.5918 445.042 24.6196C445.103 24.7832 445.5 24.8296 445.881 24.874C446.034 24.8916 446.183 24.9092 446.308 24.9331C446.806 25.0244 447.324 25.0083 447.842 24.9927C449.025 24.9561 450.209 24.9199 451.159 26.1582C451.36 26.4102 451.881 26.3901 452.438 26.3691C452.829 26.354 453.236 26.3389 453.563 26.415C453.795 26.4678 454.034 26.4878 454.277 26.4897C454.565 26.4922 454.859 26.4692 455.153 26.4463C456.281 26.3584 457.421 26.2695 458.315 27.5977C458.53 27.9209 459.237 27.8818 459.979 27.8408C460.416 27.8169 460.864 27.7925 461.231 27.8398C461.357 27.856 461.491 27.8594 461.627 27.8574C461.717 27.856 461.809 27.8521 461.901 27.8486C462.643 27.8188 463.408 27.7886 463.636 28.9512C463.655 29.0562 463.976 29.0972 464.3 29.1387C464.396 29.1509 464.491 29.1631 464.579 29.1768C464.639 29.186 464.695 29.1963 464.746 29.2075C465.237 29.3076 465.761 29.2842 466.285 29.2603C467.475 29.2061 468.668 29.1523 469.497 30.5469C469.585 30.6958 469.947 30.6777 470.335 30.6582C470.578 30.646 470.831 30.6333 471.034 30.6606C471.295 30.6978 471.574 30.6851 471.854 30.6724C472.657 30.6357 473.464 30.5991 473.865 31.7295C473.936 31.9287 474.619 31.9717 475.017 31.9858C475.576 32.0107 476.134 32.0215 476.691 32.0322C477.298 32.0444 477.903 32.0562 478.504 32.0859C478.942 32.1074 479.378 32.1382 479.812 32.1851C480.223 32.2344 480.614 32.4409 481.012 32.6504C481.303 32.8037 481.597 32.958 481.903 33.0542C482.505 33.2397 483.135 33.3403 483.764 33.4404L483.802 33.4468L484.193 33.5103C484.431 33.5479 484.677 33.5366 484.921 33.5254C485.229 33.5112 485.533 33.4971 485.816 33.5815C486.157 33.6826 486.466 33.9253 486.711 34.479C486.85 34.7734 487.533 34.8125 488.246 34.853C488.636 34.875 489.035 34.8979 489.358 34.9634C489.625 35.0195 489.928 34.9971 490.233 34.9741C491.018 34.916 491.815 34.8569 492.061 36.1177C492.075 36.1748 492.204 36.2139 492.365 36.2441C492.471 36.2642 492.59 36.2803 492.7 36.2949L492.794 36.3081L492.857 36.3169C493.367 36.3955 493.89 36.3887 494.415 36.3818C495.695 36.3652 496.983 36.3486 498.093 37.5708C498.406 37.9111 499.109 37.8667 499.845 37.8203C500.313 37.791 500.792 37.7607 501.194 37.8271C501.558 37.8833 501.955 37.8472 502.354 37.8105C503.375 37.7173 504.416 37.6221 504.979 39.0669C505.004 39.1299 505.102 39.1606 505.24 39.1753C505.383 39.1899 505.57 39.187 505.767 39.1836C506.021 39.1797 506.292 39.1753 506.501 39.209C506.739 39.2451 506.994 39.2368 507.25 39.229C508.018 39.2051 508.792 39.1807 509.133 40.335C509.177 40.4746 509.567 40.502 509.991 40.5312C510.259 40.5503 510.54 40.5703 510.755 40.6196C511.194 40.7275 511.678 40.6895 512.163 40.6519C513.22 40.5693 514.285 40.4863 514.909 41.9023C514.955 42.0215 515.262 42.0225 515.584 42.0234C515.762 42.0239 515.943 42.0244 516.09 42.0444C516.259 42.0688 516.428 42.082 516.597 42.0918C516.68 42.0967 516.763 42.1006 516.846 42.1045C517.685 42.1436 518.504 42.1821 519.248 43.1133C519.562 43.5112 520.364 43.4941 521.191 43.4766C521.637 43.4668 522.089 43.457 522.478 43.5122C522.833 43.5669 523.21 43.5488 523.59 43.5303C524.596 43.4824 525.61 43.4341 526.219 44.7373C526.252 44.8081 526.361 44.8413 526.509 44.8574C526.636 44.8711 526.793 44.8721 526.954 44.873C527.171 44.874 527.396 44.8755 527.571 44.9082C527.848 44.957 528.148 44.9473 528.449 44.9375H528.457C529.297 44.9092 530.147 44.8809 530.544 46.105C530.589 46.248 530.963 46.2622 531.366 46.2773C531.606 46.2861 531.856 46.2959 532.052 46.333C532.316 46.3828 532.599 46.374 532.883 46.3652C533.659 46.3408 534.442 46.3164 534.869 47.4727C534.952 47.6929 535.571 47.7007 536.218 47.7085C536.578 47.7129 536.943 47.7173 537.231 47.7578C537.513 47.7964 537.797 47.8022 538.079 47.8081C538.952 47.8262 539.812 47.8438 540.574 48.812C540.893 49.2163 541.713 49.1987 542.554 49.1812C542.765 49.1768 542.977 49.1724 543.183 49.1743C543.4 49.1768 543.61 49.186 543.804 49.2109C544.021 49.2393 544.253 49.2256 544.486 49.2119C545.195 49.1704 545.911 49.1284 546.265 50.2656C546.336 50.5083 547.125 50.5356 547.888 50.5615C548.199 50.5723 548.504 50.5825 548.754 50.6074C548.897 50.6187 549.043 50.6152 549.187 50.6118C549.758 50.5977 550.297 50.584 550.547 51.5049C550.613 51.7588 551.371 51.8501 552.05 51.9321L552.069 51.9351C552.258 51.9575 552.439 51.979 552.596 52.0034C552.92 52.0522 553.267 52.0391 553.614 52.0259C554.589 51.9883 555.567 51.9512 556.081 53.2861C556.104 53.3452 556.19 53.3765 556.312 53.394C556.439 53.4121 556.604 53.4146 556.773 53.4175C556.872 53.4189 556.972 53.4204 557.066 53.4253C557.135 53.4287 557.202 53.4341 557.262 53.4424C557.535 53.4746 557.804 53.4844 558.071 53.4941C558.988 53.5269 559.874 53.5586 560.733 54.4971C561.11 54.9097 561.955 54.8872 562.831 54.8638C563.347 54.8501 563.872 54.8364 564.318 54.9102C564.672 54.9731 565 55.1582 565.331 55.3447L565.343 55.3521C565.606 55.5 565.872 55.6489 566.154 55.7363C566.547 55.8628 566.956 55.9385 567.365 56.0146L567.371 56.0156L567.375 56.0171C567.749 56.0864 568.123 56.1558 568.487 56.2637C568.839 56.3662 569.248 56.3237 569.658 56.2808C570.56 56.187 571.47 56.0928 571.802 57.5317C571.821 57.6172 572.107 57.6392 572.396 57.6616C572.541 57.6729 572.685 57.6836 572.798 57.7026C573.12 57.7607 573.466 57.7534 573.812 57.7461C574.732 57.7256 575.651 57.7061 576.127 58.9277C576.163 59.0186 576.376 59.0283 576.601 59.0386H576.605C576.733 59.0439 576.864 59.0498 576.966 59.0703C577.29 59.1274 577.61 59.1558 577.928 59.1841C578.883 59.269 579.819 59.3521 580.779 60.1958C581.389 60.7402 582.505 60.6831 583.636 60.6245C584.194 60.5957 584.754 60.5669 585.26 60.6094C585.428 60.6245 585.612 60.6162 585.798 60.6074C586.225 60.5879 586.666 60.5684 586.956 60.833C587.128 60.9902 587.248 61.2471 587.281 61.6636C587.281 61.749 587.437 61.8916 587.494 61.8916C588.852 61.5688 589.986 62.105 591.121 62.6416C591.842 62.9819 592.562 63.3228 593.341 63.4443C593.578 63.48 593.837 63.4692 594.097 63.458C594.871 63.4248 595.654 63.3906 595.888 64.584C595.902 64.6553 596.073 64.7407 596.172 64.7549C598.79 65.2822 601.422 65.8096 604.054 66.2939C604.252 66.3311 604.466 66.3252 604.678 66.3193H604.684C605.276 66.3018 605.85 66.2847 606.017 67.2056C606.046 67.3198 606.273 67.4478 606.43 67.4907C607.118 67.6509 607.809 67.8076 608.5 67.9644L608.659 67.9995L608.675 68.0039C610.326 68.377 611.98 68.7505 613.614 69.1719C614.113 69.3018 614.576 69.5786 615.039 69.855C615.238 69.9736 615.435 70.0913 615.635 70.1978C615.693 70.2266 615.746 70.2725 615.8 70.3188C615.877 70.3848 615.955 70.4517 616.047 70.4683L616.499 70.5576C618.938 71.041 621.363 71.5215 623.801 71.9644C624.122 72.022 624.464 72.0166 624.807 72.0112C625.739 71.9966 626.669 71.9824 627.158 73.2324C627.207 73.3579 627.541 73.3721 627.876 73.3862H627.88C628.039 73.3926 628.197 73.3994 628.325 73.4175C628.463 73.4346 628.605 73.438 628.747 73.4414C629.319 73.4561 629.881 73.4697 630.132 74.3721C630.187 74.5762 630.744 74.6294 631.325 74.6851H631.331C631.641 74.7148 631.958 74.7456 632.208 74.7998C632.311 74.8218 632.42 74.8301 632.533 74.8311C632.658 74.832 632.787 74.8247 632.917 74.8174C633.584 74.7788 634.261 74.7393 634.385 75.8823C634.39 75.9272 634.464 75.9653 634.575 75.999C634.721 76.043 634.932 76.0791 635.133 76.1143C635.264 76.1367 635.392 76.1587 635.495 76.1816C636.012 76.2886 636.554 76.2715 637.097 76.2539C638.291 76.2158 639.493 76.1777 640.46 77.4497C640.697 77.7686 641.37 77.7319 642.069 77.6943C642.464 77.6729 642.867 77.6509 643.206 77.6919C643.41 77.7144 643.627 77.709 643.846 77.7031C644.604 77.6836 645.377 77.6641 645.653 78.8032C645.682 78.9204 646.012 78.9639 646.34 79.0073L646.356 79.0088C646.502 79.0283 646.646 79.0479 646.763 79.0742C647.039 79.1416 647.34 79.1396 647.646 79.123C647.727 79.1187 647.807 79.1133 647.888 79.1079C648.798 79.0479 649.707 78.9878 650.106 80.3564C650.134 80.4707 650.513 80.4829 650.901 80.4956C651.093 80.502 651.288 80.5083 651.443 80.5273C651.673 80.5566 651.912 80.5586 652.15 80.5596C652.942 80.5645 653.729 80.5693 654.189 81.6099C654.269 81.7891 654.696 81.8223 655.121 81.855C655.304 81.8691 655.486 81.8833 655.64 81.9092C655.838 81.9419 656.038 81.9536 656.237 81.9585C656.338 81.9609 656.438 81.9614 656.539 81.9624C657.376 81.9688 658.204 81.9751 658.884 82.9922C659 83.1714 659.256 83.2563 659.582 83.2969C659.883 83.334 660.245 83.3325 660.611 83.3311C661.013 83.3291 661.419 83.3276 661.758 83.377C662.127 83.4312 662.522 83.4082 662.917 83.3848C663.969 83.3232 665.024 83.2612 665.613 84.6592C665.654 84.7524 665.922 84.7627 666.182 84.7725H666.186C666.28 84.7759 666.373 84.7798 666.453 84.7871C666.646 84.8096 666.847 84.8047 667.046 84.7993C667.726 84.7817 668.389 84.7646 668.686 85.8555C668.744 86.0586 669.416 86.0977 670.095 86.1372H670.099C670.421 86.1562 670.745 86.1753 671.005 86.2119C671.125 86.2275 671.249 86.2354 671.373 86.2388C671.527 86.2427 671.683 86.2407 671.839 86.2388C672.724 86.2266 673.607 86.2139 674.05 87.3804C674.066 87.4248 674.113 87.4624 674.173 87.4937C674.267 87.543 674.395 87.5767 674.491 87.5938L682.898 89.0898C682.957 89.0996 683.023 89.1089 683.095 89.1196L683.147 89.127L683.151 89.1274C683.482 89.1743 683.866 89.2285 683.866 89.3179C683.918 89.7749 684.058 90.0542 684.251 90.2231C684.565 90.4976 685.02 90.481 685.469 90.4644C685.717 90.4551 685.964 90.4463 686.185 90.4863C686.407 90.5264 686.652 90.5156 686.898 90.5049H686.905C687.619 90.4736 688.335 90.4424 688.504 91.626C688.514 91.7222 688.847 91.7661 689.185 91.811C689.268 91.8223 689.349 91.833 689.426 91.8442C689.503 91.856 689.577 91.8682 689.642 91.8823C689.97 91.9561 690.306 91.9629 690.642 91.9692C691.473 91.9854 692.305 92.0015 693.014 93.0366C693.302 93.4507 694.163 93.4326 695.067 93.4131C695.595 93.4019 696.135 93.3906 696.585 93.4639C696.934 93.5234 697.263 93.7109 697.596 93.9009L697.602 93.9038C697.823 94.0298 698.046 94.1572 698.278 94.2476C698.629 94.3882 699.008 94.4932 699.386 94.5981L699.391 94.5996C699.547 94.6431 699.703 94.686 699.857 94.7319C700.345 94.8789 700.887 94.832 701.43 94.7842C702.518 94.6895 703.612 94.5938 704.296 96.0571C704.337 96.1401 704.459 96.1831 704.627 96.2046C704.825 96.23 705.086 96.2256 705.355 96.2207C705.502 96.2183 705.651 96.2158 705.793 96.2183C705.929 96.2202 706.059 96.2271 706.174 96.2422C706.386 96.2754 706.62 96.2573 706.854 96.2393C707.529 96.1875 708.206 96.1357 708.365 97.3105C708.382 97.4272 708.84 97.4766 709.33 97.5283L709.338 97.5298C709.624 97.5601 709.918 97.5913 710.143 97.6387C710.398 97.6895 710.681 97.6733 710.963 97.6572C711.703 97.6143 712.448 97.5708 712.746 98.7354C712.785 98.8882 713.256 98.9258 713.735 98.9639C713.971 98.9829 714.208 99.002 714.396 99.0347C714.777 99.0981 715.17 99.0908 715.563 99.084C716.582 99.0654 717.6 99.0469 718.38 100.26C718.562 100.547 719.197 100.521 719.873 100.493C720.304 100.475 720.752 100.456 721.112 100.517C721.386 100.563 721.696 100.534 722.01 100.504C722.849 100.425 723.708 100.344 723.957 101.713C723.963 101.765 724.101 101.791 724.28 101.81C724.344 101.816 724.414 101.822 724.484 101.828C724.651 101.842 724.823 101.857 724.953 101.884C725.283 101.948 725.644 101.931 726.006 101.913C726.941 101.867 727.884 101.822 728.325 103.167C728.358 103.259 728.626 103.267 728.922 103.276C729.082 103.281 729.25 103.285 729.394 103.304C729.433 103.31 729.47 103.316 729.505 103.323C729.822 103.393 730.159 103.381 730.497 103.369C731.328 103.34 732.158 103.31 732.664 104.506C732.755 104.722 733.311 104.72 733.928 104.717C734.37 104.715 734.841 104.714 735.196 104.791C735.572 104.864 735.918 105.068 736.266 105.272C736.386 105.343 736.507 105.415 736.63 105.48C736.702 105.519 736.774 105.555 736.847 105.589C736.926 105.628 737.006 105.671 737.086 105.714L737.091 105.716C737.413 105.888 737.744 106.064 738.084 106.087C738.674 106.128 739.266 106.136 739.859 106.145L739.865 106.145C740.515 106.154 741.165 106.164 741.812 106.215C741.982 106.231 742.171 106.219 742.362 106.207C743.032 106.163 743.73 106.117 743.775 107.27C743.789 107.355 743.946 107.512 743.988 107.512C744.677 107.306 745.253 107.435 745.792 107.69C746.106 107.84 746.407 108.032 746.71 108.225C747.108 108.479 747.51 108.734 747.947 108.896C748.219 108.996 748.504 109.06 748.811 109.065C749.087 109.068 749.382 109.036 749.683 109.003C750.781 108.884 751.959 108.756 752.596 110.276C752.651 110.434 753.055 110.435 753.476 110.436C753.703 110.436 753.934 110.437 754.118 110.461C754.49 110.509 754.87 110.51 755.249 110.512C756.332 110.515 757.416 110.518 758.343 111.615C758.529 111.836 758.884 111.896 759.305 111.904C759.499 111.909 759.706 111.902 759.917 111.895C760.376 111.88 760.853 111.865 761.246 111.957C761.792 112.08 762.307 112.34 762.823 112.601C763.088 112.734 763.352 112.868 763.621 112.983C763.92 113.111 764.247 113.211 764.574 113.282C764.795 113.327 765.026 113.341 765.261 113.342C765.408 113.343 765.556 113.339 765.704 113.335C766.678 113.311 767.652 113.286 768.202 114.593C768.264 114.734 768.631 114.733 769.026 114.732C769.178 114.732 769.331 114.731 769.474 114.739C769.562 114.744 769.647 114.751 769.725 114.764C769.981 114.806 770.265 114.786 770.55 114.766C771.338 114.711 772.143 114.655 772.456 115.89C772.486 116.028 772.94 116.057 773.392 116.085L773.412 116.086C773.604 116.099 773.794 116.111 773.95 116.132C774.323 116.178 774.697 116.19 775.069 116.203C776.201 116.241 777.319 116.279 778.389 117.243C778.869 117.678 779.752 117.646 780.661 117.613C781.181 117.594 781.708 117.575 782.173 117.642C782.32 117.663 782.462 117.719 782.603 117.793C782.751 117.872 782.897 117.971 783.045 118.071C783.136 118.133 783.227 118.195 783.32 118.252C783.415 118.312 783.511 118.366 783.61 118.411C784.15 118.653 784.705 118.896 785.274 119.01C785.57 119.069 785.869 119.076 786.166 119.083C786.94 119.1 787.7 119.117 788.347 120.064C788.598 120.426 789.375 120.425 790.173 120.424C790.601 120.423 791.031 120.423 791.392 120.478C791.583 120.504 791.788 120.5 791.994 120.496C792.65 120.481 793.316 120.466 793.554 121.475C793.588 121.645 794.062 121.724 794.469 121.792C794.54 121.805 794.608 121.816 794.672 121.828L794.764 121.845C795.266 121.947 795.789 121.933 796.315 121.919C797.475 121.887 798.646 121.855 799.615 123.07C799.881 123.41 800.601 123.371 801.347 123.331C801.759 123.309 802.178 123.286 802.531 123.327C802.733 123.349 802.952 123.343 803.172 123.336C803.928 123.314 804.708 123.291 804.95 124.438C804.979 124.552 805.348 124.652 805.562 124.666C805.88 124.687 806.206 124.685 806.53 124.682C807.788 124.673 809.042 124.664 809.901 125.977C811.261 125.876 812.499 126.36 813.742 126.847C815.139 127.394 816.543 127.943 818.138 127.672C818.579 127.599 819.058 127.872 819.554 128.157C819.924 128.368 820.303 128.585 820.685 128.67C821.38 128.818 822.097 128.865 822.815 128.912H822.824C823.059 128.927 823.294 128.942 823.529 128.961C823.748 128.979 823.967 128.999 824.185 129.026C824.381 129.049 824.589 129.04 824.797 129.03C825.476 128.999 826.156 128.968 826.461 130.08C826.492 130.194 826.712 130.259 827.023 130.3C827.311 130.338 827.674 130.356 828.035 130.375L828.054 130.376C828.369 130.392 828.681 130.407 828.937 130.437C829.083 130.451 829.237 130.449 829.39 130.446C829.965 130.436 830.535 130.426 830.715 131.348C830.748 131.523 831.258 131.623 831.713 131.711C831.851 131.738 831.982 131.764 832.095 131.79C832.575 131.897 833.08 131.881 833.586 131.865H833.592C834.702 131.829 835.821 131.793 836.718 133.044C836.948 133.366 837.684 133.325 838.444 133.283C838.859 133.26 839.283 133.236 839.635 133.271C839.793 133.286 839.949 133.294 840.103 133.301C840.847 133.337 841.545 133.371 842.252 134.198C842.628 134.653 843.546 134.654 844.463 134.656C844.866 134.657 845.268 134.657 845.625 134.696C845.809 134.718 845.994 134.721 846.176 134.724C846.834 134.734 847.465 134.744 848 135.637C848.226 136.003 849.008 136.022 849.813 136.042H849.818C850.231 136.053 850.65 136.063 851.002 136.121C851.246 136.159 851.513 136.135 851.782 136.111C852.519 136.044 853.269 135.976 853.591 137.175C853.612 137.254 853.732 137.307 853.908 137.344C854.146 137.394 854.486 137.416 854.826 137.438C855.096 137.455 855.365 137.472 855.583 137.503C855.917 137.552 856.264 137.549 856.609 137.547C857.574 137.539 858.538 137.531 859.239 138.643C859.379 138.87 859.856 138.867 860.362 138.863C860.543 138.862 860.728 138.86 860.902 138.87C861.034 138.876 861.16 138.89 861.274 138.914C861.835 139.028 862.421 138.997 863.009 138.966C864.253 138.9 865.508 138.833 866.58 140.139C866.91 140.544 867.794 140.482 868.697 140.418H868.701C869.161 140.385 869.625 140.352 870.023 140.381C870.181 140.39 870.349 140.377 870.518 140.364C871.145 140.316 871.781 140.268 871.916 141.321C871.93 141.492 872.584 141.664 872.954 141.692C873.667 141.753 874.387 141.778 875.109 141.803H875.115C875.4 141.812 875.685 141.822 875.97 141.834C876.008 141.836 876.049 141.836 876.092 141.837L876.236 141.838C876.566 141.839 876.939 141.841 876.994 141.963C877.575 143.375 878.597 143.285 879.614 143.196C880.116 143.152 880.617 143.108 881.063 143.245C881.494 143.375 881.899 143.588 882.307 143.802L882.312 143.805C882.575 143.943 882.839 144.083 883.112 144.199L883.168 144.225C883.507 144.374 883.857 144.529 884.207 144.556C884.663 144.582 885.118 144.585 885.571 144.588C886.367 144.594 887.157 144.6 887.935 144.727C888.45 144.807 888.938 145.054 889.426 145.301L889.432 145.304C889.723 145.451 890.014 145.598 890.311 145.71C890.555 145.803 890.819 145.846 891.086 145.889C891.27 145.918 891.454 145.948 891.634 145.995C891.941 146.08 892.26 146.105 892.585 146.104C892.831 146.104 893.08 146.089 893.33 146.074C894.462 146.004 895.611 145.935 896.542 147.234C896.812 147.607 897.643 147.559 898.5 147.509C898.953 147.483 899.412 147.456 899.8 147.491C899.979 147.507 900.166 147.498 900.353 147.488C901.002 147.457 901.653 147.425 901.962 148.431C902.055 148.723 902.977 148.805 903.608 148.861L903.741 148.873C904.024 148.897 904.328 148.894 904.637 148.879C904.816 148.872 904.997 148.86 905.177 148.848C906.11 148.788 907.028 148.729 907.567 149.158C909.065 150.356 910.682 150.33 912.29 150.303C913.109 150.29 913.926 150.276 914.724 150.426C914.955 150.47 915.176 150.565 915.392 150.672L915.532 150.742L915.606 150.781L915.656 150.806L915.776 150.867C915.854 150.909 915.932 150.954 916.009 151.002L916.14 151.085L916.278 151.176C916.613 151.397 916.946 151.618 917.299 151.665C917.938 151.743 918.587 151.749 919.237 151.754C919.772 151.758 920.308 151.763 920.841 151.808C921.02 151.823 921.208 151.817 921.397 151.811C922.113 151.789 922.845 151.767 923.16 152.848C923.21 153.036 923.757 153.08 924.296 153.123C924.447 153.134 924.597 153.146 924.735 153.161C924.812 153.169 924.885 153.179 924.953 153.189C925.355 153.26 925.761 153.261 926.167 153.262C927.168 153.265 928.17 153.267 929.121 154.301C929.55 154.777 930.527 154.727 931.53 154.676C931.824 154.661 932.12 154.646 932.405 154.644C932.633 154.643 932.854 154.649 933.062 154.671C933.304 154.695 933.56 154.685 933.816 154.674C934.659 154.641 935.514 154.607 935.95 155.754C936.014 155.921 936.572 155.938 936.974 155.95L937.103 155.954C937.853 155.986 938.601 156.009 939.348 156.031H939.354H939.365C940.067 156.052 940.767 156.073 941.466 156.103C941.966 156.124 942.465 156.149 942.964 156.182C943.277 156.209 943.58 156.387 943.885 156.567C944.05 156.664 944.217 156.762 944.387 156.837C944.433 156.857 944.479 156.878 944.524 156.9C944.594 156.933 944.664 156.966 944.733 157L944.742 157.004C945.137 157.195 945.536 157.388 945.951 157.421C946.473 157.466 947.003 157.462 947.535 157.458C948.193 157.453 948.85 157.449 949.494 157.535C949.912 157.593 950.301 157.796 950.695 158.003C950.985 158.154 951.277 158.308 951.585 158.404C952.158 158.574 952.754 158.673 953.351 158.771L953.361 158.773C953.561 158.806 953.762 158.839 953.961 158.875C954.478 158.967 955.002 158.96 955.527 158.954C956.707 158.939 957.894 158.924 959.026 160.028C959.542 160.536 960.61 160.461 961.703 160.383C962.266 160.343 962.834 160.303 963.336 160.342C963.458 160.351 963.583 160.352 963.71 160.349C963.794 160.347 963.878 160.343 963.963 160.339C964.721 160.306 965.499 160.271 965.897 161.325C965.982 161.567 966.737 161.624 967.192 161.639C968.057 161.671 968.919 161.688 969.78 161.706C970.133 161.713 970.487 161.721 970.84 161.729C971.521 161.745 972.202 161.764 972.883 161.795C972.996 161.8 973.111 161.8 973.226 161.8L973.452 161.797C974.351 161.785 975.263 161.773 975.885 162.807C976.052 163.078 976.72 163.092 977.236 163.103L977.393 163.106C978.338 163.138 979.287 163.147 980.238 163.157L980.252 163.157C980.803 163.163 981.352 163.168 981.901 163.178L982.178 163.183L982.542 163.191C982.665 163.196 982.792 163.192 982.921 163.187C983.524 163.165 984.143 163.143 984.307 164.118C984.321 164.22 984.526 164.314 984.78 164.387C985.022 164.455 985.308 164.503 985.516 164.517C986.312 164.559 987.113 164.577 987.913 164.595L987.958 164.596C988.744 164.614 989.529 164.631 990.311 164.673C990.404 164.678 990.5 164.677 990.597 164.675C990.693 164.672 990.79 164.668 990.887 164.664C991.668 164.627 992.458 164.59 992.857 165.685C992.928 165.913 993.71 165.941 994.166 165.956C994.891 165.981 995.618 165.993 996.347 166.004C997.219 166.017 998.092 166.031 998.96 166.069C999.146 166.078 999.34 166.069 999.534 166.06C1000.31 166.022 1001.09 165.984 1001.52 167.053C1001.63 167.309 1002.5 167.337 1003.02 167.337C1004.27 167.372 1005.53 167.392 1006.78 167.413C1007.71 167.428 1008.65 167.443 1009.58 167.464C1010.53 167.485 1011.48 167.512 1012.43 167.551C1012.79 167.57 1013.14 167.791 1013.49 168.013C1013.67 168.13 1013.85 168.247 1014.04 168.335C1014.09 168.355 1014.13 168.376 1014.18 168.398L1014.35 168.477C1014.54 168.571 1014.73 168.665 1014.93 168.722C1015.04 168.752 1015.14 168.772 1015.25 168.776C1016.17 168.817 1017.1 168.829 1018.03 168.84C1019.06 168.854 1020.09 168.866 1021.11 168.919C1021.26 168.926 1021.41 168.925 1021.56 168.92C1021.66 168.917 1021.76 168.913 1021.86 168.909C1022.8 168.868 1023.75 168.826 1024.38 169.959C1024.54 170.249 1025.35 170.246 1025.93 170.244H1026.06C1026.79 170.258 1027.52 170.258 1028.26 170.258C1029.72 170.258 1031.18 170.258 1032.64 170.372C1033.23 170.417 1033.81 170.683 1034.4 170.951C1034.6 171.041 1034.8 171.131 1034.99 171.213C1035.13 171.27 1035.27 171.323 1035.41 171.37C1035.84 171.526 1036.31 171.612 1036.76 171.612C1037.83 171.639 1038.9 171.656 1039.97 171.673C1041.68 171.7 1043.39 171.727 1045.11 171.797C1045.3 171.804 1045.48 171.799 1045.67 171.793L1045.82 171.787C1046.79 171.751 1047.77 171.713 1048.47 172.809C1048.56 172.946 1048.79 173 1049.07 173.02C1049.28 173.035 1049.51 173.03 1049.72 173.026L1049.91 173.023L1049.99 173.022C1051.79 173.051 1053.59 173.073 1055.39 173.095L1055.49 173.097C1059.05 173.141 1062.61 173.185 1066.17 173.279C1066.56 173.287 1066.94 173.5 1067.33 173.716L1067.34 173.719C1067.59 173.859 1067.84 174.001 1068.1 174.091C1068.7 174.29 1069.33 174.461 1069.94 174.461C1072.86 174.502 1075.78 174.53 1078.71 174.558L1079.01 174.561C1082.03 174.589 1085.05 174.618 1088.08 174.661C1088.25 174.663 1088.42 174.659 1088.59 174.654C1089.51 174.63 1090.43 174.606 1091.12 175.615C1091.31 175.916 1092.04 175.902 1092.65 175.89C1092.76 175.888 1092.87 175.886 1092.97 175.886L1101.93 175.913L1102.41 175.915C1114.14 175.95 1125.87 175.986 1137.6 175.986C1144.88 175.986 1152.18 175.943 1159.47 175.872C1159.58 175.87 1159.69 175.875 1159.81 175.881L1160.04 175.896C1160.86 175.953 1161.73 176.013 1162.2 174.86C1162.3 174.621 1163.08 174.626 1163.66 174.631H1163.67L1163.88 174.632C1164.86 174.623 1165.85 174.615 1166.83 174.606C1167.87 174.598 1168.92 174.59 1169.96 174.582C1172.42 174.562 1174.87 174.543 1177.32 174.519C1178.94 174.503 1180.56 174.484 1182.19 174.461C1182.37 174.459 1182.55 174.469 1182.74 174.48C1183.57 174.528 1184.44 174.578 1184.93 173.436C1185.04 173.188 1185.86 173.19 1186.44 173.193L1186.6 173.193C1188.51 173.169 1190.43 173.152 1192.35 173.135C1196.18 173.1 1200.01 173.065 1203.84 172.979C1204.35 172.971 1204.85 172.729 1205.36 172.483C1205.66 172.34 1205.95 172.196 1206.26 172.096C1206.74 171.925 1207.27 171.797 1207.78 171.797C1209.17 171.767 1210.56 171.747 1211.95 171.728L1212.12 171.725C1213.93 171.699 1215.74 171.673 1217.55 171.626C1217.63 171.623 1217.71 171.622 1217.78 171.623C1217.92 171.624 1218.07 171.629 1218.21 171.635C1219.13 171.67 1220.07 171.707 1220.66 170.572C1220.78 170.33 1221.52 170.33 1221.99 170.33C1222.79 170.313 1223.59 170.31 1224.39 170.306L1224.4 170.305C1225.25 170.301 1226.09 170.297 1226.94 170.278C1227.42 170.268 1227.91 170.252 1228.4 170.229C1228.48 170.226 1228.56 170.224 1228.65 170.224C1228.83 170.223 1229 170.228 1229.18 170.232C1230.23 170.26 1231.31 170.288 1232.09 169.161C1232.28 168.894 1232.93 168.899 1233.44 168.904L1233.55 168.905H1233.62C1234.33 168.888 1235.04 168.884 1235.75 168.881H1235.76C1236.82 168.875 1237.89 168.87 1238.95 168.819C1239.18 168.808 1239.42 168.816 1239.65 168.826C1240.55 168.86 1241.47 168.896 1242.05 167.779C1242.21 167.508 1243.03 167.508 1243.56 167.508C1244.25 167.491 1244.94 167.478 1245.63 167.465C1246.15 167.456 1246.67 167.448 1247.2 167.439C1248.28 167.422 1249.36 167.405 1250.44 167.379C1251.58 167.353 1252.72 167.318 1253.86 167.266C1254.19 167.252 1254.51 167.103 1254.84 166.92C1254.93 166.867 1255.03 166.811 1255.12 166.755L1255.13 166.75C1255.37 166.611 1255.61 166.47 1255.85 166.369C1256.27 166.198 1256.71 166.055 1257.15 166.041C1257.98 166.012 1258.81 166 1259.64 165.987C1260.83 165.969 1262.01 165.951 1263.19 165.884C1263.42 165.871 1263.67 165.894 1263.92 165.917H1263.92C1264.77 165.995 1265.63 166.075 1266 164.801C1266.02 164.715 1266.25 164.676 1266.52 164.656C1266.68 164.644 1266.86 164.639 1267.01 164.635L1267.16 164.63C1267.72 164.606 1268.28 164.597 1268.84 164.588C1269.59 164.577 1270.33 164.565 1271.08 164.517C1271.15 164.512 1271.23 164.511 1271.31 164.512C1271.37 164.513 1271.43 164.514 1271.5 164.516C1272.15 164.532 1272.84 164.549 1273.04 163.533C1273.08 163.348 1273.74 163.22 1274.12 163.206C1274.75 163.179 1275.39 163.174 1276.02 163.169H1276.03C1276.75 163.164 1277.48 163.158 1278.2 163.12C1278.36 163.115 1278.52 163.123 1278.68 163.131C1279.36 163.165 1280.07 163.199 1280.39 162.194C1280.47 161.966 1281.22 161.866 1281.67 161.852C1282.75 161.806 1283.83 161.781 1284.91 161.756C1286.14 161.728 1287.37 161.699 1288.6 161.639C1288.83 161.626 1289.07 161.636 1289.31 161.646C1290.22 161.684 1291.14 161.721 1291.7 160.57C1291.74 160.503 1291.81 160.459 1291.92 160.43C1292.08 160.385 1292.32 160.375 1292.56 160.363C1292.79 160.353 1293.02 160.341 1293.21 160.299C1293.53 160.234 1293.85 160.213 1294.18 160.215C1294.5 160.217 1294.84 160.242 1295.17 160.267C1296.52 160.368 1297.88 160.469 1299.03 159.045C1299.34 158.66 1300.19 158.729 1301.07 158.801C1301.56 158.841 1302.05 158.881 1302.47 158.846C1302.76 158.819 1303.04 158.827 1303.33 158.835H1303.34C1304.29 158.861 1305.23 158.888 1305.93 157.734C1305.98 157.648 1306.08 157.588 1306.21 157.547C1306.51 157.45 1306.98 157.46 1307.47 157.47C1307.82 157.477 1308.18 157.483 1308.48 157.45C1308.75 157.422 1309.04 157.429 1309.32 157.437C1310.23 157.458 1311.15 157.48 1311.76 156.396C1311.92 156.125 1312.6 156.111 1313.11 156.1L1313.23 156.097L1313.27 156.096C1313.69 156.077 1314.1 156.067 1314.52 156.061C1314.8 156.057 1315.07 156.054 1315.35 156.052C1316.2 156.044 1317.05 156.037 1317.9 155.982L1317.96 155.979C1318.01 155.979 1318.05 155.978 1318.1 155.979C1318.19 155.98 1318.29 155.985 1318.39 155.989H1318.39C1319.08 156.021 1319.81 156.054 1320.07 155.014C1320.13 154.814 1320.78 154.7 1321.17 154.686C1321.68 154.659 1322.19 154.65 1322.7 154.642H1322.71C1323.56 154.627 1324.41 154.612 1325.25 154.515C1325.63 154.469 1325.99 154.248 1326.35 154.023C1326.44 153.967 1326.53 153.911 1326.62 153.857C1326.73 153.79 1326.84 153.728 1326.96 153.674C1327.34 153.489 1327.75 153.318 1328.17 153.232C1328.69 153.131 1329.22 153.144 1329.76 153.157C1330.95 153.186 1332.15 153.215 1333.18 151.964C1333.34 151.757 1333.66 151.681 1334.05 151.664C1334.37 151.649 1334.74 151.674 1335.11 151.7C1335.57 151.731 1336.05 151.763 1336.45 151.722C1336.62 151.707 1336.8 151.715 1336.98 151.723C1337.65 151.752 1338.35 151.782 1338.55 150.71C1338.6 150.54 1339.26 150.426 1339.65 150.411C1340.15 150.385 1340.64 150.38 1341.14 150.375C1341.49 150.372 1341.83 150.368 1342.17 150.358C1342.4 150.351 1342.62 150.341 1342.85 150.326C1343.02 150.315 1343.19 150.311 1343.37 150.306L1343.4 150.305C1344.33 150.281 1345.21 150.258 1346.04 149.343C1346.33 149.014 1346.93 148.956 1347.59 148.945C1347.72 148.943 1347.86 148.943 1348 148.943C1348.21 148.942 1348.42 148.942 1348.62 148.935C1348.79 148.93 1348.94 148.919 1349.1 148.901C1349.32 148.874 1349.54 148.877 1349.77 148.88H1349.78C1350.49 148.891 1351.19 148.9 1351.7 147.961C1351.85 147.682 1352.4 147.64 1352.98 147.596C1353.28 147.573 1353.59 147.55 1353.85 147.491C1354.19 147.414 1354.58 147.444 1354.97 147.475C1355.88 147.545 1356.8 147.618 1357.29 146.308C1357.34 146.166 1357.72 146.151 1358.12 146.136H1358.12C1358.36 146.127 1358.61 146.118 1358.8 146.08C1359.23 145.994 1359.68 146.015 1360.14 146.036C1361.19 146.084 1362.24 146.134 1363.07 144.883C1363.14 144.768 1363.28 144.699 1363.47 144.659C1363.8 144.586 1364.27 144.608 1364.76 144.629C1365.18 144.648 1365.61 144.667 1365.97 144.627C1366.19 144.604 1366.41 144.606 1366.63 144.608C1367.38 144.616 1368.13 144.623 1368.71 143.629C1368.85 143.392 1369.25 143.311 1369.73 143.279C1369.95 143.264 1370.19 143.26 1370.43 143.255C1370.82 143.249 1371.22 143.241 1371.56 143.188C1371.72 143.162 1371.9 143.159 1372.08 143.165C1372.18 143.168 1372.28 143.175 1372.39 143.182C1373.17 143.232 1373.96 143.282 1374.35 142.091C1374.41 141.897 1374.94 141.876 1375.5 141.855C1375.8 141.844 1376.11 141.832 1376.35 141.792C1376.69 141.738 1377.04 141.749 1377.39 141.76C1378.35 141.791 1379.32 141.82 1379.87 140.538C1379.93 140.378 1380.34 140.374 1380.77 140.368C1380.91 140.366 1381.05 140.365 1381.18 140.357C1381.25 140.353 1381.32 140.347 1381.39 140.338C1381.66 140.302 1381.93 140.31 1382.21 140.318C1383.02 140.341 1383.84 140.365 1384.42 139.27C1384.57 138.991 1385.2 138.989 1385.88 138.988C1386.31 138.987 1386.76 138.985 1387.11 138.914C1387.54 138.823 1388.01 138.849 1388.48 138.875C1389.55 138.935 1390.64 138.995 1391.32 137.646C1391.38 137.52 1391.68 137.519 1391.99 137.517C1392.17 137.516 1392.36 137.516 1392.52 137.489C1392.81 137.436 1393.13 137.439 1393.44 137.443C1394.03 137.45 1394.61 137.457 1395.08 137.099C1395.31 136.929 1395.51 136.678 1395.67 136.306C1395.72 136.192 1395.91 136.146 1396.16 136.126C1396.31 136.114 1396.49 136.112 1396.67 136.109C1396.97 136.104 1397.28 136.1 1397.52 136.05C1397.73 136.009 1397.97 136.021 1398.21 136.035C1398.89 136.071 1399.58 136.108 1399.66 134.953C1399.67 134.853 1399.91 134.725 1400.07 134.696C1400.5 134.614 1400.93 134.532 1401.36 134.451L1402.49 134.24C1404.37 133.89 1406.24 133.541 1408.09 133.144C1408.5 133.054 1408.88 132.812 1409.26 132.572C1409.42 132.468 1409.58 132.365 1409.74 132.274C1409.81 132.237 1409.87 132.184 1409.92 132.132C1410 132.065 1410.07 132 1410.16 131.975C1411.07 131.751 1411.98 131.537 1412.9 131.322L1412.91 131.319C1414.26 131.002 1415.61 130.685 1416.96 130.336C1417.33 130.237 1417.68 130.011 1418.02 129.788L1418.04 129.773C1418.14 129.713 1418.23 129.653 1418.32 129.596C1418.38 129.56 1418.44 129.516 1418.5 129.469L1418.59 129.394C1418.66 129.334 1418.73 129.274 1418.8 129.226C1418.87 129.179 1418.94 129.143 1419.02 129.125C1420.18 128.86 1421.35 128.609 1422.52 128.358L1422.53 128.355C1423.93 128.055 1425.32 127.755 1426.72 127.43C1426.99 127.362 1427.24 127.179 1427.49 126.997C1427.71 126.833 1427.93 126.67 1428.17 126.589C1428.71 126.402 1429.28 126.299 1429.84 126.196L1429.89 126.187C1430.09 126.151 1430.28 126.116 1430.47 126.077C1430.68 126.034 1430.91 126.047 1431.13 126.06C1431.75 126.093 1432.36 126.127 1432.55 125.065C1432.58 124.921 1433.07 124.862 1433.59 124.799C1433.9 124.763 1434.22 124.724 1434.47 124.666C1434.69 124.614 1434.95 124.628 1435.2 124.642C1435.86 124.678 1436.54 124.714 1436.69 123.626C1436.7 123.526 1436.93 123.384 1437.09 123.355C1438.02 123.158 1438.95 122.97 1439.88 122.782L1439.89 122.781C1441.51 122.453 1443.14 122.125 1444.76 121.745C1445.14 121.656 1445.49 121.418 1445.84 121.178C1445.92 121.12 1446.01 121.061 1446.09 121.005C1446.22 120.922 1446.35 120.843 1446.48 120.776C1446.8 120.605 1447.17 120.478 1447.54 120.406C1447.74 120.371 1447.95 120.377 1448.16 120.383H1448.17C1448.81 120.402 1449.44 120.422 1449.51 119.323C1449.52 119.209 1449.99 119.095 1450.26 119.038C1450.63 118.961 1451.03 118.972 1451.43 118.983C1452.43 119.012 1453.43 119.041 1453.99 117.699C1454.04 117.562 1454.39 117.56 1454.75 117.557C1454.96 117.555 1455.17 117.554 1455.34 117.528C1455.57 117.499 1455.8 117.497 1456.03 117.495H1456.04C1456.84 117.49 1457.63 117.484 1458.07 116.431C1458.14 116.243 1458.58 116.213 1459.02 116.184C1459.21 116.171 1459.4 116.158 1459.55 116.132C1459.83 116.082 1460.13 116.087 1460.43 116.091C1461.25 116.104 1462.08 116.116 1462.58 115.021C1462.66 114.84 1463.08 114.814 1463.52 114.786H1463.52C1463.69 114.776 1463.86 114.765 1464.02 114.745C1464.1 114.735 1464.18 114.723 1464.25 114.707C1464.47 114.658 1464.73 114.668 1464.99 114.679C1465.71 114.707 1466.43 114.736 1466.52 113.524C1466.52 113.439 1466.92 113.311 1467.13 113.311C1468.23 113.296 1469.03 112.826 1469.99 112.242C1471.2 111.514 1472.65 111.185 1474.1 110.855C1474.67 110.727 1475.23 110.599 1475.78 110.447C1476.01 110.389 1476.25 110.386 1476.5 110.382C1477.16 110.375 1477.83 110.367 1478.03 109.321C1478.06 109.192 1478.46 109.146 1478.87 109.099H1478.88C1479.1 109.074 1479.33 109.048 1479.51 109.008C1479.78 108.949 1480.07 108.96 1480.37 108.972C1481.16 109.001 1481.96 109.03 1482.19 107.769C1482.2 107.726 1482.29 107.699 1482.42 107.679C1482.53 107.662 1482.68 107.65 1482.84 107.638C1482.97 107.628 1483.1 107.618 1483.22 107.604C1483.26 107.598 1483.31 107.591 1483.35 107.583C1483.51 107.552 1483.69 107.551 1483.86 107.55C1484.41 107.547 1484.96 107.544 1485.1 106.614C1485.12 106.443 1485.67 106.35 1486.19 106.26C1486.41 106.223 1486.62 106.186 1486.8 106.145C1486.92 106.113 1487.06 106.099 1487.2 106.095C1487.34 106.09 1487.49 106.096 1487.64 106.102C1488.38 106.13 1489.11 106.159 1489.33 104.976C1489.34 104.917 1489.48 104.878 1489.65 104.847C1489.74 104.832 1489.84 104.818 1489.94 104.805C1490.07 104.787 1490.19 104.77 1490.3 104.748C1490.64 104.669 1491.02 104.681 1491.4 104.692C1492.32 104.721 1493.25 104.749 1493.72 103.466C1493.75 103.368 1493.98 103.361 1494.23 103.354C1494.39 103.35 1494.56 103.345 1494.7 103.318C1494.77 103.306 1494.84 103.29 1494.89 103.266C1495.3 103.081 1495.69 102.829 1496.08 102.58L1496.08 102.578L1496.08 102.575L1496.14 102.538C1496.24 102.476 1496.33 102.415 1496.43 102.354C1496.47 102.328 1496.51 102.295 1496.55 102.259C1496.58 102.235 1496.6 102.21 1496.63 102.186C1496.73 102.087 1496.83 101.993 1496.94 101.984C1498.08 101.884 1498.96 101.4 1499.97 100.801C1501.19 100.071 1502.67 99.7495 1504.14 99.4287C1504.59 99.3301 1505.04 99.2314 1505.48 99.1216C1505.59 99.0933 1505.71 99.0645 1505.82 99.0347C1506.02 98.9805 1506.26 98.981 1506.49 98.9814C1507.12 98.9834 1507.74 98.9849 1507.79 97.9375C1507.81 97.8379 1508.05 97.71 1508.21 97.6812C1509.27 97.5244 1510.1 97.2822 1511.08 96.4561C1511.98 95.7026 1513.26 95.4141 1514.55 95.1245L1514.55 95.123C1515.16 94.9858 1515.77 94.8486 1516.34 94.6606C1516.6 94.5781 1516.83 94.4155 1517.06 94.2529C1517.26 94.1084 1517.46 93.9644 1517.68 93.877C1518.21 93.6763 1518.77 93.5449 1519.32 93.4155C1519.47 93.3799 1519.62 93.3442 1519.77 93.3071C1519.89 93.2793 1520.01 93.2666 1520.13 93.2612C1520.25 93.2559 1520.37 93.2573 1520.49 93.2583C1521.16 93.2651 1521.83 93.2715 1521.96 92.1816C1521.98 92.0801 1522.36 92.001 1522.64 91.9448L1522.73 91.9253C1522.78 91.9155 1522.84 91.9087 1522.89 91.9033C1523.05 91.8872 1523.22 91.8882 1523.4 91.8892C1524.09 91.8931 1524.78 91.8975 1524.91 90.771C1524.92 90.6758 1525.32 90.6201 1525.68 90.5684L1525.72 90.564C1525.83 90.5474 1525.94 90.5317 1526.03 90.5146C1526.19 90.4854 1526.36 90.4805 1526.53 90.4761C1527.09 90.46 1527.65 90.4443 1527.74 89.4888C1527.75 89.3438 1528.35 89.2339 1528.86 89.1382L1528.91 89.1299C1529.04 89.1064 1529.16 89.0835 1529.26 89.0615C1529.52 89.0073 1529.8 89.0098 1530.08 89.0127C1530.83 89.019 1531.58 89.0259 1531.92 87.936C1531.96 87.8193 1532.22 87.7915 1532.51 87.7607C1532.75 87.7349 1533.01 87.7065 1533.19 87.6226C1533.36 87.5483 1533.52 87.4595 1533.69 87.3643C1533.82 87.2871 1533.95 87.2056 1534.08 87.124C1534.17 87.0654 1534.26 87.0083 1534.35 86.9526C1534.49 86.8662 1534.64 86.7837 1534.78 86.7104C1535.17 86.5254 1535.59 86.3828 1536.01 86.269C1536.14 86.23 1536.3 86.2183 1536.45 86.2119L1536.57 86.2075C1537.13 86.1904 1537.67 86.1729 1537.64 85.229C1537.64 85.1436 1537.76 85.001 1537.84 84.9727C1538.47 84.7734 1539.1 84.5815 1539.73 84.3901L1539.74 84.3887C1540.82 84.0601 1541.91 83.731 1542.98 83.3623C1543.42 83.2114 1543.82 82.9473 1544.22 82.6846L1544.22 82.6802C1544.39 82.5723 1544.55 82.4644 1544.71 82.3652C1544.76 82.3369 1544.8 82.2852 1544.83 82.2363C1544.86 82.1855 1544.9 82.1377 1544.94 82.123C1545.96 81.7524 1546.97 81.3945 1547.99 81.0361L1548.83 80.7383L1549.51 80.4985C1549.81 80.3989 1550.1 80.2422 1550.38 80.0854C1550.63 79.9351 1550.88 79.7812 1551.13 79.626L1551.5 79.3906L1551.62 79.3145L1551.94 79.1167C1552.04 79.0571 1552.13 78.9985 1552.23 78.9395L1552.31 78.8896L1552.31 78.8877L1552.32 78.8813C1552.65 78.6782 1552.99 78.4741 1553.31 78.2476C1553.37 78.2061 1553.42 78.1152 1553.46 78.0317C1553.48 77.9897 1553.5 77.9502 1553.52 77.9194C1553.55 77.8853 1553.57 77.8628 1553.6 77.8628C1553.86 77.835 1554.11 77.8125 1554.36 77.791C1555.75 77.6694 1557.12 77.5503 1558.29 76.3672C1558.47 76.1816 1558.78 76.1543 1559.11 76.125C1559.38 76.1016 1559.67 76.0767 1559.92 75.9634C1560.21 75.8315 1560.44 75.5796 1560.52 75.0703C1560.53 75.0088 1560.72 74.9932 1560.95 74.9741H1560.95C1561.2 74.9541 1561.49 74.9307 1561.67 74.8423C1562.13 74.6265 1562.54 74.3296 1562.95 74.0371L1562.95 74.0342L1563.18 73.8735C1563.24 73.835 1563.28 73.7178 1563.31 73.646C1563.32 73.6123 1563.33 73.5889 1563.34 73.5889C1564.37 73.8857 1565.07 73.3413 1565.78 72.7939C1566.33 72.3701 1566.88 71.9448 1567.59 71.9072C1567.91 71.8965 1568.24 71.625 1568.55 71.3643C1568.65 71.2798 1568.74 71.1968 1568.84 71.124C1568.91 71.0752 1568.96 70.9521 1569.01 70.8555C1569.04 70.7822 1569.07 70.7246 1569.08 70.7246C1570.17 71.0312 1570.93 70.4951 1571.69 69.958C1572.13 69.6455 1572.57 69.333 1573.08 69.186C1573.78 68.9868 1574.4 68.5591 1574.97 68.0605C1575.26 67.8135 1575.67 67.8086 1576.07 67.8042C1576.77 67.7959 1577.48 67.7876 1577.63 66.5645C1577.64 66.4849 1577.95 66.4399 1578.24 66.3955C1578.37 66.377 1578.5 66.3579 1578.6 66.3364C1578.79 66.2959 1579 66.2954 1579.2 66.2949C1579.8 66.293 1580.4 66.291 1580.51 65.3394C1580.52 65.2539 1580.66 65.1543 1580.76 65.1113C1581.04 65.0049 1581.31 64.9009 1581.59 64.7979L1582.24 64.5571L1582.26 64.5483C1583.23 64.187 1584.21 63.8257 1585.16 63.4014C1585.3 63.3398 1585.42 63.2485 1585.55 63.1357C1585.71 62.9873 1585.86 62.8022 1586.02 62.5996C1586.09 62.5166 1586.16 62.4307 1586.23 62.3428L1586.29 62.2788L1586.35 62.2056C1586.4 62.1533 1586.45 62.1006 1586.5 62.0479C1586.7 61.9956 1586.94 62.0024 1587.2 62.0098C1587.93 62.0298 1588.77 62.0532 1589.04 60.7944C1589.06 60.7222 1589.26 60.7085 1589.51 60.6924C1589.74 60.6763 1590.02 60.6577 1590.2 60.5806C1590.31 60.5283 1590.43 60.4707 1590.54 60.4092C1590.68 60.3345 1590.81 60.2549 1590.94 60.1729L1591.07 60.0947L1591.19 60.0186L1591.22 60.0039C1591.39 59.895 1591.57 59.7852 1591.75 59.6831C1591.9 59.5957 1592.05 59.499 1592.21 59.4189C1592.34 59.355 1592.48 59.3013 1592.61 59.2695C1592.82 59.2241 1593.04 59.2148 1593.26 59.2056C1593.94 59.1768 1594.62 59.1479 1594.76 58.0732C1594.77 58.001 1594.97 57.9727 1595.21 57.9385C1595.44 57.9048 1595.71 57.8652 1595.89 57.7739C1596.16 57.6313 1596.41 57.4614 1596.67 57.2827C1596.79 57.1992 1596.9 57.1143 1597.02 57.0288C1597.13 56.9492 1597.24 56.8691 1597.35 56.791C1597.4 56.749 1597.44 56.6582 1597.46 56.5898L1597.48 56.5586L1597.49 56.5337L1597.5 56.5142C1597.5 56.5088 1597.51 56.5059 1597.51 56.5059C1598.48 56.6836 1599.24 56.1504 1600.01 55.6172C1600.89 54.9961 1601.78 54.3755 1603 54.8818V202H0Z" fill="#C30001"/>
</svg>
