<svg width="38" height="38" viewBox="0 0 38 38" fill="none" xmlns="http://www.w3.org/2000/svg">
<g clip-path="url(#clip0_133_1570)">
<path d="M38 19.1152C38 8.62182 29.4934 0.115234 19 0.115234C8.50658 0.115234 0 8.62182 0 19.1152C0 28.5987 6.94806 36.459 16.0312 37.8844V24.6074H11.207V19.1152H16.0312V14.9293C16.0312 10.1674 18.8678 7.53711 23.2078 7.53711C25.2866 7.53711 27.4609 7.9082 27.4609 7.9082V12.584H25.0651C22.7049 12.584 21.9688 14.0485 21.9688 15.5511V19.1152H27.2383L26.3959 24.6074H21.9688V37.8844C31.052 36.459 38 28.5987 38 19.1152Z" fill="white"/>
</g>
<defs>
<clipPath id="clip0_133_1570">
<rect width="38" height="38" fill="white"/>
</clipPath>
</defs>
</svg>
