<svg width="38" height="38" viewBox="0 0 38 38" fill="none" xmlns="http://www.w3.org/2000/svg">
<path d="M18.8453 22.5525C20.7221 22.5525 22.2436 21.031 22.2436 19.1542C22.2436 17.2773 20.7221 15.7559 18.8453 15.7559C16.9684 15.7559 15.447 17.2773 15.447 19.1542C15.447 21.031 16.9684 22.5525 18.8453 22.5525Z" fill="white"/>
<path d="M23.0932 10.813H14.5973C13.3616 10.813 12.2803 11.1992 11.5852 11.8943C10.8901 12.5894 10.5039 13.6707 10.5039 14.9064V23.4022C10.5039 24.638 10.8901 25.7193 11.6624 26.4916C12.4348 27.1867 13.4388 27.5729 14.6746 27.5729H23.0932C24.3289 27.5729 25.4102 27.1867 26.1053 26.4916C26.8777 25.7965 27.2638 24.7152 27.2638 23.4795V14.9837C27.2638 13.7479 26.8777 12.7439 26.1826 11.9715C25.4102 11.1992 24.4062 10.813 23.0932 10.813ZM18.8453 24.4063C15.9103 24.4063 13.5933 22.012 13.5933 19.1543C13.5933 16.2194 15.9876 13.9024 18.8453 13.9024C21.7029 13.9024 24.1745 16.2194 24.1745 19.1543C24.1745 22.0893 21.7802 24.4063 18.8453 24.4063ZM24.3289 14.9064C23.6338 14.9064 23.0932 14.3658 23.0932 13.6707C23.0932 12.9756 23.6338 12.4349 24.3289 12.4349C25.024 12.4349 25.5647 12.9756 25.5647 13.6707C25.5647 14.3658 25.024 14.9064 24.3289 14.9064Z" fill="white"/>
<path d="M18.9997 0C8.49582 0 0 8.49582 0 18.9997C0 29.5037 8.49582 37.9995 18.9997 37.9995C29.5037 37.9995 37.9995 29.5037 37.9995 18.9997C38.0767 8.49582 29.5037 0 18.9997 0ZM29.1175 23.4794C29.1175 25.2558 28.4996 26.8004 27.4183 27.8817C26.337 28.963 24.7923 29.5037 23.0932 29.5037H14.6746C12.9754 29.5037 11.4307 28.963 10.3495 27.8817C9.19093 26.8004 8.65029 25.2558 8.65029 23.4794V14.9835C8.65029 11.4307 11.0446 8.95923 14.6746 8.95923H23.1704C24.9468 8.95923 26.4143 9.5771 27.4956 10.6584C28.5768 11.7397 29.1175 13.2071 29.1175 14.9835V23.4794Z" fill="white"/>
</svg>
