<svg width="15" height="15" viewBox="0 0 15 15" fill="none" xmlns="http://www.w3.org/2000/svg">
<g clip-path="url(#clip0_133_1585)">
<path d="M8.04697 0C8.31747 0.0403714 8.58892 0.0744836 8.85817 0.122053C10.1473 0.349572 11.2952 0.888483 12.2973 1.72752C13.5617 2.78625 14.4011 4.12007 14.7887 5.72741C14.8746 6.08387 14.9105 6.45285 14.9702 6.81588C14.9767 6.85562 14.9899 6.89443 14.9999 6.93386V7.68339C14.9824 7.71437 14.9643 7.74473 14.9474 7.77603C14.8365 7.98289 14.6122 8.09305 14.4017 8.0436C14.159 7.98696 14.005 7.79543 14.0031 7.53724C13.9941 6.36647 13.7267 5.2608 13.1279 4.25214C12.0868 2.49833 10.5574 1.43803 8.54675 1.0919C8.22126 1.03589 7.88766 1.02212 7.55687 1.00177C7.28199 0.984874 7.07833 0.844356 7.02648 0.609952C6.97181 0.363655 7.09426 0.146464 7.35414 0.0259754C7.36789 0.0197163 7.37976 0.00876278 7.39257 0C7.61028 0 7.82862 0 8.04697 0Z" fill="white"/>
<path d="M4.33203 6.61388C5.39938 8.27161 6.73598 9.61764 8.38838 10.6801C8.47335 10.5956 8.56018 10.5093 8.64733 10.4232C8.82476 10.2476 8.99499 10.0645 9.18085 9.89805C9.75872 9.38042 10.6305 9.38417 11.1915 9.92152C11.6982 10.4072 12.193 10.9058 12.6778 11.4131C13.1982 11.9576 13.2313 12.8035 12.7393 13.3766C12.4425 13.7224 12.1139 14.0475 11.7647 14.3398C11.2203 14.7949 10.5737 14.9798 9.86274 14.9983C8.87692 15.0236 7.95951 14.7633 7.08583 14.3514C4.32766 13.0508 2.26544 11.015 0.846371 8.32169C0.381887 7.44103 0.0876404 6.50184 0.0111114 5.50414C-0.0619817 4.55369 0.216959 3.71778 0.871985 3.01864C1.08158 2.79488 1.30305 2.58207 1.52357 2.36863C2.14455 1.76713 3.04353 1.76869 3.66045 2.37552C4.124 2.83118 4.58317 3.29091 5.04016 3.75346C5.64864 4.36936 5.65802 5.26786 5.05984 5.89565C4.82713 6.13975 4.58005 6.37009 4.33203 6.61388ZM9.82713 13.9937C10.3569 13.9752 10.8667 13.8106 11.2887 13.4257C11.4998 13.2332 11.6985 13.0264 11.8984 12.822C12.1427 12.5726 12.1408 12.3025 11.8947 12.0546C11.4549 11.6118 11.0138 11.1705 10.5718 10.7296C10.315 10.4736 10.0358 10.4717 9.7809 10.7249C9.48197 11.0219 9.18585 11.3214 8.88754 11.6187C8.63515 11.8703 8.43836 11.8941 8.13662 11.711C6.13874 10.5005 4.53351 8.89627 3.32654 6.89335C3.14412 6.59072 3.16661 6.38887 3.414 6.14007C3.72199 5.83024 4.03373 5.52417 4.33859 5.21121C4.55225 4.99183 4.55256 4.70579 4.33953 4.48766C3.88161 4.01916 3.42087 3.55286 2.95732 3.08999C2.73461 2.86748 2.45286 2.8678 2.22171 3.08467C2.02461 3.26963 1.83094 3.45866 1.63884 3.64893C1.1706 4.11274 0.972878 4.6867 1.00849 5.33295C1.04535 6.00205 1.22246 6.64267 1.48203 7.26014C2.00805 8.51228 2.77303 9.607 3.69294 10.5956C4.84525 11.834 6.16217 12.8489 7.72898 13.5127C8.3887 13.7922 9.07621 13.9593 9.82682 13.9931L9.82713 13.9937Z" fill="white"/>
<path d="M11.8577 7.10218C11.8477 7.17323 11.8471 7.27994 11.8155 7.37633C11.744 7.59634 11.5088 7.7378 11.2911 7.70744C11.048 7.67333 10.8597 7.47804 10.8534 7.23456C10.8413 6.76701 10.7688 6.31228 10.5545 5.89292C9.996 4.79976 9.10045 4.22079 7.87505 4.15726C7.58143 4.14193 7.37464 3.95948 7.36059 3.69941C7.34341 3.38864 7.55644 3.15549 7.86818 3.15674C8.7353 3.16081 9.52527 3.41493 10.2193 3.93444C11.262 4.71495 11.7871 5.77306 11.8577 7.10187V7.10218Z" fill="white"/>
</g>
<defs>
<clipPath id="clip0_133_1585">
<rect width="15" height="15" fill="white"/>
</clipPath>
</defs>
</svg>
