<svg width="12" height="7" viewBox="0 0 12 7" fill="none" xmlns="http://www.w3.org/2000/svg">
<g clip-path="url(#clip0_133_1674)">
<path d="M8.95274 6.50006C8.76438 6.41681 8.68477 6.31907 8.72422 6.17572C8.7463 6.09551 8.80548 6.01764 8.86631 5.95661C9.41024 5.41034 9.95816 4.86806 10.5051 4.32484C10.682 4.14945 10.8598 3.975 11.066 3.77156H10.8929C7.452 3.77156 4.01135 3.77156 0.570468 3.77156C0.480753 3.77156 0.390803 3.77436 0.301088 3.77086C0.120953 3.76337 -0.000468355 3.65043 1.35801e-06 3.49562C0.000471071 3.34596 0.116255 3.23558 0.290754 3.22109C0.329505 3.21781 0.368726 3.21992 0.407947 3.21992C3.89956 3.21992 7.39118 3.21992 10.8826 3.21992H11.054C11.004 3.16707 10.9739 3.13339 10.942 3.10183C10.2409 2.40426 9.53988 1.70694 8.83883 1.00914C8.70027 0.87141 8.67772 0.729466 8.77213 0.606931C8.86373 0.488137 9.0246 0.464753 9.14509 0.554783C9.18243 0.582611 9.21672 0.614881 9.24983 0.64762C10.1202 1.51168 10.9906 2.37574 11.8593 3.24143C11.9136 3.29545 11.9535 3.3635 12 3.425V3.56484C11.9448 3.63452 11.8962 3.71052 11.8337 3.77296C10.9817 4.62275 10.1284 5.47114 9.27261 6.3172C9.20004 6.38875 9.1068 6.4395 9.0232 6.49983H8.95297L8.95274 6.50006Z" fill="white"/>
</g>
<defs>
<clipPath id="clip0_133_1674">
<rect width="12" height="6" fill="white" transform="translate(0 0.5)"/>
</clipPath>
</defs>
</svg>
