<svg width="11" height="6" viewBox="0 0 11 6" fill="none" xmlns="http://www.w3.org/2000/svg">
<path d="M5.15404 4.52258C5.21652 4.44839 5.25166 4.40153 5.29462 4.35857C6.68082 2.97237 8.06703 1.58226 9.45714 0.199959C9.54305 0.114053 9.66019 0.043767 9.77733 0.0125285C9.95695 -0.0382339 10.1522 0.0710999 10.2459 0.235102C10.3396 0.399103 10.3279 0.606058 10.2069 0.758345C10.1717 0.805203 10.1288 0.844251 10.0858 0.887204C8.57856 2.39446 7.0713 3.90171 5.56405 5.41287C5.27119 5.70573 5.0369 5.70573 4.74794 5.41678C3.22507 3.8939 1.7061 2.37103 0.183227 0.852061C0.0387497 0.707584 -0.0432511 0.547486 0.0192258 0.340532C0.112941 0.0242427 0.487802 -0.0968065 0.749424 0.102339C0.796282 0.137482 0.83533 0.180435 0.878283 0.223388C2.26058 1.60569 3.64679 2.99189 5.02909 4.37419C5.06814 4.40934 5.09938 4.4562 5.15404 4.52258Z" fill="#616161"/>
</svg>
