<svg width="1387" height="973" viewBox="0 0 1387 973" fill="none" xmlns="http://www.w3.org/2000/svg">
<g opacity="0.15" clip-path="url(#clip0_370_476)">
<path d="M477.493 515.065C457.303 511.666 438.314 501.39 422.592 485.38C391.593 453.876 377.816 405.271 389.099 367.167C394.027 345.517 416.731 339.249 462.709 346.988C487.377 351.14 515.894 358.728 546.097 366.821C577.785 375.296 610.585 384.003 640.584 389.097L641.144 389.191C690.609 397.518 721.892 393.933 739.558 377.878C760.666 358.73 782.946 342.877 805.838 330.756C856.973 303.652 913.442 294.306 969.193 303.69C990.159 307.219 1011.12 313.403 1031.54 322.017C1092.96 347.975 1145.38 392.909 1175.35 445.258C1201.38 490.792 1205.63 534.697 1185.91 554.522C1168.01 572.527 1126.79 579.13 1080.89 571.405C1038.66 564.296 994.32 545.77 952.679 517.786C922.739 493.143 860.473 449.872 779.537 436.249C698.601 422.626 620.491 443.242 552.153 498.381C526.838 513.591 501.717 519.231 477.479 515.151L477.493 515.065ZM462.434 348.623C417.532 341.065 395.382 346.939 390.706 367.614C379.553 405.209 393.137 453.119 423.756 484.248C439.256 500 457.958 510.139 477.761 513.473C501.612 517.487 526.316 511.954 551.236 496.988C619.833 441.627 696.774 420.592 779.82 434.571C862.865 448.549 923.681 491.753 953.7 516.453C995.069 544.215 1039.2 562.662 1081.18 569.727C1126.55 577.365 1167.21 570.933 1184.74 553.307C1203.93 534.013 1199.59 490.89 1173.89 446.03C1144.14 393.983 1092.02 349.323 1030.89 323.501C1010.6 314.908 989.718 308.782 968.925 305.282C913.561 295.963 857.451 305.282 806.611 332.214C783.82 344.263 761.64 360.045 740.632 379.121C722.55 395.548 690.843 399.283 640.818 390.862L640.258 390.768C610.166 385.703 577.38 376.91 545.642 368.47C515.475 360.427 487.009 352.804 462.427 348.666L462.434 348.623Z" fill="white"/>
<path d="M472.471 522.804C450.3 519.072 429.648 507.631 412.745 489.696C377.993 452.87 364.3 396.667 381.6 361.745C389.97 341.736 415.866 336.492 465.417 344.833C488.88 348.782 514.98 355.211 542.615 361.986C571.442 369.051 601.244 376.369 629.098 381.057C633.661 381.825 638.11 382.485 642.3 383.102C691.79 389.972 724.89 385.056 743.527 367.97C767.604 345.915 789.992 329.947 811.862 319.158C816.251 317.02 820.89 314.969 826.104 312.926C829.989 311.412 833.199 310.226 836.107 309.256C837.938 308.634 839.769 308.013 841.55 307.428C844.214 306.593 846.964 305.773 849.987 304.91C852.586 304.197 855.178 303.527 857.77 302.857C861.238 301.98 864.777 301.204 868.302 300.514C869.724 300.223 871.188 299.938 872.603 299.689C876.12 299.042 879.81 298.424 883.751 297.893C886.429 297.503 889.135 297.206 891.884 296.917C906.312 295.363 920.609 295.114 934.395 296.063C943.537 296.717 952.78 297.83 961.907 299.366C988.168 303.786 1014.18 311.793 1039.14 323.163C1103.49 352.448 1157.51 398.976 1187.33 450.859C1213.55 496.559 1217.74 540.851 1197.98 563.811C1181.09 583.403 1143.9 590.551 1098.39 582.891C1075.66 579.065 1051.83 571.779 1027.5 561.178C1004.94 551.319 982.179 538.726 959.81 523.81C925.769 496.441 871.263 461.512 804.448 450.266L803.414 450.092C706.7 434.211 619.706 453.951 544.952 508.807C520.321 522.052 495.934 526.753 472.385 522.789L472.471 522.804ZM465.142 346.468C416.451 338.272 391.145 343.173 383.12 362.443C366.079 396.878 379.601 452.256 413.945 488.615C430.626 506.291 450.955 517.545 472.739 521.212C495.943 525.118 519.965 520.488 544.157 507.479C619.213 452.408 706.58 432.553 803.768 448.514L804.802 448.688C871.961 459.992 926.704 495.094 960.867 522.527C983.071 537.372 1005.76 549.864 1028.23 559.709C1052.44 570.245 1076.19 577.516 1098.75 581.314C1143.65 588.872 1180.32 581.946 1196.83 562.776C1216.1 540.353 1211.88 496.764 1186 451.696C1156.38 400.158 1102.64 353.853 1038.57 324.704C1013.69 313.392 987.849 305.414 961.717 301.016C952.677 299.494 943.478 298.388 934.378 297.741C920.686 296.764 906.475 297.027 892.14 298.553C889.434 298.85 886.771 299.154 884.05 299.536C880.109 300.068 876.47 300.65 872.952 301.297C871.538 301.546 870.116 301.837 868.651 302.122C865.17 302.819 861.63 303.595 858.205 304.479C855.621 305.106 853.072 305.783 850.473 306.496C847.457 307.316 844.707 308.136 842.086 308.979C840.262 309.557 838.481 310.142 836.643 310.806C833.735 311.777 830.618 312.934 826.733 314.448C821.57 316.455 816.937 318.463 812.635 320.616C790.865 331.333 768.621 347.236 744.651 369.177C725.649 386.6 692.081 391.658 642.075 384.702C637.835 384.121 633.393 383.417 628.83 382.649C600.89 377.946 571.045 370.622 542.218 363.557C514.583 356.781 488.519 350.403 465.099 346.461L465.142 346.468Z" fill="white"/>
<path d="M467.78 530.687C443.542 526.608 421.105 513.937 402.942 494.02C363.871 451.29 350.712 388.229 374.151 356.287C389.453 332.71 433.141 336.7 469.432 342.809C491.044 346.447 514.297 351.644 538.905 357.202C564.16 362.869 590.304 368.774 615.187 372.963C625.691 374.731 635.12 376.052 644.075 377.029C693.237 382.427 728.091 376.037 747.59 358.034C774.535 333.142 796.894 317.081 817.981 307.532C822.34 305.566 827.03 303.745 832.738 301.918C836.53 300.698 839.711 299.684 842.956 298.814C844.773 298.279 846.668 297.802 848.513 297.36C851.105 296.69 853.912 296.057 857.078 295.395C859.692 294.861 862.305 294.327 864.947 293.887C868.508 293.247 872.097 292.701 875.535 292.262C876.985 292.064 878.428 291.908 879.878 291.71C883.582 291.271 887.358 290.933 891.076 290.674C893.76 290.506 896.488 290.346 899.208 290.228C914.109 289.55 928.038 290.169 941.657 292.108C944.556 292.507 947.441 292.993 950.325 293.478C983.689 299.094 1016.2 309.522 1046.89 324.467C1115.3 357.755 1169.48 404.664 1199.42 456.611C1225.87 502.57 1229.99 547.249 1210.11 573.286C1193.99 594.38 1159.47 602.199 1115.38 594.778C1090.72 590.626 1064.18 582.045 1036.49 569.286C1014.1 558.968 990.695 545.735 967.006 529.977C934.649 504.44 883.405 471.963 822.918 461.782C816.934 460.775 810.871 459.976 804.936 459.464C700.331 449.954 613 469.593 537.888 519.477C514.107 530.83 490.539 534.607 467.765 530.774L467.78 530.687ZM469.157 344.444C415.946 335.488 387.038 339.428 375.499 357.222C352.463 388.613 365.559 450.733 404.099 492.931C422.047 512.546 444.155 525.074 468.005 529.088C490.434 532.863 513.686 529.122 537.079 517.97C612.393 467.942 700.09 448.232 805.097 457.72C811.074 458.24 817.181 459.046 823.208 460.061C884.082 470.307 935.563 502.957 967.999 528.551C991.573 544.201 1014.86 557.369 1037.2 567.68C1064.77 580.417 1091.18 588.934 1115.67 593.057C1159.16 600.376 1193.11 592.771 1208.84 572.187C1228.27 546.694 1224.11 502.717 1198.02 457.348C1168.2 405.688 1114.25 358.994 1046.17 325.851C1015.64 310.978 983.3 300.621 950.064 295.027C947.18 294.542 944.338 294.063 941.44 293.664C927.899 291.783 914.106 291.143 899.299 291.793C896.579 291.91 893.902 292.035 891.21 292.245C887.535 292.512 883.759 292.85 880.098 293.295C878.655 293.451 877.248 293.657 875.798 293.855C872.36 294.294 868.857 294.855 865.296 295.495C862.697 295.942 860.084 296.476 857.514 297.017C854.391 297.686 851.583 298.32 849.042 298.954C847.197 299.396 845.344 299.88 843.528 300.415C840.29 301.242 837.109 302.255 833.36 303.483C827.738 305.324 823.099 307.11 818.79 309.04C797.847 318.525 775.631 334.521 748.844 359.263C728.936 377.595 693.708 384.1 644.023 378.657C635.024 377.674 625.553 376.345 615.048 374.577C590.079 370.374 563.928 364.512 538.637 358.795C514.065 353.287 490.819 348.046 469.251 344.416L469.157 344.444Z" fill="white"/>
<path d="M463.403 538.801C436.97 534.352 412.669 520.394 393.131 498.387C349.914 449.782 337.355 379.476 366.731 350.923C386.673 329.499 432.944 333.924 475.607 341.105C494.463 344.279 514.065 348.287 534.857 352.583C555.829 356.865 577.518 361.357 598.527 364.893C616.522 367.922 632.029 369.957 645.922 371.056C695.451 375.057 731.054 367.376 751.724 348.198C772.826 328.562 797.922 307.032 824.171 296.007C828.602 294.142 833.434 292.522 839.451 290.968C842.976 290.012 846.444 289.136 849.919 288.482C851.757 288.083 853.681 287.699 855.555 287.35C858.067 286.888 860.752 286.455 864.241 285.98C866.868 285.626 869.496 285.272 872.159 284.968C875.769 284.558 879.365 284.234 882.811 284.017C884.289 283.912 885.718 283.843 887.146 283.773C890.807 283.593 894.589 283.477 898.393 283.498C901.005 283.495 903.61 283.536 906.259 283.583L906.56 283.634C921.789 283.896 935.66 285.39 948.962 288.16C986.278 296.078 1021.83 308.7 1054.65 325.686C1126.28 362.745 1182 411.242 1211.62 462.292C1238.35 508.61 1242.37 553.627 1222.35 582.648C1206.76 605.292 1174.56 613.811 1131.77 606.608C1105.68 602.216 1076.66 592.332 1045.59 577.279C1023.33 566.452 999.325 552.587 974.303 536.073C928.905 500.952 883.005 479.331 837.802 471.722C827.341 469.961 816.799 468.939 806.479 468.707C734.941 467.108 628.535 471.722 530.845 530.019C508.021 539.63 485.345 542.583 463.432 538.895L463.403 538.801ZM475.332 342.741C433.099 335.632 387.359 331.207 367.913 352.051C339.069 380.075 351.68 449.282 394.381 497.27C413.661 518.968 437.633 532.782 463.679 537.166C485.29 540.804 507.608 537.879 530.086 528.475C628.071 470.007 734.786 465.401 806.496 467.028C816.902 467.275 827.537 468.269 838.041 470.037C883.503 477.689 929.647 499.439 975.202 534.676C1000.15 551.132 1024.07 564.982 1046.25 575.752C1077.15 590.733 1106 600.588 1131.95 604.958C1174.1 612.052 1205.69 603.783 1220.91 581.698C1240.59 553.193 1236.54 508.879 1210.11 463.101C1180.67 412.345 1125.18 364.064 1053.83 327.141C1021.17 310.227 985.744 297.67 948.558 289.774C935.342 287.018 921.607 285.503 906.472 285.212L906.17 285.161C903.558 285.164 900.953 285.124 898.34 285.127C894.579 285.113 890.797 285.229 887.179 285.416C885.708 285.478 884.272 285.591 882.844 285.66C879.442 285.884 875.853 286.165 872.285 286.582C869.622 286.886 867.002 287.197 864.411 287.602C860.922 288.077 858.28 288.517 855.81 288.986C853.937 289.335 852.063 289.683 850.218 290.125C846.786 290.786 843.455 291.642 839.843 292.583C833.956 294.158 829.13 295.735 824.793 297.572C798.781 308.504 773.793 329.92 752.842 349.448C731.805 368.962 695.822 376.8 645.768 372.756C631.832 371.65 616.283 369.607 598.288 366.578C577.236 363.035 555.539 358.586 534.532 354.254C513.775 350.008 494.181 345.957 475.368 342.791L475.332 342.741Z" fill="white"/>
<path d="M459.307 547.095C430.592 542.261 404.355 526.915 383.328 502.71C352.815 467.528 335.14 419.726 339.394 383.669C341.43 366.577 348.304 353.352 359.318 345.515C384.231 326.123 434.921 331.38 486.023 339.982C500.402 342.402 514.91 345.11 530.271 348.005C545.511 350.836 561.26 353.796 576.715 356.398C605.559 361.253 628.119 363.988 647.689 365.025C697.58 367.67 733.931 358.699 755.78 338.304C783.114 312.682 806.232 293.695 830.282 284.423C834.828 282.666 839.846 281.254 846.085 279.959C849.345 279.269 853.056 278.522 856.811 278.047C858.677 277.742 860.622 277.494 862.517 277.282C865.044 276.999 867.794 276.71 871.332 276.465C873.974 276.29 876.622 276.072 879.292 275.99C883.082 275.832 886.592 275.759 890.044 275.764C891.501 275.788 892.965 275.769 894.422 275.793C898.046 275.828 901.821 276.021 905.717 276.279C907.906 276.426 910.131 276.623 912.363 276.778L913.891 276.902C921.397 277.546 928.379 278.411 935.138 279.549C942.414 280.774 949.502 282.321 956.224 284.205C994.605 295.002 1030.35 309.381 1062.41 326.904C1138.46 368.512 1194.27 417.289 1223.77 467.966C1250.87 514.743 1254.77 559.96 1234.53 592.044C1219.2 616.324 1189.06 625.5 1147.43 618.492C1120.22 613.913 1089.03 602.733 1054.7 585.271C1032.43 573.956 1008.51 559.84 981.557 542.161C937.405 508.577 893.291 487.921 850.456 480.711C836.206 478.312 821.932 477.37 808.022 477.949C714.328 481.737 615.032 491.973 523.767 540.509C501.979 548.436 480.352 550.681 459.386 547.152L459.307 547.095ZM485.755 341.574C435.041 333.038 384.752 327.759 360.3 346.787C349.63 354.416 343.008 367.196 341.051 383.815C336.834 419.392 354.323 466.719 384.585 501.55C405.348 525.489 431.305 540.655 459.589 545.416C480.254 548.895 501.609 546.692 523.016 538.923C614.475 490.286 713.95 480.036 807.874 476.198C821.913 475.641 836.323 476.562 850.659 478.975C893.753 486.228 938.111 507.014 982.42 540.714C1009.25 558.328 1033.13 572.436 1055.36 583.701C1089.57 601.098 1120.6 612.206 1147.63 616.756C1188.57 623.648 1218.09 614.766 1233.06 591.088C1252.68 560.007 1248.64 514.28 1222.26 468.731C1192.94 418.348 1137.36 369.787 1061.57 328.265C1029.63 310.764 994.007 296.45 955.755 285.675C949.069 283.841 942.031 282.258 934.842 281.048C928.083 279.91 921.187 279.059 913.724 278.423L912.195 278.298C909.971 278.101 907.789 277.911 905.6 277.763C901.747 277.513 898.008 277.37 894.434 277.3C892.977 277.276 891.52 277.252 890.099 277.278C886.69 277.28 883.187 277.31 879.433 277.519C876.756 277.643 874.115 277.818 871.516 278C867.978 278.245 865.322 278.506 862.795 278.789C860.9 279.001 858.998 279.256 857.088 279.554C853.427 280 849.716 280.747 846.499 281.445C840.354 282.711 835.428 284.095 830.976 285.824C807.206 295.009 784.196 313.882 757.013 339.397C734.847 360.093 698.066 369.257 647.737 366.582C628.124 365.538 605.521 362.795 576.59 357.926C561.092 355.317 545.336 352.399 530.104 349.526C514.735 346.673 500.227 343.966 485.848 341.545L485.755 341.574Z" fill="white"/>
<path d="M455.527 555.618C424.445 550.386 396.064 533.573 373.483 507.027C339.669 467.262 321.048 413.238 328.204 375.723C331.417 359.006 339.553 346.702 351.857 340.144C384.103 321.631 442.017 329.477 514.342 341.651L535.782 345.259C575.604 351.962 614.242 358.068 649.373 358.981C698.87 360.276 737.047 349.665 759.709 328.389C785.131 304.392 810.134 282.094 836.272 272.776C840.976 271.134 846.145 269.88 852.549 268.922C855.865 268.418 859.677 267.865 863.481 267.62C865.376 267.408 867.343 267.297 869.31 267.185C872.396 266.997 875.547 266.952 878.21 266.913C880.872 266.875 883.571 266.886 886.262 266.941C890.102 267.012 893.611 267.205 897.07 267.433C898.512 267.543 899.998 267.66 901.44 267.77C905.064 268.07 908.889 268.493 912.742 269.009C913.869 269.154 914.945 269.335 916.064 269.524C917.614 269.785 919.25 270.06 920.865 270.199C933.839 271.498 947.585 274.785 963.229 280.206C1003.13 294.091 1038.03 309.746 1069.87 328.114C1150.58 374.623 1206.35 423.615 1235.61 473.632C1262.69 520.272 1266.63 566.824 1246.41 601.434C1231.19 627.457 1202.85 637.202 1162.13 630.347C1134.23 625.651 1101 613.199 1063.45 593.249C1041.83 581.777 1017.3 567.029 988.511 548.199C945.297 515.879 902.517 495.978 861.404 489.058C843.882 486.109 826.321 485.498 809.258 487.184C716.015 496.447 610.296 506.973 516.417 551.043C495.766 557.479 475.273 559.03 455.427 555.69L455.527 555.618ZM514.074 343.243C442.05 331.12 384.445 323.282 352.637 341.558C340.821 347.844 332.93 359.747 329.84 375.998C322.757 413.084 341.206 466.547 374.769 505.96C397.092 532.197 425.107 548.816 455.803 553.983C475.434 557.287 495.654 555.779 515.931 549.457C609.954 505.322 715.809 494.775 809.189 485.491C826.388 483.784 844.078 484.416 861.772 487.394C903.187 494.365 946.175 514.346 989.546 546.781C1018.25 565.596 1042.74 580.294 1064.33 591.715C1101.72 611.55 1134.78 623.974 1162.5 628.64C1202.5 635.372 1230.26 625.884 1245.11 600.506C1265.01 566.463 1261.06 520.485 1234.29 474.383C1205.21 424.618 1149.63 375.834 1069.16 329.455C1037.4 311.143 1002.58 295.503 962.804 281.683C947.331 276.291 933.664 273.061 920.819 271.784C919.169 271.595 917.526 271.363 915.933 271.095C914.856 270.913 913.737 270.725 912.654 270.587C908.8 270.071 905.019 269.656 901.438 269.363C899.995 269.253 898.51 269.136 897.068 269.025C893.659 268.761 890.142 268.612 886.346 268.548C883.654 268.494 880.999 268.489 878.336 268.528C875.674 268.566 872.566 268.618 869.487 268.764C867.563 268.883 865.639 269.001 863.701 269.206C859.904 269.408 856.171 270.019 852.855 270.522C846.538 271.495 841.469 272.677 836.851 274.334C811 283.523 786.148 305.714 760.884 329.561C737.855 351.173 699.306 361.898 649.363 360.616C614.104 359.682 575.371 353.605 535.506 346.895L514.024 343.279L514.074 343.243Z" fill="white"/>
<path d="M452.061 564.372C418.954 558.799 387.548 539.972 363.678 511.351C326.291 466.515 307.132 407.799 317.162 368.466C321.379 351.829 330.82 340.187 344.436 334.779C383.389 318.237 449.259 328.262 519.003 338.94C563.978 345.802 610.503 352.925 651.232 352.922C701.041 352.898 740.016 340.961 763.857 318.468C792.628 291.14 816.712 269.572 842.469 261.207C847.294 259.63 852.65 258.584 859.268 257.928C862.512 257.589 866.518 257.202 870.458 257.201C872.288 257.111 874.147 257.114 876.357 257.132C879.458 257.123 882.529 257.286 885.378 257.456C888.055 257.597 890.768 257.788 893.516 258.029C897.399 258.373 900.922 258.745 904.38 259.238C905.844 259.485 907.322 259.645 908.793 259.848C912.553 260.393 916.335 261.073 920.152 261.804C921.909 262.144 923.66 262.528 925.454 262.918L928.359 263.54C944.517 266.968 957.96 271 970.627 276.23C1012.87 293.784 1046.91 310.665 1077.77 329.312C1163.43 381.123 1219.06 430.179 1247.89 479.284C1275.37 526.478 1279.19 573.187 1258.74 610.767C1243.76 638.247 1216.17 648.825 1176.69 642.18C1148.32 637.405 1113.32 623.636 1072.64 601.214C1045.7 586.368 1017.45 568.292 995.857 554.259C953.395 522.995 911.619 503.706 871.754 496.996C851.176 493.532 830.707 493.361 810.851 496.391C794.986 498.854 778.741 501.208 763.041 503.478C677.579 515.953 589.211 528.869 509.431 561.506C490.074 566.567 470.795 567.481 452.111 564.336L452.061 564.372ZM913.053 262.158C911.546 261.905 910.039 261.651 908.568 261.448C907.105 261.201 905.627 261.041 904.199 260.845C900.783 260.358 897.26 259.987 893.421 259.65C890.715 259.416 888.003 259.225 885.326 259.084C882.477 258.914 879.398 258.794 876.348 258.768C874.18 258.757 872.322 258.754 870.491 258.844C866.86 258.852 863.493 259.126 859.438 259.55C852.956 260.185 847.693 261.202 843.004 262.758C817.571 271.044 793.638 292.505 764.982 319.675C740.817 342.512 701.469 354.563 651.215 354.6C610.349 354.625 563.782 347.495 518.728 340.575C449.242 329.941 383.595 319.909 345.022 336.294C331.93 341.481 322.82 352.736 318.733 368.863C308.978 407.092 328.451 466.568 364.922 510.277C388.533 538.589 419.574 557.222 452.293 562.729C470.762 565.838 489.775 564.923 508.852 559.948C588.725 527.282 677.187 514.338 762.735 501.877C778.434 499.608 794.644 497.203 810.545 494.791C830.544 491.697 851.228 491.904 871.979 495.396C912.102 502.15 954.087 521.519 996.749 552.905C1018.25 566.923 1046.47 584.949 1073.37 599.787C1113.84 622.131 1148.67 635.827 1176.87 640.573C1215.53 647.081 1242.58 636.81 1257.19 609.975C1277.38 572.883 1273.58 526.798 1246.38 480.092C1217.74 431.196 1162.25 382.341 1076.83 330.702C1046.05 312.069 1012.1 295.246 969.936 277.707C957.398 272.499 944.041 268.48 927.962 265.11L925.057 264.488C923.306 264.105 921.555 263.722 919.797 263.382C917.53 262.912 915.292 262.535 913.01 262.151L913.053 262.158Z" fill="white"/>
<path d="M448.91 573.356C413.221 567.349 379.477 546.889 353.867 515.718C313.672 466.781 293.583 402.023 306.061 361.819C311.276 345.04 321.965 333.874 336.958 329.494C379.373 316.322 443.715 325.161 511.811 334.588C560.008 341.24 609.813 348.075 652.985 346.978C703.097 345.677 742.871 332.415 767.905 308.618C795.282 282.471 821.129 257.793 848.572 249.668C853.562 248.162 859.061 247.318 865.894 246.964C869.913 246.755 873.524 246.61 877.334 246.854C879.365 246.886 881.432 246.968 883.312 247.108C886.513 247.292 889.728 247.656 892.462 247.984C895.153 248.304 897.887 248.631 900.649 249.052C904.273 249.618 907.889 250.227 911.613 250.986C913.069 251.276 914.569 251.572 916.018 251.905C919.648 252.693 923.436 253.596 927.382 254.614C929.039 255.026 930.682 255.523 932.332 255.978C933.43 256.296 934.484 256.606 935.589 256.88C951.838 261.341 965.273 266.214 977.795 272.304C1010.26 287.991 1048.42 307.202 1085.39 330.594C1177.45 388.837 1231.29 436.442 1259.9 485.022C1287.38 532.173 1291.25 580.174 1270.7 620.214C1255.66 649.588 1229.45 660.663 1190.48 654.148C1161.46 649.264 1125.86 634.598 1081.6 609.271C1056.44 594.902 1030.08 577.941 1003.02 560.377C961.121 529.96 920.133 511.246 881.215 504.695C857.838 500.761 834.627 501.102 812.25 505.699C779.232 512.487 745.584 518.285 713.028 523.912C638.705 536.757 568.495 548.835 502.244 572.111C484.253 575.898 466.338 576.334 448.903 573.399L448.91 573.356ZM904.564 251.304C903.144 251.065 901.766 250.833 900.388 250.601C897.626 250.181 894.935 249.86 892.244 249.54C889.553 249.22 886.338 248.856 883.181 248.678C881.301 248.539 879.277 248.464 877.246 248.432C873.478 248.196 869.911 248.348 865.942 248.52C859.288 248.861 853.883 249.677 849.036 251.118C822.002 259.179 796.271 283.7 769.051 309.696C743.708 333.751 703.597 347.178 653.04 348.492C609.775 349.617 559.848 342.718 511.6 336.101C443.67 326.747 379.507 317.894 337.415 330.987C322.939 335.188 312.624 345.975 307.589 362.209C295.27 401.997 315.252 466.073 355.118 514.601C380.47 545.463 413.891 565.736 449.192 571.678C466.413 574.576 484.105 574.147 501.823 570.403C568.11 547.177 638.377 535.021 712.787 522.19C745.3 516.555 778.948 510.758 811.922 503.962C834.487 499.308 857.92 498.96 881.469 502.924C920.645 509.518 961.834 528.355 1003.93 558.893C1030.91 576.4 1057.27 593.361 1082.39 607.723C1126.49 632.935 1161.93 647.529 1190.73 652.377C1228.88 658.797 1254.56 647.986 1269.25 619.35C1289.49 579.834 1285.66 532.371 1258.45 485.708C1230.02 437.379 1176.35 389.89 1084.52 331.82C1047.59 308.478 1009.51 289.324 977.082 273.644C964.639 267.611 951.334 262.761 935.163 258.358C934.066 258.04 932.961 257.766 931.906 257.455C930.256 257.001 928.649 256.553 926.999 256.098C923.097 255.087 919.266 254.177 915.678 253.396C914.222 253.107 912.729 252.767 911.273 252.478C909.049 252.015 906.81 251.638 904.615 251.268L904.564 251.304Z" fill="white"/>
<path d="M446.077 582.57C407.675 576.106 371.437 553.899 344.03 519.991C301.3 467.176 280.18 396.447 294.884 355.379C300.989 338.308 312.948 327.488 329.461 324.072C374.662 314.069 437.148 321.843 503.236 330.046C555.144 336.482 608.825 343.173 654.733 340.811C705.148 338.234 745.678 323.638 771.941 298.588L772.2 298.366C803.085 268.738 827.53 245.285 854.663 237.948C859.861 236.522 865.547 235.886 872.501 235.862C876.398 235.854 880.202 235.875 884.149 236.362C886.208 236.487 888.246 236.742 890.198 236.982C891.411 237.142 892.623 237.302 893.872 237.512L896.326 237.925C897.359 238.099 898.392 238.273 899.468 238.454C901.722 238.745 903.989 239.215 906.249 239.728L907.784 240.075C911.759 240.921 915.332 241.788 918.811 242.683L919.199 242.748C920.547 243.152 921.903 243.513 923.252 243.917C926.932 244.935 930.641 246.046 934.665 247.387C936.215 247.914 937.807 248.447 939.356 248.973C940.526 249.392 941.702 249.767 942.871 250.185C959.212 255.679 972.581 261.469 984.98 268.291C1018.73 286.893 1056.93 307.927 1093.08 331.755C1165.4 379.462 1237.17 431.723 1271.96 490.681C1299.95 538.493 1303.68 586.558 1282.8 629.596C1267.82 660.484 1242.08 672.392 1203.98 665.979C1174.88 661.081 1137.81 645.149 1090.62 617.249C1068.43 604.133 1045.56 589.309 1021.37 573.644L1010.24 566.415C968.239 536.335 928.994 518.578 890.248 512.056C864.203 507.672 838.45 508.648 813.708 514.927C763.112 527.783 712.285 537.017 663.094 545.995C603.946 556.793 548.136 566.958 495.124 582.595C478.599 585.3 462.135 585.273 446.12 582.577L446.077 582.57ZM893.589 239.19C892.384 238.987 891.179 238.784 890.009 238.632C888.057 238.392 886.012 238.18 884.003 238.019C880.092 237.582 876.338 237.525 872.484 237.54C865.666 237.543 860.153 238.208 855.098 239.57C828.374 246.843 804.095 270.103 773.368 299.58L773.102 299.845C746.572 325.161 705.705 339.921 654.845 342.511C608.808 344.851 555.077 338.197 503.082 331.746C437.081 323.557 374.767 315.812 329.846 325.73C313.936 328.982 302.387 339.472 296.469 355.956C281.945 396.479 302.952 466.569 345.352 518.975C372.508 552.53 408.381 574.543 446.395 580.942C462.238 583.608 478.53 583.607 494.782 580.944C547.787 565.351 603.647 555.15 662.838 544.359C711.979 535.417 762.813 526.14 813.316 513.312C838.287 506.983 864.263 506.001 890.524 510.421C929.528 516.986 968.974 534.866 1011.13 565.061L1022.23 572.239C1046.42 587.905 1069.3 602.686 1091.44 615.794C1138.43 643.572 1175.33 659.474 1204.26 664.344C1241.54 670.619 1266.74 659.018 1281.33 628.862C1301.95 586.311 1298.21 538.82 1270.54 491.503C1235.92 432.841 1164.34 380.744 1092.18 333.152C1056.08 309.331 1017.87 288.297 984.202 269.753C971.847 262.939 958.549 257.249 942.338 251.776C941.169 251.358 939.992 250.983 938.823 250.565C937.273 250.039 935.688 249.462 934.132 248.979C930.15 247.645 926.442 246.534 922.804 245.524C921.449 245.163 920.093 244.802 918.78 244.448L918.392 244.383C914.97 243.408 911.39 242.585 907.502 241.753L905.966 241.406C903.742 240.943 901.525 240.437 899.315 240.154C898.239 239.973 897.198 239.842 896.122 239.661L893.668 239.248L893.589 239.19Z" fill="white"/>
<path d="M443.593 592.064C402.393 585.129 363.545 561.067 334.219 524.358C288.403 466.996 266.715 391.747 283.683 349.334C290.7 331.841 303.943 321.282 321.976 318.83C369.104 311.85 429.193 318.601 492.85 325.731C549.158 332.068 607.425 338.601 656.529 334.874C707.197 331.056 748.533 315.092 775.982 288.78L778.886 285.995C809.542 256.417 833.793 233.063 860.767 226.408C866.166 225.104 871.959 224.619 879.085 224.889C882.774 225.068 886.728 225.247 890.775 225.928L890.99 225.964C892.942 226.204 895.044 226.602 897.118 226.907L897.936 227.045C900.39 227.458 902.815 228.043 905.369 228.65L906.56 228.939C909.924 229.726 912.471 230.376 914.925 231.055C918.82 232.109 922.443 233.205 926.008 234.381C927.479 234.849 928.985 235.369 930.448 235.88C934.092 237.113 937.93 238.511 941.911 240.111C943.446 240.723 944.981 241.336 946.508 241.991C947.713 242.459 948.911 242.971 950.109 243.482C966.527 250.095 979.895 256.682 992.206 264.286C999.742 268.962 1007.37 273.609 1014.99 278.299C1043.37 295.686 1072.73 313.728 1100.8 332.966C1177.56 385.58 1249.31 437.706 1284.07 496.347C1312.14 544.174 1315.92 593.53 1294.94 638.986C1280.01 671.43 1254.54 684.136 1217.17 677.846C1187.68 672.882 1150.34 656.154 1099.64 625.227C1081.53 614.171 1063.02 602.116 1043.42 589.392C1034.84 583.832 1026.19 578.171 1017.4 572.532C975.779 543.092 937.007 525.68 898.864 519.259C870.278 514.448 842.156 516.086 815.165 524.155C746.586 544.694 678.917 556.668 613.517 568.317C569.524 576.134 527.95 583.518 487.996 593.121C473.043 594.897 458.144 594.513 443.636 592.071L443.593 592.064ZM897.653 228.723L896.878 228.592C894.812 228.245 892.788 227.904 890.751 227.65L890.492 227.606C886.532 226.939 882.671 226.732 879.018 226.604C872.071 226.32 866.372 226.776 861.152 228.066C834.601 234.571 810.501 257.818 780.011 287.202L777.107 289.988C749.341 316.6 707.719 332.693 656.605 336.524C607.373 340.229 549.019 333.681 492.618 327.374C429.09 320.265 369.137 313.493 322.189 320.459C304.745 322.833 291.961 333.027 285.174 349.939C268.38 391.85 290.012 466.382 335.498 523.334C364.567 559.734 403.056 583.559 443.868 590.429C458.247 592.849 472.974 593.204 487.654 591.471C527.565 581.86 569.139 574.476 613.175 566.666C678.525 555.053 746.108 543.064 814.637 522.561C841.864 514.4 870.252 512.762 899.053 517.61C937.455 524.073 976.435 541.565 1018.25 571.128C1027 576.76 1035.7 582.427 1044.28 587.987C1063.87 600.754 1082.34 612.759 1100.45 623.816C1150.96 654.62 1188.13 671.276 1217.4 676.203C1253.95 682.356 1278.8 669.943 1293.43 638.244C1314.15 593.276 1310.41 544.458 1282.65 497.127C1248.11 438.787 1176.47 386.812 1099.87 334.27C1071.85 315.04 1042.52 297.048 1014.14 279.661C1006.52 274.97 998.936 270.33 991.357 265.647C979.124 258.101 965.843 251.529 949.547 244.98C948.342 244.512 947.144 244.001 945.946 243.489C944.411 242.877 942.883 242.222 941.349 241.609C937.404 240.06 933.609 238.669 929.965 237.436C928.459 236.917 926.988 236.448 925.525 235.937C922.003 234.769 918.423 233.679 914.528 232.625C911.737 231.846 908.975 231.16 906.249 230.524L905.058 230.235C902.547 229.635 900.122 229.05 897.754 228.651L897.653 228.723Z" fill="white"/>
<path d="M441.46 601.839C397.332 594.411 355.753 568.429 324.415 528.682C275.634 466.839 253.272 387.183 272.415 343.411C280.273 325.396 294.808 315.054 314.504 313.501C362.496 309.277 419.552 315.12 479.966 321.262C541.635 327.571 605.443 334.063 658.303 328.8C709.267 323.749 751.358 306.452 780.044 278.844L785.176 273.867C815.76 244.189 839.932 220.777 866.877 214.825C872.441 213.593 878.42 213.317 885.711 213.924C889.507 214.253 893.64 214.684 897.823 215.609C899.975 215.971 902.192 216.477 904.065 216.925C907.387 217.706 910.722 218.665 913.592 219.502C915.866 220.195 918.857 221.097 921.999 222.156C925.981 223.49 929.61 224.809 933.139 226.2C934.631 226.805 936.13 227.367 937.622 227.972C941.273 229.427 945.153 231.098 949.09 232.956C950.568 233.647 952.088 234.346 953.601 235.087C954.828 235.692 956.061 236.253 957.295 236.815C967.601 241.603 983.221 249.277 999.33 260.352C1013.7 270.205 1028.47 280.036 1042.8 289.573C1064.49 304.022 1086.91 318.903 1108.42 334.206C1190.14 392.345 1260.76 442.553 1296.04 502.035C1324.65 550.615 1328.35 599.871 1306.94 648.44C1291.96 682.47 1266.76 695.972 1229.95 689.776C1200.2 684.769 1162.71 667.352 1108.55 633.277C1093.61 623.904 1078.52 613.929 1062.49 603.399C1050.14 595.257 1037.38 586.871 1024.52 578.599C983.203 549.74 944.825 532.616 907.113 526.268C876.116 521.051 845.653 523.446 816.528 533.412C729.389 563.217 645.548 576.585 564.435 589.527C535.275 594.177 507.752 598.571 480.823 603.641C467.601 604.602 454.375 604.013 441.46 601.839ZM894.29 216.607C891.277 216.1 888.313 215.823 885.565 215.581C878.453 214.959 872.646 215.265 867.226 216.433C840.741 222.285 816.72 245.589 786.344 275.081L781.212 280.058C752.26 307.931 709.789 325.386 658.508 330.472C605.469 335.749 541.582 329.199 479.819 322.919C419.499 316.748 362.53 310.92 314.674 315.123C295.645 316.655 281.57 326.632 273.993 344.03C255.066 387.308 277.329 466.239 325.744 527.622C356.824 567.06 398.045 592.805 441.785 600.168C454.571 602.32 467.618 602.923 480.66 601.976C507.496 596.935 535.062 592.548 564.23 587.855C645.256 574.898 729.054 561.523 816.049 531.782C845.412 521.723 876.14 519.329 907.438 524.597C945.409 530.988 983.995 548.192 1025.51 577.173C1038.38 585.445 1051.17 593.838 1063.48 601.973C1079.51 612.503 1094.61 622.436 1109.51 631.801C1163.51 665.761 1200.75 683.091 1230.32 688.069C1266.27 694.12 1290.94 680.925 1305.52 647.67C1326.67 599.632 1323 550.914 1294.67 502.779C1259.56 443.634 1189.11 393.498 1107.54 335.474C1086.04 320.171 1063.62 305.291 1041.97 290.849C1027.68 281.319 1012.86 271.48 998.496 261.627C982.458 250.653 966.96 243.044 956.697 238.263C955.463 237.701 954.194 237.09 952.968 236.485C951.447 235.786 949.977 235.052 948.457 234.354C944.512 232.539 940.675 230.876 937.024 229.42C935.532 228.815 934.04 228.21 932.541 227.648C929.055 226.265 925.426 224.946 921.488 223.619C918.389 222.566 915.397 221.665 913.116 221.015C910.29 220.185 906.954 219.226 903.675 218.453C901.802 218.005 899.621 217.549 897.469 217.187C896.357 216.955 895.288 216.731 894.254 216.557L894.29 216.607Z" fill="white"/>
<path d="M439.686 611.85C392.459 603.901 348.034 575.891 314.569 532.998C262.903 466.731 239.901 382.72 261.092 337.566C269.798 318.986 285.675 308.825 306.991 308.165C354.391 306.408 409.955 311.646 463.688 316.707C531.975 323.157 602.615 329.826 660.07 322.77C711.288 316.478 754.178 297.855 784.1 268.95L791.245 262.011C821.858 232.161 846.016 208.57 872.988 203.242C878.76 202.09 884.882 202.014 892.338 202.959C894.161 203.177 895.976 203.438 897.87 203.757C900.367 204.178 902.627 204.691 904.743 205.268C906.881 205.717 909.034 206.344 911.064 206.907C914.4 207.867 917.793 209.014 920.712 210.08C923.925 211.241 926.637 212.228 929.212 213.237C933.157 214.786 936.793 216.327 940.408 217.998C941.885 218.689 943.406 219.387 944.926 220.086C948.62 221.814 952.5 223.75 956.451 225.787C957.957 226.571 959.456 227.399 960.961 228.183C962.181 228.831 963.436 229.529 964.698 230.184C974.981 235.632 990.528 244.267 1006.64 256.404C1026.79 271.568 1047.68 286.367 1067.84 300.692C1083.78 312.003 1100.31 323.725 1116.19 335.424C1121.98 339.673 1127.68 343.908 1133.36 348.05C1212.59 406.257 1275.16 452.19 1308.19 507.708C1336.96 556.404 1340.63 606.894 1319.14 657.793C1304.11 693.409 1279.12 707.744 1242.7 701.613C1206.28 695.483 1158.34 667.545 1117.65 641.27C1105.31 633.308 1092.94 625.029 1079.8 616.269C1064.24 605.905 1048.16 595.146 1031.77 584.687C990.729 556.317 952.609 539.501 915.241 533.211C881.877 527.596 849.159 530.762 818.021 542.69C711.846 583.275 607.982 596.723 516.342 608.557C501.59 610.455 487.649 612.268 473.737 614.175C462.297 614.55 450.922 613.742 439.772 611.865L439.686 611.85ZM897.509 205.378C895.658 205.066 893.842 204.805 892.063 204.594C884.822 203.685 878.829 203.783 873.244 204.878C846.774 210.114 822.731 233.547 792.327 263.211L785.225 270.157C755.037 299.327 711.81 318.115 660.276 324.442C602.641 331.512 531.915 324.828 463.542 318.364C409.851 313.31 354.381 308.044 307.068 309.815C286.418 310.455 271.08 320.308 262.613 338.265C241.644 382.881 264.547 466.167 315.891 531.982C349.098 574.565 393.122 602.331 439.961 610.215C451.025 612.078 462.321 612.828 473.532 612.503C487.401 610.589 501.334 608.819 516.093 606.878C607.647 595.03 711.375 581.602 817.406 541.082C848.824 529.068 881.815 525.859 915.48 531.526C953.064 537.852 991.385 554.79 1032.64 583.24C1049.03 593.698 1065.1 604.458 1080.67 614.822C1093.8 623.582 1106.18 631.86 1118.52 639.822C1159.04 666.026 1205.57 693.638 1242.94 699.928C1278.45 705.906 1302.9 691.922 1317.57 657.131C1338.84 606.726 1335.17 556.724 1306.68 508.516C1273.83 453.293 1211.38 407.425 1132.26 349.325C1126.63 345.191 1120.87 340.991 1115.09 336.699C1099.21 325 1082.72 313.286 1066.74 301.967C1046.58 287.642 1025.69 272.843 1005.5 257.629C989.463 245.592 974.003 236.972 963.763 231.531C962.5 230.876 961.246 230.178 959.983 229.523C958.485 228.696 956.979 227.911 955.516 227.134C951.572 225.054 947.728 223.168 944.077 221.447C942.557 220.749 941.079 220.058 939.602 219.366C936.023 217.746 932.387 216.205 928.485 214.663C925.91 213.654 923.241 212.674 920.071 211.521C917.187 210.505 913.802 209.315 910.545 208.413C908.558 207.857 906.398 207.273 904.267 206.781C902.194 206.211 899.97 205.748 897.516 205.335L897.509 205.378Z" fill="white"/>
<path d="M438.264 622.143C387.852 613.657 340.415 583.547 304.766 537.322C251.125 467.802 227.005 377.54 249.798 331.815C259.359 312.627 276.541 302.597 299.522 302.837C344.37 303.084 394.344 307.602 442.668 311.93C519.422 318.832 598.753 325.945 661.882 316.747C713.346 309.257 756.991 289.301 788.164 259.014C791.183 256.071 794.152 253.163 797.063 250.334C827.769 220.19 852.007 196.392 879.107 191.616C885.31 190.536 891.539 191.142 898.155 191.813L898.887 191.936C902.769 192.28 906.557 193.183 911.557 194.777C913.802 195.376 916.069 196.112 917.999 196.746C921.521 197.915 925.086 199.355 927.775 200.472C930.924 201.754 933.728 202.978 936.317 204.167C940.305 205.988 943.991 207.759 947.613 209.652C949.076 210.429 950.582 211.214 952.131 212.006C955.831 213.956 959.71 216.158 963.661 218.46C965.153 219.331 966.594 220.237 968.129 221.115C969.376 221.856 970.66 222.647 971.95 223.395C982.211 229.503 997.728 239.107 1013.83 252.306C1039.12 273.024 1065.4 292.624 1090.76 311.585C1101.69 319.753 1112.98 328.201 1123.89 336.499C1135.66 345.429 1147.13 354.085 1158.34 362.476C1231.32 417.33 1288.93 460.614 1320.27 513.238C1349.2 562.049 1352.89 613.78 1331.26 667.047C1316.19 704.248 1291.28 719.393 1255.16 713.313C1219.04 707.234 1171.37 678.766 1126.65 649.112C1116.58 642.416 1106.48 635.584 1095.79 628.342C1077.43 615.914 1058.44 603.026 1038.93 590.582C998.034 562.635 960.143 546.035 923.076 539.796C886.009 533.557 852.536 537.791 819.422 551.732C693.549 604.666 574.301 615.083 469.115 624.282L466.509 624.508C457.007 624.413 447.542 623.572 438.243 622.007L438.264 622.143ZM901.424 193.957C900.52 193.804 899.573 193.645 898.654 193.579L897.923 193.456C891.428 192.849 885.293 192.215 879.313 193.288C852.758 197.978 828.636 221.619 798.145 251.534C795.234 254.363 792.265 257.271 789.239 260.257C757.807 290.766 713.824 310.887 662.044 318.411C598.736 327.624 519.319 320.496 442.479 313.58C394.198 309.259 344.267 304.749 299.462 304.508C277.192 304.256 260.505 313.97 251.225 332.542C228.691 377.78 252.762 467.281 306.038 536.341C341.436 582.214 388.507 612.13 438.489 620.544C447.702 622.094 457.081 622.921 466.404 623.03L468.916 622.833C573.966 613.655 693.034 603.251 818.713 550.418C852.108 536.391 887.282 532.311 923.272 538.369C959.263 544.427 998.696 561.331 1039.75 589.393C1059.21 601.83 1078.26 614.682 1096.61 627.152C1107.3 634.394 1117.35 641.219 1127.43 647.872C1172 677.411 1218.34 705.611 1255.28 711.829C1291.01 717.843 1314.6 703.449 1329.57 666.585C1350.98 613.813 1347.3 562.526 1318.69 514.211C1287.47 461.918 1229.98 418.698 1157.16 363.959C1146 355.576 1134.48 346.912 1122.71 337.982C1111.75 329.677 1100.47 321.229 1089.58 313.068C1064.18 294.057 1037.91 274.456 1012.62 253.738C996.548 240.59 981.118 231.001 970.936 224.951C969.645 224.202 968.362 223.411 967.114 222.67C965.63 221.756 964.139 220.886 962.69 220.022C958.739 217.72 954.903 215.526 951.203 213.575C949.697 212.791 948.198 211.963 946.685 211.222C943.099 209.379 939.463 207.572 935.468 205.794C932.879 204.606 930.067 203.424 926.962 202.149C924.315 201.04 920.786 199.649 917.314 198.446C915.428 197.818 913.204 197.09 910.959 196.491C907.221 195.286 904.208 194.514 901.367 194.035L901.424 193.957Z" fill="white"/>
<path d="M437.228 632.766C383.458 623.715 332.946 591.361 294.962 541.646C238.586 467.859 213.748 373.185 238.409 326.093C248.789 306.245 267.321 296.355 292.008 297.501C331.479 299.189 373.746 302.94 414.613 306.589C502.455 314.427 593.354 322.514 663.606 310.709C715.272 302.015 759.76 280.74 792.176 249.113C795.778 245.604 799.278 242.167 802.685 238.757C833.536 208.284 857.903 184.241 885.132 180.019C891.27 179.06 897.987 179.395 905.477 180.921C909.201 181.68 913.635 182.692 918.304 184.408C920.578 185.1 922.867 185.972 924.818 186.743C928.397 188.098 931.968 189.761 934.679 191.014C937.885 192.483 940.704 193.886 943.314 195.211C947.308 197.255 951.002 199.248 954.673 201.371C956.164 202.241 957.656 203.112 959.226 204.04C962.933 206.213 966.82 208.637 970.806 211.255C972.283 212.212 973.796 213.219 975.309 214.225C976.542 215.053 977.818 215.887 979.087 216.764C995.104 227.337 1008.42 237.367 1020.92 248.364C1050.5 274.628 1081.3 298.62 1111.08 321.82C1117.94 327.134 1124.75 332.439 1131.46 337.774C1148.12 350.844 1164.24 363.204 1179.85 375.124C1248.17 427.38 1302.06 468.621 1332.23 518.969C1361.69 568.577 1365.28 620.114 1343.25 676.544C1328.08 715.366 1303.27 731.279 1267.37 725.236C1231.46 719.192 1189.44 693.754 1135.56 657.162C1127.46 651.639 1119.2 646 1110.88 640.218C1089.97 625.814 1068.39 610.942 1046.04 596.735C1005.3 569.169 967.596 552.777 930.701 546.567C893.807 540.357 855.826 545.071 820.77 561.075C688.7 621.373 564.953 630.9 459.323 635.113C451.902 634.749 444.468 633.94 437.193 632.716L437.228 632.766ZM902.447 182.092C896.161 181.034 890.563 180.889 885.38 181.698C858.654 185.828 834.488 209.727 803.81 239.965C800.41 243.331 796.902 246.811 793.301 250.321C760.626 282.169 715.844 303.616 663.862 312.345C593.38 324.2 502.395 316.098 414.417 308.281C373.592 304.64 331.369 300.896 291.905 299.165C267.921 298.049 249.928 307.632 239.872 326.87C215.477 373.432 240.266 467.346 296.284 540.629C334.017 589.993 384.171 622.109 437.511 631.088C444.743 632.305 452.091 633.099 459.375 633.485C564.74 629.271 688.307 619.758 820.091 559.588C855.434 543.456 892.74 538.54 930.969 544.975C969.199 551.41 1006.03 567.699 1046.93 595.381C1069.25 609.537 1090.87 624.459 1111.77 638.864C1120.15 644.61 1128.35 650.284 1136.46 655.808C1190.17 692.285 1233.03 717.774 1267.64 723.6C1302.25 729.427 1326.65 714.416 1341.72 675.931C1363.56 620.047 1360.03 568.961 1330.85 519.842C1300.85 469.745 1247.04 428.562 1178.87 376.464C1163.26 364.543 1147.14 352.184 1130.48 339.114C1123.72 333.815 1116.95 328.516 1110.1 323.16C1080.28 299.909 1049.48 275.918 1019.87 249.604C1007.41 238.657 994.176 228.641 978.238 218.126C976.962 217.292 975.693 216.414 974.46 215.587C972.947 214.58 971.477 213.581 970 212.624C966.049 210.056 962.163 207.632 958.499 205.466C956.972 204.546 955.437 203.668 953.989 202.804C950.361 200.689 946.667 198.696 942.716 196.659C940.106 195.334 937.323 193.981 934.124 192.469C931.413 191.216 927.835 189.596 924.349 188.213C922.434 187.492 920.145 186.62 917.879 185.885C913.295 184.184 908.897 183.222 905.26 182.477C904.355 182.325 903.459 182.13 902.555 181.978L902.447 182.092Z" fill="white"/>
<path d="M436.588 643.677C379.33 634.039 325.535 599.363 285.153 546.013C226.084 467.968 200.521 368.923 227.043 320.507C238.249 299.958 258.13 290.206 284.524 292.259C314.47 294.512 345.592 297.405 375.66 300.253C478.865 309.925 585.6 319.926 665.403 304.772C717.308 294.923 762.515 272.265 796.262 239.314C800.395 235.275 804.384 231.3 808.273 227.396C839.318 196.557 863.829 172.185 891.229 168.522C897.568 167.686 904.263 168.149 912.055 169.992C915.541 170.844 920.212 172.029 925.139 174.053C927.019 174.723 929.092 175.559 931.767 176.761C934.657 178 937.719 179.533 941.75 181.628C944.927 183.269 947.759 184.852 950.47 186.37C954.349 188.572 958.164 190.896 961.885 193.248C963.405 194.212 964.918 195.219 966.438 196.182C970.109 198.57 973.916 201.202 978.067 204.158C979.565 205.251 981.063 206.344 982.605 207.444C983.823 208.357 985.085 209.278 986.347 210.198C1002.33 221.739 1015.59 232.645 1028.12 244.489C1061.8 276.62 1097 305.024 1131.03 332.479L1139.21 339.079C1160.02 355.901 1179.96 371.337 1199.23 386.263C1264.05 436.425 1315.15 476.09 1344.37 524.729C1374.03 574.459 1377.63 627.237 1355.38 686.02C1340.12 726.463 1315.3 743.173 1279.61 737.166C1241.17 730.694 1191.85 698.099 1144.61 665.234C1138.27 660.804 1131.81 656.31 1125.32 651.722C1102.12 635.469 1078.17 618.649 1053.23 602.903C1012.58 575.659 974.979 559.419 938.257 553.238C898.176 546.491 859.132 552.265 822.214 570.389C684.584 637.938 557.926 646.356 452.231 645.69C446.992 645.251 441.754 644.546 436.588 643.677ZM906.65 170.542C901.139 169.615 896.158 169.484 891.449 170.108C864.587 173.729 840.242 197.907 809.412 228.517C805.524 232.421 801.491 236.388 797.358 240.428C763.396 273.608 717.901 296.395 665.673 306.322C585.641 321.526 478.776 311.503 375.478 301.86C345.403 299.055 314.288 296.118 284.342 293.866C258.652 291.842 239.345 301.337 228.463 321.277C202.251 369.17 227.721 467.447 286.475 544.997C326.642 598.045 380.036 632.476 436.863 642.042C441.986 642.904 447.181 643.601 452.334 644.026C557.806 644.698 684.199 636.281 821.534 568.903C858.79 550.615 898.15 544.805 938.575 551.61C975.513 557.827 1013.36 574.154 1054.18 601.513C1079.11 617.259 1103.1 634.129 1126.3 650.382C1132.8 654.927 1139.25 659.464 1145.59 663.894C1192.67 696.644 1241.83 729.124 1279.93 735.538C1315.23 741.48 1338.72 725.564 1353.89 685.415C1375.92 627.127 1372.32 574.836 1342.99 525.559C1313.9 477.164 1262.92 437.607 1198.26 387.516C1178.95 372.584 1159.01 357.147 1138.21 340.325L1130.02 333.726C1096 306.228 1060.76 277.817 1027.04 245.635C1014.55 233.841 1001.37 222.993 985.426 211.459C984.164 210.539 982.903 209.618 981.684 208.705C980.15 207.562 978.651 206.469 977.146 205.419C973.038 202.471 969.224 199.882 965.596 197.501C964.083 196.494 962.52 195.523 961.043 194.566C957.365 192.221 953.55 189.898 949.707 187.746C947.039 186.235 944.243 184.703 941.066 183.062C937.078 180.974 934.009 179.484 931.162 178.253C928.522 177.1 926.492 176.272 924.613 175.602C919.772 173.592 915.187 172.422 911.744 171.577C910 171.151 908.329 170.825 906.736 170.557L906.65 170.542Z" fill="white"/>
<path d="M436.333 654.918C375.459 644.672 318.272 607.521 275.348 550.337C213.58 468.076 187.342 364.625 215.596 314.863C227.672 293.62 248.866 283.956 276.959 286.959C290.708 288.388 304.543 289.832 318.328 291.311C444.07 304.644 574.118 318.436 667.17 298.742C720.01 287.546 764.794 264.241 800.273 229.413C804.888 224.88 809.359 220.41 813.722 216.056C845.012 184.815 869.71 160.121 897.339 156.939C903.886 156.182 910.724 156.847 918.68 159.027C923.846 160.427 928.063 161.933 931.972 163.698C933.88 164.461 935.974 165.433 938.678 166.729C941.583 168.147 944.788 169.882 948.789 172.148C951.937 173.961 954.834 175.688 957.559 177.386C961.402 179.803 965.266 182.356 969.03 184.981C970.536 186.031 972.077 187.131 973.619 188.231C977.332 190.892 981.146 193.746 985.296 196.967C986.866 198.161 988.422 199.44 989.984 200.677C991.153 201.626 992.364 202.582 993.576 203.538C1009.37 215.976 1022.62 227.721 1035.29 240.562C1072.85 278.834 1112.15 311.513 1146.87 340.368C1171.27 360.626 1194.46 378.779 1216.96 396.372C1276.54 442.953 1327.98 483.207 1356.45 530.524C1386.25 580.455 1389.87 634.432 1367.5 695.539C1352.1 737.596 1327.33 755.109 1291.77 749.123C1253.58 742.696 1206.68 710.994 1153.65 673.348C1148.9 669.983 1144.12 666.567 1139.26 663.094C1113.97 645.03 1087.8 626.377 1060.47 609.077C1019.85 582.15 982.36 566.06 945.724 559.893C903.491 552.784 862.435 559.459 823.691 579.754C673.973 658.101 535.947 660.932 445.13 656.31C442.18 655.947 439.246 655.497 436.361 655.011L436.333 654.918ZM911.245 159.014C906.337 158.188 901.852 158.008 897.516 158.518C870.433 161.614 845.9 186.115 814.862 217.177C810.498 221.532 806.027 226.001 801.413 230.534C765.675 265.584 720.639 289.068 667.483 300.299C574.159 320.036 444.018 306.272 318.146 292.918C304.361 291.438 290.569 290.002 276.777 288.565C249.373 285.678 228.717 295.035 217.009 315.676C189.065 364.915 215.26 467.562 276.62 549.356C319.286 606.232 376.114 643.145 436.558 653.319C439.399 653.797 442.334 654.247 445.197 654.596C535.749 659.217 673.516 656.343 822.839 578.239C861.921 557.779 903.343 551.034 945.92 558.2C982.772 564.403 1020.47 580.572 1061.29 607.666C1088.66 624.929 1114.86 643.633 1140.16 661.697C1144.98 665.12 1149.81 668.543 1154.55 671.951C1207.38 709.474 1254.12 741.061 1291.96 747.431C1327.14 753.351 1350.62 736.682 1365.93 694.876C1388.13 634.271 1384.52 580.739 1355 531.253C1326.67 484.18 1275.38 444.041 1215.92 397.568C1193.46 380.026 1170.22 361.822 1145.79 341.557C1111.07 312.702 1071.73 279.973 1034.09 241.643C1021.49 228.902 1008.28 217.165 992.526 204.778C991.315 203.821 990.103 202.865 988.935 201.916C987.379 200.637 985.817 199.4 984.247 198.207C980.132 195.036 976.361 192.189 972.648 189.528C971.106 188.428 969.608 187.335 968.102 186.285C964.382 183.667 960.517 181.114 956.71 178.747C953.985 177.05 951.131 175.33 947.983 173.517C944.025 171.258 940.82 169.524 937.951 168.156C935.29 166.867 933.232 165.945 931.324 165.182C927.458 163.425 923.319 161.976 918.24 160.59C915.83 159.919 913.484 159.391 911.245 159.014Z" fill="white"/>
<path d="M436.509 666.497C371.846 655.613 311.104 615.917 265.495 554.696C201.071 468.227 174.15 360.413 204.093 309.298C216.995 287.353 239.545 277.785 269.396 281.659C421.239 301.155 566.004 316.671 668.851 292.696C721.887 280.339 767.427 255.701 804.251 219.462C809.347 214.434 814.249 209.507 818.993 204.73C850.535 173.045 875.42 148.028 903.321 145.334C910.069 144.7 917.058 145.522 925.135 148.032C930.314 149.612 934.589 151.305 938.677 153.321C940.614 154.178 942.78 155.25 945.462 156.675C948.466 158.287 951.736 160.165 955.694 162.69C958.856 164.682 961.774 166.545 964.549 168.473C968.399 171.112 972.313 173.895 976.076 176.785C977.567 177.921 979.094 179.108 980.664 180.301C984.385 183.184 988.277 186.362 992.355 189.747C993.947 191.077 995.531 192.45 997.158 193.83C998.319 194.822 999.473 195.857 1000.68 196.857C1016.36 210.205 1029.55 222.825 1042.34 236.57C1079.63 276.966 1119.74 311.949 1154.42 341.55C1181.98 365.084 1208.1 385.631 1233.39 405.553C1290.89 450.81 1340.49 489.913 1368.39 536.161C1398.42 586.265 1402.01 641.475 1379.47 704.899C1363.74 749.201 1339.62 767.002 1303.63 760.944C1265.75 754.568 1219.34 722.551 1162.53 681.305L1152.71 674.165C1125.42 654.304 1097.22 633.803 1067.51 615.13C1026.94 588.431 989.434 572.428 952.927 566.283C908.584 558.819 865.554 566.444 824.983 588.91C759.408 625.265 690.306 649.699 619.566 661.51C561.941 671.148 502.556 672.835 437.886 666.729L436.423 666.482L436.509 666.497ZM916.064 147.479C911.673 146.74 907.582 146.582 903.577 146.97C876.265 149.586 851.545 174.409 820.262 205.872C815.518 210.65 810.615 215.577 805.512 220.648C768.48 257.073 722.688 281.89 669.337 294.283C566.216 318.3 421.272 302.797 269.257 283.272C240.103 279.471 218.091 288.732 205.548 310.118C175.865 360.746 202.794 467.72 266.81 553.723C312.161 614.635 372.502 654.086 436.777 664.905L438.154 665.137C579.564 678.496 705.847 653.111 824.246 587.502C865.161 564.829 908.558 557.133 953.245 564.655C990.011 570.843 1027.69 586.876 1068.45 613.739C1098.16 632.413 1126.4 652.964 1153.69 672.825L1163.51 679.965C1220.17 721.053 1266.41 752.998 1303.95 759.316C1339.04 765.222 1362.56 747.764 1377.97 704.337C1400.35 641.372 1396.76 586.65 1367.05 536.998C1339.29 490.995 1289.8 452 1232.42 406.85C1207.16 386.979 1181.01 366.381 1153.41 342.84C1118.73 313.196 1078.58 278.205 1041.21 237.752C1028.5 224.064 1015.3 211.487 999.699 198.196C998.495 197.197 997.341 196.162 996.18 195.17C994.553 193.79 992.968 192.417 991.42 191.095C987.385 187.716 983.493 184.539 979.772 181.655C978.202 180.462 976.675 179.276 975.184 178.14C971.414 175.292 967.55 172.474 963.692 169.877C960.911 167.993 958.043 166.094 954.873 164.145C950.908 161.663 947.682 159.792 944.72 158.188C942.081 156.77 939.951 155.748 938.022 154.848C934.02 152.847 929.781 151.204 924.731 149.646C921.66 148.686 918.805 148.029 916.007 147.558L916.064 147.479Z" fill="white"/>
<path d="M430.807 677.22C364.598 664.217 302.424 622.245 255.698 558.977C188.661 468.306 161.008 356.165 192.689 303.662C206.382 280.964 230.332 271.499 261.932 276.287C393.227 296.086 558.333 315.159 670.711 286.638C723.943 273.118 770.274 247.197 808.356 209.533C813.934 204.011 819.224 198.618 824.393 193.425C856.236 161.26 881.359 135.885 909.532 133.679C916.488 133.124 923.613 134.191 931.869 136.953C937.063 138.712 941.402 140.548 945.626 142.808C947.591 143.758 949.778 144.967 952.481 146.529C955.55 148.284 958.827 150.385 962.842 153.096C965.903 155.16 968.914 157.26 971.746 159.374C975.646 162.243 979.56 165.291 983.381 168.368C984.9 169.597 986.456 170.877 988.004 172.2C991.731 175.305 995.666 178.755 999.744 182.407C1001.44 183.93 1003.12 185.497 1004.84 187.114L1008.06 190.09C1023.39 204.176 1037 218.017 1049.66 232.494C1086.99 275.328 1125.83 310.761 1162.25 342.647C1192.65 369.27 1221.37 391.981 1249.15 413.959C1304.93 458.13 1353.18 496.298 1380.64 541.72C1411.28 592.722 1414.81 647.523 1391.72 714.174C1375.84 760.133 1351.69 778.681 1315.7 772.623C1275.23 765.811 1222.6 726.861 1171.66 689.169L1166.11 685.049C1136.94 663.456 1106.74 641.115 1074.83 621.096C1034.22 594.613 996.737 578.746 960.273 572.608C913.907 564.804 868.901 573.38 826.533 598.11C702.13 670.717 572.71 696.592 430.901 677.191L430.807 677.22ZM921.062 135.93C917.059 135.256 913.327 135.07 909.601 135.373C882.06 137.507 857.138 162.74 825.518 194.632C820.349 199.825 815.016 205.211 809.481 210.74C771.148 248.583 724.565 274.683 671.061 288.245C558.402 316.852 393.08 297.743 261.657 277.922C230.753 273.207 207.378 282.415 194.052 304.51C162.68 356.491 190.334 467.836 257.013 558.004C303.488 620.919 365.304 662.654 431.04 675.577C572.505 694.92 701.558 669.116 825.617 596.716C868.286 571.772 913.658 563.125 960.455 571.002C997.177 577.183 1034.87 593.129 1075.63 619.771C1107.59 639.797 1137.77 662.18 1166.99 683.78L1172.53 687.9C1223.32 725.477 1275.79 764.313 1315.88 771.059C1350.92 776.957 1374.49 758.71 1390.08 713.677C1412.96 647.477 1409.49 593.128 1379.13 542.571C1351.84 497.444 1303.71 459.341 1248.04 415.277C1220.26 393.3 1191.55 370.588 1161.11 343.914C1124.65 311.979 1085.77 276.495 1048.37 233.603C1035.74 219.177 1022.17 205.387 1006.87 191.35L1003.65 188.375C1001.93 186.758 1000.24 185.234 998.551 183.71C994.516 180.066 990.574 176.659 986.889 173.561C985.341 172.238 983.778 171.002 982.266 169.729C978.496 166.617 974.618 163.619 970.718 160.75C967.886 158.636 964.875 156.536 961.857 154.479C957.885 151.775 954.601 149.717 951.575 147.969C948.914 146.415 946.763 145.256 944.755 144.299C940.61 142.097 936.314 140.267 931.207 138.522C927.606 137.297 924.255 136.423 920.983 135.872L921.062 135.93Z" fill="white"/>
<path d="M429.312 688.739C427.418 688.42 425.567 688.108 423.673 687.789C356.505 672.324 293.372 628.155 245.881 563.387C176.346 468.623 147.917 352.147 181.122 298.219C195.555 274.805 220.74 265.371 253.975 270.965L261.164 272.175C445.595 303.219 580.152 305.999 672.473 280.65C725.849 266.004 772.937 238.75 812.406 199.682C818.408 193.745 824.13 187.894 829.629 182.314C861.731 149.662 887.135 123.935 915.544 122.168C922.657 121.728 930.062 122.974 938.361 126.009C943.49 127.89 948.044 130.028 952.368 132.482C954.397 133.575 956.656 134.885 959.345 136.532C962.471 138.475 965.805 140.761 969.834 143.652C972.909 145.896 975.934 148.175 978.823 150.475C982.773 153.574 986.694 156.845 990.514 160.187C992.062 161.51 993.596 162.919 995.137 164.284C998.871 167.612 1002.73 171.227 1006.88 175.244C1008.67 176.962 1010.49 178.773 1012.36 180.591L1015.25 183.423C1030.36 198.313 1043.95 213.035 1056.8 228.517C1095.59 275.536 1135.73 313.224 1169.88 343.886C1202.88 373.47 1235.33 399.286 1263.99 422.033C1318.46 465.32 1365.56 502.718 1392.66 547.415C1423.48 598.625 1427.03 654.624 1403.77 723.635C1387.74 771.251 1363.5 790.58 1327.5 784.566C1287.47 777.826 1237.97 740.467 1180.62 697.226L1179.08 696.083C1148.09 672.722 1116.03 648.563 1081.95 627.206C1041.27 600.888 1003.81 585.114 967.305 578.969C918.873 570.817 871.978 580.358 827.855 607.359C759.056 649.455 687.609 677.034 615.512 689.281C555.173 699.525 492.518 699.333 429.276 688.688L429.312 688.739ZM253.707 272.557C221.203 267.086 196.601 276.22 182.535 299.032C149.596 352.43 178.026 468.109 247.211 562.327C294.494 626.751 357.304 670.733 423.998 686.118C425.806 686.423 427.701 686.742 429.595 687.06C569.381 710.589 699.397 684.063 827.024 605.98C871.492 578.772 918.753 569.159 967.573 577.377C1004.3 583.558 1041.96 599.411 1082.8 625.845C1116.92 647.209 1149.02 671.375 1180.05 694.786L1181.59 695.929C1238.74 739.048 1288.09 776.249 1327.74 782.923C1362.78 788.822 1386.44 769.793 1402.13 723.095C1425.22 654.585 1421.73 599.038 1391.18 548.273C1364.22 503.821 1317.25 466.487 1262.94 423.316C1234.27 400.569 1201.78 374.745 1168.74 345.111C1134.56 314.399 1094.34 276.653 1055.51 229.583C1042.74 214.159 1029.15 199.437 1014.07 184.597L1011.19 181.766C1009.32 179.948 1007.55 178.144 1005.75 176.426C1001.61 172.409 997.778 168.844 994.044 165.516C992.51 164.108 990.926 162.735 989.421 161.419C985.601 158.077 981.716 154.857 977.809 151.765C974.92 149.465 971.938 147.193 968.899 144.999C964.913 142.116 961.615 139.879 958.531 137.944C955.843 136.297 953.67 135.002 951.641 133.908C947.403 131.469 942.927 129.388 937.878 127.564C929.786 124.61 922.604 123.356 915.714 123.79C887.893 125.479 862.734 151.069 830.854 183.45C825.348 189.072 819.59 194.873 813.581 200.854C773.939 240.158 726.615 267.505 672.916 282.229C580.365 307.628 445.578 304.897 260.932 273.817L253.743 272.607L253.707 272.557Z" fill="white"/>
<path d="M442.28 703.223C433.756 701.789 425.088 700.153 416.551 698.273C348.511 680.36 284.42 633.994 236.085 567.668C164.33 469.255 135.003 348.646 169.359 293.141C184.619 268.495 211.411 258.977 246.935 265.709C260.969 268.337 274.974 270.871 288.578 273.161C453.549 300.929 583.316 301.398 674.283 274.627C728.595 258.634 775.101 230.884 816.504 189.796C822.937 183.401 829.033 177.169 834.913 171.167C867.361 138.042 892.966 111.907 921.733 110.643C929.047 110.325 936.638 111.78 945.059 115.144C950.201 117.204 954.863 119.494 959.28 122.184C961.417 123.429 963.74 124.882 966.328 126.601C969.554 128.737 973.024 131.268 976.938 134.316C979.956 136.639 982.995 139.097 986.02 141.642C989.898 144.906 993.826 148.399 997.767 152.071C999.301 153.48 1000.86 154.982 1002.43 156.484C1006.2 160.085 1010.19 164.03 1014.22 168.205C1016.11 170.159 1017.98 172.157 1019.95 174.169L1022.58 176.914C1037.52 192.571 1051.09 208.219 1064.08 224.698C1104.2 275.924 1145.88 316.039 1177.66 345.241C1213.02 377.698 1247.76 405.362 1278.45 429.777C1331.85 472.308 1377.99 509.059 1404.83 553.225C1435.88 604.65 1439.41 661.798 1415.97 733.169C1399.8 782.442 1375.48 802.553 1339.43 796.53C1299.74 789.849 1250.42 751.988 1193.38 708.18L1189.73 705.398C1159.59 682.225 1125.35 656.018 1089.22 633.431C1048.47 607.278 1010.96 591.54 974.457 585.395C924.044 576.909 875.21 587.452 829.376 616.731C704.667 696.411 574.439 725.513 442.359 703.281L442.28 703.223ZM243.868 266.83C210.504 261.214 185.19 270.627 170.764 293.997C136.761 348.986 166.053 468.749 237.443 566.701C285.571 632.683 349.339 678.862 416.998 696.667C425.5 698.496 434.117 700.168 442.598 701.595C574.291 723.762 704.11 694.725 828.474 615.252C874.66 585.722 923.86 575.108 974.704 583.666C1011.43 589.847 1049.15 605.622 1090.06 631.89C1126.23 654.485 1160.46 680.735 1190.69 703.922L1194.34 706.704C1251.22 750.396 1300.43 788.15 1339.69 794.759C1374.77 800.665 1398.51 780.897 1414.35 732.542C1437.66 661.68 1434.15 604.935 1403.37 553.954C1376.68 510.033 1330.65 473.39 1277.37 430.923C1246.68 406.508 1211.9 378.837 1176.51 346.329C1144.64 317.07 1102.93 276.904 1062.74 225.578C1049.78 209.149 1036.25 193.552 1021.35 177.902L1018.72 175.157C1016.76 173.102 1014.88 171.104 1012.99 169.193C1008.95 165.061 1005.01 161.123 1001.23 157.522C999.67 156.02 998.101 154.561 996.567 153.153C992.661 149.53 988.733 146.037 984.899 142.781C981.917 140.243 978.871 137.828 975.896 135.513C972.017 132.515 968.591 129.991 965.4 127.905C962.812 126.186 960.532 124.74 958.388 123.539C954.014 120.855 949.431 118.624 944.418 116.585C936.198 113.343 928.865 111.932 921.774 112.242C893.674 113.487 868.278 139.435 836.096 172.296C830.165 178.334 824.113 184.572 817.679 190.968C776.111 232.249 729.36 260.135 674.769 276.213C583.565 303.077 453.532 302.608 288.346 274.803C274.742 272.513 260.686 270.015 246.659 267.344C245.755 267.192 244.851 267.04 243.947 266.887L243.868 266.83Z" fill="white"/>
<path d="M450.806 717.536C437.073 715.224 423.139 712.259 409.429 708.757C340.468 688.432 275.419 639.869 226.282 571.991C152.315 469.888 122.091 345.145 157.554 288.056C172.85 263.461 199.391 253.591 234.349 259.475C236.028 259.758 237.707 260.04 239.414 260.416C261.025 264.85 282.485 268.861 303.192 272.346C459.209 298.607 584.665 297.333 676.094 268.604C730.551 251.485 777.806 222.445 820.567 179.86C827.382 173.042 833.858 166.388 840.112 160.006C872.87 126.358 898.762 99.8285 927.809 99.0093C935.323 98.8138 943.108 100.434 951.657 104.086C956.821 106.282 961.533 108.801 966.086 111.736C968.251 113.074 970.603 114.62 973.255 116.483C976.496 118.798 980.03 121.473 983.951 124.744C987.062 127.303 990.158 129.948 993.075 132.607C997.038 136.151 1001.01 139.917 1004.88 143.754C1006.43 145.299 1007.99 146.844 1009.58 148.44C1013.4 152.313 1017.38 156.523 1021.43 160.878C1023.49 163.127 1025.54 165.419 1027.66 167.768L1029.78 170.161C1044.44 186.435 1058 202.965 1071.23 220.635C1102.83 262.994 1139.09 302.949 1185.31 346.351C1222.85 381.61 1259.74 411.007 1292.25 436.924C1344.83 478.83 1390.22 515.056 1416.86 558.791C1448.1 610.425 1451.65 668.77 1428 742.451C1411.64 793.373 1387.22 814.309 1351.14 808.237C1311.75 801.606 1262.92 763.473 1206.43 719.315L1198.68 713.276C1164.75 686.811 1131.42 661.244 1096.36 639.412C1055.54 613.381 1017.94 597.714 981.388 591.562C928.995 582.743 878.307 594.301 830.754 625.902C706.788 708.274 578.968 739.108 450.806 717.536ZM234.038 261.06C199.812 255.299 173.802 264.904 158.916 288.905C123.805 345.478 153.952 469.367 227.597 571.018C276.519 638.594 341.253 686.926 409.877 707.151C423.501 710.639 437.391 713.596 451.081 715.9C578.813 737.401 706.216 706.673 829.83 624.551C877.736 592.7 928.832 581.078 981.656 589.969C1018.42 596.158 1056.2 611.854 1097.22 638.007C1132.36 659.897 1165.73 685.471 1199.65 711.979L1207.4 718.018C1263.69 762.054 1312.36 800.072 1351.33 806.63C1386.46 812.543 1410.28 791.994 1426.36 741.953C1449.83 668.774 1446.35 610.838 1415.39 559.649C1388.93 516.166 1343.57 480.033 1291.15 438.199C1258.6 412.232 1221.67 382.828 1184.1 347.518C1137.81 304.016 1101.47 264.003 1069.83 221.551C1056.6 203.924 1043.08 187.444 1028.51 171.184L1026.39 168.792C1024.26 166.442 1022.21 164.15 1020.15 161.901C1016.15 157.554 1012.21 153.351 1008.39 149.478C1006.8 147.882 1005.24 146.337 1003.73 144.8C999.859 140.962 995.881 137.239 991.961 133.703C989.037 131.087 985.983 128.449 982.872 125.89C978.944 122.662 975.461 119.951 972.256 117.686C969.646 115.831 967.338 114.292 965.172 112.954C960.662 110.026 956.03 107.565 950.945 105.426C942.646 101.861 935.12 100.284 927.828 100.473C899.449 101.272 873.765 127.615 841.23 160.991C834.969 167.416 828.5 174.026 821.678 180.888C778.708 223.659 731.259 252.799 676.523 270.004C584.856 298.825 459.135 300.099 302.903 273.802C282.152 270.309 260.692 266.299 239.039 261.857C237.324 261.525 235.695 261.206 234.016 260.924L234.038 261.06Z" fill="white"/>
<path d="M456.554 731.779C438.473 728.735 420.235 724.515 402.308 719.241C332.432 696.46 266.467 645.708 216.435 576.308C140.22 470.463 109.184 341.601 145.712 282.921C162.455 256.047 192.376 246.348 231.858 255.073C259.222 261.095 286.264 266.399 312.223 270.769C462.729 296.102 585.69 293.346 677.819 262.566C732.421 244.321 780.417 214.034 824.58 169.959C831.819 162.726 838.626 155.685 845.211 148.917C878.321 114.752 904.508 87.7859 933.877 87.4191C941.643 87.3102 949.563 89.1744 958.198 93.106C963.34 95.4318 968.109 98.1373 972.877 101.374C975.107 102.855 977.487 104.495 980.118 106.487C983.501 109.003 987.042 111.9 990.941 115.3C994.031 117.988 997.098 120.806 1000.16 123.666C1004.09 127.425 1008.11 131.377 1012.02 135.53C1013.56 137.162 1015.14 138.8 1016.71 140.524C1020.54 144.62 1024.52 149.096 1028.57 153.716C1030.87 156.36 1033.23 159.147 1035.63 161.985L1036.97 163.537C1051.37 180.52 1064.91 197.933 1078.35 216.702C1110.54 261.902 1146.97 303.479 1192.93 347.634C1232.5 385.579 1271.41 416.601 1305.64 443.956C1357.55 485.351 1402.4 521.088 1428.87 564.529C1460.34 616.378 1463.9 675.922 1440.05 751.912C1423.54 804.449 1399.04 826.123 1362.92 820.044C1324.01 813.493 1275.93 775.354 1220.27 731.247C1216.09 727.933 1211.91 724.619 1207.65 721.247C1177.04 696.89 1141.2 668.908 1103.49 645.479C1062.57 619.519 1024.86 603.924 988.268 597.765C933.163 588.489 882.058 600.685 832.125 635.116C708.427 720.365 582.055 752.859 456.518 731.728L456.554 731.779ZM224.257 255.254C189.128 249.341 162.457 259.189 147.161 283.785C110.942 341.941 141.98 470.007 217.836 575.349C267.603 644.483 333.338 695.02 402.842 717.649C420.683 722.909 438.841 727.071 456.837 730.1C581.943 751.158 707.906 718.728 831.244 633.773C880.869 599.6 933.783 586.912 988.587 596.137C1025.4 602.332 1063.31 618.007 1104.44 644.046C1142.23 667.533 1178.07 695.514 1208.76 719.929C1213.02 723.301 1217.2 726.615 1221.38 729.929C1276.84 773.913 1324.81 811.901 1363.29 818.38C1398.47 824.3 1422.37 803.012 1438.59 751.357C1462.28 675.869 1458.77 616.734 1427.54 565.323C1401.25 522.134 1356.48 486.454 1304.72 445.174C1270.42 417.804 1231.51 386.74 1191.9 348.744C1145.82 304.525 1109.36 262.854 1077.09 217.596C1063.7 198.835 1050.19 181.473 1035.82 164.539L1034.49 162.987C1032.09 160.15 1029.76 157.412 1027.47 154.725C1023.43 150.063 1019.47 145.68 1015.65 141.584C1014.07 139.903 1012.49 138.222 1010.95 136.633C1007.03 132.523 1003.05 128.578 999.123 124.819C996.106 121.966 993.038 119.149 989.985 116.511C986.129 113.118 982.581 110.264 979.24 107.755C976.645 105.814 974.272 104.131 972.078 102.699C967.389 99.5207 962.7 96.8727 957.643 94.5614C949.209 90.7521 941.547 88.9314 934.047 89.0407C905.345 89.3871 879.409 116.174 846.53 150.024C839.938 156.835 833.138 163.833 825.892 171.109C781.563 215.378 733.366 245.808 678.491 264.096C586.126 294.968 462.856 297.717 312.135 272.347C286.132 267.97 259.04 262.702 231.683 256.637C229.208 256.087 226.761 255.631 224.394 255.233L224.257 255.254Z" fill="white"/>
<path d="M460.357 746.004C438.573 742.337 416.649 736.877 395.172 729.81C324.409 704.668 257.443 651.712 206.617 580.718C128.19 471.182 96.2204 338.136 133.899 277.88C151.404 249.895 182.797 240.133 224.322 249.866C256.435 257.396 288.033 263.776 318.254 268.863C465.144 293.588 586.65 289.481 679.571 256.622C735.065 237.022 782.416 206.361 828.578 160.145C836.197 152.488 843.379 145.068 850.294 137.913C883.756 103.232 910.239 75.8291 939.93 75.9149C947.853 75.921 955.96 77.9936 964.731 82.1693C969.809 84.617 974.842 87.5884 979.624 91.0041C981.925 92.5862 984.327 94.3622 986.943 96.4399C990.384 99.1432 993.939 102.22 997.888 105.849C1000.96 108.667 1004.04 111.62 1007.15 114.753C1011.12 118.742 1015.15 122.96 1019.11 127.299C1020.64 129.017 1022.24 130.791 1023.85 132.566C1027.72 136.934 1031.71 141.633 1035.76 146.518C1038.51 149.858 1041.26 153.285 1044.15 156.87C1058.09 174.262 1072.01 193.067 1085.48 212.768C1118.22 260.76 1154.81 304.002 1200.6 348.881C1242.07 389.491 1282.9 422.029 1318.84 450.736C1370.2 491.685 1414.58 527.078 1440.96 570.238C1472.7 622.353 1476.24 683.088 1452.17 761.388C1435.52 815.624 1410.85 838.066 1374.6 831.965C1335.77 825.428 1287.86 786.787 1232.44 742.014C1227.26 737.823 1221.99 733.618 1216.7 729.319C1183.53 702.54 1147.73 674.565 1110.73 651.611C1069.66 625.758 1031.86 610.191 995.184 604.017C938.098 594.409 885.226 607.635 833.61 644.437C709.807 732.678 584.257 766.859 460.443 746.018L460.357 746.004ZM214.426 249.484C178.392 243.419 151.018 253.502 135.312 278.693C97.9855 338.433 129.913 470.675 207.982 579.709C258.629 650.451 325.28 703.177 395.705 728.218C417.053 735.263 438.891 740.709 460.632 744.369C584.016 765.137 709.157 731.02 832.6 643.072C884.619 605.984 937.857 592.687 995.416 602.375C1032.31 608.585 1070.32 624.231 1111.59 650.206C1148.67 673.175 1184.51 701.2 1217.71 728.029C1223.01 732.285 1228.28 736.534 1233.46 740.725C1288.68 785.333 1336.47 823.866 1374.87 830.33C1410.13 836.264 1434.21 814.209 1450.58 760.854C1474.83 682.009 1471.41 623.463 1439.54 571.061C1413.3 528.144 1369.04 492.817 1317.83 451.982C1281.85 423.269 1240.98 390.68 1199.48 350.019C1153.61 305.083 1116.99 261.748 1084.18 213.655C1070.75 194.004 1056.87 175.207 1042.92 157.901C1040.06 154.323 1037.28 150.889 1034.52 147.549C1030.52 142.671 1026.52 138.015 1022.65 133.647C1021.05 131.829 1019.48 130.105 1017.96 128.388C1014.04 124.055 1010.05 119.845 1006.07 115.899C1003 112.817 999.87 109.856 996.846 107.045C992.933 103.466 989.378 100.39 985.973 97.7368C983.356 95.6591 980.998 93.8903 978.689 92.3512C973.943 88.9858 969.038 86.0362 963.997 83.6387C955.434 79.5423 947.578 77.5563 939.884 77.5003C910.896 77.4444 884.63 104.619 851.441 138.991C844.525 146.146 837.344 153.567 829.717 161.266C783.347 207.668 735.802 238.43 680.071 258.122C586.92 291.031 465.048 295.209 317.943 270.448C287.679 265.354 256.038 258.966 223.882 251.43C220.646 250.664 217.432 250.034 214.332 249.512L214.426 249.484Z" fill="white"/>
<path d="M462.884 760.191C437.785 755.967 412.618 749.252 388.051 740.294C296.239 705.015 233.417 636.383 196.822 584.999C116.147 471.721 83.3295 334.505 122.116 272.666C140.34 243.563 173.298 233.711 216.817 244.487C253.076 253.423 288.612 260.865 322.45 266.56C466.843 290.865 587.59 285.479 681.39 250.556C754.458 223.338 802.703 180.26 832.685 150.215C840.678 142.18 848.14 134.408 855.378 126.909C889.244 91.6771 916.021 63.8366 946.092 64.296C954.295 64.482 962.552 66.7127 971.409 71.1683C976.508 73.7523 981.599 76.9103 986.552 80.6204C988.954 82.3965 991.463 84.3233 993.986 86.4295C997.405 89.2619 1001.02 92.525 1005.06 96.3914C1008.14 99.3882 1011.29 102.528 1014.41 105.798C1018.32 109.908 1022.35 114.391 1026.43 119.061C1027.99 120.872 1029.58 122.733 1031.16 124.636C1034.97 129.127 1038.96 134.048 1043.07 139.342C1045.8 142.854 1048.6 146.468 1051.47 150.225C1065.11 168.096 1078.96 187.82 1092.74 208.813C1125.48 258.885 1163.3 305.121 1208.36 350.142C1251.64 393.359 1294.26 427.35 1331.85 457.35C1382.79 497.919 1426.78 533.024 1453.1 575.998C1485.47 629.061 1488.94 689.207 1464.3 770.863C1447.45 826.793 1422.65 850.009 1386.27 843.886C1347.48 837.357 1299.68 798.114 1244.37 752.695C1238.27 747.641 1232.04 742.566 1225.73 737.433C1192.28 709.986 1156.02 681.358 1117.92 657.821C1076.66 632.025 1038.73 616.48 1001.96 610.292C942.941 600.357 888.353 614.577 835.003 653.787C710.815 745.105 585.607 780.937 462.912 760.284L462.884 760.191ZM204.696 243.642C167.759 237.425 139.716 247.794 123.557 273.572C85.1231 334.896 117.899 471.308 198.215 584.083C234.624 635.259 297.268 703.64 388.656 738.803C413.094 747.739 438.139 754.389 463.152 758.599C585.416 779.179 710.165 743.446 834 652.379C887.709 612.876 942.714 598.549 1002.21 608.563C1039.19 614.788 1077.33 630.412 1118.75 656.323C1156.92 679.918 1193.22 708.596 1226.72 736.05C1233.03 741.183 1239.25 746.301 1245.35 751.355C1300.51 796.616 1348.11 835.737 1386.47 842.193C1421.9 848.157 1446.11 825.327 1462.67 770.323C1487.14 689.125 1483.73 629.431 1451.59 576.806C1425.45 534.04 1381.53 499.079 1330.71 458.575C1293.08 428.567 1250.42 394.57 1207.11 351.259C1161.98 306.137 1124.08 259.844 1091.27 209.671C1077.53 188.728 1063.66 169.048 1050.07 151.183C1047.2 147.427 1044.41 143.77 1041.67 140.301C1037.55 135.05 1033.56 130.129 1029.8 125.646C1028.21 123.742 1026.62 121.881 1025.06 120.114C1021.02 115.451 1016.99 111.011 1013.12 106.908C1010.04 103.646 1006.89 100.505 1003.8 97.5515C999.838 93.7426 996.226 90.4795 992.85 87.6544C990.363 85.5984 987.904 83.6358 985.495 81.9028C980.62 78.2502 975.608 75.1498 970.588 72.6232C961.94 68.2469 953.941 66.0597 945.996 65.9172C916.628 65.4876 891.411 91.6879 856.518 128.03C849.279 135.529 841.817 143.301 833.817 151.38C803.771 181.546 755.317 224.81 681.926 252.106C587.889 287.122 466.826 292.543 322.132 268.188C288.251 262.485 252.671 255.036 216.412 246.101C212.416 245.119 208.442 244.273 204.653 243.635L204.696 243.642Z" fill="white"/>
<path d="M464.313 774.327C436.2 769.595 408.179 761.692 380.931 750.778C288.413 712.593 224.431 641.907 187.019 589.323C104.277 472.024 70.626 330.553 110.441 267.338C129.363 237.246 163.82 227.425 209.262 239.145C249.272 249.464 288.28 257.844 325.261 264.069C468.018 288.098 588.437 281.506 683.123 244.475C755.489 216.166 803.202 173.884 836.67 140.222C845.044 131.763 852.88 123.612 860.406 115.719C895.968 78.5602 921.689 51.7366 952.089 52.6055C960.5 52.8708 968.901 55.3025 977.879 60.0883C982.956 62.8015 988.147 66.1533 993.237 70.1076C995.667 71.977 998.197 74.0402 1000.74 76.2827C1004.3 79.3592 1007.97 82.8089 1011.9 86.7899C1015 89.923 1018.2 93.293 1021.29 96.7346C1025.21 101.067 1029.29 105.78 1033.37 110.716C1034.96 112.619 1036.53 114.566 1038.14 116.563C1042.06 121.427 1046.06 126.613 1050.11 132.029C1052.86 135.678 1055.66 139.514 1058.54 143.493C1071.83 161.795 1085.68 182.4 1099.75 204.771C1132.93 257.528 1170.9 305.471 1215.87 351.274C1260.85 397.077 1305.19 432.419 1344.38 463.62C1395.02 503.916 1438.75 538.712 1465 581.585C1497.7 635.058 1501.2 696.316 1476.24 780.174C1459.28 837.811 1434.34 861.802 1397.79 855.65C1358.92 849.106 1311.14 809.203 1255.79 762.981C1248.84 757.165 1241.78 751.242 1234.59 745.297C1200.76 717.211 1164.04 687.886 1124.98 663.744C1083.54 638.006 1045.52 622.446 1008.62 616.236C947.706 605.982 891.351 621.233 836.303 662.901C711.493 757.388 586.319 794.863 464.27 774.319L464.313 774.327ZM194.845 237.736C157.089 231.381 128.401 241.907 111.846 268.194C72.3767 330.936 105.993 471.561 188.377 588.356C225.646 640.739 289.441 711.217 381.543 749.243C408.627 760.086 436.562 767.974 464.545 772.684C586.164 793.155 710.929 755.744 835.38 661.55C890.779 619.632 947.551 604.275 1008.94 614.608C1046.05 620.855 1084.29 636.451 1125.89 662.304C1165.07 686.467 1201.83 715.842 1235.7 743.979C1242.89 749.924 1249.95 755.847 1256.9 761.662C1312.05 807.719 1359.68 847.508 1398.12 853.979C1433.72 859.971 1458.07 836.324 1474.73 779.655C1499.53 696.255 1496.13 635.457 1463.67 582.379C1437.55 539.75 1393.95 505.019 1343.43 464.831C1304.23 433.63 1259.81 398.23 1214.76 352.37C1169.71 306.466 1131.62 258.458 1098.42 205.608C1084.38 183.288 1070.53 162.725 1057.27 144.431C1054.39 140.495 1051.63 136.666 1048.88 133.017C1044.87 127.651 1040.83 122.458 1036.95 117.602C1035.34 115.604 1033.76 113.658 1032.22 111.761C1028.14 106.826 1024.1 102.163 1020.18 97.8304C1017.08 94.3888 1013.92 91.0691 1010.82 87.936C1006.89 83.9549 1003.25 80.5555 999.742 77.4863C997.191 75.2867 994.703 73.2308 992.309 71.4117C987.255 67.5077 982.193 64.1776 977.195 61.522C968.417 56.8585 960.268 54.5132 952.123 54.2484C922.433 53.3663 896.964 80.011 861.675 116.862C854.105 124.748 846.313 132.906 837.896 141.357C804.32 175.134 756.456 217.524 683.802 245.961C588.829 283.121 468.137 289.755 325.079 265.675C288.012 259.436 248.961 251.049 208.915 240.679C204.122 239.43 199.423 238.418 194.903 237.657L194.845 237.736Z" fill="white"/>
<path d="M465.193 788.547C434.24 783.337 403.507 774.182 373.8 761.304C279.996 719.982 215.098 647.372 177.207 593.69C92.1876 472.822 57.6391 327.217 98.5906 262.246C118.282 231 154.218 221.074 201.782 233.859C245.235 245.554 287.451 254.873 327.316 261.583C468.996 285.431 589.345 277.677 684.967 238.502C757.479 208.802 806.314 165.115 840.803 130.386C849.601 121.512 857.717 113.01 865.575 104.73C901.539 67.0193 927.512 39.7513 958.278 41.08C966.846 41.4603 975.476 44.1077 984.547 49.1304C989.646 51.9799 994.894 55.5184 1000.16 59.7671C1002.65 61.78 1005.21 63.9365 1007.74 66.2651C1011.43 69.5858 1015.23 73.3226 1019.02 77.368C1022.11 80.5872 1025.32 84.1365 1028.5 87.815C1032.4 92.2766 1036.48 97.2551 1040.64 102.513C1042.21 104.503 1043.81 106.543 1045.45 108.677C1049.34 113.712 1053.37 119.172 1057.42 124.853C1060.22 128.732 1063.08 132.797 1065.85 136.848C1078.47 154.991 1092.33 176.529 1107.01 200.816C1140.71 256.536 1178.88 306.195 1223.63 352.492C1270.32 401.017 1316.47 437.725 1357.28 470.127C1407.58 510.056 1450.95 544.572 1477.19 587.266C1510.08 640.947 1513.56 703.353 1488.47 789.578C1471.31 848.908 1446.15 873.702 1409.43 867.521C1370.55 860.977 1322.79 820.457 1267.52 773.496C1259.74 766.876 1251.75 760.133 1243.69 753.333C1211.15 725.952 1172.47 694.615 1132.23 669.876C1090.68 644.209 1052.52 628.714 1015.54 622.489C952.727 611.917 894.604 628.197 837.787 672.222C712.513 769.995 587.149 809.119 465.229 788.598L465.193 788.547ZM185.12 231.851C146.418 225.337 116.975 236.134 99.996 263.102C59.3538 327.55 93.8678 472.308 178.565 592.723C216.356 646.212 281.017 718.649 374.456 759.777C404.034 772.633 434.687 781.731 465.468 786.912C586.915 807.354 711.87 768.293 836.778 670.857C893.953 626.539 952.536 610.159 1015.82 620.811C1053.02 627.072 1091.39 642.647 1133.09 668.428C1173.41 693.225 1212.17 724.619 1244.74 752.05C1252.82 758.808 1260.75 765.586 1268.58 772.214C1323.65 819.009 1371.26 859.414 1409.71 865.886C1445.44 871.9 1469.99 847.535 1486.9 789.138C1511.88 703.379 1508.45 641.382 1475.8 588.139C1449.74 545.696 1406.44 511.281 1356.26 471.417C1315.46 438.972 1269.23 402.249 1222.47 353.624C1177.6 307.218 1139.39 257.51 1105.63 201.646C1090.94 177.402 1077.12 155.914 1064.54 137.778C1061.77 133.727 1058.91 129.705 1056.11 125.826C1052.06 120.145 1048.01 114.729 1044.13 109.65C1042.53 107.567 1040.93 105.527 1039.36 103.537C1035.24 98.2861 1031.15 93.3937 1027.25 88.9321C1024.07 85.2536 1020.89 81.7545 1017.8 78.5353C1014.01 74.533 1010.24 70.8464 1006.6 67.533C1004.06 65.2474 1001.55 63.0551 999.048 61.0852C993.901 56.9443 988.739 53.4204 983.677 50.6212C974.806 45.7207 966.435 43.1168 958.124 42.78C928.105 41.4885 902.355 68.4841 866.707 105.894C858.85 114.174 850.683 122.712 841.892 131.543C807.296 166.386 758.303 210.224 685.51 240.01C589.601 279.313 468.936 287.102 326.954 263.203C287.046 256.486 244.788 247.16 201.292 235.458C195.746 233.95 190.279 232.764 185.07 231.887L185.12 231.851Z" fill="white"/>
<path d="M464.994 802.629C352.373 783.673 246.71 711.016 167.406 598.013C80.0738 473.526 44.6275 323.787 86.7442 257.154C107.205 224.754 144.706 214.738 194.264 228.566C240.945 241.601 286.151 251.821 328.642 258.973C660.737 314.872 787.042 181.784 870.661 93.7265C906.956 55.3633 933.216 27.7013 964.348 29.4897C973.117 29.9923 981.89 32.8408 991.133 38.1579C996.26 41.1007 1001.56 44.8688 1006.95 49.4047C1009.43 51.5037 1012.01 53.7966 1014.65 56.276C1018.35 59.776 1022.21 63.6995 1026.05 67.9315C1029.19 71.3803 1032.42 75.066 1035.63 78.9239C1039.57 83.6582 1043.66 88.816 1047.82 94.2969C1049.42 96.38 1051.01 98.5062 1052.63 100.726C1056.56 106.034 1060.6 111.758 1064.65 117.662C1067.43 121.67 1070.23 125.857 1073.08 130.188C1085.61 149.113 1099.42 171.526 1114.19 196.847C1197.22 339.283 1292.71 415.051 1369.36 475.923C1479.03 562.927 1551.52 620.398 1500.56 799.004C1483.12 860.011 1457.8 885.53 1420.9 879.32C1381.99 872.769 1334.24 831.589 1278.97 783.874C1270.39 776.456 1261.61 768.916 1252.67 761.261C1186.11 704.567 1107.87 642.853 1022.07 628.411C957.364 617.52 897.56 634.845 839.211 681.4C712.697 782.327 586.793 823.087 465.037 802.637L464.994 802.629ZM175.357 225.959C135.707 219.285 105.553 230.361 88.1065 258.002C46.335 324.163 81.7396 473.098 168.721 597.04C247.774 709.69 353.079 782.11 465.226 800.987C586.544 821.407 711.989 780.748 838.143 680.114C896.852 633.266 957.122 615.798 1022.3 626.769C1108.49 641.276 1186.97 703.162 1253.68 760.014C1262.62 767.626 1271.39 775.21 1279.97 782.628C1335.06 830.134 1382.61 871.192 1421.09 877.67C1457.04 883.721 1481.78 858.546 1498.88 798.499C1549.56 620.998 1477.43 563.764 1368.23 477.104C1291.45 416.168 1195.85 340.293 1112.65 197.561C1097.91 172.291 1084.11 149.878 1071.62 131.003C1068.76 126.673 1065.92 122.521 1063.18 118.521C1059.13 112.617 1055.08 106.935 1051.19 101.634C1049.57 99.4149 1047.98 97.2887 1046.39 95.2055C1042.26 89.732 1038.16 84.6172 1034.22 79.8829C1031.06 76.0753 1027.87 72.3968 1024.72 68.991C1020.87 64.8021 1017.06 60.8858 1013.4 57.3931C1010.79 54.9639 1008.26 52.6783 1005.77 50.6223C1000.45 46.187 995.232 42.4764 990.191 39.5481C981.192 34.3605 972.67 31.5985 964.166 31.0964C933.824 29.3523 907.779 56.7851 871.721 94.79C830.12 138.632 778.297 193.233 694.218 230.899C594.712 275.526 474.963 285.24 328.245 260.544C285.711 253.385 240.461 243.157 193.695 230.108C187.396 228.34 181.168 226.937 175.27 225.945L175.357 225.959Z" fill="white"/>
</g>
<defs>
<clipPath id="clip0_370_476">
<rect width="845.606" height="1495.28" fill="white" transform="translate(1614.94 138.689) rotate(99.5546)"/>
</clipPath>
</defs>
</svg>
