<svg width="65" height="49" viewBox="0 0 65 49" fill="none" xmlns="http://www.w3.org/2000/svg">
<path d="M64.9987 16.4908C64.6046 16.9595 64.2499 17.4764 63.8023 17.881C63.4718 18.1802 63.0573 18.0733 62.8437 17.638C62.4877 16.9114 61.8723 16.7178 61.173 16.6243C56.629 16.014 52.0875 15.3943 47.5434 14.78C42.6027 14.1109 37.662 13.4418 32.72 12.7807C31.6888 12.6431 30.7378 13.4177 30.5102 14.5396C30.3119 15.5172 30.9412 16.6697 31.9304 16.8914C33.0836 17.1492 34.2647 17.268 35.4357 17.4283C38.9308 17.9091 42.426 18.3832 45.9224 18.8533C49.3768 19.318 52.8313 19.7748 56.2857 20.2369C56.9354 20.3237 57.5838 20.4145 58.2322 20.508C58.751 20.5828 58.915 20.9153 58.9125 21.4402C58.8972 23.593 58.9061 25.7472 58.9061 27.9001C58.9061 33.3837 58.9061 38.8673 58.9061 44.3509C58.9061 45.9068 58.1458 46.8577 56.8973 46.8657C55.636 46.875 54.8503 45.8934 54.8503 44.3095C54.8503 37.1832 54.8503 30.0569 54.8503 22.9306C54.8503 22.6662 54.8503 22.4004 54.8503 22.0238C54.5833 22.132 54.3773 22.2081 54.1764 22.2989C47.4226 25.3719 40.6651 28.4329 33.9227 31.5353C32.9348 31.9894 32.069 31.9747 31.0811 31.522C21.2581 27.0213 11.4212 22.5553 1.58674 18.0814C0.240304 17.4684 -0.306406 16.3425 0.164019 15.1365C0.423388 14.4715 0.939584 14.1216 1.54097 13.8478C10.7397 9.67163 19.9346 5.4888 29.1295 1.30731C29.8656 0.972093 30.6145 0.667596 31.3316 0.292316C32.1593 -0.14039 32.9259 -0.0602594 33.7562 0.320362C40.5595 3.43478 47.3743 6.52382 54.1853 9.62088C57.2037 10.9938 60.2182 12.3774 63.2454 13.7276C64.0401 14.0815 64.6745 14.5623 64.9975 15.4264V16.4921L64.9987 16.4908Z" fill="#2A2560"/>
<path d="M30.0991 48.9998C29.1634 48.8649 28.2251 48.7487 27.2918 48.5924C23.0618 47.8833 19.0874 46.509 15.7639 43.5375C13.9458 41.9122 12.6514 39.9276 12.2802 37.3875C12.2255 37.0162 12.2115 36.6369 12.2103 36.2616C12.2039 33.843 12.2052 31.4231 12.2052 29.0031C12.2052 27.904 12.5243 27.6783 13.4741 28.111C18.8712 30.5643 24.2773 32.9976 29.6605 35.4857C31.5803 36.3738 33.4264 36.3832 35.3437 35.4991C40.7129 33.023 46.0987 30.591 51.4793 28.1417C52.5155 27.6703 52.813 27.8759 52.813 29.0686C52.813 31.1987 52.7482 33.3328 52.8283 35.4603C52.9567 38.8752 51.5467 41.4955 49.159 43.627C46.2843 46.1938 42.8654 47.5387 39.2216 48.3093C37.9425 48.5804 36.6329 48.6913 35.3386 48.8809C35.1975 48.9009 35.0615 48.961 34.9229 49.0011H30.1004L30.0991 48.9998Z" fill="#2A2560"/>
</svg>
