<svg width="1649" height="276" viewBox="0 0 1649 276" fill="none" xmlns="http://www.w3.org/2000/svg">
<path fill-rule="evenodd" clip-rule="evenodd" d="M0 238.51C40.8926 246.641 142.467 242.169 221.629 159.233C222.518 158.554 223.475 157.812 224.504 157.014C253.293 134.707 338.096 68.9998 543.566 141.615C591.01 159.233 816.705 238.51 1040.37 174.14C1046.13 171.497 1055.76 167.768 1068.21 162.941C1126.02 140.544 1244.81 94.5129 1322.32 23.7156C1334.17 18.3005 1381.35 0.0385742 1442.77 0C1442.89 0 1443.03 0 1443.15 0C1504.63 0.0385742 1580.28 18.3662 1649 86.0535V276H0V238.51Z" fill="white"/>
</svg>
