<svg width="36" height="28" viewBox="0 0 36 28" fill="none" xmlns="http://www.w3.org/2000/svg">
<path d="M13.0236 0C4.87069 3.77528 0 10.8015 0 18.5618C0 24.015 3.38833 28 8.04714 28C12.0707 28 15.247 25.0637 15.247 21.1835C15.247 18.2472 13.3412 15.8352 10.4824 15.1011C7.20004 14.367 7.09424 14.2622 7.09424 12.5843C7.09424 8.91386 9.84712 5.45318 15.1412 2.51685L13.0236 0ZM33.7764 0C25.6235 3.77528 20.753 10.8015 20.753 18.5618C20.753 24.015 24.1411 28 28.7999 28C32.8235 28 36 25.0637 36 21.1835C36 18.2472 34.0942 15.8352 31.2353 15.1011C27.953 14.367 27.847 14.2622 27.847 12.5843C27.847 8.91386 30.5999 5.45318 35.894 2.51685L33.7764 0Z" fill="#c30001"/>
</svg>
