<svg width="13" height="20" viewBox="0 0 13 20" fill="none" xmlns="http://www.w3.org/2000/svg">
<g clip-path="url(#clip0_576_9526)">
<path d="M6.91697 0.899902C6.86707 0.905128 6.81716 0.910353 6.76408 0.915578C7.81839 1.00755 8.67946 1.45484 9.31969 2.27836C9.95993 3.10083 10.1903 4.03513 9.99603 5.05721C9.6499 6.88401 7.97553 8.03568 6.24913 7.90714C4.38046 7.76814 3.00338 6.28936 2.9418 4.52527C2.90888 3.58575 3.22316 2.75805 3.86021 2.06412C4.49725 1.37019 5.29993 0.986644 6.24701 0.916624C6.21197 0.911398 6.17162 0.905128 6.13234 0.899902C6.39353 0.899902 6.65578 0.899902 6.91697 0.899902ZM3.80499 4.39359C3.7965 5.85356 4.98247 7.04599 6.44768 7.0669C7.98508 7.0878 9.21989 5.88282 9.19972 4.36642C9.18061 2.96079 8.03074 1.76836 6.52731 1.75268C4.97504 1.73701 3.80181 2.99423 3.80499 4.39359Z" fill="black"/>
<path d="M9.17882 16.5051C9.20111 16.6232 9.22341 16.735 9.24465 16.8469C9.32322 17.2743 9.39966 17.7028 9.47929 18.1302C9.50159 18.2514 9.53026 18.3706 9.51645 18.4949C9.48248 18.8001 9.21916 19.0562 8.90913 19.0917C8.75943 19.1084 8.62459 19.0802 8.49293 19.0102C7.8803 18.6841 7.26555 18.3601 6.65187 18.0362C6.63063 18.0247 6.60621 18.0184 6.58816 18.0038C6.52764 17.9546 6.47456 17.9693 6.40979 18.0038C5.84494 18.3058 5.27797 18.6036 4.71206 18.9025C4.6303 18.9454 4.54855 18.9914 4.46467 19.03C3.99432 19.2432 3.57705 18.9307 3.49212 18.5409C3.46663 18.4249 3.48787 18.311 3.5091 18.1971C3.5898 17.7592 3.66943 17.3213 3.75012 16.8834C3.77135 16.7685 3.79471 16.6535 3.81701 16.5396C3.81913 16.5312 3.81913 16.5229 3.82019 16.5051H3.7618C2.94532 16.5051 2.12883 16.5051 1.31235 16.5051C0.691233 16.5051 0.152928 16.0798 0.0308276 15.4789C0.00216048 15.3409 0.00322223 15.1967 0.00322223 15.0546C0.00109874 13.9426 0.00534572 12.8317 3.69943e-05 11.7197C-0.00208649 11.2066 0.0871 10.7133 0.295202 10.242C0.447031 9.8992 0.649825 9.58776 0.903582 9.30873C1.41534 8.74543 2.05027 8.38697 2.79561 8.21349C3.05149 8.15392 3.31162 8.12988 3.57387 8.12988C5.52005 8.12988 7.46516 8.12988 9.41134 8.12988C9.96132 8.12988 10.4837 8.24693 10.9806 8.4758C11.3766 8.65765 11.7185 8.91369 12.019 9.22408C12.4862 9.70481 12.7877 10.2744 12.93 10.9244C12.9777 11.1428 13 11.3644 13 11.5891C12.9979 12.8139 12.9979 14.0387 13 15.2636C13 15.7558 12.6497 16.2554 12.1506 16.4247C11.9988 16.4759 11.8438 16.5051 11.6824 16.5051C10.8691 16.5051 10.0558 16.5051 9.24252 16.5051C9.22341 16.5051 9.2043 16.5051 9.17988 16.5051H9.17882ZM9.57379 15.6492C9.59184 15.6513 9.59715 15.6523 9.60245 15.6523C10.3075 15.6523 11.0125 15.6534 11.7185 15.6523C11.8438 15.6523 11.951 15.598 12.036 15.506C12.1283 15.4067 12.1443 15.2866 12.1443 15.1591C12.1432 14.0398 12.1432 12.9195 12.1421 11.8002C12.1421 11.6863 12.1443 11.5724 12.1368 11.4585C12.1135 11.0697 11.9935 10.707 11.8088 10.3653C11.5561 9.89606 11.1749 9.55014 10.7088 9.2941C10.3128 9.07672 9.88276 8.98685 9.43151 8.9858C8.53222 8.9858 7.63292 8.9858 6.73362 8.9858C5.65276 8.9858 4.57191 8.9858 3.48999 8.98684C3.09396 8.98684 2.71916 9.0809 2.3656 9.25438C1.79651 9.53551 1.375 9.95877 1.10531 10.5304C0.939681 10.8826 0.856865 11.2515 0.857927 11.6392C0.857927 12.283 0.857927 12.9278 0.857927 13.5716C0.857927 14.1213 0.86005 14.671 0.857927 15.2197C0.856865 15.4621 1.0501 15.6534 1.30704 15.6534C1.99293 15.6534 2.67882 15.6534 3.36364 15.6534H3.41036C3.27552 15.5102 3.13855 15.3785 3.00053 15.2469C2.74889 15.0086 2.49514 14.7734 2.24669 14.532C2.0715 14.3617 2.00673 14.1495 2.0577 13.9133C2.1214 13.6207 2.3656 13.4169 2.67457 13.3783C2.99522 13.3385 3.3148 13.2957 3.63439 13.2518C4.01662 13.1995 4.39884 13.1442 4.78107 13.095C4.85646 13.0856 4.89893 13.0606 4.9329 12.9884C5.18029 12.4722 5.43405 11.959 5.68674 11.4459C5.75363 11.3101 5.81946 11.1742 5.89272 11.0415C6.04667 10.7624 6.33971 10.6276 6.64868 10.6966C6.85785 10.7436 7.01498 10.8669 7.1116 11.0561C7.29316 11.4125 7.46941 11.773 7.64566 12.1315C7.79643 12.4377 7.94401 12.7449 8.09478 13.0501C8.10221 13.0658 8.12769 13.0815 8.1468 13.0835C8.30606 13.1065 8.46426 13.1274 8.62353 13.1483C8.77642 13.1682 8.93037 13.186 9.08326 13.2069C9.26057 13.2309 9.43682 13.256 9.61413 13.28C9.86789 13.3156 10.1238 13.3459 10.3765 13.3887C10.6621 13.4368 10.8511 13.6061 10.9307 13.8788C11.005 14.1349 10.9286 14.3606 10.7396 14.5446C10.4826 14.7943 10.2193 15.0378 9.9592 15.2834C9.83285 15.4036 9.70544 15.5228 9.57166 15.6492H9.57379ZM4.40628 18.102C4.4307 18.0915 4.44662 18.0853 4.46255 18.0769C4.6388 17.9818 4.81505 17.8857 4.99236 17.7916C5.38202 17.5847 5.77274 17.3799 6.1624 17.1729C6.38112 17.0569 6.60196 17.0507 6.82175 17.1646C7.05321 17.2837 7.28254 17.407 7.51188 17.5293C7.86119 17.7143 8.20945 17.8993 8.55876 18.0842C8.56832 18.0895 8.57893 18.0936 8.59486 18.101C8.59167 18.0801 8.59061 18.0654 8.58849 18.0518C8.55451 17.8616 8.51947 17.6704 8.48444 17.4802C8.4133 17.0904 8.34004 16.7006 8.27103 16.3107C8.25192 16.2062 8.23174 16.0996 8.23174 15.9941C8.23174 15.7987 8.33261 15.645 8.4717 15.5144C8.8242 15.1821 9.17776 14.8487 9.53026 14.5163C9.64705 14.4066 9.76384 14.2958 9.88594 14.1809C9.84347 14.1736 9.80843 14.1662 9.7734 14.1621C9.51539 14.1286 9.25845 14.0962 9.00045 14.0617C8.72227 14.0252 8.44409 13.9865 8.16591 13.9478C8.04806 13.9311 7.92915 13.9207 7.81448 13.8924C7.59894 13.8402 7.45348 13.697 7.35793 13.5058C7.11373 13.0146 6.87377 12.5213 6.63276 12.0291C6.58816 11.9392 6.54675 11.8483 6.5011 11.7521C6.49154 11.7657 6.48517 11.7751 6.47986 11.7856C6.44164 11.8639 6.40448 11.9434 6.36626 12.0217C6.12418 12.5171 5.8821 13.0125 5.63896 13.5078C5.52217 13.744 5.32893 13.8778 5.06456 13.9133C4.77046 13.953 4.47529 13.9917 4.18119 14.0314C3.87647 14.0722 3.57068 14.1129 3.26596 14.1537C3.21606 14.16 3.1651 14.1694 3.10989 14.1777C3.11838 14.1892 3.1205 14.1924 3.12369 14.1955C3.34135 14.3993 3.56007 14.6031 3.77772 14.8079C4.0421 15.0577 4.30753 15.3085 4.56766 15.5625C4.74179 15.7318 4.80018 15.9408 4.75665 16.178C4.64411 16.7873 4.53156 17.3966 4.41902 18.0069C4.41371 18.0372 4.41052 18.0675 4.40522 18.1051L4.40628 18.102Z" fill="black"/>
</g>
<defs>
<clipPath id="clip0_576_9526">
<rect width="13" height="18.2" fill="white" transform="translate(0 0.899902)"/>
</clipPath>
</defs>
</svg>
