<svg width="20" height="20" viewBox="0 0 20 20" fill="none" xmlns="http://www.w3.org/2000/svg">
<g clip-path="url(#clip0_576_7842)">
<path d="M8.60195 0C8.91444 0.050199 9.2285 0.0909858 9.53865 0.15295C10.9861 0.441987 12.258 1.08516 13.3504 2.0813C14.6676 3.28255 15.4917 4.76381 15.8417 6.51176C15.9821 7.21258 16.0013 7.92204 15.9673 8.63384C15.9653 8.67188 15.9567 8.70953 15.9477 8.7715C15.8941 8.73267 15.8527 8.70836 15.8179 8.67698C15.37 8.26911 14.9187 7.86478 14.4807 7.44671C14.4064 7.37573 14.3669 7.24592 14.3528 7.13807C14.0153 4.5034 12.0187 2.28602 9.40372 1.73383C7.0168 1.22988 4.95645 1.89148 3.27078 3.66571C2.45885 4.52027 1.94806 5.54739 1.71262 6.70079C1.44823 7.99655 1.55383 9.26211 2.06969 10.4916C2.73849 12.0854 3.73503 13.462 4.84459 14.7656C5.77543 15.859 6.79308 16.8669 7.86354 17.8218C7.97227 17.9187 8.0106 18.0171 8.00864 18.1591C8.0016 18.7513 8.00551 19.3435 8.00551 19.9804C7.91752 19.9145 7.85728 19.8729 7.80057 19.8267C6.07462 18.4176 4.50277 16.8535 3.10769 15.1138C2.10646 13.8651 1.21669 12.5466 0.612433 11.052C-0.17721 9.09897 -0.206152 7.13101 0.542425 5.16579C1.28357 3.21901 2.60277 1.7801 4.45544 0.838481C5.34404 0.386689 6.2866 0.111379 7.28353 0.0337275C7.3203 0.0309822 7.35589 0.0117654 7.39187 0C7.7951 0 8.19872 0 8.60195 0Z" fill="#C30001"/>
<path d="M19.9997 14.6389C19.6989 14.9625 19.3986 15.286 19.0978 15.6096C19.0536 15.657 19.0094 15.7045 18.9527 15.7656C18.8154 15.6456 18.6813 15.5284 18.5248 15.3915C18.5205 15.4817 18.5151 15.5437 18.5151 15.6052C18.5143 16.3484 18.5166 17.092 18.5143 17.8352C18.5104 19.0576 17.5885 19.9914 16.3694 19.9961C14.7503 20.002 13.1311 20.0012 11.5119 19.9961C10.2913 19.9926 9.3663 19.0713 9.35183 17.8458C9.34322 17.1155 9.35027 16.3853 9.34987 15.655C9.34987 15.5837 9.34987 15.5123 9.34987 15.3919C9.19304 15.528 9.06515 15.6394 8.91731 15.7676C8.57001 15.3868 8.22231 15.0052 7.86523 14.6134C9.89195 12.7596 11.9085 10.9155 13.9344 9.0625C14.43 9.51508 14.9145 9.95785 15.3991 10.401C16.917 11.7893 18.4349 13.178 19.9528 14.5667C19.9668 14.5797 19.9841 14.5891 19.9997 14.6001V14.6393V14.6389ZM13.9434 11.1936C13.9211 11.2065 13.9086 11.2116 13.8992 11.2199C12.932 12.1019 11.9644 12.9831 11.0019 13.8706C10.9495 13.9189 10.919 14.0165 10.9186 14.0914C10.9135 15.3178 10.9135 16.5441 10.9159 17.7701C10.9166 18.2172 11.131 18.4293 11.5764 18.4297C13.1506 18.4313 14.7248 18.4313 16.299 18.4297C16.741 18.4293 16.9549 18.2105 16.9553 17.7646C16.9565 16.5449 16.9581 15.3252 16.9506 14.1055C16.9502 14.0165 16.8994 13.9044 16.8345 13.8428C16.3945 13.4267 15.9447 13.0212 15.4977 12.6125C14.9791 12.1384 14.4597 11.665 13.9434 11.1936Z" fill="#C30001"/>
<path d="M7.98849 4.68706C9.81065 4.67687 11.2941 6.15774 11.3043 7.99667C11.3145 9.82384 9.83764 11.3114 8.00335 11.3216C6.18119 11.3318 4.69772 9.8509 4.68755 8.01197C4.67738 6.1848 6.1542 4.69726 7.98849 4.68706ZM7.99905 6.25735C7.03497 6.25578 6.25198 7.04014 6.25315 8.00608C6.25393 8.96418 7.02793 9.74462 7.98301 9.75168C8.94709 9.75874 9.734 8.97908 9.73791 8.01236C9.74182 7.04446 8.96391 6.25892 7.99905 6.25735Z" fill="#C30001"/>
<path d="M15.1173 14.5V16.8139H12.7949V14.5H15.1173Z" fill="#C30001"/>
</g>
<defs>
<clipPath id="clip0_576_7842">
<rect width="20" height="20" fill="white"/>
</clipPath>
</defs>
</svg>
