<svg width="20" height="20" viewBox="0 0 20 20" fill="none" xmlns="http://www.w3.org/2000/svg">
<path d="M18.5687 17.6812L14.5062 13.6187H14.4625C15.7146 12.1423 16.3474 10.2389 16.2284 8.30663C16.1095 6.37439 15.2479 4.563 13.8241 3.25137C12.4002 1.93973 10.5244 1.22947 8.58888 1.26916C6.65339 1.30884 4.8082 2.09539 3.43932 3.46428C2.07043 4.83317 1.28387 6.67835 1.24419 8.61384C1.20451 10.5493 1.91477 12.4252 3.2264 13.8491C4.53803 15.2729 6.34943 16.1344 8.28167 16.2534C10.2139 16.3724 12.1173 15.7396 13.5937 14.4874C13.5937 14.4874 13.5937 14.5187 13.5937 14.5312L17.6562 18.5937C17.7143 18.6523 17.7835 18.6988 17.8596 18.7305C17.9358 18.7622 18.0175 18.7786 18.1 18.7786C18.1825 18.7786 18.2642 18.7622 18.3403 18.7305C18.4165 18.6988 18.4856 18.6523 18.5437 18.5937C18.6078 18.537 18.6595 18.4677 18.6957 18.3901C18.7319 18.3126 18.7518 18.2284 18.7542 18.1429C18.7565 18.0573 18.7413 17.9722 18.7094 17.8928C18.6775 17.8134 18.6296 17.7413 18.5687 17.6812ZM8.74997 14.9999C7.51384 14.9999 6.30547 14.6334 5.27766 13.9466C4.24985 13.2599 3.44877 12.2837 2.97573 11.1417C2.50268 9.99967 2.37891 8.743 2.62007 7.53062C2.86122 6.31824 3.45648 5.2046 4.33056 4.33052C5.20463 3.45644 6.31828 2.86119 7.53066 2.62003C8.74304 2.37887 9.99971 2.50264 11.1417 2.97569C12.2838 3.44874 13.2599 4.24982 13.9467 5.27762C14.6334 6.30543 15 7.5138 15 8.74994C15 9.5707 14.8383 10.3834 14.5242 11.1417C14.2101 11.9 13.7498 12.589 13.1694 13.1694C12.589 13.7497 11.9 14.2101 11.1417 14.5242C10.3835 14.8383 9.57073 14.9999 8.74997 14.9999Z" fill="white"/>
</svg>
