<svg width="93" height="93" viewBox="0 0 93 93" fill="none" xmlns="http://www.w3.org/2000/svg">
<g clip-path="url(#clip0_749_14907)">
<path d="M87.9916 25.4593C85.4436 27.6164 82.9568 29.8364 80.533 32.1194C82.4316 36.6092 83.4273 41.4767 83.4273 46.5C83.4273 56.3643 79.5869 65.6371 72.6104 72.612C65.6355 79.587 56.3626 83.429 46.4983 83.429C36.6341 83.429 27.3612 79.587 20.3863 72.612C13.4114 65.6371 9.56939 56.3643 9.56939 46.5C9.56939 36.6357 13.4114 27.3629 20.3863 20.388C27.3612 13.413 36.6341 9.57104 46.4983 9.57104C54.6148 9.57104 62.3319 12.1738 68.6971 16.9817C71.0746 14.7799 73.505 12.6311 75.9868 10.5402C67.6948 3.71443 57.3832 0 46.5 0C34.0793 0 22.4026 4.83771 13.6201 13.6185C4.83771 22.4026 0 34.0793 0 46.5C0 58.9207 4.83771 70.5974 13.6185 79.3799C22.4026 88.1623 34.0777 92.9983 46.4983 92.9983C58.919 92.9983 70.5974 88.1606 79.3782 79.3799C88.1606 70.5958 92.9967 58.9207 92.9967 46.5C92.9967 39.0662 91.2637 31.8991 87.9883 25.4593H87.9916Z" fill="white"/>
<path d="M41.4648 69.5688C41.4251 69.5688 41.3853 69.5688 41.3456 69.5688C39.654 69.5257 38.1099 68.593 37.2849 67.1152C37.2401 67.0356 32.3113 58.3675 23.4974 51.0927C21.4596 49.4095 21.1697 46.3942 22.8529 44.3547C24.5362 42.3153 27.5515 42.027 29.5909 43.7103C34.7285 47.9515 38.6898 52.5407 41.3919 56.1177C53.2294 38.5959 67.6315 23.087 84.2802 9.95066C86.3545 8.31379 89.3648 8.66834 91.0017 10.7426C92.6385 12.8168 92.284 15.8272 90.2097 17.464C72.5107 31.4304 57.4773 48.205 45.5239 67.3206C44.6475 68.7222 43.1133 69.5688 41.4665 69.5688H41.4648Z" fill="white"/>
</g>
<defs>
<clipPath id="clip0_749_14907">
<rect width="93" height="93" fill="white"/>
</clipPath>
</defs>
</svg>
