<svg width="22" height="14" viewBox="0 0 22 14" fill="none" xmlns="http://www.w3.org/2000/svg">
<g clip-path="url(#clip0_302_7277)">
<path d="M22 11.6537C21.9174 11.365 21.8632 11.0649 21.7479 10.7897C21.1597 9.38782 20.0892 8.57346 18.5777 8.3119C18.5183 8.30172 18.4598 8.28349 18.3543 8.25763C19.8177 7.95453 20.7273 6.78661 20.575 5.46312C20.4218 4.132 19.2923 3.17223 17.9047 3.1947C16.6526 3.21505 15.5374 4.25324 15.4354 5.49407C15.3248 6.83918 16.24 8.00243 17.6052 8.25975C16.6655 8.40728 15.8205 8.75023 15.1136 9.42597C14.6545 8.86596 14.1287 8.40092 13.4958 8.05627C12.8637 7.71247 12.1852 7.52128 11.4683 7.41826C12.4356 7.24573 13.22 6.79382 13.7935 6.01168C14.3675 5.22869 14.5555 4.35244 14.3856 3.40751C14.0831 1.72707 12.5079 0.551106 10.724 0.660903C9.10833 0.760101 7.69662 2.1493 7.57701 3.74962C7.44492 5.51738 8.66559 7.11176 10.5514 7.41996C9.061 7.59758 7.84206 8.25382 6.90364 9.42639C6.19714 8.75744 5.35124 8.40134 4.39992 8.26569C5.87831 7.97233 6.70228 6.73702 6.57363 5.46778C6.44455 4.19474 5.33962 3.2053 4.06 3.19428C2.70897 3.18241 1.60146 4.12225 1.44441 5.44871C1.3007 6.66537 2.06744 7.94859 3.65297 8.26187C3.41676 8.3119 3.22313 8.34751 3.0321 8.39456C1.41988 8.79051 0.233208 10.089 0.0335636 11.7135C-0.016777 12.1238 -0.00430107 12.5465 0.0305519 12.959C0.0421677 13.095 0.214706 13.2176 0.313667 13.346H22C22 12.7818 22 12.2179 22 11.6537ZM6.72809 12.4884C6.70271 10.3433 8.46508 8.25424 11.0407 8.27841C13.6459 8.30299 15.3317 10.4502 15.2797 12.4884H6.72766H6.72809ZM8.43023 4.04891C8.42162 2.66903 9.5756 1.5185 10.9856 1.50112C12.3908 1.48374 13.5741 2.63554 13.5827 4.02898C13.5913 5.40886 12.4373 6.55939 11.0273 6.57677C9.62207 6.59415 8.43884 5.44235 8.43023 4.04891ZM21.1266 12.4863H16.191C16.1346 12.0942 16.1105 11.7118 16.0189 11.3459C15.9272 10.9805 15.7624 10.6329 15.6437 10.273C15.6243 10.214 15.6527 10.1115 15.6974 10.0644C16.0365 9.70915 16.453 9.47048 16.9168 9.306C19.0931 8.53403 21.3537 10.2331 21.127 12.4859L21.1266 12.4863ZM5.85164 12.4871H0.871725C0.871725 12.3409 0.868711 12.2082 0.872154 12.0755C0.903563 10.8537 1.70386 9.75663 2.87376 9.32889C4.07679 8.88928 5.53195 9.20256 6.33095 10.0797C6.37054 10.1229 6.39377 10.2238 6.37011 10.273C6.03794 10.9708 5.86497 11.7033 5.85121 12.4876L5.85164 12.4871ZM18.0149 7.42165C17.0993 7.43352 16.2972 6.67724 16.2964 5.75012C16.2959 4.81494 16.9887 4.07646 17.9977 4.04425C18.9128 4.01542 19.7153 4.78527 19.7157 5.71197C19.7161 6.64714 19.0226 7.37375 18.0144 7.42123L18.0149 7.42165ZM4.00407 7.42165C3.07899 7.41741 2.30236 6.65435 2.29118 5.7391C2.27999 4.8302 3.0833 4.02178 4.00966 4.04509C5.00659 4.0701 5.71137 4.79756 5.71739 5.74503C5.72299 6.66664 4.92484 7.42632 4.00407 7.42208V7.42165Z" fill="black"/>
<path d="M7.86802 11.1758C7.86802 11.4336 7.97473 11.5718 8.17308 11.6324C8.3766 11.6947 8.53322 11.6158 8.65455 11.4505C8.84602 11.1898 9.03104 10.9236 9.23799 10.6752C9.33523 10.5582 9.47851 10.4785 9.5977 10.378C9.81412 10.1961 9.85113 9.95915 9.69709 9.76414C9.54693 9.57423 9.29436 9.55091 9.06546 9.70946C8.58356 10.0431 8.20363 10.4653 7.93687 10.9834C7.899 11.0567 7.8805 11.1398 7.86802 11.1758Z" fill="black"/>
<path d="M10.5795 9.5449C10.5829 9.77975 10.7851 9.9684 11.0235 9.95907C11.2528 9.95017 11.4366 9.75898 11.4336 9.53218C11.4301 9.29733 11.2279 9.10868 10.9895 9.11801C10.7602 9.12649 10.5765 9.3181 10.5795 9.5449Z" fill="black"/>
</g>
<defs>
<clipPath id="clip0_302_7277">
<rect width="22" height="12.6923" fill="white" transform="matrix(-1 0 0 1 22 0.653809)"/>
</clipPath>
</defs>
</svg>
