<svg width="20" height="20" viewBox="0 0 20 20" fill="none" xmlns="http://www.w3.org/2000/svg">
<path d="M18.042 0.454849C18.0266 0.353364 17.947 0.273755 17.8455 0.258325C15.7552 -0.0593311 13.9114 0.870864 12.7327 1.707C12.3376 1.98731 11.9557 2.30192 11.593 2.64297L9.55231 2.71715C9.47676 2.71989 9.40719 2.75891 9.36543 2.82196L8.34094 4.36856C6.07262 4.33836 4.01305 5.13758 2.95496 6.46165C2.9509 6.46672 2.94703 6.472 2.9434 6.47743C2.61746 6.96352 2.77402 7.25215 2.89981 7.48411C2.95871 7.59274 3.00961 7.68653 3.02336 7.81141C3.0425 7.98555 2.87109 8.59977 2.74594 9.04829C2.6434 9.41567 2.5466 9.76266 2.50453 10.0051C2.4118 10.5413 2.61324 10.8034 2.76031 10.9949C2.86 11.1246 2.92586 11.2103 2.92164 11.3758C2.91477 11.6472 2.67 12.1542 2.19336 12.8838C2.17465 12.9127 2.15641 12.9403 2.13883 12.967C1.99523 13.1843 1.85965 13.3895 1.90188 13.712C1.9534 14.1056 2.29078 14.2006 2.51402 14.2634C2.70754 14.318 2.82902 14.3573 2.88633 14.4742C2.89676 14.4955 2.91391 14.5305 2.8798 14.6995C2.76203 14.974 2.75184 15.1782 2.84625 15.3592C2.88531 15.4341 2.93738 15.4923 2.99629 15.5398C2.95066 15.5949 2.9068 15.6596 2.87129 15.7343C2.86731 15.7427 2.86379 15.7513 2.86082 15.7601C2.82063 15.8794 2.8084 16.1365 2.93422 16.3676C2.9393 16.3909 2.94266 16.4547 2.9207 16.6289C2.88453 16.9164 2.82398 17.3976 3.18477 17.6937C3.37906 17.8531 3.64289 17.8979 3.93684 17.8979C4.08027 17.8979 4.23094 17.8873 4.38414 17.874C4.3877 17.8737 4.39121 17.8733 4.39473 17.8729C4.9291 17.8021 5.43535 17.7116 5.91309 17.6022C6.0509 17.6816 6.1334 17.8766 6.15824 18.1836C6.16219 18.2778 6.15754 19.385 6.14805 19.5581C6.14453 19.6224 6.16762 19.6853 6.21188 19.732C6.25613 19.7788 6.31766 19.8053 6.38207 19.8053H12.0562C12.1196 19.8053 12.1804 19.7796 12.2245 19.734C12.2686 19.6885 12.2924 19.627 12.2905 19.5636C12.2277 17.5499 12.3489 15.9715 12.6229 15.2304C12.8172 14.7913 13.0538 14.3586 13.3043 13.9006C14.0265 12.5799 14.7724 11.2154 14.6059 9.51301L15.4784 8.93504C15.5414 8.89329 15.5804 8.82372 15.5832 8.74817L15.6574 6.70743C15.9984 6.34469 16.313 5.96282 16.5933 5.5677C17.4295 4.38907 18.3595 2.54528 18.042 0.454927L18.042 0.454849ZM17.6019 0.698482C17.7034 1.56481 17.5749 2.38622 17.332 3.12536C17.1948 2.55668 16.9121 2.05254 16.4985 1.657C16.1407 1.31485 15.7043 1.07469 15.2333 0.949732C15.9573 0.719067 16.7582 0.599575 17.6019 0.698482ZM9.68969 3.18122L11.1053 3.12977C10.3361 3.94446 9.67797 4.87571 9.20027 5.84157L7.72445 6.14797L9.68969 3.18122ZM10.2951 8.00532C10.4476 8.15782 10.5125 8.33594 10.4936 8.54985C10.4478 9.06801 9.91668 9.70067 9.44031 10.0329C8.9166 10.3981 8.27648 10.6257 7.61484 10.6855C7.67465 10.0239 7.90231 9.38376 8.2675 8.86008C8.59977 8.38368 9.23242 7.85258 9.75047 7.80672C9.96453 7.78774 10.1426 7.85274 10.2951 8.00528L10.2951 8.00532ZM12.893 13.6756C12.6478 14.1241 12.3942 14.5879 12.1913 15.0474C12.1895 15.0516 12.1877 15.0558 12.1861 15.0601C11.8972 15.834 11.7665 17.347 11.8152 19.3365H6.62219C6.62824 18.9343 6.63066 18.2207 6.62578 18.1493C6.60352 17.8692 6.53867 17.6435 6.43262 17.4728C7.22445 17.2585 7.9277 16.9872 8.53523 16.6606C8.64926 16.5993 8.69199 16.4572 8.6307 16.3431C8.56941 16.2291 8.42727 16.1864 8.31332 16.2477C7.27738 16.8046 5.94008 17.1948 4.33848 17.4074C4.00316 17.4363 3.6341 17.456 3.48219 17.3313C3.33371 17.2094 3.35188 16.9572 3.38582 16.6874C3.41422 16.462 3.41969 16.2965 3.35926 16.1683C3.35641 16.1623 3.35332 16.1564 3.35 16.1506C3.29906 16.0628 3.29832 15.9553 3.30356 15.9179C3.36656 15.8008 3.4807 15.7232 3.51941 15.6969C3.52867 15.6906 3.53566 15.6857 3.54008 15.6825C3.6075 15.6325 3.64305 15.5504 3.63336 15.467C3.62363 15.3837 3.57016 15.3119 3.49309 15.2788C3.38695 15.2332 3.28672 15.1901 3.26188 15.1425C3.23074 15.0828 3.28395 14.9439 3.31844 14.8664C3.32508 14.8515 3.33012 14.836 3.33352 14.82C3.37926 14.6057 3.39086 14.4387 3.30727 14.2679C3.15481 13.9569 2.85789 13.8733 2.64109 13.8123C2.40391 13.7455 2.37574 13.7206 2.36668 13.6512C2.34809 13.5093 2.39414 13.4309 2.52996 13.2254C2.54844 13.1974 2.56758 13.1684 2.58652 13.1391C3.13289 12.3028 3.38078 11.7627 3.39027 11.3877C3.39875 11.0564 3.25086 10.864 3.13203 10.7093C3.00242 10.5406 2.90875 10.4188 2.96645 10.0851C3.00445 9.86602 3.0982 9.53004 3.19746 9.17434C3.39711 8.45887 3.51641 8.00661 3.4893 7.76024C3.46551 7.54391 3.38031 7.38688 3.31188 7.26067C3.2059 7.06528 3.16551 6.99086 3.32738 6.74657C4.25231 5.59598 6.03035 4.88149 8.02973 4.83848L7.01934 6.36383C6.96688 6.44301 6.96738 6.54602 7.02066 6.62469C7.0648 6.68989 7.13797 6.72766 7.21469 6.72766C7.23051 6.72766 7.24648 6.72606 7.26238 6.72278L9.15684 6.32942L9.285 7.44063C8.65434 7.67879 8.11313 8.26223 7.88309 8.59211C7.41922 9.25735 7.15234 10.0872 7.13172 10.9288C7.13012 10.993 7.15492 11.055 7.20027 11.1003C7.24426 11.1443 7.30391 11.169 7.36602 11.169C7.36793 11.169 7.36984 11.169 7.37176 11.1689C8.21336 11.1483 9.04324 10.8814 9.70852 10.4175C10.0384 10.1875 10.6218 9.64629 10.8599 9.01563L11.9712 9.14375L11.5778 11.0382C11.5585 11.1312 11.5972 11.2266 11.6759 11.2799C11.7155 11.3068 11.7614 11.3202 11.8073 11.3202C11.8523 11.3202 11.8975 11.3073 11.9367 11.2813L14.1563 9.81098C14.2132 11.2605 13.5433 12.4869 12.8931 13.6758L12.893 13.6756ZM12.1524 10.5759L12.4588 9.10008C13.4247 8.62239 14.3559 7.96426 15.1706 7.19508L15.1191 8.61067L12.1524 10.5759H12.1524ZM12.2118 8.69954L10.9627 8.55551C10.983 8.21911 10.8675 7.91485 10.6265 7.67387C10.3855 7.43286 10.0811 7.31727 9.74488 7.33762L9.60082 6.08856C10.3549 4.54559 11.5921 3.09098 13.0039 2.08934C13.3699 1.82973 13.8034 1.56047 14.2896 1.32672C14.9882 1.27446 15.6735 1.51668 16.1745 1.99583C16.706 2.50399 16.9823 3.23079 16.9565 4.04583C16.7267 4.5177 16.4643 4.93938 16.211 5.29645C15.2094 6.70836 13.7548 7.94551 12.2118 8.69958L12.2118 8.69954ZM6.42254 7.9459C6.36254 7.9459 6.30258 7.92301 6.2568 7.87727C6.16527 7.78575 6.16527 7.63735 6.2568 7.54583L6.73297 7.06969C6.82449 6.97817 6.97289 6.97817 7.06441 7.06969C7.15594 7.16122 7.15594 7.30961 7.06441 7.40114L6.58824 7.87727C6.5425 7.92301 6.4825 7.9459 6.42254 7.9459ZM7.39113 7.77918C7.29961 7.68766 7.29961 7.53926 7.39113 7.44774L7.86731 6.97157C7.95887 6.88004 8.10727 6.88004 8.19875 6.97157C8.29024 7.06309 8.29027 7.21149 8.19875 7.30301L7.72258 7.77918C7.6768 7.82493 7.61684 7.84782 7.55684 7.84782C7.49684 7.84782 7.43687 7.82493 7.39109 7.77918H7.39113ZM6.10512 8.02895C6.19664 8.12047 6.19664 8.26887 6.10512 8.3604L5.62898 8.83653C5.5832 8.88227 5.52324 8.90516 5.46324 8.90516C5.40324 8.90516 5.34328 8.88227 5.2975 8.83653C5.20598 8.74501 5.20598 8.59661 5.2975 8.50508L5.77363 8.02895C5.8652 7.93743 6.01356 7.93743 6.10508 8.02895H6.10512ZM7.22547 8.27633L6.7493 8.75247C6.70356 8.79821 6.64352 8.8211 6.58356 8.8211C6.52359 8.8211 6.46359 8.79821 6.41781 8.75247C6.32629 8.66094 6.32629 8.51254 6.41781 8.42102L6.89398 7.94489C6.98551 7.85336 7.13391 7.8534 7.22543 7.94489C7.31695 8.03641 7.31695 8.18481 7.22543 8.27633H7.22547ZM11.2308 11.236C11.3223 11.3275 11.3223 11.4759 11.2308 11.5674L10.7546 12.0435C10.7089 12.0893 10.6489 12.1122 10.5889 12.1122C10.5289 12.1122 10.4689 12.0893 10.4232 12.0435C10.3316 11.952 10.3316 11.8036 10.4232 11.7121L10.8993 11.236C10.9908 11.1444 11.1393 11.1444 11.2308 11.236ZM11.3289 10.1016C11.4204 10.1931 11.4204 10.3415 11.3289 10.4331L10.8527 10.9092C10.807 10.955 10.7469 10.9779 10.687 10.9779C10.627 10.9779 10.567 10.955 10.5212 10.9092C10.4297 10.8177 10.4297 10.6693 10.5212 10.5777L10.9974 10.1016C11.0889 10.0101 11.2373 10.0101 11.3288 10.1016H11.3289ZM9.54793 11.8825C9.45641 11.791 9.45641 11.6426 9.54793 11.5511L10.0241 11.075C10.1156 10.9834 10.264 10.9834 10.3555 11.075C10.447 11.1665 10.447 11.3149 10.3555 11.4064L9.87937 11.8825C9.83363 11.9283 9.77363 11.9512 9.71363 11.9512C9.65363 11.9512 9.59371 11.9283 9.54793 11.8825ZM10.2715 12.1953C10.363 12.2868 10.363 12.4352 10.2715 12.5267L9.79535 13.0028C9.74957 13.0486 9.68961 13.0715 9.62961 13.0715C9.56961 13.0715 9.50965 13.0486 9.46387 13.0028C9.37234 12.9113 9.37234 12.7629 9.46387 12.6714L9.94 12.1953C10.0316 12.1037 10.18 12.1037 10.2714 12.1953H10.2715ZM12.7497 3.42422C12.4657 3.70825 12.3093 4.08583 12.3093 4.48747C12.3093 4.88911 12.4657 5.26672 12.7497 5.55071C13.0429 5.84383 13.4279 5.9904 13.813 5.9904C14.198 5.9904 14.5831 5.84383 14.8762 5.55071C15.4625 4.96442 15.4625 4.01047 14.8762 3.42422C14.29 2.83797 13.336 2.83793 12.7497 3.42422ZM14.5448 5.21926C14.1413 5.62278 13.4847 5.62282 13.0812 5.21926C12.8857 5.02379 12.7781 4.76391 12.7781 4.48747C12.7781 4.21102 12.8857 3.95114 13.0812 3.75567C13.283 3.55391 13.548 3.45301 13.813 3.45301C14.078 3.45301 14.343 3.55391 14.5448 3.75567C14.9483 4.15919 14.9483 4.81575 14.5448 5.21926Z" fill="#481800"/>
</svg>
