<svg width="51" height="40" viewBox="0 0 51 40" fill="none" xmlns="http://www.w3.org/2000/svg">
<path d="M26.8858 0C27.6561 0.0982653 28.4283 0.185501 29.1966 0.295799C33.9418 0.980648 38.1552 2.8878 41.8139 5.97714C46.2747 9.74331 49.1921 14.4901 50.4074 20.2316C51.7553 26.5998 50.7955 32.6351 47.6376 38.3175C47.1438 39.2059 46.3177 39.4335 45.4396 38.9331C44.0997 38.1691 42.7647 37.394 41.4358 36.6109C40.6406 36.1416 40.3931 35.2542 40.8261 34.5102C41.2522 33.7772 42.1481 33.5606 42.9533 34.0158C43.8483 34.5212 44.7343 35.0436 45.6222 35.558C46.6319 34.2415 48.0806 28.8118 47.8542 27.1252C46.8045 27.1252 45.747 27.1393 44.6894 27.1212C43.7465 27.1042 43.1179 26.3692 43.2137 25.4377C43.2915 24.6786 43.9301 24.1261 44.7682 24.1171C45.7948 24.1071 46.8205 24.1151 47.8402 24.1151C48.1076 22.6361 46.8345 17.7379 45.6522 15.6894C44.7692 16.1987 43.9002 16.7382 42.9922 17.2024C42.645 17.3799 42.198 17.4872 41.8179 17.4411C41.1923 17.3659 40.7922 16.9207 40.6515 16.294C40.5129 15.6723 40.7783 15.0506 41.343 14.7057C42.1082 14.2394 42.8895 13.8013 43.6637 13.35C43.8193 13.2588 43.973 13.1645 44.1606 13.0522C42.5123 10.5916 40.4839 8.56312 38.0145 6.87256C37.6683 7.47218 37.3311 8.05375 36.9959 8.63632C36.8053 8.96721 36.6237 9.30512 36.4242 9.631C35.9562 10.3971 35.0842 10.6528 34.3618 10.2447C33.6195 9.82553 33.3811 8.92209 33.8251 8.12594C34.3329 7.21247 34.8607 6.31104 35.4055 5.36047C32.7445 4.03489 29.9708 3.30693 26.9846 3.08834C26.9846 4.09305 26.9866 5.07069 26.9836 6.04833C26.9836 6.26391 26.9956 6.48752 26.9477 6.69407C26.7811 7.42304 26.0717 7.92339 25.3553 7.84318C24.5831 7.75694 24.0134 7.1493 24.0034 6.3702C23.9914 5.45372 24.0004 4.53625 24.0004 3.61977C24.0004 3.45733 24.0004 3.29389 24.0004 3.09335C21.0232 3.2969 18.2525 4.04292 15.5796 5.35646C16.1064 6.27695 16.6382 7.15732 17.1151 8.06678C17.2767 8.37461 17.3845 8.76166 17.3655 9.10458C17.3316 9.7413 16.8387 10.2537 16.274 10.385C15.5985 10.5425 14.971 10.3008 14.6018 9.68615C14.054 8.77469 13.5352 7.84619 12.9755 6.87657C10.5191 8.52803 8.49867 10.5756 6.81949 13.0482C7.77532 13.6077 8.7042 14.1422 9.62411 14.6937C10.1549 15.0125 10.3993 15.5029 10.3505 16.1235C10.3036 16.7071 9.99127 17.1182 9.47046 17.3599C8.96162 17.5955 8.47572 17.5063 8.0008 17.2265C7.11781 16.7061 6.22684 16.1997 5.30992 15.6693C4.00489 18.3445 3.2556 21.123 3.06004 24.1151C4.1785 24.1151 5.23609 24.1051 6.29369 24.1191C6.96915 24.1281 7.52089 24.5523 7.71844 25.171C7.91101 25.7726 7.72543 26.4755 7.18466 26.8094C6.87836 26.9989 6.48026 27.1002 6.11709 27.1202C5.28997 27.1653 4.45786 27.1343 3.62875 27.1353C3.46612 27.1353 3.30349 27.1353 3.06403 27.1353C3.25061 30.1243 4.00589 32.8978 5.30394 35.5901C6.25577 35.0406 7.17867 34.4981 8.11055 33.9727C8.62838 33.6809 9.16515 33.69 9.66901 34.0098C10.1749 34.3317 10.3983 34.813 10.3495 35.4146C10.3076 35.937 10.0362 36.3281 9.59817 36.5848C8.22529 37.392 6.85241 38.1981 5.46357 38.9782C4.66539 39.4265 3.83927 39.1758 3.37632 38.3686C1.6702 35.3906 0.603627 32.1969 0.192562 28.7827C0.139682 28.3215 0.0658502 27.8642 0 27.406C0 26.2058 0 25.0055 0 23.8053C0.0329251 23.6609 0.0758275 23.5185 0.0977776 23.3721C0.247437 22.3524 0.330249 21.3186 0.54975 20.3149C1.90567 14.1011 5.12235 9.05545 10.1469 5.19703C13.5931 2.54989 17.4852 0.915472 21.7884 0.295799C22.5567 0.185501 23.3279 0.0982653 24.0982 0C25.0271 0 25.957 0 26.8858 0Z" fill="#C30001"/>
<path d="M30.2662 25.6783C30.1245 26.2549 29.9659 26.8284 29.8521 27.41C29.8182 27.5825 29.8541 27.8362 29.9629 27.9585C30.3819 28.4308 30.8498 28.8579 31.2868 29.3152C31.9214 29.9779 31.9444 30.9125 31.3537 31.5091C30.7411 32.1298 29.8212 32.0947 29.1387 31.4198C28.7127 30.9987 28.2857 30.5796 27.8746 30.1444C27.682 29.9408 27.5224 29.8797 27.2321 29.994C24.4624 31.0889 21.4921 29.4666 20.8915 26.5377C20.7109 25.6553 20.7548 24.7729 21.117 23.9416C21.2656 23.5997 21.1768 23.4122 20.9374 23.1736C18.7234 20.9656 16.5164 18.7506 14.3164 16.5286C13.4534 15.6573 13.7557 14.3056 14.8832 13.9657C15.5447 13.7662 16.0705 14.0209 16.5384 14.4931C18.6566 16.6319 20.7897 18.7566 22.9019 20.9014C23.2322 21.2373 23.4766 21.3607 23.9875 21.1772C27.0255 20.0842 30.1754 22.3854 30.2662 25.6773V25.6783ZM25.495 27.3188C26.4269 27.3178 27.1752 26.5788 27.1872 25.6493C27.1991 24.7147 26.4149 23.9156 25.487 23.9186C24.5781 23.9216 23.8049 24.6927 23.7949 25.6071C23.7849 26.5587 24.5412 27.3208 25.494 27.3188H25.495Z" fill="#C30001"/>
<path d="M25.4831 36.9858C27.0914 36.9858 28.7008 36.9808 30.3091 36.9889C30.9317 36.9919 31.3897 37.2997 31.6461 37.8622C31.8845 38.3846 31.8297 38.904 31.4914 39.3743C31.2011 39.7784 30.79 39.992 30.3001 39.993C27.0994 40.001 23.8987 40.004 20.698 39.993C19.8439 39.99 19.2133 39.3332 19.2034 38.508C19.1934 37.6697 19.789 37.047 20.6561 36.9879C20.706 36.9848 20.7558 36.9808 20.8047 36.9808C22.3632 36.9808 23.9226 36.9808 25.4811 36.9808C25.4811 36.9828 25.4811 36.9848 25.4811 36.9869L25.4831 36.9858Z" fill="#C30001"/>
</svg>
