<svg width="48" height="48" viewBox="0 0 48 48" fill="none" xmlns="http://www.w3.org/2000/svg">
<path d="M23.7264 47.9896C23.2419 47.5089 22.7349 47.0488 22.2767 46.5437C15.5482 39.1129 8.82631 31.6755 2.10347 24.24C1.51663 23.5912 0.926977 22.9461 0.344832 22.2936C-0.097411 21.7987 -0.115251 21.3856 0.296946 20.8692C2.74102 17.8063 5.18133 14.7416 7.65075 11.6995C7.84512 11.46 8.25356 11.2666 8.56341 11.2657C18.8542 11.2431 29.1441 11.2488 39.435 11.2422C39.8471 11.2422 40.1485 11.3915 40.4002 11.707C42.8349 14.7567 45.2742 17.8035 47.7099 20.8523C47.816 20.9856 47.9042 21.133 48 21.2748V21.8372C47.5981 22.3133 47.2103 22.8015 46.7925 23.2635C39.526 31.3037 32.2567 39.342 24.9827 47.3765C24.7771 47.6037 24.5208 47.7859 24.2888 47.9896H23.7264ZM24.0072 44.7099C27.3 37.2444 30.5394 29.9009 33.7938 22.5236H14.2215C17.4787 29.9084 20.7152 37.2453 24.0072 44.7099ZM33.5403 20.6006C33.5036 20.5058 33.4924 20.4607 33.4698 20.4222C32.0605 18.0683 30.6558 15.7125 29.2286 13.3708C29.1432 13.2309 28.8793 13.1304 28.6972 13.1295C25.5761 13.1154 22.4541 13.1238 19.3331 13.1116C19.027 13.1107 18.8627 13.2065 18.7068 13.4684C17.3707 15.721 16.0177 17.9631 14.6712 20.2091C14.6018 20.3246 14.5426 20.4448 14.4572 20.6006H33.5393H33.5403ZM44.9428 22.4917C41.9861 22.4917 39.1598 22.4983 36.3346 22.4832C35.9862 22.4813 35.8247 22.5846 35.682 22.9086C32.9778 29.0718 30.2587 35.2294 27.5432 41.3879C27.4841 41.5231 27.4334 41.6621 27.3789 41.7992C27.4014 41.8123 27.424 41.8255 27.4475 41.8396C33.2529 35.4191 39.0594 28.9986 44.9437 22.4917H44.9428ZM3.09218 22.5114C8.95401 28.9939 14.7586 35.4115 20.5622 41.8292C20.5988 41.6893 20.5725 41.602 20.5359 41.5184C17.7895 35.2904 15.0402 29.0643 12.3023 22.8335C12.1812 22.5574 12.0272 22.4832 11.7399 22.4851C9.00753 22.4954 6.2752 22.4917 3.54288 22.4926C3.42457 22.4926 3.30626 22.502 3.09312 22.5114H3.09218ZM2.94195 20.5856C3.07153 20.6053 3.11659 20.6185 3.16166 20.6185C6.07896 20.6194 8.99626 20.626 11.9136 20.6044C12.0882 20.6035 12.3258 20.4185 12.4262 20.2542C13.7783 18.0317 15.1125 15.7979 16.4496 13.5661C16.5266 13.4374 16.5933 13.3032 16.6815 13.1435C16.5782 13.1323 16.52 13.1191 16.4618 13.1191C14.044 13.1182 11.6253 13.1116 9.20752 13.1304C9.03006 13.1313 8.80472 13.2741 8.68359 13.4196C7.91742 14.3445 7.17471 15.2881 6.42543 16.2261C5.27898 17.6608 4.13253 19.0955 2.94195 20.5856ZM45.0649 20.6204C44.9935 20.5011 44.9738 20.4589 44.9466 20.4241C43.0771 18.0852 41.2124 15.7425 39.327 13.4168C39.1965 13.2562 38.9195 13.1332 38.7091 13.1313C36.4782 13.1107 34.2473 13.1191 32.0164 13.1191C31.8042 13.1191 31.592 13.1191 31.3178 13.1191C31.3816 13.245 31.4107 13.3116 31.4483 13.3745C32.8426 15.7003 34.2313 18.0289 35.6444 20.3424C35.7365 20.4936 36.0134 20.6082 36.205 20.61C38.5448 20.6279 40.8847 20.6222 43.2255 20.6222H45.0649V20.6204Z" fill="#C30001"/>
<path d="M23.072 3.72393C23.072 2.83569 23.0692 1.94745 23.072 1.05827C23.0748 0.405704 23.426 0.00665239 23.9931 7.97795e-05C24.5649 -0.00649283 24.9395 0.393497 24.9405 1.03292C24.9442 2.84132 24.9442 4.64879 24.9405 6.4572C24.9395 7.09756 24.5658 7.49849 23.995 7.49285C23.4278 7.48722 23.0739 7.08723 23.072 6.4356C23.0682 5.5314 23.072 4.6272 23.072 3.72393Z" fill="#C30001"/>
<path d="M13.6299 2.86169C13.6937 2.09551 14.4562 1.63637 15.089 1.98753C15.1698 2.0326 15.2477 2.08894 15.3134 2.15467C16.5613 3.39971 17.811 4.64287 19.0495 5.89636C19.3678 6.21842 19.4213 6.61559 19.2006 7.01558C19.0006 7.37801 18.6673 7.55829 18.2608 7.47848C18.0457 7.43623 17.8148 7.3151 17.658 7.16112C16.4336 5.95927 15.2205 4.74615 14.0195 3.52083C13.8458 3.34431 13.7576 3.08422 13.6299 2.86263V2.86169Z" fill="#C30001"/>
<path d="M33.4239 1.75C33.7047 1.97159 34.0652 2.1237 34.1798 2.38473C34.2962 2.64951 34.237 3.04668 34.1291 3.33869C34.0389 3.58094 33.7704 3.75934 33.5723 3.9584C32.5038 5.02973 31.4352 6.10013 30.362 7.16771C30.0334 7.4954 29.6465 7.61277 29.2128 7.39587C28.8212 7.20057 28.6362 6.86067 28.7104 6.43345C28.7452 6.23252 28.855 6.01187 28.9987 5.86633C30.2118 4.63068 31.4352 3.40536 32.6709 2.19318C32.8474 2.01948 33.1084 1.93216 33.4239 1.75094V1.75Z" fill="#C30001"/>
<path d="M22.3669 24.3704C23.4918 24.3704 24.6157 24.3685 25.7405 24.3704C26.4203 24.3723 26.8269 24.7375 26.8147 25.3272C26.8034 25.8924 26.4016 26.2398 25.7434 26.2398C23.5096 26.2417 21.2759 26.2427 19.0431 26.2398C18.3896 26.2398 17.9971 25.8821 17.9971 25.3065C17.9971 24.73 18.3886 24.3732 19.0402 24.3713C20.1491 24.3676 21.258 24.3704 22.3669 24.3704Z" fill="#C30001"/>
<path d="M28.6963 25.3131C28.6926 24.7798 29.101 24.3695 29.6343 24.3713C30.147 24.3732 30.5507 24.7648 30.5648 25.2746C30.5789 25.8079 30.178 26.2314 29.6493 26.2408C29.117 26.2502 28.7001 25.8445 28.6963 25.3131Z" fill="#C30001"/>
</svg>
