<svg width="1649" height="256" viewBox="0 0 1649 256" fill="none" xmlns="http://www.w3.org/2000/svg">
<path fill-rule="evenodd" clip-rule="evenodd" d="M0 238.51C40.8918 246.641 142.466 242.169 221.629 159.233C222.518 158.555 223.475 157.813 224.504 157.015C253.292 134.709 338.093 68.9989 543.567 141.615C591.01 159.233 816.706 238.51 1040.37 174.14C1046.14 171.497 1055.76 167.768 1068.21 162.941C1126.02 140.544 1244.81 94.5126 1322.32 23.7155C1334.18 18.2963 1381.43 0.00964355 1442.91 0C1442.94 0 1442.98 0 1443.01 0C1504.51 0.00964355 1580.23 18.3127 1649 86.0534V256H0V238.51Z" fill="white"/>
</svg>
