<svg width="48" height="49" viewBox="0 0 48 49" fill="none" xmlns="http://www.w3.org/2000/svg">
<g clip-path="url(#clip0_133_2313)">
<path d="M23.2386 49.0001C22.627 48.7774 21.9729 48.6316 21.4125 48.3197C19.6357 47.3283 18.7304 45.7727 18.6241 43.7564C18.6164 43.6134 18.6231 43.4704 18.6231 43.2708H16.3082V42.7065C16.3082 40.6797 16.3004 38.6519 16.3159 36.6251C16.3188 36.2738 16.2222 36.0685 15.914 35.8554C11.5169 32.8085 9.25792 28.6041 9.41058 23.2856C9.60285 16.59 14.2772 11.0987 20.857 9.58531C28.8222 7.75329 37.028 13.1179 38.3661 21.1513C39.3951 27.3326 37.1893 32.2509 32.0685 35.8833C31.8009 36.0733 31.7043 36.2595 31.7072 36.579C31.7217 38.6059 31.714 40.6336 31.714 42.6605C31.714 42.8342 31.714 43.0079 31.714 43.2392H29.5033C29.3661 43.9867 29.3256 44.6998 29.0995 45.3476C28.4202 47.2909 27.0376 48.4886 24.9961 48.9118C24.9217 48.9272 24.8541 48.9723 24.7835 49.003H23.2405L23.2386 49.0001ZM24.0135 34.3478C25.5391 34.3478 27.0657 34.3516 28.5913 34.343C28.7768 34.342 28.9806 34.318 29.1449 34.2393C34.141 31.843 36.7913 26.0764 35.3314 20.7943C33.7091 14.9249 28.1449 11.3492 22.0685 12.306C16.3497 13.2062 11.6512 18.4834 12.3787 25.0178C12.8405 29.1636 15.0492 32.2096 18.7594 34.1664C18.9603 34.2729 19.2096 34.3372 19.4367 34.3391C20.9623 34.3545 22.4879 34.3468 24.0144 34.3468L24.0135 34.3478ZM19.2492 40.3467H28.77V37.2431H19.2492V40.3467ZM21.6173 43.266C21.3739 44.0558 21.7787 45.0846 22.5478 45.6393C23.4057 46.2583 24.5091 46.2823 25.3816 45.7007C26.2038 45.1518 26.6386 44.1336 26.4106 43.266H21.6173Z" fill="#C30001"/>
<path d="M0 22.3728C0.156522 22.3517 0.31401 22.3114 0.470531 22.3114C2.2657 22.3066 4.06184 22.3191 5.85604 22.2999C6.24348 22.2961 6.35362 22.417 6.33913 22.7893C6.31208 23.4726 6.33043 24.1588 6.33237 24.843C6.33237 25.0436 6.33816 25.2259 6.04541 25.225C4.08985 25.2183 2.1343 25.2192 0.178744 25.2144C0.118841 25.2144 0.0599034 25.1732 0 25.1511C0 24.225 0 23.2989 0 22.3738L0 22.3728Z" fill="#C30001"/>
<path d="M41.6889 25.2211C41.6889 24.2912 41.6802 23.4332 41.7025 22.5753C41.7044 22.4841 41.8918 22.3219 41.9942 22.321C43.8889 22.3056 45.7846 22.3047 47.6793 22.3229C47.7856 22.3238 47.9769 22.5091 47.9807 22.6137C48.0068 23.3785 48.0049 24.1453 47.9836 24.9102C47.9807 25.0157 47.8242 25.2077 47.7382 25.2086C45.7488 25.2259 43.7595 25.2221 41.6889 25.2221V25.2211Z" fill="#C30001"/>
<path d="M12.3817 10.3808C11.7846 10.9806 11.1324 11.6351 10.5102 12.2598C9.05802 10.8117 7.59522 9.352 6.15271 7.91345C6.7643 7.3079 7.42131 6.6582 8.02517 6.06128C9.45319 7.4768 10.9199 8.93166 12.3827 10.3808H12.3817Z" fill="#C30001"/>
<path d="M8.08307 41.4886C7.44442 40.8581 6.77582 40.1988 6.13428 39.5654C7.56809 38.1413 9.028 36.6902 10.4647 35.2642C11.1053 35.9033 11.7681 36.5655 12.398 37.1941C10.972 38.6134 9.51399 40.0645 8.08307 41.4886Z" fill="#C30001"/>
<path d="M39.9275 41.5126C38.5015 40.0885 37.0474 38.6355 35.6261 37.2162C36.2425 36.6077 36.9073 35.9513 37.5304 35.3362C38.9324 36.7296 40.3981 38.1864 41.8396 39.6182C41.2367 40.2161 40.571 40.8754 39.9275 41.5117V41.5126Z" fill="#C30001"/>
<path d="M39.9826 6.03931C40.6194 6.66405 41.2677 7.30128 41.8773 7.90011C40.4203 9.3473 38.9537 10.8031 37.5102 12.2359C36.8928 11.6208 36.23 10.9605 35.6281 10.3607C37.0677 8.93176 38.5363 7.47498 39.9826 6.03931Z" fill="#C30001"/>
<path d="M25.4212 6.16111H22.5894V0H25.4212V6.16111Z" fill="#C30001"/>
<path d="M22.1507 28.4523C20.8377 27.151 19.4976 25.8238 18.1952 24.533C18.8445 23.8872 19.5102 23.225 20.1865 22.5513C20.7797 23.153 21.4377 23.8209 22.1053 24.4985C24.0541 22.5561 25.9295 20.6876 27.7739 18.8489C28.5053 19.5754 29.1701 20.2346 29.7971 20.8575C27.2773 23.3613 24.715 25.9054 22.1507 28.4533V28.4523Z" fill="#C30001"/>
</g>
<defs>
<clipPath id="clip0_133_2313">
<rect width="48" height="49" fill="white"/>
</clipPath>
</defs>
</svg>
