<svg width="45" height="45" viewBox="0 0 45 45" fill="none" xmlns="http://www.w3.org/2000/svg">
<g clip-path="url(#clip0_133_2229)">
<path d="M21.8858 45.0001C20.204 44.6506 19.1474 43.3674 17.9667 42.3042C17.2253 41.6371 16.5376 41.2666 15.4863 41.4435C14.2078 41.6582 12.895 41.689 11.5945 41.7462C9.55696 41.836 7.97118 40.6214 7.4869 38.6438C7.18136 37.3958 6.87935 36.1477 6.59495 34.8953C6.52098 34.5706 6.36249 34.3681 6.07633 34.2009C4.73708 33.4211 3.40575 32.6264 2.07795 31.8263C0.157569 30.6698 -0.481678 28.7256 0.369771 26.6494C0.879584 25.4067 1.3894 24.1639 1.9177 22.9282C2.04801 22.6237 2.05242 22.365 1.92122 22.0569C1.37707 20.7816 0.847005 19.4993 0.329268 18.2125C-0.466709 16.2331 0.204236 14.2696 2.03393 13.1791C3.2772 12.438 4.5284 11.7093 5.76111 10.9506C5.94953 10.8344 6.12211 10.61 6.19167 10.3996C6.66274 8.97207 7.11092 7.53746 7.55382 6.10021C8.1552 4.14897 9.85986 3.03561 11.8789 3.23452C13.4655 3.39118 15.0575 3.4968 16.6494 3.6033C16.8106 3.61386 17.0131 3.51528 17.1425 3.40439C18.0424 2.63252 18.9264 1.84128 19.8184 1.06061C21.4288 -0.348474 23.5552 -0.353754 25.1666 1.05005C26.0717 1.83864 26.9646 2.64132 27.8759 3.42287C28.0036 3.53201 28.2122 3.61386 28.376 3.60242C30.0102 3.48712 31.6453 3.3683 33.2769 3.21428C35.236 3.02945 37.0173 4.32412 37.5121 6.33961C37.815 7.57267 38.1153 8.8066 38.3962 10.0458C38.4692 10.3671 38.6075 10.5801 38.8998 10.7499C40.2391 11.5297 41.5598 12.3403 42.8955 13.1263C43.9742 13.7608 44.6883 14.6524 44.9304 15.8969C44.9383 15.9365 44.9753 15.97 44.9991 16.006V17.2365C44.8556 17.6466 44.7288 18.062 44.5667 18.4642C44.0657 19.7061 43.5436 20.94 43.0505 22.1854C42.9836 22.3535 42.9704 22.5903 43.0347 22.7557C43.6774 24.406 44.3413 26.0483 45 27.6924V29.0099C44.9744 29.0434 44.933 29.0733 44.9251 29.1111C44.6759 30.3539 43.9504 31.234 42.8735 31.8659C41.5255 32.6572 40.195 33.4783 38.8443 34.2652C38.589 34.4139 38.4736 34.6014 38.4111 34.8672C38.1179 36.1169 37.8186 37.365 37.5183 38.6121C37.0393 40.5994 35.4738 41.8246 33.4389 41.7453C32.1393 41.6943 30.8282 41.6573 29.5497 41.447C28.4729 41.2701 27.757 41.6406 26.9963 42.3359C25.8349 43.3965 24.7827 44.6594 23.1159 45.0009H21.8858V45.0001ZM12.0092 5.90131C10.6497 5.84498 10.345 6.06589 10.0043 7.15373C9.51998 8.70011 9.01633 10.2412 8.54879 11.792C8.3947 12.3025 8.11206 12.6607 7.65683 12.9265C6.2806 13.73 4.91494 14.5521 3.54311 15.3644C2.62651 15.9066 2.45481 16.4171 2.86424 17.4125C3.44802 18.8304 4.02035 20.2535 4.62614 21.6626C4.86827 22.2259 4.87532 22.7416 4.63142 23.3067C4.01859 24.7281 3.43833 26.1636 2.84839 27.5956C2.45657 28.5452 2.64236 29.0812 3.53343 29.611C5.06639 30.5237 6.59583 31.4417 8.13407 32.3465C8.59281 32.6158 8.8596 32.9837 8.98023 33.5074C9.30338 34.9164 9.66175 36.3167 10.0016 37.7214C10.2904 38.914 10.743 39.1991 11.981 39.0821C13.6707 38.9219 15.3657 38.8163 17.0571 38.6772C17.5757 38.635 17.9887 38.8101 18.3708 39.1543C19.3949 40.074 20.433 40.9779 21.472 41.8809C22.209 42.5216 22.7998 42.519 23.5324 41.8809C24.5476 40.9955 25.5707 40.118 26.5639 39.2088C27.0068 38.8031 27.4814 38.6271 28.0775 38.6799C29.7681 38.8295 31.4622 38.9457 33.1528 39.097C34.234 39.1939 34.7341 38.8541 34.9851 37.805C35.325 36.3854 35.6886 34.971 36.0074 33.547C36.1333 32.9863 36.4335 32.6158 36.9169 32.3315C38.4428 31.4347 39.9573 30.5193 41.4753 29.6084C42.3646 29.075 42.5433 28.5382 42.1524 27.5885C41.5677 26.1706 40.9998 24.7457 40.3879 23.3401C40.1281 22.7434 40.1396 22.2092 40.3967 21.616C41.0016 20.2227 41.5616 18.811 42.1392 17.4063C42.5469 16.4135 42.384 15.9127 41.4577 15.3556C39.9406 14.4438 38.4235 13.532 36.8993 12.6334C36.4309 12.357 36.1385 11.9962 36.0144 11.4505C35.6666 9.92789 35.2889 8.41143 34.9058 6.89761C34.7253 6.18383 34.2551 5.82826 33.5278 5.87754C31.6885 5.99988 29.8491 6.13454 28.0115 6.29472C27.4788 6.34137 27.0376 6.23487 26.6388 5.87754C25.6456 4.98861 24.6409 4.11377 23.6442 3.22924C22.7795 2.46265 22.2274 2.46089 21.3522 3.23364C20.3423 4.12521 19.3297 5.01414 18.3224 5.90835C17.9605 6.22959 17.5537 6.34489 17.0694 6.30352C15.3049 6.15214 13.5395 6.02012 12.0101 5.89955L12.0092 5.90131Z" fill="#C30001"/>
<path d="M8.00208 22.4961C8.0056 14.4992 14.4984 8.01182 22.4987 8.0127C30.5175 8.0127 37.0077 14.5151 36.9989 22.5392C36.9901 30.5272 30.484 37.0067 22.4785 37.0023C14.4852 36.9979 7.99855 30.4982 8.00208 22.4969V22.4961ZM22.5119 34.3654C29.0233 34.3558 34.353 29.0266 34.3618 22.5163C34.3706 15.9954 29.0136 10.6416 22.4864 10.6487C15.9768 10.6557 10.6445 15.9875 10.6365 22.4969C10.6286 29.0169 15.99 34.3751 22.5119 34.3654Z" fill="#C30001"/>
<path d="M21.1858 24.5618C21.317 24.4377 21.4341 24.3312 21.5459 24.2203C23.7199 22.0482 25.8895 19.8725 28.067 17.7039C28.8621 16.9118 30.0287 17.1573 30.3475 18.1783C30.5244 18.7451 30.3193 19.2045 29.9178 19.6049C28.5917 20.9278 27.2683 22.2532 25.9432 23.577C24.7219 24.7977 23.5024 26.0193 22.2794 27.2383C21.5354 27.9802 20.8222 27.9758 20.072 27.2268C18.3946 25.552 16.7146 23.8797 15.0443 22.1969C14.2606 21.4074 14.5283 20.2158 15.5488 19.9227C16.0938 19.766 16.5491 19.9508 16.9409 20.3434C18.2528 21.6592 19.5692 22.9714 20.8847 24.2846C20.9754 24.3752 21.074 24.4588 21.1858 24.5618Z" fill="#C30001"/>
</g>
<defs>
<clipPath id="clip0_133_2229">
<rect width="45" height="45" fill="white"/>
</clipPath>
</defs>
</svg>
