<svg width="45" height="45" viewBox="0 0 45 45" fill="none" xmlns="http://www.w3.org/2000/svg">
<path d="M0 5.51848C0.102455 5.15285 0.193862 4.78421 0.310379 4.42361C1.22846 1.58801 3.96261 -0.203958 7.02623 0.0180287C9.84475 0.222939 12.3057 2.487 12.7587 5.33868C13.1344 7.70218 12.4343 9.82461 11.1757 11.7934C10.2496 13.2438 9.07232 14.4703 7.69821 15.5069C6.72489 16.2411 6.12623 16.2552 5.16696 15.5109C2.83058 13.6958 1.02455 11.4981 0.257143 8.57305C0.165737 8.2245 0.0853795 7.87294 0 7.52339C0 6.85542 0 6.18745 0 5.51848ZM6.42656 12.3739C7.89509 11.1786 8.86942 9.72015 9.35056 7.94426C9.55045 7.20497 9.72924 6.46368 9.54944 5.6812C9.19989 4.16446 7.61384 3.02539 6.10513 3.23332C4.42969 3.46435 3.09877 4.87562 3.23136 6.42048C3.43728 8.82517 4.51708 10.7999 6.42757 12.3739H6.42656Z" fill="#C30001"/>
<path d="M44.9999 21.856C44.8895 22.3412 44.8091 22.8344 44.6645 23.3085C43.7705 26.2405 41.9122 28.4563 39.4503 30.2051C38.8777 30.6119 38.2319 30.6029 37.6653 30.188C34.7886 28.0827 32.6932 25.46 32.179 21.8098C31.6777 18.252 34.0724 15.0196 37.7296 14.4963C41.411 13.97 44.3752 16.6057 44.9045 19.7296C44.9176 19.8069 44.9678 19.8772 44.9999 19.9515V21.856ZM38.5694 26.806C40.0329 25.6167 41.0082 24.1592 41.4913 22.3844C41.6922 21.6461 41.872 20.9048 41.6942 20.1213C41.3487 18.6035 39.7677 17.4605 38.256 17.6634C36.5644 17.8904 35.2215 19.3458 35.3722 20.8937C35.6042 23.2763 36.6669 25.24 38.5704 26.805L38.5694 26.806Z" fill="#C30001"/>
<path d="M2.79018e-05 34.3838C0.082394 34.0824 0.159738 33.7791 0.247126 33.4798C1.13206 30.4704 4.19467 28.4604 7.21811 28.9024C10.5077 29.3835 12.8542 32.0414 12.8552 35.2838C12.8552 37.9004 11.7864 40.0942 10.1421 42.0488C9.19389 43.1758 8.14322 44.1964 6.82938 44.9075H6.02581C5.88117 44.8302 5.72547 44.7669 5.59289 44.6725C2.9853 42.8042 1.0286 40.4618 0.214983 37.2917C0.13764 36.9924 0.0713449 36.69 -0.000976562 36.3887C-0.000976562 35.7207 -0.000976562 35.0527 -0.000976562 34.3838H2.79018e-05ZM6.42559 41.2382C7.89311 40.0469 8.86744 38.5895 9.34958 36.8136C9.55048 36.0753 9.72927 35.334 9.55048 34.5505C9.20393 33.0328 7.61989 31.8917 6.10918 32.0966C4.41666 32.3266 3.0767 33.7831 3.22838 35.33C3.46242 37.7116 4.52514 39.6743 6.42458 41.2382H6.42559Z" fill="#C30001"/>
<path d="M15.6697 44.9074C14.9997 44.593 14.4794 44.1641 14.4663 43.3455C14.4503 42.3842 15.1423 41.7042 16.1528 41.7032C20.7221 41.7002 25.2914 41.7022 29.8608 41.7022C31.6186 41.7022 33.3754 41.7052 35.1332 41.7022C36.3175 41.7002 36.9623 41.0543 36.9653 39.87C36.9694 38.3674 36.9633 36.8637 36.9673 35.361C36.9704 34.3806 37.6403 33.6855 38.5705 33.6855C39.4986 33.6855 40.1726 34.3837 40.1756 35.361C40.1806 36.9139 40.1796 38.4678 40.1756 40.0207C40.1696 42.4224 38.6408 44.3068 36.2893 44.818C36.21 44.8351 36.1356 44.8783 36.0593 44.9094H15.6697V44.9074Z" fill="#C30001"/>
<path d="M18.2933 25.662C15.3663 25.662 12.4383 25.674 9.51129 25.658C6.92479 25.6429 4.77825 23.419 4.82345 20.8375C4.83852 19.9596 5.50649 19.2736 6.36631 19.2535C7.26732 19.2314 7.97044 19.8692 8.03272 20.7662C8.10906 21.8631 8.74187 22.4587 9.85381 22.4587C15.6415 22.4607 21.4293 22.4587 27.217 22.4607C28.4826 22.4607 29.3033 23.6249 28.792 24.7107C28.4886 25.3566 27.9593 25.669 27.226 25.667C24.2488 25.658 21.2706 25.663 18.2933 25.663V25.662Z" fill="#C30001"/>
</svg>
