<svg width="47" height="44" viewBox="0 0 47 44" fill="none" xmlns="http://www.w3.org/2000/svg">
<path d="M0 40.3327C0.176488 39.7071 0.292308 39.0567 0.538656 38.4605C1.79521 35.4225 4.0822 33.6577 7.31138 33.0909C7.43823 33.0689 7.56324 33.0294 7.78845 32.9733C4.66222 32.3165 2.71902 29.7856 3.04442 26.9175C3.37165 24.033 5.78457 21.9531 8.74902 22.0018C11.4239 22.0459 13.8065 24.2957 14.0244 26.9846C14.2606 29.8995 12.3054 32.4203 9.38879 32.9779C11.3963 33.2976 13.2017 34.0408 14.7119 35.5051C15.6927 34.2916 16.816 33.2838 18.1681 32.537C19.5185 31.7919 20.968 31.3776 22.4994 31.1544C20.4331 30.7805 18.7573 29.8012 17.532 28.1063C16.3058 26.4095 15.9041 24.5107 16.2672 22.463C16.9134 18.8196 20.2786 16.2721 24.0897 16.5092C27.5413 16.7241 30.5572 19.7346 30.8128 23.2025C31.095 27.0333 28.4872 30.4884 24.4583 31.1562C27.6424 31.5411 30.2465 32.9632 32.2513 35.5042C33.7607 34.0546 35.5678 33.2829 37.6002 32.989C34.4418 32.3532 32.6815 29.6763 32.9563 26.9258C33.2321 24.1671 35.5926 22.0229 38.3264 21.9991C41.2127 21.9733 43.5787 24.01 43.9142 26.8845C44.2212 29.521 42.5832 32.3018 39.1959 32.9807C39.7006 33.0891 40.1142 33.1663 40.5223 33.2682C43.9666 34.1262 46.5018 36.9401 46.9283 40.4604C47.0359 41.3496 47.0092 42.2655 46.9347 43.1594C46.9099 43.4543 46.5413 43.7198 46.3299 43.9981H0C0 42.7772 0 41.5545 0 40.3327ZM32.6264 42.1415C32.6806 37.4931 28.9155 32.966 23.4131 33.0183C17.8473 33.0716 14.2459 37.7246 14.3571 42.1415H32.6273H32.6264ZM28.99 23.8529C29.0084 20.8627 26.543 18.3694 23.5308 18.3318C20.5287 18.2941 18.0008 20.7901 17.9825 23.8097C17.9641 26.8 20.4294 29.2932 23.4416 29.3309C26.4438 29.3685 28.9716 26.8725 28.99 23.8529ZM1.86599 42.1369H12.4102C12.5306 41.2872 12.5821 40.4585 12.7779 39.6657C12.9737 38.8739 13.3258 38.1206 13.5795 37.3406C13.6208 37.2129 13.5601 36.9906 13.4646 36.8886C12.7402 36.1188 11.8504 35.6016 10.8595 35.2452C6.21017 33.5723 1.38065 37.2543 1.86507 42.136L1.86599 42.1369ZM34.4988 42.1388H45.1377C45.1377 41.8218 45.1441 41.5343 45.1368 41.2468C45.0697 38.5992 43.3599 36.2217 40.8606 35.2948C38.2905 34.3421 35.1818 35.021 33.4748 36.9217C33.3902 37.0154 33.3406 37.2341 33.3911 37.3406C34.1008 38.8527 34.4703 40.4402 34.4997 42.1397L34.4988 42.1388ZM8.5137 31.1617C10.4698 31.1875 12.1832 29.5486 12.185 27.5395C12.1859 25.5129 10.706 23.9126 8.55047 23.8428C6.59531 23.7803 4.88099 25.4486 4.88007 27.4568C4.87915 29.4834 6.36092 31.0579 8.51462 31.1608L8.5137 31.1617ZM38.4459 31.1617C40.4222 31.1526 42.0813 29.499 42.1052 27.5156C42.1291 25.546 40.413 23.7941 38.4339 23.8446C36.3041 23.8988 34.7984 25.4753 34.7856 27.5285C34.7736 29.5256 36.4788 31.1718 38.4459 31.1627V31.1617Z" fill="#C30001"/>
<path d="M30.8044 5.7655C30.7079 5.91065 30.5728 6.20462 30.3586 6.42142C29.5644 7.22525 28.7325 7.99325 27.9429 8.80075C27.8004 8.94681 27.6993 9.23068 27.7278 9.42911C27.8951 10.5591 28.1001 11.6835 28.3069 12.807C28.3851 13.2314 28.329 13.6062 27.976 13.8791C27.6194 14.1556 27.2379 14.106 26.8583 13.9057C25.8333 13.3637 24.8029 12.8318 23.7844 12.2788C23.5408 12.1465 23.3533 12.1538 23.1125 12.2843C22.1069 12.8291 21.0884 13.3509 20.0791 13.8883C19.6857 14.0977 19.2941 14.1675 18.9227 13.8736C18.5753 13.5989 18.5256 13.2333 18.6056 12.8024C18.8161 11.6798 18.9834 10.5489 19.1875 9.42451C19.2362 9.15351 19.1764 8.97805 18.9751 8.78788C18.1552 8.00978 17.3592 7.20687 16.5411 6.42602C16.2175 6.11643 16.0226 5.77193 16.1633 5.3273C16.3058 4.879 16.6661 4.72375 17.1119 4.66587C18.2012 4.5244 19.2849 4.34893 20.3742 4.2047C20.7235 4.15877 20.9294 4.00444 21.081 3.67648C21.548 2.66687 22.0545 1.67656 22.538 0.674305C22.7237 0.290306 22.9755 0.0101154 23.4324 1.01927e-05C23.9131 -0.010095 24.1778 0.282038 24.37 0.677979C24.8489 1.66554 25.3553 2.64023 25.803 3.64157C25.9703 4.01454 26.201 4.16245 26.5807 4.21205C27.6846 4.35536 28.7858 4.51888 29.888 4.67873C30.434 4.75774 30.7925 5.1252 30.8035 5.7655H30.8044ZM20.7216 11.4547C21.3191 11.1424 21.8826 10.9072 22.3808 10.5728C23.1235 10.0749 23.8001 10.0905 24.5382 10.5811C25.0263 10.9054 25.5769 11.136 26.1854 11.452C26.0595 10.6987 25.9804 10.0345 25.8306 9.38593C25.678 8.72633 25.8021 8.2174 26.327 7.7498C26.8445 7.28955 27.2802 6.73928 27.7416 6.24045C27.1276 6.14858 26.4685 6.01262 25.8039 5.96118C25.1237 5.90789 24.6715 5.63689 24.4049 4.98648C24.1383 4.33607 23.7927 3.71782 23.4508 3.02056C23.0904 3.76007 22.7457 4.40681 22.458 5.07743C22.2181 5.63689 21.8182 5.88585 21.2318 5.9474C20.5258 6.02181 19.8254 6.14307 19.1222 6.2432C19.6774 6.82104 20.2041 7.38785 20.751 7.93353C21.0801 8.26149 21.2254 8.60415 21.1242 9.08277C20.9643 9.83975 20.8623 10.6087 20.7225 11.4529L20.7216 11.4547Z" fill="#C30001"/>
<path d="M13.3781 12.5304C13.232 12.7674 13.1198 13.0366 12.9323 13.2341C12.4387 13.755 11.9203 14.2529 11.3945 14.7416C11.1867 14.9355 11.0985 15.1082 11.1656 15.4104C11.3145 16.0783 11.4055 16.7599 11.5222 17.4351C11.5985 17.877 11.593 18.2922 11.1849 18.5908C10.7951 18.8756 10.4146 18.7837 10.0276 18.5743C9.41082 18.2408 8.77748 17.9358 8.17081 17.584C7.90791 17.4315 7.71028 17.4563 7.4621 17.5931C6.8352 17.9404 6.19359 18.2601 5.5621 18.6C5.18246 18.8049 4.80743 18.8618 4.44802 18.5816C4.11343 18.3216 4.03345 17.9726 4.11251 17.5592C4.24487 16.8711 4.34231 16.1766 4.47375 15.4885C4.53258 15.1798 4.49214 14.9474 4.23844 14.7205C3.71541 14.252 3.22547 13.7467 2.72083 13.258C2.41565 12.9622 2.23732 12.6269 2.38623 12.1924C2.53331 11.7624 2.8679 11.5998 3.29441 11.5429C4.03529 11.4437 4.77525 11.338 5.50878 11.1993C5.66872 11.169 5.85716 11.022 5.93529 10.8759C6.27356 10.2457 6.57782 9.59716 6.89035 8.95226C7.08063 8.56091 7.33065 8.25224 7.81324 8.24857C8.29398 8.24489 8.5532 8.53703 8.74439 8.93572C9.05417 9.58154 9.36394 10.2283 9.7068 10.8566C9.79137 11.0119 9.989 11.1699 10.1581 11.2021C10.9064 11.3435 11.6647 11.4372 12.4175 11.5511C12.9764 11.6366 13.3027 11.9838 13.3772 12.5286L13.3781 12.5304ZM7.89137 11.2673C7.54115 11.824 7.33984 12.4248 6.92252 12.7298C6.51072 13.0302 5.88106 13.0329 5.35895 13.1625C5.70825 13.586 6.21565 13.9645 6.371 14.4541C6.52634 14.9437 6.33147 15.5455 6.28184 16.2014C7.28837 15.2882 8.31328 15.2928 9.41449 16.1251C8.87492 14.8096 9.29684 13.8809 10.3953 13.1248C9.0082 13.201 8.18551 12.5947 7.89229 11.2664L7.89137 11.2673Z" fill="#C30001"/>
<path d="M42.7487 17.6878C42.7569 18.543 42.0887 18.9877 41.3974 18.6551C40.6832 18.3115 39.9966 17.911 39.2842 17.5647C39.1389 17.4939 38.9009 17.4921 38.7556 17.5619C38.0966 17.8789 37.4531 18.2289 36.8078 18.5752C36.4199 18.7837 36.0329 18.8811 35.6505 18.589C35.2957 18.318 35.2277 17.9533 35.3114 17.5252C35.4437 16.8527 35.5338 16.172 35.6662 15.5004C35.7314 15.1707 35.6754 14.9309 35.4088 14.6966C34.9051 14.252 34.4409 13.7642 33.9555 13.2993C33.6402 12.9971 33.4251 12.6636 33.5768 12.2043C33.7266 11.7505 34.0778 11.5962 34.5218 11.5401C35.2323 11.4501 35.9438 11.3509 36.646 11.2112C36.8317 11.1745 37.0514 11.0119 37.1424 10.8456C37.4936 10.2053 37.8006 9.5402 38.1223 8.88336C38.3107 8.49936 38.5847 8.2403 39.0415 8.25041C39.4772 8.26051 39.7337 8.51866 39.9129 8.88612C40.2337 9.54296 40.5711 10.1924 40.8781 10.8557C40.9865 11.09 41.1272 11.1965 41.3818 11.2287C42.108 11.3215 42.8286 11.4501 43.5548 11.5438C43.9868 11.5998 44.3242 11.7799 44.4584 12.2025C44.5862 12.6021 44.4446 12.9447 44.1413 13.2341C43.5888 13.7614 43.0382 14.2915 42.5078 14.8409C42.4049 14.9474 42.3396 15.1578 42.3608 15.3048C42.4784 16.1334 42.6273 16.9584 42.7487 17.6869V17.6878ZM36.4631 13.1358C37.6305 13.8965 37.8998 14.8859 37.4209 16.1637C38.4854 15.2993 39.5011 15.2735 40.5168 16.1738C40.5325 15.991 41.4636 13.1946 41.5528 13.0651C40.1979 13.2011 39.3752 12.5947 39.0158 11.2599C38.6508 12.5773 37.8493 13.2001 36.4622 13.1358H36.4631Z" fill="#C30001"/>
<path d="M30.1905 39.2974C30.1905 39.856 29.9625 40.1555 29.5388 40.2868C29.104 40.4219 28.7694 40.251 28.5102 39.8927C28.1011 39.3277 27.7059 38.7508 27.2637 38.2125C27.056 37.9589 26.7499 37.7862 26.4953 37.5685C26.0329 37.1744 25.9539 36.6609 26.2829 36.2383C26.6037 35.8267 27.1433 35.7762 27.6323 36.1198C28.6618 36.8428 29.4735 37.7578 30.0434 38.8804C30.1243 39.0393 30.1638 39.2193 30.1905 39.2974Z" fill="#C30001"/>
<path d="M24.3984 35.7624C24.3911 36.2713 23.9591 36.6801 23.4498 36.6599C22.9599 36.6406 22.5674 36.2263 22.5738 35.7348C22.5812 35.2259 23.0132 34.8171 23.5224 34.8373C24.0124 34.8556 24.4049 35.2709 24.3984 35.7624Z" fill="#C30001"/>
</svg>
